999
dxfrw 0.5.10
0
SECTION
2
HEADER
9
$ACADVER
1
AC1021
9
$HANDSEED
5
20000
9
$DWGCODEPAGE
3
ANSI_1252
9
$INSBASE
10
0
20
0
30
0
9
$EXTMIN
10
3.05311331772e-16
20
-12
30
0
9
$EXTMAX
10
21.44
20
1.455
30
0
9
$LIMMIN
10
0
20
0
9
$LIMMAX
10
3.19195438574
20
5.91445438574
9
$ORTHOMODE
70
0
9
$LTSCALE
40
1
9
$TEXTSTYLE
7
Standard
9
$CLAYER
8
0
9
$DIMASZ
40
0.0708661
9
$DIMLFAC
40
1
9
$DIMSCALE
40
1
9
$DIMEXO
40
0.0625
9
$DIMEXE
40
0.18
9
$DIMTXT
40
0.0708661
9
$DIMTSZ
40
0
9
$DIMAUNIT
70
0
9
$DIMADEC
70
0
9
$DIMLUNIT
70
2
9
$DIMSTYLE
2
Standard
9
$DIMGAP
40
0.09
9
$DIMTIH
70
1
9
$LUNITS
70
2
9
$LUPREC
70
4
9
$AUNITS
70
0
9
$AUPREC
70
0
9
$SPLINESEGS
70
8
9
$GRIDMODE
70
1
9
$SNAPSTYLE
70
0
9
$GRIDUNIT
10
0
20
0
9
$PINSBASE
10
0
20
0
30
0
9
$PLIMMIN
10
0
20
0
9
$PLIMMAX
10
3.19195
20
5.91445
9
$INSUNITS
70
1
9
$PSVPSCALE
40
0
0
ENDSEC
0
SECTION
2
CLASSES
0
ENDSEC
0
SECTION
2
TABLES
0
TABLE
2
VPORT
5
8
330
0
100
AcDbSymbolTable
70
1
0
VPORT
5
31
330
2
100
AcDbSymbolTableRecord
100
AcDbViewportTableRecord
2
*ACTIVE
70
0
10
0
20
0
11
1
21
1
12
14.1454379074
22
1.74132489028
13
0
23
0
14
10
24
10
15
10
25
10
16
0
26
0
36
1
17
0
27
0
37
0
40
16.3277476725
41
2.17590027701
42
50
43
0
44
0
50
0
51
0
71
0
72
100
73
1
74
3
75
0
76
1
77
0
78
0
281
0
65
1
110
0
120
0
130
0
111
1
121
0
131
0
112
0
122
1
132
0
79
0
146
0
348
10020
60
7
61
5
292
1
282
1
141
0
142
0
63
250
421
3358443
0
ENDTAB
0
TABLE
2
LTYPE
5
5
330
0
100
AcDbSymbolTable
70
4
0
LTYPE
5
14
330
5
100
AcDbSymbolTableRecord
100
AcDbLinetypeTableRecord
2
ByBlock
70
0
3

72
65
73
0
40
0
0
LTYPE
5
15
330
5
100
AcDbSymbolTableRecord
100
AcDbLinetypeTableRecord
2
ByLayer
70
0
3

72
65
73
0
40
0
0
LTYPE
5
16
330
5
100
AcDbSymbolTableRecord
100
AcDbLinetypeTableRecord
2
Continuous
70
0
3
Solid line
72
65
73
0
40
0
0
LTYPE
5
32
330
5
100
AcDbSymbolTableRecord
100
AcDbLinetypeTableRecord
2
DOT
70
0
3
Dot . . . . . . . . . . . . . . . . . . . . . .
72
65
73
2
40
6.35
49
0
74
0
49
-6.35
74
0
0
LTYPE
5
33
330
5
100
AcDbSymbolTableRecord
100
AcDbLinetypeTableRecord
2
DOT2
70
0
3
Dot (.5x) .....................................
72
65
73
2
40
3.175
49
0
74
0
49
-3.175
74
0
0
LTYPE
5
34
330
5
100
AcDbSymbolTableRecord
100
AcDbLinetypeTableRecord
2
DOTX2
70
0
3
Dot (2x) .  .  .  .  .  .  .  .  .  .  .  .  .
72
65
73
2
40
12.7
49
0
74
0
49
-12.7
74
0
0
LTYPE
5
35
330
5
100
AcDbSymbolTableRecord
100
AcDbLinetypeTableRecord
2
DASHED
70
0
3
Dot . . . . . . . . . . . . . . . . . . . . . .
72
65
73
2
40
19.05
49
12.7
74
0
49
-6.35
74
0
0
LTYPE
5
36
330
5
100
AcDbSymbolTableRecord
100
AcDbLinetypeTableRecord
2
DASHED2
70
0
3
Dashed (.5x) _ _ _ _ _ _ _ _ _ _ _ _ _ _ _ _ _
72
65
73
2
40
9.525
49
6.35
74
0
49
-3.175
74
0
0
LTYPE
5
37
330
5
100
AcDbSymbolTableRecord
100
AcDbLinetypeTableRecord
2
DASHEDX2
70
0
3
Dashed (2x) ____  ____  ____  ____  ____  ___
72
65
73
2
40
38.1
49
25.4
74
0
49
-12.7
74
0
0
LTYPE
5
38
330
5
100
AcDbSymbolTableRecord
100
AcDbLinetypeTableRecord
2
DASHDOT
70
0
3
Dash dot __ . __ . __ . __ . __ . __ . __ . __
72
65
73
4
40
25.4
49
12.7
74
0
49
-6.35
74
0
49
0
74
0
49
-6.35
74
0
0
LTYPE
5
39
330
5
100
AcDbSymbolTableRecord
100
AcDbLinetypeTableRecord
2
DASHDOT2
70
0
3
Dash dot (.5x) _._._._._._._._._._._._._._._.
72
65
73
4
40
12.7
49
6.35
74
0
49
-3.175
74
0
49
0
74
0
49
-3.175
74
0
0
LTYPE
5
3A
330
5
100
AcDbSymbolTableRecord
100
AcDbLinetypeTableRecord
2
DASHDOTX2
70
0
3
Dash dot (2x) ____  .  ____  .  ____  .  ___
72
65
73
4
40
50.8
49
25.4
74
0
49
-12.7
74
0
49
0
74
0
49
-12.7
74
0
0
LTYPE
5
3B
330
5
100
AcDbSymbolTableRecord
100
AcDbLinetypeTableRecord
2
DIVIDE
70
0
3
Divide ____ . . ____ . . ____ . . ____ . . ____
72
65
73
6
40
31.75
49
12.7
74
0
49
-6.35
74
0
49
0
74
0
49
-6.35
74
0
49
0
74
0
49
-6.35
74
0
0
LTYPE
5
3C
330
5
100
AcDbSymbolTableRecord
100
AcDbLinetypeTableRecord
2
DIVIDE2
70
0
3
Divide (.5x) __..__..__..__..__..__..__..__.._
72
65
73
6
40
15.875
49
6.35
74
0
49
-3.175
74
0
49
0
74
0
49
-3.175
74
0
49
0
74
0
49
-3.175
74
0
0
LTYPE
5
3D
330
5
100
AcDbSymbolTableRecord
100
AcDbLinetypeTableRecord
2
DIVIDEX2
70
0
3
Divide (2x) ________  .  .  ________  .  .  _
72
65
73
6
40
63.5
49
25.4
74
0
49
-12.7
74
0
49
0
74
0
49
-12.7
74
0
49
0
74
0
49
-12.7
74
0
0
LTYPE
5
3E
330
5
100
AcDbSymbolTableRecord
100
AcDbLinetypeTableRecord
2
BORDER
70
0
3
Border __ __ . __ __ . __ __ . __ __ . __ __ .
72
65
73
6
40
44.45
49
12.7
74
0
49
-6.35
74
0
49
12.7
74
0
49
-6.35
74
0
49
0
74
0
49
-6.35
74
0
0
LTYPE
5
3F
330
5
100
AcDbSymbolTableRecord
100
AcDbLinetypeTableRecord
2
BORDER2
70
0
3
Border (.5x) __.__.__.__.__.__.__.__.__.__.__.
72
65
73
6
40
22.225
49
6.35
74
0
49
-3.175
74
0
49
6.35
74
0
49
-3.175
74
0
49
0
74
0
49
-3.175
74
0
0
LTYPE
5
40
330
5
100
AcDbSymbolTableRecord
100
AcDbLinetypeTableRecord
2
BORDERX2
70
0
3
Border (2x) ____  ____  .  ____  ____  .  ___
72
65
73
6
40
88.9
49
25.4
74
0
49
-12.7
74
0
49
25.4
74
0
49
-12.7
74
0
49
0
74
0
49
-12.7
74
0
0
LTYPE
5
41
330
5
100
AcDbSymbolTableRecord
100
AcDbLinetypeTableRecord
2
CENTER
70
0
3
Center ____ _ ____ _ ____ _ ____ _ ____ _ ____
72
65
73
4
40
50.8
49
31.75
74
0
49
-6.35
74
0
49
6.35
74
0
49
-6.35
74
0
0
LTYPE
5
42
330
5
100
AcDbSymbolTableRecord
100
AcDbLinetypeTableRecord
2
CENTER2
70
0
3
Center (.5x) ___ _ ___ _ ___ _ ___ _ ___ _ ___
72
65
73
4
40
28.575
49
19.05
74
0
49
-3.175
74
0
49
3.175
74
0
49
-3.175
74
0
0
LTYPE
5
43
330
5
100
AcDbSymbolTableRecord
100
AcDbLinetypeTableRecord
2
CENTERX2
70
0
3
Center (2x) ________  __  ________  __  _____
72
65
73
4
40
101.6
49
63.5
74
0
49
-12.7
74
0
49
12.7
74
0
49
-12.7
74
0
0
ENDTAB
0
TABLE
2
LAYER
5
2
330
0
100
AcDbSymbolTable
70
1
0
LAYER
5
10
330
2
100
AcDbSymbolTableRecord
100
AcDbLayerTableRecord
2
0
70
0
62
7
6
CONTINUOUS
370
-3
390
F
0
ENDTAB
0
TABLE
2
STYLE
5
3
330
0
100
AcDbSymbolTable
70
3
0
STYLE
5
44
330
2
100
AcDbSymbolTableRecord
100
AcDbTextStyleTableRecord
2
Standard
70
0
40
0
41
1
50
0
71
0
42
1
3
txt
4

0
ENDTAB
0
TABLE
2
VIEW
5
6
330
0
100
AcDbSymbolTable
70
0
0
ENDTAB
0
TABLE
2
UCS
5
7
330
0
100
AcDbSymbolTable
70
0
0
ENDTAB
0
TABLE
2
APPID
5
9
330
0
100
AcDbSymbolTable
70
1
0
APPID
5
12
330
9
100
AcDbSymbolTableRecord
100
AcDbRegAppTableRecord
2
ACAD
70
0
0
ENDTAB
0
TABLE
2
DIMSTYLE
5
A
330
0
100
AcDbSymbolTable
70
1
100
AcDbDimStyleTable
71
1
0
DIMSTYLE
105
45
330
A
100
AcDbSymbolTableRecord
100
AcDbDimStyleTableRecord
2
Standard
70
0
40
1
41
0.0708661
42
0.0625
43
0.38
44
0.18
45
0
46
0
47
0
48
0
140
0.0708661
141
0.09
142
0
143
25.4
144
1
145
0
146
1
147
0.09
148
0
71
0
72
0
73
0
74
1
75
0
76
0
77
0
78
0
79
0
170
0
171
2
172
0
173
0
174
0
175
0
176
0
177
0
178
0
179
0
271
4
272
4
273
2
274
2
275
0
276
0
277
2
278
46
279
0
280
0
281
0
282
0
283
1
284
0
285
0
286
0
288
0
289
3
340
Standard
341

371
-2
372
-2
0
ENDTAB
0
TABLE
2
BLOCK_RECORD
5
1
330
0
100
AcDbSymbolTable
70
2
0
BLOCK_RECORD
5
1F
330
1
100
AcDbSymbolTableRecord
100
AcDbBlockTableRecord
2
*Model_Space
70
0
280
1
281
0
0
BLOCK_RECORD
5
1E
330
1
100
AcDbSymbolTableRecord
100
AcDbBlockTableRecord
2
*Paper_Space
70
0
280
1
281
0
0
ENDTAB
0
ENDSEC
0
SECTION
2
BLOCKS
0
BLOCK
5
20
330
1F
100
AcDbEntity
8
0
100
AcDbBlockBegin
2
*Model_Space
70
0
10
0
20
0
30
0
3
*Model_Space
1

0
ENDBLK
5
21
330
1F
100
AcDbEntity
8
0
100
AcDbBlockEnd
0
BLOCK
5
1C
330
1B
100
AcDbEntity
8
0
100
AcDbBlockBegin
2
*Paper_Space
70
0
10
0
20
0
30
0
3
*Paper_Space
1

0
ENDBLK
5
1D
330
1F
100
AcDbEntity
8
0
100
AcDbBlockEnd
0
ENDSEC
0
SECTION
2
ENTITIES
0
LWPOLYLINE
5
46
100
AcDbEntity
8
0
6
ByLayer
62
256
370
-1
100
AcDbPolyline
90
28
70
1
43
0
10
3.2
20
-1.825
10
3.06
20
-1.825
10
3.06
20
-3.075
10
3.2
20
-3.075
10
3.2
20
-3.2
10
3.95
20
-3.2
10
3.95
20
-3.075
10
4.975
20
-3.075
10
4.975
20
-3.2
10
5.725
20
-3.2
10
5.725
20
-3.075
10
6.75
20
-3.075
10
6.75
20
-3.2
10
7.5
20
-3.2
10
7.5
20
-3.075
10
7.64
20
-3.075
10
7.64
20
-1.825
10
7.5
20
-1.825
10
7.5
20
-1.7
10
6.75
20
-1.7
10
6.75
20
-1.825
10
5.725
20
-1.825
10
5.725
20
-1.7
10
4.975
20
-1.7
10
4.975
20
-1.825
10
3.95
20
-1.825
10
3.95
20
-1.7
10
3.2
20
-1.7
0
LWPOLYLINE
5
47
100
AcDbEntity
8
0
6
ByLayer
62
256
370
-1
100
AcDbPolyline
90
28
70
1
43
0
10
6.55
20
-3.425
10
6.55
20
-3.5951496063
42
-1
10
6.05
20
-3.5951496063
10
6.05
20
-3.425
10
5.775
20
-3.425
10
5.775
20
-3.3
10
5.4
20
-3.3
10
5.4
20
-3.425
10
5.26
20
-3.425
10
5.26
20
-4.675
10
5.4
20
-4.675
10
5.4
20
-4.8
10
5.775
20
-4.8
10
5.775
20
-4.675
10
6.1125
20
-4.675
10
6.1125
20
-4.8
10
6.4875
20
-4.8
10
6.4875
20
-4.675
10
6.825
20
-4.675
10
6.825
20
-4.8
10
7.2
20
-4.8
10
7.2
20
-4.675
10
7.34
20
-4.675
10
7.34
20
-3.425
10
7.2
20
-3.425
10
7.2
20
-3.3
10
6.825
20
-3.3
10
6.825
20
-3.425
0
LWPOLYLINE
5
48
100
AcDbEntity
8
0
6
ByLayer
62
256
370
-1
100
AcDbPolyline
90
28
70
1
43
0
10
3.975
20
-0.225
10
3.8
20
-0.225
10
3.8
20
-0.1
10
3.2
20
-0.1
10
3.2
20
-0.225
10
3.06
20
-0.225
10
3.06
20
-1.475
10
3.2
20
-1.475
10
3.2
20
-1.6
10
3.95
20
-1.6
10
3.95
20
-1.475
10
4.975
20
-1.475
10
4.975
20
-1.6
10
5.725
20
-1.6
10
5.725
20
-1.475
10
6.75
20
-1.475
10
6.75
20
-1.6
10
7.5
20
-1.6
10
7.5
20
-1.475
10
7.64
20
-1.475
10
7.64
20
-0.225
10
7.5
20
-0.225
10
7.5
20
-0.1
10
7
20
-0.1
10
7
20
-0.225
10
6.875
20
-0.225
10
6.875
20
-0.767
10
3.975
20
-0.767
0
LWPOLYLINE
5
49
100
AcDbEntity
8
0
6
ByLayer
62
256
370
-1
100
AcDbPolyline
90
36
70
1
43
0
10
2.125
20
-5.15
42
0.414213562373
10
2.25
20
-5.275
10
2.675
20
-5.275
42
0.414213562373
10
2.8
20
-5.15
10
2.8
20
-0.2
42
0.414213562373
10
2.675
20
-0.075
10
1.825
20
-0.075
42
0.414213562373
10
1.7
20
-0.2
10
1.7
20
-0.375
10
1.2
20
-0.375
10
1.2
20
-0.2
42
0.414213562373
10
1.075
20
-0.075
10
0.225
20
-0.075
42
0.414213562373
10
0.1
20
-0.2
10
0.1
20
-1.2
42
0.414213562373
10
0.225
20
-1.325
10
1.025
20
-1.325
10
1.025
20
-4.175
10
0.225
20
-4.175
42
0.414213562373
10
0.1
20
-4.3
10
0.1
20
-5.15
42
0.414213562373
10
0.225
20
-5.275
10
1.3
20
-5.275
42
0.414213562373
10
1.425
20
-5.15
10
1.425
20
-5.1375
10
1.2625
20
-5.1375
10
1.2625
20
-5.0125
10
1.425
20
-5.0125
10
1.425
20
-4.275
10
2.3
20
-4.275
10
2.3
20
-4.8875
10
2.125
20
-4.8875
10
2.125
20
-5.0125
10
2.35
20
-5.0125
10
2.35
20
-5.1375
10
2.125
20
-5.1375
0
LWPOLYLINE
5
4A
100
AcDbEntity
8
0
6
ByLayer
62
256
370
-1
100
AcDbPolyline
90
4
70
1
43
0
10
1.1
20
-0.475
10
1.1
20
-0.925
10
0.575
20
-0.925
10
0.575
20
-0.475
0
LWPOLYLINE
5
4B
100
AcDbEntity
8
0
6
ByLayer
62
256
370
-1
100
AcDbPolyline
90
4
70
1
43
0
10
2.25
20
-1
10
1.7
20
-1
10
1.7
20
-0.575
10
2.25
20
-0.575
0
LWPOLYLINE
5
4C
100
AcDbEntity
8
0
6
ByLayer
62
256
370
-1
100
AcDbPolyline
90
4
70
1
43
0
10
0.2375
20
-1.125
10
0.2375
20
-0.525
10
0.3625
20
-0.525
10
0.3625
20
-1.125
0
LWPOLYLINE
5
4D
100
AcDbEntity
8
0
6
ByLayer
62
256
370
-1
100
AcDbPolyline
90
4
70
1
43
0
10
0.3625
20
-4.325
10
0.3625
20
-4.825
10
0.2375
20
-4.825
10
0.2375
20
-4.325
0
LWPOLYLINE
5
4E
100
AcDbEntity
8
0
6
ByLayer
62
256
370
-1
100
AcDbPolyline
90
4
70
1
43
0
10
2.6625
20
-2.3
10
2.6625
20
-3.05
10
2.5375
20
-3.05
10
2.5375
20
-2.3
0
LWPOLYLINE
5
4F
100
AcDbEntity
8
0
6
ByLayer
62
256
370
-1
100
AcDbPolyline
90
4
70
1
43
0
10
2.5375
20
-1.275
10
2.5375
20
-0.525
10
2.6625
20
-0.525
10
2.6625
20
-1.275
0
LWPOLYLINE
5
50
100
AcDbEntity
8
0
6
ByLayer
62
256
370
-1
100
AcDbPolyline
90
4
70
1
43
0
10
2.6625
20
-4.075
10
2.6625
20
-4.825
10
2.5375
20
-4.825
10
2.5375
20
-4.075
0
LWPOLYLINE
5
51
100
AcDbEntity
8
0
6
ByLayer
62
256
370
-1
100
AcDbPolyline
90
4
70
1
43
0
10
0.925
20
-5.0125
10
0.925
20
-5.1375
10
0.55
20
-5.1375
10
0.55
20
-5.0125
0
LWPOLYLINE
5
52
100
AcDbEntity
8
0
6
ByLayer
62
256
370
-1
100
AcDbPolyline
90
4
70
1
43
0
10
1.975
20
-0.3375
10
1.975
20
-0.2125
10
2.35
20
-0.2125
10
2.35
20
-0.3375
0
LWPOLYLINE
5
53
100
AcDbEntity
8
0
6
ByLayer
62
256
370
-1
100
AcDbPolyline
90
4
70
1
43
0
10
0.925
20
-0.2125
10
0.925
20
-0.3375
10
0.55
20
-0.3375
10
0.55
20
-0.2125
0
CIRCLE
5
54
100
AcDbEntity
8
0
6
ByLayer
62
256
370
-1
100
AcDbCircle
10
0.3
20
-5.075
40
0.055
0
CIRCLE
5
55
100
AcDbEntity
8
0
6
ByLayer
62
256
370
-1
100
AcDbCircle
10
0.3
20
-0.275
40
0.055
0
CIRCLE
5
56
100
AcDbEntity
8
0
6
ByLayer
62
256
370
-1
100
AcDbCircle
10
2.6
20
-5.075
40
0.055
0
CIRCLE
5
57
100
AcDbEntity
8
0
6
ByLayer
62
256
370
-1
100
AcDbCircle
10
2.6
20
-0.275
40
0.055
0
CIRCLE
5
58
100
AcDbEntity
8
0
6
ByLayer
62
256
370
-1
100
AcDbCircle
10
1.025
20
-4.525
40
0.24
0
LWPOLYLINE
5
59
100
AcDbEntity
8
0
6
ByLayer
62
256
370
-1
100
AcDbPolyline
90
28
70
1
43
0
10
4.075
20
-3.516
10
4.075
20
-3.3
10
3.9125
20
-3.3
10
3.9125
20
-3.425
10
3.575
20
-3.425
10
3.575
20
-3.3
10
3.2
20
-3.3
10
3.2
20
-3.425
10
3.06
20
-3.425
10
3.06
20
-4.675
10
3.2
20
-4.675
10
3.2
20
-4.8
10
3.575
20
-4.8
10
3.575
20
-4.675
10
3.9125
20
-4.675
10
3.9125
20
-4.8
10
4.2875
20
-4.8
10
4.2875
20
-4.675
10
4.625
20
-4.675
10
4.625
20
-4.8
10
5
20
-4.8
10
5
20
-4.675
10
5.14
20
-4.675
10
5.14
20
-3.425
10
5
20
-3.425
10
5
20
-3.3
10
4.775
20
-3.3
10
4.775
20
-3.516
42
-1
0
LWPOLYLINE
5
5A
100
AcDbEntity
8
0
6
ByLayer
62
256
370
-1
100
AcDbPolyline
90
4
70
1
43
0
10
3.3615
20
-3.876
10
3.9385
20
-3.876
10
3.9385
20
-4.399
10
3.3615
20
-4.399
0
LWPOLYLINE
5
5B
100
AcDbEntity
8
0
6
ByLayer
62
256
370
-1
100
AcDbPolyline
90
36
70
1
43
0
10
2.125
20
-10.45
42
0.414213562373
10
2.25
20
-10.575
10
2.675
20
-10.575
42
0.414213562373
10
2.8
20
-10.45
10
2.8
20
-5.5
42
0.414213562373
10
2.675
20
-5.375
10
1.825
20
-5.375
42
0.414213562373
10
1.7
20
-5.5
10
1.7
20
-5.675
10
1.2
20
-5.675
10
1.2
20
-5.5
42
0.414213562373
10
1.075
20
-5.375
10
0.225
20
-5.375
42
0.414213562373
10
0.1
20
-5.5
10
0.1
20
-6.5
42
0.414213562373
10
0.225
20
-6.625
10
1.025
20
-6.625
10
1.025
20
-9.475
10
0.225
20
-9.475
42
0.414213562373
10
0.1
20
-9.6
10
0.1
20
-10.45
42
0.414213562373
10
0.225
20
-10.575
10
1.3
20
-10.575
42
0.414213562373
10
1.425
20
-10.45
10
1.425
20
-10.4375
10
1.2625
20
-10.4375
10
1.2625
20
-10.3125
10
1.425
20
-10.3125
10
1.425
20
-9.575
10
2.3
20
-9.575
10
2.3
20
-10.1875
10
2.125
20
-10.1875
10
2.125
20
-10.3125
10
2.35
20
-10.3125
10
2.35
20
-10.4375
10
2.125
20
-10.4375
0
LWPOLYLINE
5
5C
100
AcDbEntity
8
0
6
ByLayer
62
256
370
-1
100
AcDbPolyline
90
4
70
1
43
0
10
1.1
20
-5.775
10
1.1
20
-6.225
10
0.575
20
-6.225
10
0.575
20
-5.775
0
LWPOLYLINE
5
5D
100
AcDbEntity
8
0
6
ByLayer
62
256
370
-1
100
AcDbPolyline
90
4
70
1
43
0
10
2.25
20
-6.3
10
1.7
20
-6.3
10
1.7
20
-5.875
10
2.25
20
-5.875
0
LWPOLYLINE
5
5E
100
AcDbEntity
8
0
6
ByLayer
62
256
370
-1
100
AcDbPolyline
90
4
70
1
43
0
10
0.2375
20
-6.425
10
0.2375
20
-5.825
10
0.3625
20
-5.825
10
0.3625
20
-6.425
0
LWPOLYLINE
5
5F
100
AcDbEntity
8
0
6
ByLayer
62
256
370
-1
100
AcDbPolyline
90
4
70
1
43
0
10
0.3625
20
-9.625
10
0.3625
20
-10.125
10
0.2375
20
-10.125
10
0.2375
20
-9.625
0
LWPOLYLINE
5
60
100
AcDbEntity
8
0
6
ByLayer
62
256
370
-1
100
AcDbPolyline
90
4
70
1
43
0
10
2.6625
20
-7.6
10
2.6625
20
-8.35
10
2.5375
20
-8.35
10
2.5375
20
-7.6
0
LWPOLYLINE
5
61
100
AcDbEntity
8
0
6
ByLayer
62
256
370
-1
100
AcDbPolyline
90
4
70
1
43
0
10
2.5375
20
-6.575
10
2.5375
20
-5.825
10
2.6625
20
-5.825
10
2.6625
20
-6.575
0
LWPOLYLINE
5
62
100
AcDbEntity
8
0
6
ByLayer
62
256
370
-1
100
AcDbPolyline
90
4
70
1
43
0
10
2.6625
20
-9.375
10
2.6625
20
-10.125
10
2.5375
20
-10.125
10
2.5375
20
-9.375
0
LWPOLYLINE
5
63
100
AcDbEntity
8
0
6
ByLayer
62
256
370
-1
100
AcDbPolyline
90
4
70
1
43
0
10
0.925
20
-10.3125
10
0.925
20
-10.4375
10
0.55
20
-10.4375
10
0.55
20
-10.3125
0
LWPOLYLINE
5
64
100
AcDbEntity
8
0
6
ByLayer
62
256
370
-1
100
AcDbPolyline
90
4
70
1
43
0
10
1.975
20
-5.6375
10
1.975
20
-5.5125
10
2.35
20
-5.5125
10
2.35
20
-5.6375
0
LWPOLYLINE
5
65
100
AcDbEntity
8
0
6
ByLayer
62
256
370
-1
100
AcDbPolyline
90
4
70
1
43
0
10
0.925
20
-5.5125
10
0.925
20
-5.6375
10
0.55
20
-5.6375
10
0.55
20
-5.5125
0
CIRCLE
5
66
100
AcDbEntity
8
0
6
ByLayer
62
256
370
-1
100
AcDbCircle
10
0.3
20
-10.375
40
0.055
0
CIRCLE
5
67
100
AcDbEntity
8
0
6
ByLayer
62
256
370
-1
100
AcDbCircle
10
0.3
20
-5.575
40
0.055
0
CIRCLE
5
68
100
AcDbEntity
8
0
6
ByLayer
62
256
370
-1
100
AcDbCircle
10
2.6
20
-10.375
40
0.055
0
CIRCLE
5
69
100
AcDbEntity
8
0
6
ByLayer
62
256
370
-1
100
AcDbCircle
10
2.6
20
-5.575
40
0.055
0
CIRCLE
5
6A
100
AcDbEntity
8
0
6
ByLayer
62
256
370
-1
100
AcDbCircle
10
1.025
20
-9.825
40
0.24
0
LWPOLYLINE
5
6B
100
AcDbEntity
8
0
6
ByLayer
62
256
370
-1
100
AcDbPolyline
90
36
70
1
43
0
10
9.825
20
-5.15
42
0.414213562373
10
9.95
20
-5.275
10
10.375
20
-5.275
42
0.414213562373
10
10.5
20
-5.15
10
10.5
20
-0.2
42
0.414213562373
10
10.375
20
-0.075
10
9.525
20
-0.075
42
0.414213562373
10
9.4
20
-0.2
10
9.4
20
-0.375
10
8.9
20
-0.375
10
8.9
20
-0.2
42
0.414213562373
10
8.775
20
-0.075
10
7.925
20
-0.075
42
0.414213562373
10
7.8
20
-0.2
10
7.8
20
-1.2
42
0.414213562373
10
7.925
20
-1.325
10
8.725
20
-1.325
10
8.725
20
-4.175
10
7.925
20
-4.175
42
0.414213562373
10
7.8
20
-4.3
10
7.8
20
-5.15
42
0.414213562373
10
7.925
20
-5.275
10
9
20
-5.275
42
0.414213562373
10
9.125
20
-5.15
10
9.125
20
-5.1375
10
8.9625
20
-5.1375
10
8.9625
20
-5.0125
10
9.125
20
-5.0125
10
9.125
20
-4.275
10
10
20
-4.275
10
10
20
-4.8875
10
9.825
20
-4.8875
10
9.825
20
-5.0125
10
10.05
20
-5.0125
10
10.05
20
-5.1375
10
9.825
20
-5.1375
0
LWPOLYLINE
5
6C
100
AcDbEntity
8
0
6
ByLayer
62
256
370
-1
100
AcDbPolyline
90
4
70
1
43
0
10
8.8
20
-0.475
10
8.8
20
-0.925
10
8.275
20
-0.925
10
8.275
20
-0.475
0
LWPOLYLINE
5
6D
100
AcDbEntity
8
0
6
ByLayer
62
256
370
-1
100
AcDbPolyline
90
4
70
1
43
0
10
9.95
20
-1
10
9.4
20
-1
10
9.4
20
-0.575
10
9.95
20
-0.575
0
LWPOLYLINE
5
6E
100
AcDbEntity
8
0
6
ByLayer
62
256
370
-1
100
AcDbPolyline
90
4
70
1
43
0
10
7.9375
20
-1.125
10
7.9375
20
-0.525
10
8.0625
20
-0.525
10
8.0625
20
-1.125
0
LWPOLYLINE
5
6F
100
AcDbEntity
8
0
6
ByLayer
62
256
370
-1
100
AcDbPolyline
90
4
70
1
43
0
10
8.0625
20
-4.325
10
8.0625
20
-4.825
10
7.9375
20
-4.825
10
7.9375
20
-4.325
0
LWPOLYLINE
5
70
100
AcDbEntity
8
0
6
ByLayer
62
256
370
-1
100
AcDbPolyline
90
4
70
1
43
0
10
10.3625
20
-2.3
10
10.3625
20
-3.05
10
10.2375
20
-3.05
10
10.2375
20
-2.3
0
LWPOLYLINE
5
71
100
AcDbEntity
8
0
6
ByLayer
62
256
370
-1
100
AcDbPolyline
90
4
70
1
43
0
10
10.2375
20
-1.275
10
10.2375
20
-0.525
10
10.3625
20
-0.525
10
10.3625
20
-1.275
0
LWPOLYLINE
5
72
100
AcDbEntity
8
0
6
ByLayer
62
256
370
-1
100
AcDbPolyline
90
4
70
1
43
0
10
10.3625
20
-4.075
10
10.3625
20
-4.825
10
10.2375
20
-4.825
10
10.2375
20
-4.075
0
LWPOLYLINE
5
73
100
AcDbEntity
8
0
6
ByLayer
62
256
370
-1
100
AcDbPolyline
90
4
70
1
43
0
10
8.625
20
-5.0125
10
8.625
20
-5.1375
10
8.25
20
-5.1375
10
8.25
20
-5.0125
0
LWPOLYLINE
5
74
100
AcDbEntity
8
0
6
ByLayer
62
256
370
-1
100
AcDbPolyline
90
4
70
1
43
0
10
9.675
20
-0.3375
10
9.675
20
-0.2125
10
10.05
20
-0.2125
10
10.05
20
-0.3375
0
LWPOLYLINE
5
75
100
AcDbEntity
8
0
6
ByLayer
62
256
370
-1
100
AcDbPolyline
90
4
70
1
43
0
10
8.625
20
-0.2125
10
8.625
20
-0.3375
10
8.25
20
-0.3375
10
8.25
20
-0.2125
0
CIRCLE
5
76
100
AcDbEntity
8
0
6
ByLayer
62
256
370
-1
100
AcDbCircle
10
8
20
-5.075
40
0.055
0
CIRCLE
5
77
100
AcDbEntity
8
0
6
ByLayer
62
256
370
-1
100
AcDbCircle
10
8
20
-0.275
40
0.055
0
CIRCLE
5
78
100
AcDbEntity
8
0
6
ByLayer
62
256
370
-1
100
AcDbCircle
10
10.3
20
-5.075
40
0.055
0
CIRCLE
5
79
100
AcDbEntity
8
0
6
ByLayer
62
256
370
-1
100
AcDbCircle
10
10.3
20
-0.275
40
0.055
0
CIRCLE
5
7A
100
AcDbEntity
8
0
6
ByLayer
62
256
370
-1
100
AcDbCircle
10
8.725
20
-4.525
40
0.24
0
LWPOLYLINE
5
7B
100
AcDbEntity
8
0
6
ByLayer
62
256
370
-1
100
AcDbPolyline
90
28
70
1
43
0
10
9.5
20
-9.84
10
9.5
20
-9.98
10
10.75
20
-9.98
10
10.75
20
-9.84
10
10.875
20
-9.84
10
10.875
20
-9.09
10
10.75
20
-9.09
10
10.75
20
-8.065
10
10.875
20
-8.065
10
10.875
20
-7.315
10
10.75
20
-7.315
10
10.75
20
-6.29
10
10.875
20
-6.29
10
10.875
20
-5.54
10
10.75
20
-5.54
10
10.75
20
-5.4
10
9.5
20
-5.4
10
9.5
20
-5.54
10
9.375
20
-5.54
10
9.375
20
-6.29
10
9.5
20
-6.29
10
9.5
20
-7.315
10
9.375
20
-7.315
10
9.375
20
-8.065
10
9.5
20
-8.065
10
9.5
20
-9.09
10
9.375
20
-9.09
10
9.375
20
-9.84
0
LWPOLYLINE
5
7C
100
AcDbEntity
8
0
6
ByLayer
62
256
370
-1
100
AcDbPolyline
90
28
70
1
43
0
10
7.9
20
-9.065
10
7.9
20
-9.24
10
7.775
20
-9.24
10
7.775
20
-9.84
10
7.9
20
-9.84
10
7.9
20
-9.98
10
9.15
20
-9.98
10
9.15
20
-9.84
10
9.275
20
-9.84
10
9.275
20
-9.09
10
9.15
20
-9.09
10
9.15
20
-8.065
10
9.275
20
-8.065
10
9.275
20
-7.315
10
9.15
20
-7.315
10
9.15
20
-6.29
10
9.275
20
-6.29
10
9.275
20
-5.54
10
9.15
20
-5.54
10
9.15
20
-5.4
10
7.9
20
-5.4
10
7.9
20
-5.54
10
7.775
20
-5.54
10
7.775
20
-6.04
10
7.9
20
-6.04
10
7.9
20
-6.165
10
8.442
20
-6.165
10
8.442
20
-9.065
0
LWPOLYLINE
5
7D
100
AcDbEntity
8
0
6
ByLayer
62
256
370
-1
100
AcDbPolyline
90
28
70
1
43
0
10
3.2
20
-6.625
10
3.06
20
-6.625
10
3.06
20
-7.875
10
3.2
20
-7.875
10
3.2
20
-8
10
3.95
20
-8
10
3.95
20
-7.875
10
4.975
20
-7.875
10
4.975
20
-8
10
5.725
20
-8
10
5.725
20
-7.875
10
6.75
20
-7.875
10
6.75
20
-8
10
7.5
20
-8
10
7.5
20
-7.875
10
7.64
20
-7.875
10
7.64
20
-6.625
10
7.5
20
-6.625
10
7.5
20
-6.5
10
6.75
20
-6.5
10
6.75
20
-6.625
10
5.725
20
-6.625
10
5.725
20
-6.5
10
4.975
20
-6.5
10
4.975
20
-6.625
10
3.95
20
-6.625
10
3.95
20
-6.5
10
3.2
20
-6.5
0
LWPOLYLINE
5
7E
100
AcDbEntity
8
0
6
ByLayer
62
256
370
-1
100
AcDbPolyline
90
28
70
1
43
0
10
6.55
20
-8.225
10
6.55
20
-8.3951496063
42
-1
10
6.05
20
-8.3951496063
10
6.05
20
-8.225
10
5.775
20
-8.225
10
5.775
20
-8.1
10
5.4
20
-8.1
10
5.4
20
-8.225
10
5.26
20
-8.225
10
5.26
20
-9.475
10
5.4
20
-9.475
10
5.4
20
-9.6
10
5.775
20
-9.6
10
5.775
20
-9.475
10
6.1125
20
-9.475
10
6.1125
20
-9.6
10
6.4875
20
-9.6
10
6.4875
20
-9.475
10
6.825
20
-9.475
10
6.825
20
-9.6
10
7.2
20
-9.6
10
7.2
20
-9.475
10
7.34
20
-9.475
10
7.34
20
-8.225
10
7.2
20
-8.225
10
7.2
20
-8.1
10
6.825
20
-8.1
10
6.825
20
-8.225
0
LWPOLYLINE
5
7F
100
AcDbEntity
8
0
6
ByLayer
62
256
370
-1
100
AcDbPolyline
90
28
70
1
43
0
10
3.975
20
-5.025
10
3.8
20
-5.025
10
3.8
20
-4.9
10
3.2
20
-4.9
10
3.2
20
-5.025
10
3.06
20
-5.025
10
3.06
20
-6.275
10
3.2
20
-6.275
10
3.2
20
-6.4
10
3.95
20
-6.4
10
3.95
20
-6.275
10
4.975
20
-6.275
10
4.975
20
-6.4
10
5.725
20
-6.4
10
5.725
20
-6.275
10
6.75
20
-6.275
10
6.75
20
-6.4
10
7.5
20
-6.4
10
7.5
20
-6.275
10
7.64
20
-6.275
10
7.64
20
-5.025
10
7.5
20
-5.025
10
7.5
20
-4.9
10
7
20
-4.9
10
7
20
-5.025
10
6.875
20
-5.025
10
6.875
20
-5.567
10
3.975
20
-5.567
0
LWPOLYLINE
5
80
100
AcDbEntity
8
0
6
ByLayer
62
256
370
-1
100
AcDbPolyline
90
28
70
1
43
0
10
4.075
20
-8.316
10
4.075
20
-8.1
10
3.9125
20
-8.1
10
3.9125
20
-8.225
10
3.575
20
-8.225
10
3.575
20
-8.1
10
3.2
20
-8.1
10
3.2
20
-8.225
10
3.06
20
-8.225
10
3.06
20
-9.475
10
3.2
20
-9.475
10
3.2
20
-9.6
10
3.575
20
-9.6
10
3.575
20
-9.475
10
3.9125
20
-9.475
10
3.9125
20
-9.6
10
4.2875
20
-9.6
10
4.2875
20
-9.475
10
4.625
20
-9.475
10
4.625
20
-9.6
10
5
20
-9.6
10
5
20
-9.475
10
5.14
20
-9.475
10
5.14
20
-8.225
10
5
20
-8.225
10
5
20
-8.1
10
4.775
20
-8.1
10
4.775
20
-8.316
42
-1
0
LWPOLYLINE
5
81
100
AcDbEntity
8
0
6
ByLayer
62
256
370
-1
100
AcDbPolyline
90
4
70
1
43
0
10
3.3615
20
-8.676
10
3.9385
20
-8.676
10
3.9385
20
-9.199
10
3.3615
20
-9.199
0
LWPOLYLINE
5
82
100
AcDbEntity
8
0
6
ByLayer
62
256
370
-1
100
AcDbPolyline
90
28
70
1
43
0
10
6.55
20
-9.825
10
6.55
20
-9.9951496063
42
-1
10
6.05
20
-9.9951496063
10
6.05
20
-9.825
10
5.775
20
-9.825
10
5.775
20
-9.7
10
5.4
20
-9.7
10
5.4
20
-9.825
10
5.26
20
-9.825
10
5.26
20
-11.075
10
5.4
20
-11.075
10
5.4
20
-11.2
10
5.775
20
-11.2
10
5.775
20
-11.075
10
6.1125
20
-11.075
10
6.1125
20
-11.2
10
6.4875
20
-11.2
10
6.4875
20
-11.075
10
6.825
20
-11.075
10
6.825
20
-11.2
10
7.2
20
-11.2
10
7.2
20
-11.075
10
7.34
20
-11.075
10
7.34
20
-9.825
10
7.2
20
-9.825
10
7.2
20
-9.7
10
6.825
20
-9.7
10
6.825
20
-9.825
0
LWPOLYLINE
5
83
100
AcDbEntity
8
0
6
ByLayer
62
256
370
-1
100
AcDbPolyline
90
28
70
1
43
0
10
4.075
20
-9.916
10
4.075
20
-9.7
10
3.9125
20
-9.7
10
3.9125
20
-9.825
10
3.575
20
-9.825
10
3.575
20
-9.7
10
3.2
20
-9.7
10
3.2
20
-9.825
10
3.06
20
-9.825
10
3.06
20
-11.075
10
3.2
20
-11.075
10
3.2
20
-11.2
10
3.575
20
-11.2
10
3.575
20
-11.075
10
3.9125
20
-11.075
10
3.9125
20
-11.2
10
4.2875
20
-11.2
10
4.2875
20
-11.075
10
4.625
20
-11.075
10
4.625
20
-11.2
10
5
20
-11.2
10
5
20
-11.075
10
5.14
20
-11.075
10
5.14
20
-9.825
10
5
20
-9.825
10
5
20
-9.7
10
4.775
20
-9.7
10
4.775
20
-9.916
42
-1
0
LWPOLYLINE
5
84
100
AcDbEntity
8
0
6
ByLayer
62
256
370
-1
100
AcDbPolyline
90
4
70
1
43
0
10
3.3615
20
-10.276
10
3.9385
20
-10.276
10
3.9385
20
-10.799
10
3.3615
20
-10.799
0
ENDSEC
0
SECTION
2
OBJECTS
0
DICTIONARY
5
C
330
0
100
AcDbDictionary
281
1
3
ACAD_GROUP
350
D
0
DICTIONARY
5
D
330
C
100
AcDbDictionary
281
1
0
ENDSEC
0
EOF
