0
SECTION
2
HEADER
9
$ANGBASE
50
0.0
9
$ANGDIR
70
0
0
ENDSEC
0
SECTION
2
TABLES
0
TABLE
2
LTYPE
70
1
0
LTYPE
2
CONTINUOUS
70
0
3
Solid line
72
65
73
0
40
0.0
0
ENDTAB
0
TABLE
2
LAYER
70
24
0
LAYER
2
BLACK
70
0
62
1
6
CONTINUOUS
0
LAYER
2
BLUE
70
0
62
2
6
CONTINUOUS
0
LAYER
2
GREEN
70
0
62
3
6
CONTINUOUS
0
LAYER
2
CYAN
70
0
62
4
6
CONTINUOUS
0
LAYER
2
RED
70
0
62
5
6
CONTINUOUS
0
LAYER
2
MAGENTA
70
0
62
6
6
CONTINUOUS
0
LAYER
2
BROWN
70
0
62
7
6
CONTINUOUS
0
LAYER
2
GRAY
70
0
62
8
6
CONTINUOUS
0
LAYER
2
DARKGRAY
70
0
62
9
6
CONTINUOUS
0
LAYER
2
LIGHTBLUE
70
0
62
10
6
CONTINUOUS
0
LAYER
2
LIGHTGREEN
70
0
62
11
6
CONTINUOUS
0
LAYER
2
LIGHTCYAN
70
0
62
12
6
CONTINUOUS
0
LAYER
2
LIGHTRED
70
0
62
13
6
CONTINUOUS
0
LAYER
2
LIGHTMAGENTA
70
0
62
14
6
CONTINUOUS
0
LAYER
2
YELLOW
70
0
62
15
6
CONTINUOUS
0
LAYER
2
WHITE
70
0
62
16
6
CONTINUOUS
0
LAYER
2
DARKDARKGRAY
70
0
62
17
6
CONTINUOUS
0
LAYER
2
DARKBLUE
70
0
62
18
6
CONTINUOUS
0
LAYER
2
DARKGREEN
70
0
62
19
6
CONTINUOUS
0
LAYER
2
DARKCYAN
70
0
62
20
6
CONTINUOUS
0
LAYER
2
DARKRED
70
0
62
21
6
CONTINUOUS
0
LAYER
2
DARKMAGENTA
70
0
62
22
6
CONTINUOUS
0
LAYER
2
DARKBROWN
70
0
62
23
6
CONTINUOUS
0
LAYER
2
LIGHTYELLOW
70
0
62
24
6
CONTINUOUS
0
ENDTAB
0
ENDSEC
0
SECTION
2
ENTITIES
0
LINE
8
BLACK
10
71695.0
20
49901.0
11
72305.0
21
49901.0
0
LINE
8
BLACK
10
79195.0
20
49901.0
11
79805.0
21
49901.0
0
LINE
8
BLACK
10
64195.0
20
49901.0
11
64805.0
21
49901.0
0
LINE
8
BLACK
10
74195.0
20
49901.0
11
74805.0
21
49901.0
0
LINE
8
BLACK
10
74500.0
20
49596.0
11
74500.0
21
50206.0
0
LINE
8
BLACK
10
51695.0
20
49901.0
11
52305.0
21
49901.0
0
LINE
8
BLACK
10
52000.0
20
49596.0
11
52000.0
21
50206.0
0
LINE
8
BLACK
10
59195.0
20
49901.0
11
59805.0
21
49901.0
0
LINE
8
BLACK
10
59500.0
20
49596.0
11
59500.0
21
50206.0
0
LINE
8
BLACK
10
56695.0
20
49901.0
11
57305.0
21
49901.0
0
LINE
8
BLACK
10
66695.0
20
49901.0
11
67305.0
21
49901.0
0
LINE
8
BLACK
10
67000.0
20
49596.0
11
67000.0
21
50206.0
0
LINE
8
BLACK
10
89500.0
20
31170.0
11
43500.0
21
31170.0
0
LINE
8
BLACK
10
43500.0
20
52170.0
11
89500.0
21
52170.0
0
LINE
8
BLACK
10
43500.0
20
52170.0
11
43500.0
21
31170.0
0
LINE
8
BLACK
10
47095.0
20
35785.0
11
47095.0
21
36071.0
0
LINE
8
BLACK
10
47324.0
20
35728.0
11
46524.0
21
35928.0
0
LINE
8
BLACK
10
46524.0
20
35928.0
11
47324.0
21
36128.0
0
LINE
8
BLACK
10
47324.0
20
36328.0
11
46790.0
21
36328.0
0
LINE
8
BLACK
10
46943.0
20
36328.0
11
46867.0
21
36356.0
0
LINE
8
BLACK
10
46867.0
20
36356.0
11
46829.0
21
36385.0
0
LINE
8
BLACK
10
46829.0
20
36385.0
11
46790.0
21
36442.0
0
LINE
8
BLACK
10
46790.0
20
36442.0
11
46790.0
21
36499.0
0
LINE
8
BLACK
10
47324.0
20
36956.0
11
46524.0
21
36956.0
0
LINE
8
BLACK
10
47286.0
20
36956.0
11
47324.0
21
36899.0
0
LINE
8
BLACK
10
47324.0
20
36899.0
11
47324.0
21
36785.0
0
LINE
8
BLACK
10
47324.0
20
36785.0
11
47286.0
21
36727.0
0
LINE
8
BLACK
10
47286.0
20
36727.0
11
47248.0
21
36699.0
0
LINE
8
BLACK
10
47248.0
20
36699.0
11
47171.0
21
36670.0
0
LINE
8
BLACK
10
47171.0
20
36670.0
11
46943.0
21
36670.0
0
LINE
8
BLACK
10
46943.0
20
36670.0
11
46867.0
21
36699.0
0
LINE
8
BLACK
10
46867.0
20
36699.0
11
46829.0
21
36727.0
0
LINE
8
BLACK
10
46829.0
20
36727.0
11
46790.0
21
36785.0
0
LINE
8
BLACK
10
46790.0
20
36785.0
11
46790.0
21
36899.0
0
LINE
8
BLACK
10
46790.0
20
36899.0
11
46829.0
21
36956.0
0
LINE
8
BLACK
10
46790.0
20
37499.0
11
47324.0
21
37499.0
0
LINE
8
BLACK
10
46790.0
20
37242.0
11
47210.0
21
37242.0
0
LINE
8
BLACK
10
47210.0
20
37242.0
11
47286.0
21
37270.0
0
LINE
8
BLACK
10
47286.0
20
37270.0
11
47324.0
21
37328.0
0
LINE
8
BLACK
10
47324.0
20
37328.0
11
47324.0
21
37413.0
0
LINE
8
BLACK
10
47324.0
20
37413.0
11
47286.0
21
37470.0
0
LINE
8
BLACK
10
47286.0
20
37470.0
11
47248.0
21
37499.0
0
LINE
8
BLACK
10
47324.0
20
37785.0
11
46790.0
21
37785.0
0
LINE
8
BLACK
10
46524.0
20
37785.0
11
46562.0
21
37756.0
0
LINE
8
BLACK
10
46562.0
20
37756.0
11
46600.0
21
37785.0
0
LINE
8
BLACK
10
46600.0
20
37785.0
11
46562.0
21
37813.0
0
LINE
8
BLACK
10
46562.0
20
37813.0
11
46524.0
21
37785.0
0
LINE
8
BLACK
10
46524.0
20
37785.0
11
46600.0
21
37785.0
0
LINE
8
BLACK
10
46790.0
20
38071.0
11
47324.0
21
38071.0
0
LINE
8
BLACK
10
46867.0
20
38071.0
11
46829.0
21
38099.0
0
LINE
8
BLACK
10
46829.0
20
38099.0
11
46790.0
21
38157.0
0
LINE
8
BLACK
10
46790.0
20
38157.0
11
46790.0
21
38242.0
0
LINE
8
BLACK
10
46790.0
20
38242.0
11
46829.0
21
38299.0
0
LINE
8
BLACK
10
46829.0
20
38299.0
11
46905.0
21
38328.0
0
LINE
8
BLACK
10
46905.0
20
38328.0
11
47324.0
21
38328.0
0
LINE
8
BLACK
10
47324.0
20
38700.0
11
47286.0
21
38642.0
0
LINE
8
BLACK
10
47286.0
20
38642.0
11
47248.0
21
38614.0
0
LINE
8
BLACK
10
47248.0
20
38614.0
11
47171.0
21
38585.0
0
LINE
8
BLACK
10
47171.0
20
38585.0
11
46943.0
21
38585.0
0
LINE
8
BLACK
10
46943.0
20
38585.0
11
46867.0
21
38614.0
0
LINE
8
BLACK
10
46867.0
20
38614.0
11
46829.0
21
38642.0
0
LINE
8
BLACK
10
46829.0
20
38642.0
11
46790.0
21
38700.0
0
LINE
8
BLACK
10
46790.0
20
38700.0
11
46790.0
21
38785.0
0
LINE
8
BLACK
10
46790.0
20
38785.0
11
46829.0
21
38842.0
0
LINE
8
BLACK
10
46829.0
20
38842.0
11
46867.0
21
38871.0
0
LINE
8
BLACK
10
46867.0
20
38871.0
11
46943.0
21
38900.0
0
LINE
8
BLACK
10
46943.0
20
38900.0
11
47171.0
21
38900.0
0
LINE
8
BLACK
10
47171.0
20
38900.0
11
47248.0
21
38871.0
0
LINE
8
BLACK
10
47248.0
20
38871.0
11
47286.0
21
38842.0
0
LINE
8
BLACK
10
47286.0
20
38842.0
11
47324.0
21
38785.0
0
LINE
8
BLACK
10
47324.0
20
38785.0
11
47324.0
21
38700.0
0
LINE
8
BLACK
10
47248.0
20
39957.0
11
47286.0
21
39928.0
0
LINE
8
BLACK
10
47286.0
20
39928.0
11
47324.0
21
39842.0
0
LINE
8
BLACK
10
47324.0
20
39842.0
11
47324.0
21
39785.0
0
LINE
8
BLACK
10
47324.0
20
39785.0
11
47286.0
21
39700.0
0
LINE
8
BLACK
10
47286.0
20
39700.0
11
47210.0
21
39642.0
0
LINE
8
BLACK
10
47210.0
20
39642.0
11
47133.0
21
39614.0
0
LINE
8
BLACK
10
47133.0
20
39614.0
11
46981.0
21
39585.0
0
LINE
8
BLACK
10
46981.0
20
39585.0
11
46867.0
21
39585.0
0
LINE
8
BLACK
10
46867.0
20
39585.0
11
46714.0
21
39614.0
0
LINE
8
BLACK
10
46714.0
20
39614.0
11
46638.0
21
39642.0
0
LINE
8
BLACK
10
46638.0
20
39642.0
11
46562.0
21
39700.0
0
LINE
8
BLACK
10
46562.0
20
39700.0
11
46524.0
21
39785.0
0
LINE
8
BLACK
10
46524.0
20
39785.0
11
46524.0
21
39842.0
0
LINE
8
BLACK
10
46524.0
20
39842.0
11
46562.0
21
39928.0
0
LINE
8
BLACK
10
46562.0
20
39928.0
11
46600.0
21
39957.0
0
LINE
8
BLACK
10
46790.0
20
40471.0
11
47324.0
21
40471.0
0
LINE
8
BLACK
10
46790.0
20
40214.0
11
47210.0
21
40214.0
0
LINE
8
BLACK
10
47210.0
20
40214.0
11
47286.0
21
40242.0
0
LINE
8
BLACK
10
47286.0
20
40242.0
11
47324.0
21
40300.0
0
LINE
8
BLACK
10
47324.0
20
40300.0
11
47324.0
21
40385.0
0
LINE
8
BLACK
10
47324.0
20
40385.0
11
47286.0
21
40442.0
0
LINE
8
BLACK
10
47286.0
20
40442.0
11
47248.0
21
40471.0
0
LINE
8
BLACK
10
47324.0
20
40757.0
11
46790.0
21
40757.0
0
LINE
8
BLACK
10
46943.0
20
40757.0
11
46867.0
21
40785.0
0
LINE
8
BLACK
10
46867.0
20
40785.0
11
46829.0
21
40814.0
0
LINE
8
BLACK
10
46829.0
20
40814.0
11
46790.0
21
40871.0
0
LINE
8
BLACK
10
46790.0
20
40871.0
11
46790.0
21
40928.0
0
LINE
8
BLACK
10
47324.0
20
41128.0
11
46790.0
21
41128.0
0
LINE
8
BLACK
10
46943.0
20
41128.0
11
46867.0
21
41156.0
0
LINE
8
BLACK
10
46867.0
20
41156.0
11
46829.0
21
41185.0
0
LINE
8
BLACK
10
46829.0
20
41185.0
11
46790.0
21
41242.0
0
LINE
8
BLACK
10
46790.0
20
41242.0
11
46790.0
21
41299.0
0
LINE
8
BLACK
10
47286.0
20
41727.0
11
47324.0
21
41670.0
0
LINE
8
BLACK
10
47324.0
20
41670.0
11
47324.0
21
41556.0
0
LINE
8
BLACK
10
47324.0
20
41556.0
11
47286.0
21
41499.0
0
LINE
8
BLACK
10
47286.0
20
41499.0
11
47210.0
21
41470.0
0
LINE
8
BLACK
10
47210.0
20
41470.0
11
46905.0
21
41470.0
0
LINE
8
BLACK
10
46905.0
20
41470.0
11
46829.0
21
41499.0
0
LINE
8
BLACK
10
46829.0
20
41499.0
11
46790.0
21
41556.0
0
LINE
8
BLACK
10
46790.0
20
41556.0
11
46790.0
21
41670.0
0
LINE
8
BLACK
10
46790.0
20
41670.0
11
46829.0
21
41727.0
0
LINE
8
BLACK
10
46829.0
20
41727.0
11
46905.0
21
41756.0
0
LINE
8
BLACK
10
46905.0
20
41756.0
11
46981.0
21
41756.0
0
LINE
8
BLACK
10
46981.0
20
41756.0
11
47057.0
21
41470.0
0
LINE
8
BLACK
10
46790.0
20
42013.0
11
47324.0
21
42013.0
0
LINE
8
BLACK
10
46867.0
20
42013.0
11
46829.0
21
42041.0
0
LINE
8
BLACK
10
46829.0
20
42041.0
11
46790.0
21
42099.0
0
LINE
8
BLACK
10
46790.0
20
42099.0
11
46790.0
21
42184.0
0
LINE
8
BLACK
10
46790.0
20
42184.0
11
46829.0
21
42241.0
0
LINE
8
BLACK
10
46829.0
20
42241.0
11
46905.0
21
42270.0
0
LINE
8
BLACK
10
46905.0
20
42270.0
11
47324.0
21
42270.0
0
LINE
8
BLACK
10
46790.0
20
42470.0
11
46790.0
21
42699.0
0
LINE
8
BLACK
10
46524.0
20
42556.0
11
47210.0
21
42556.0
0
LINE
8
BLACK
10
47210.0
20
42556.0
11
47286.0
21
42584.0
0
LINE
8
BLACK
10
47286.0
20
42584.0
11
47324.0
21
42642.0
0
LINE
8
BLACK
10
47324.0
20
42642.0
11
47324.0
21
42699.0
0
LINE
8
BLACK
10
47248.0
20
43699.0
11
47286.0
21
43670.0
0
LINE
8
BLACK
10
47286.0
20
43670.0
11
47324.0
21
43584.0
0
LINE
8
BLACK
10
47324.0
20
43584.0
11
47324.0
21
43527.0
0
LINE
8
BLACK
10
47324.0
20
43527.0
11
47286.0
21
43442.0
0
LINE
8
BLACK
10
47286.0
20
43442.0
11
47210.0
21
43384.0
0
LINE
8
BLACK
10
47210.0
20
43384.0
11
47133.0
21
43356.0
0
LINE
8
BLACK
10
47133.0
20
43356.0
11
46981.0
21
43327.0
0
LINE
8
BLACK
10
46981.0
20
43327.0
11
46867.0
21
43327.0
0
LINE
8
BLACK
10
46867.0
20
43327.0
11
46714.0
21
43356.0
0
LINE
8
BLACK
10
46714.0
20
43356.0
11
46638.0
21
43384.0
0
LINE
8
BLACK
10
46638.0
20
43384.0
11
46562.0
21
43442.0
0
LINE
8
BLACK
10
46562.0
20
43442.0
11
46524.0
21
43527.0
0
LINE
8
BLACK
10
46524.0
20
43527.0
11
46524.0
21
43584.0
0
LINE
8
BLACK
10
46524.0
20
43584.0
11
46562.0
21
43670.0
0
LINE
8
BLACK
10
46562.0
20
43670.0
11
46600.0
21
43699.0
0
LINE
8
BLACK
10
47324.0
20
44042.0
11
47286.0
21
43984.0
0
LINE
8
BLACK
10
47286.0
20
43984.0
11
47248.0
21
43956.0
0
LINE
8
BLACK
10
47248.0
20
43956.0
11
47171.0
21
43927.0
0
LINE
8
BLACK
10
47171.0
20
43927.0
11
46943.0
21
43927.0
0
LINE
8
BLACK
10
46943.0
20
43927.0
11
46867.0
21
43956.0
0
LINE
8
BLACK
10
46867.0
20
43956.0
11
46829.0
21
43984.0
0
LINE
8
BLACK
10
46829.0
20
43984.0
11
46790.0
21
44042.0
0
LINE
8
BLACK
10
46790.0
20
44042.0
11
46790.0
21
44127.0
0
LINE
8
BLACK
10
46790.0
20
44127.0
11
46829.0
21
44184.0
0
LINE
8
BLACK
10
46829.0
20
44184.0
11
46867.0
21
44213.0
0
LINE
8
BLACK
10
46867.0
20
44213.0
11
46943.0
21
44242.0
0
LINE
8
BLACK
10
46943.0
20
44242.0
11
47171.0
21
44242.0
0
LINE
8
BLACK
10
47171.0
20
44242.0
11
47248.0
21
44213.0
0
LINE
8
BLACK
10
47248.0
20
44213.0
11
47286.0
21
44184.0
0
LINE
8
BLACK
10
47286.0
20
44184.0
11
47324.0
21
44127.0
0
LINE
8
BLACK
10
47324.0
20
44127.0
11
47324.0
21
44042.0
0
LINE
8
BLACK
10
46790.0
20
44499.0
11
47324.0
21
44499.0
0
LINE
8
BLACK
10
46867.0
20
44499.0
11
46829.0
21
44527.0
0
LINE
8
BLACK
10
46829.0
20
44527.0
11
46790.0
21
44585.0
0
LINE
8
BLACK
10
46790.0
20
44585.0
11
46790.0
21
44670.0
0
LINE
8
BLACK
10
46790.0
20
44670.0
11
46829.0
21
44727.0
0
LINE
8
BLACK
10
46829.0
20
44727.0
11
46905.0
21
44756.0
0
LINE
8
BLACK
10
46905.0
20
44756.0
11
47324.0
21
44756.0
0
LINE
8
BLACK
10
46790.0
20
44956.0
11
46790.0
21
45185.0
0
LINE
8
BLACK
10
46524.0
20
45042.0
11
47210.0
21
45042.0
0
LINE
8
BLACK
10
47210.0
20
45042.0
11
47286.0
21
45070.0
0
LINE
8
BLACK
10
47286.0
20
45070.0
11
47324.0
21
45128.0
0
LINE
8
BLACK
10
47324.0
20
45128.0
11
47324.0
21
45185.0
0
LINE
8
BLACK
10
47324.0
20
45385.0
11
46790.0
21
45385.0
0
LINE
8
BLACK
10
46943.0
20
45385.0
11
46867.0
21
45413.0
0
LINE
8
BLACK
10
46867.0
20
45413.0
11
46829.0
21
45442.0
0
LINE
8
BLACK
10
46829.0
20
45442.0
11
46790.0
21
45499.0
0
LINE
8
BLACK
10
46790.0
20
45499.0
11
46790.0
21
45556.0
0
LINE
8
BLACK
10
47324.0
20
45842.0
11
47286.0
21
45784.0
0
LINE
8
BLACK
10
47286.0
20
45784.0
11
47248.0
21
45756.0
0
LINE
8
BLACK
10
47248.0
20
45756.0
11
47171.0
21
45727.0
0
LINE
8
BLACK
10
47171.0
20
45727.0
11
46943.0
21
45727.0
0
LINE
8
BLACK
10
46943.0
20
45727.0
11
46867.0
21
45756.0
0
LINE
8
BLACK
10
46867.0
20
45756.0
11
46829.0
21
45784.0
0
LINE
8
BLACK
10
46829.0
20
45784.0
11
46790.0
21
45842.0
0
LINE
8
BLACK
10
46790.0
20
45842.0
11
46790.0
21
45927.0
0
LINE
8
BLACK
10
46790.0
20
45927.0
11
46829.0
21
45984.0
0
LINE
8
BLACK
10
46829.0
20
45984.0
11
46867.0
21
46013.0
0
LINE
8
BLACK
10
46867.0
20
46013.0
11
46943.0
21
46042.0
0
LINE
8
BLACK
10
46943.0
20
46042.0
11
47171.0
21
46042.0
0
LINE
8
BLACK
10
47171.0
20
46042.0
11
47248.0
21
46013.0
0
LINE
8
BLACK
10
47248.0
20
46013.0
11
47286.0
21
45984.0
0
LINE
8
BLACK
10
47286.0
20
45984.0
11
47324.0
21
45927.0
0
LINE
8
BLACK
10
47324.0
20
45927.0
11
47324.0
21
45842.0
0
LINE
8
BLACK
10
47324.0
20
46385.0
11
47286.0
21
46327.0
0
LINE
8
BLACK
10
47286.0
20
46327.0
11
47210.0
21
46299.0
0
LINE
8
BLACK
10
47210.0
20
46299.0
11
46524.0
21
46299.0
0
LINE
8
BLACK
10
47324.0
20
46699.0
11
47286.0
21
46641.0
0
LINE
8
BLACK
10
47286.0
20
46641.0
11
47210.0
21
46613.0
0
LINE
8
BLACK
10
47210.0
20
46613.0
11
46524.0
21
46613.0
0
LINE
8
BLACK
10
47286.0
20
47155.0
11
47324.0
21
47098.0
0
LINE
8
BLACK
10
47324.0
20
47098.0
11
47324.0
21
46984.0
0
LINE
8
BLACK
10
47324.0
20
46984.0
11
47286.0
21
46927.0
0
LINE
8
BLACK
10
47286.0
20
46927.0
11
47210.0
21
46898.0
0
LINE
8
BLACK
10
47210.0
20
46898.0
11
46905.0
21
46898.0
0
LINE
8
BLACK
10
46905.0
20
46898.0
11
46829.0
21
46927.0
0
LINE
8
BLACK
10
46829.0
20
46927.0
11
46790.0
21
46984.0
0
LINE
8
BLACK
10
46790.0
20
46984.0
11
46790.0
21
47098.0
0
LINE
8
BLACK
10
46790.0
20
47098.0
11
46829.0
21
47155.0
0
LINE
8
BLACK
10
46829.0
20
47155.0
11
46905.0
21
47184.0
0
LINE
8
BLACK
10
46905.0
20
47184.0
11
46981.0
21
47184.0
0
LINE
8
BLACK
10
46981.0
20
47184.0
11
47057.0
21
46898.0
0
LINE
8
BLACK
10
47324.0
20
47441.0
11
46790.0
21
47441.0
0
LINE
8
BLACK
10
46943.0
20
47441.0
11
46867.0
21
47469.0
0
LINE
8
BLACK
10
46867.0
20
47469.0
11
46829.0
21
47498.0
0
LINE
8
BLACK
10
46829.0
20
47498.0
11
46790.0
21
47555.0
0
LINE
8
BLACK
10
46790.0
20
47555.0
11
46790.0
21
47612.0
0
LINE
8
BLACK
10
48824.0
20
41893.0
11
48024.0
21
41893.0
0
LINE
8
BLACK
10
48024.0
20
41893.0
11
48595.0
21
42093.0
0
LINE
8
BLACK
10
48595.0
20
42093.0
11
48024.0
21
42293.0
0
LINE
8
BLACK
10
48024.0
20
42293.0
11
48824.0
21
42293.0
0
LINE
8
BLACK
10
48824.0
20
42836.0
11
48405.0
21
42836.0
0
LINE
8
BLACK
10
48405.0
20
42836.0
11
48329.0
21
42807.0
0
LINE
8
BLACK
10
48329.0
20
42807.0
11
48290.0
21
42750.0
0
LINE
8
BLACK
10
48290.0
20
42750.0
11
48290.0
21
42636.0
0
LINE
8
BLACK
10
48290.0
20
42636.0
11
48329.0
21
42579.0
0
LINE
8
BLACK
10
48786.0
20
42836.0
11
48824.0
21
42779.0
0
LINE
8
BLACK
10
48824.0
20
42779.0
11
48824.0
21
42636.0
0
LINE
8
BLACK
10
48824.0
20
42636.0
11
48786.0
21
42579.0
0
LINE
8
BLACK
10
48786.0
20
42579.0
11
48710.0
21
42550.0
0
LINE
8
BLACK
10
48710.0
20
42550.0
11
48633.0
21
42550.0
0
LINE
8
BLACK
10
48633.0
20
42550.0
11
48557.0
21
42579.0
0
LINE
8
BLACK
10
48557.0
20
42579.0
11
48519.0
21
42636.0
0
LINE
8
BLACK
10
48519.0
20
42636.0
11
48519.0
21
42779.0
0
LINE
8
BLACK
10
48519.0
20
42779.0
11
48481.0
21
42836.0
0
LINE
8
BLACK
10
48824.0
20
43122.0
11
48290.0
21
43122.0
0
LINE
8
BLACK
10
48443.0
20
43122.0
11
48367.0
21
43150.0
0
LINE
8
BLACK
10
48367.0
20
43150.0
11
48329.0
21
43179.0
0
LINE
8
BLACK
10
48329.0
20
43179.0
11
48290.0
21
43236.0
0
LINE
8
BLACK
10
48290.0
20
43236.0
11
48290.0
21
43293.0
0
LINE
8
BLACK
10
48100.0
20
43921.0
11
48062.0
21
43950.0
0
LINE
8
BLACK
10
48062.0
20
43950.0
11
48024.0
21
44007.0
0
LINE
8
BLACK
10
48024.0
20
44007.0
11
48024.0
21
44150.0
0
LINE
8
BLACK
10
48024.0
20
44150.0
11
48062.0
21
44207.0
0
LINE
8
BLACK
10
48062.0
20
44207.0
11
48100.0
21
44236.0
0
LINE
8
BLACK
10
48100.0
20
44236.0
11
48176.0
21
44264.0
0
LINE
8
BLACK
10
48176.0
20
44264.0
11
48252.0
21
44264.0
0
LINE
8
BLACK
10
48252.0
20
44264.0
11
48367.0
21
44236.0
0
LINE
8
BLACK
10
48367.0
20
44236.0
11
48824.0
21
43893.0
0
LINE
8
BLACK
10
48824.0
20
43893.0
11
48824.0
21
44264.0
0
LINE
8
BLACK
10
48024.0
20
44635.0
11
48024.0
21
44692.0
0
LINE
8
BLACK
10
48024.0
20
44692.0
11
48062.0
21
44749.0
0
LINE
8
BLACK
10
48062.0
20
44749.0
11
48100.0
21
44778.0
0
LINE
8
BLACK
10
48100.0
20
44778.0
11
48176.0
21
44807.0
0
LINE
8
BLACK
10
48176.0
20
44807.0
11
48329.0
21
44835.0
0
LINE
8
BLACK
10
48329.0
20
44835.0
11
48519.0
21
44835.0
0
LINE
8
BLACK
10
48519.0
20
44835.0
11
48671.0
21
44807.0
0
LINE
8
BLACK
10
48671.0
20
44807.0
11
48748.0
21
44778.0
0
LINE
8
BLACK
10
48748.0
20
44778.0
11
48786.0
21
44749.0
0
LINE
8
BLACK
10
48786.0
20
44749.0
11
48824.0
21
44692.0
0
LINE
8
BLACK
10
48824.0
20
44692.0
11
48824.0
21
44635.0
0
LINE
8
BLACK
10
48824.0
20
44635.0
11
48786.0
21
44578.0
0
LINE
8
BLACK
10
48786.0
20
44578.0
11
48748.0
21
44549.0
0
LINE
8
BLACK
10
48748.0
20
44549.0
11
48671.0
21
44521.0
0
LINE
8
BLACK
10
48671.0
20
44521.0
11
48519.0
21
44492.0
0
LINE
8
BLACK
10
48519.0
20
44492.0
11
48329.0
21
44492.0
0
LINE
8
BLACK
10
48329.0
20
44492.0
11
48176.0
21
44521.0
0
LINE
8
BLACK
10
48176.0
20
44521.0
11
48100.0
21
44549.0
0
LINE
8
BLACK
10
48100.0
20
44549.0
11
48062.0
21
44578.0
0
LINE
8
BLACK
10
48062.0
20
44578.0
11
48024.0
21
44635.0
0
LINE
8
BLACK
10
48824.0
20
45406.0
11
48824.0
21
45063.0
0
LINE
8
BLACK
10
48824.0
20
45235.0
11
48024.0
21
45235.0
0
LINE
8
BLACK
10
48024.0
20
45235.0
11
48138.0
21
45178.0
0
LINE
8
BLACK
10
48138.0
20
45178.0
11
48214.0
21
45120.0
0
LINE
8
BLACK
10
48214.0
20
45120.0
11
48252.0
21
45063.0
0
LINE
8
BLACK
10
48290.0
20
45920.0
11
48824.0
21
45920.0
0
LINE
8
BLACK
10
47986.0
20
45777.0
11
48557.0
21
45634.0
0
LINE
8
BLACK
10
48557.0
20
45634.0
11
48557.0
21
46006.0
0
LINE
8
BLACK
10
48024.0
20
37185.0
11
48824.0
21
37385.0
0
LINE
8
BLACK
10
48824.0
20
37385.0
11
48024.0
21
37585.0
0
LINE
8
BLACK
10
48405.0
20
37785.0
11
48405.0
21
37985.0
0
LINE
8
BLACK
10
48824.0
20
38071.0
11
48824.0
21
37785.0
0
LINE
8
BLACK
10
48824.0
20
37785.0
11
48024.0
21
37785.0
0
LINE
8
BLACK
10
48024.0
20
37785.0
11
48024.0
21
38071.0
0
LINE
8
BLACK
10
48824.0
20
38671.0
11
48443.0
21
38471.0
0
LINE
8
BLACK
10
48824.0
20
38328.0
11
48024.0
21
38328.0
0
LINE
8
BLACK
10
48024.0
20
38328.0
11
48024.0
21
38556.0
0
LINE
8
BLACK
10
48024.0
20
38556.0
11
48062.0
21
38614.0
0
LINE
8
BLACK
10
48062.0
20
38614.0
11
48100.0
21
38642.0
0
LINE
8
BLACK
10
48100.0
20
38642.0
11
48176.0
21
38671.0
0
LINE
8
BLACK
10
48176.0
20
38671.0
11
48290.0
21
38671.0
0
LINE
8
BLACK
10
48290.0
20
38671.0
11
48367.0
21
38642.0
0
LINE
8
BLACK
10
48367.0
20
38642.0
11
48405.0
21
38614.0
0
LINE
8
BLACK
10
48405.0
20
38614.0
11
48443.0
21
38556.0
0
LINE
8
BLACK
10
48443.0
20
38556.0
11
48443.0
21
38328.0
0
LINE
8
BLACK
10
48824.0
20
39242.0
11
48824.0
21
38899.0
0
LINE
8
BLACK
10
48824.0
20
39071.0
11
48024.0
21
39071.0
0
LINE
8
BLACK
10
48024.0
20
39071.0
11
48138.0
21
39014.0
0
LINE
8
BLACK
10
48138.0
20
39014.0
11
48214.0
21
38956.0
0
LINE
8
BLACK
10
48214.0
20
38956.0
11
48252.0
21
38899.0
0
LINE
8
BLACK
10
48748.0
20
39499.0
11
48786.0
21
39527.0
0
LINE
8
BLACK
10
48786.0
20
39527.0
11
48824.0
21
39499.0
0
LINE
8
BLACK
10
48824.0
20
39499.0
11
48786.0
21
39470.0
0
LINE
8
BLACK
10
48786.0
20
39470.0
11
48748.0
21
39499.0
0
LINE
8
BLACK
10
48748.0
20
39499.0
11
48824.0
21
39499.0
0
LINE
8
BLACK
10
48024.0
20
39899.0
11
48024.0
21
39956.0
0
LINE
8
BLACK
10
48024.0
20
39956.0
11
48062.0
21
40013.0
0
LINE
8
BLACK
10
48062.0
20
40013.0
11
48100.0
21
40042.0
0
LINE
8
BLACK
10
48100.0
20
40042.0
11
48176.0
21
40071.0
0
LINE
8
BLACK
10
48176.0
20
40071.0
11
48329.0
21
40099.0
0
LINE
8
BLACK
10
48329.0
20
40099.0
11
48519.0
21
40099.0
0
LINE
8
BLACK
10
48519.0
20
40099.0
11
48671.0
21
40071.0
0
LINE
8
BLACK
10
48671.0
20
40071.0
11
48748.0
21
40042.0
0
LINE
8
BLACK
10
48748.0
20
40042.0
11
48786.0
21
40013.0
0
LINE
8
BLACK
10
48786.0
20
40013.0
11
48824.0
21
39956.0
0
LINE
8
BLACK
10
48824.0
20
39956.0
11
48824.0
21
39899.0
0
LINE
8
BLACK
10
48824.0
20
39899.0
11
48786.0
21
39842.0
0
LINE
8
BLACK
10
48786.0
20
39842.0
11
48748.0
21
39813.0
0
LINE
8
BLACK
10
48748.0
20
39813.0
11
48671.0
21
39785.0
0
LINE
8
BLACK
10
48671.0
20
39785.0
11
48519.0
21
39756.0
0
LINE
8
BLACK
10
48519.0
20
39756.0
11
48329.0
21
39756.0
0
LINE
8
BLACK
10
48329.0
20
39756.0
11
48176.0
21
39785.0
0
LINE
8
BLACK
10
48176.0
20
39785.0
11
48100.0
21
39813.0
0
LINE
8
BLACK
10
48100.0
20
39813.0
11
48062.0
21
39842.0
0
LINE
8
BLACK
10
48062.0
20
39842.0
11
48024.0
21
39899.0
0
LINE
8
BLACK
10
89500.0
20
31170.0
11
89500.0
21
52170.0
0
LINE
8
BLACK
10
54800.0
20
34620.0
11
55400.0
21
34620.0
0
LINE
8
BLACK
10
55400.0
20
34620.0
11
55400.0
21
35720.0
0
LINE
8
BLACK
10
55400.0
20
35720.0
11
54800.0
21
35720.0
0
LINE
8
BLACK
10
54200.0
20
35720.0
11
53600.0
21
35720.0
0
LINE
8
BLACK
10
53600.0
20
35720.0
11
53600.0
21
34620.0
0
LINE
8
BLACK
10
53600.0
20
34620.0
11
54200.0
21
34620.0
0
LINE
8
BLACK
10
57700.0
20
33870.0
11
57700.0
21
33270.0
0
LINE
8
BLACK
10
57700.0
20
33270.0
11
58800.0
21
33270.0
0
LINE
8
BLACK
10
58800.0
20
33270.0
11
58800.0
21
33870.0
0
LINE
8
BLACK
10
58800.0
20
34470.0
11
58800.0
21
35070.0
0
LINE
8
BLACK
10
58800.0
20
35070.0
11
57700.0
21
35070.0
0
LINE
8
BLACK
10
57700.0
20
35070.0
11
57700.0
21
34470.0
0
LINE
8
BLACK
10
77300.0
20
34620.0
11
77900.0
21
34620.0
0
LINE
8
BLACK
10
77900.0
20
34620.0
11
77900.0
21
35720.0
0
LINE
8
BLACK
10
77900.0
20
35720.0
11
77300.0
21
35720.0
0
LINE
8
BLACK
10
76700.0
20
35720.0
11
76100.0
21
35720.0
0
LINE
8
BLACK
10
76100.0
20
35720.0
11
76100.0
21
34620.0
0
LINE
8
BLACK
10
76100.0
20
34620.0
11
76700.0
21
34620.0
0
LINE
8
BLACK
10
62300.0
20
34620.0
11
62900.0
21
34620.0
0
LINE
8
BLACK
10
62900.0
20
34620.0
11
62900.0
21
35720.0
0
LINE
8
BLACK
10
62900.0
20
35720.0
11
62300.0
21
35720.0
0
LINE
8
BLACK
10
61700.0
20
35720.0
11
61100.0
21
35720.0
0
LINE
8
BLACK
10
61100.0
20
35720.0
11
61100.0
21
34620.0
0
LINE
8
BLACK
10
61100.0
20
34620.0
11
61700.0
21
34620.0
0
LINE
8
BLACK
10
69800.0
20
34620.0
11
70400.0
21
34620.0
0
LINE
8
BLACK
10
70400.0
20
34620.0
11
70400.0
21
35720.0
0
LINE
8
BLACK
10
70400.0
20
35720.0
11
69800.0
21
35720.0
0
LINE
8
BLACK
10
69200.0
20
35720.0
11
68600.0
21
35720.0
0
LINE
8
BLACK
10
68600.0
20
35720.0
11
68600.0
21
34620.0
0
LINE
8
BLACK
10
68600.0
20
34620.0
11
69200.0
21
34620.0
0
LINE
8
BLACK
10
87000.0
20
47970.0
11
87000.0
21
48370.0
0
LINE
8
BLACK
10
87200.0
20
48170.0
11
86800.0
21
48170.0
0
LINE
8
BLACK
10
65200.0
20
33870.0
11
65200.0
21
33270.0
0
LINE
8
BLACK
10
65200.0
20
33270.0
11
66300.0
21
33270.0
0
LINE
8
BLACK
10
66300.0
20
33270.0
11
66300.0
21
33870.0
0
LINE
8
BLACK
10
66300.0
20
34470.0
11
66300.0
21
35070.0
0
LINE
8
BLACK
10
66300.0
20
35070.0
11
65200.0
21
35070.0
0
LINE
8
BLACK
10
65200.0
20
35070.0
11
65200.0
21
34470.0
0
LINE
8
BLACK
10
72700.0
20
33870.0
11
72700.0
21
33270.0
0
LINE
8
BLACK
10
72700.0
20
33270.0
11
73800.0
21
33270.0
0
LINE
8
BLACK
10
73800.0
20
33270.0
11
73800.0
21
33870.0
0
LINE
8
BLACK
10
73800.0
20
34470.0
11
73800.0
21
35070.0
0
LINE
8
BLACK
10
73800.0
20
35070.0
11
72700.0
21
35070.0
0
LINE
8
BLACK
10
72700.0
20
35070.0
11
72700.0
21
34470.0
0
LINE
8
BLACK
10
79950.0
20
33870.0
11
79950.0
21
33270.0
0
LINE
8
BLACK
10
79950.0
20
33270.0
11
81050.0
21
33270.0
0
LINE
8
BLACK
10
81050.0
20
33270.0
11
81050.0
21
33870.0
0
LINE
8
BLACK
10
81050.0
20
34470.0
11
81050.0
21
35070.0
0
LINE
8
BLACK
10
81050.0
20
35070.0
11
79950.0
21
35070.0
0
LINE
8
BLACK
10
79950.0
20
35070.0
11
79950.0
21
34470.0
0
LINE
8
BLACK
10
85200.0
20
48720.0
11
84600.0
21
48720.0
0
LINE
8
BLACK
10
84600.0
20
48720.0
11
84600.0
21
47620.0
0
LINE
8
BLACK
10
84600.0
20
47620.0
11
85200.0
21
47620.0
0
LINE
8
BLACK
10
85800.0
20
47620.0
11
86400.0
21
47620.0
0
LINE
8
BLACK
10
86400.0
20
47620.0
11
86400.0
21
48720.0
0
LINE
8
BLACK
10
86400.0
20
48720.0
11
85800.0
21
48720.0
0
LINE
8
BLACK
10
89500.0
20
44420.0
11
89500.0
21
38920.0
0
LINE
8
BLACK
10
89500.0
20
38920.0
11
83750.0
21
38920.0
0
LINE
8
BLACK
10
83750.0
20
38920.0
11
83750.0
21
44420.0
0
LINE
8
BLACK
10
83750.0
20
44420.0
11
89500.0
21
44420.0
0
LINE
8
BLACK
10
51900.0
20
37070.0
11
57100.0
21
37070.0
0
LINE
8
BLACK
10
57100.0
20
37070.0
11
57100.0
21
46270.0
0
LINE
8
BLACK
10
57100.0
20
46270.0
11
51900.0
21
46270.0
0
LINE
8
BLACK
10
51900.0
20
46270.0
11
51900.0
21
37070.0
0
LINE
8
BLACK
10
59400.0
20
37070.0
11
64600.0
21
37070.0
0
LINE
8
BLACK
10
64600.0
20
37070.0
11
64600.0
21
46270.0
0
LINE
8
BLACK
10
64600.0
20
46270.0
11
59400.0
21
46270.0
0
LINE
8
BLACK
10
59400.0
20
46270.0
11
59400.0
21
37070.0
0
LINE
8
BLACK
10
66900.0
20
37070.0
11
72100.0
21
37070.0
0
LINE
8
BLACK
10
72100.0
20
37070.0
11
72100.0
21
46270.0
0
LINE
8
BLACK
10
72100.0
20
46270.0
11
66900.0
21
46270.0
0
LINE
8
BLACK
10
66900.0
20
46270.0
11
66900.0
21
37070.0
0
LINE
8
BLACK
10
74400.0
20
37070.0
11
79600.0
21
37070.0
0
LINE
8
BLACK
10
79600.0
20
37070.0
11
79600.0
21
46270.0
0
LINE
8
BLACK
10
79600.0
20
46270.0
11
74400.0
21
46270.0
0
LINE
8
BLACK
10
74400.0
20
46270.0
11
74400.0
21
37070.0
0
LINE
8
BLACK
10
75200.0
20
46420.0
11
78800.0
21
46420.0
0
LINE
8
BLACK
10
78800.0
20
46420.0
11
78800.0
21
50420.0
0
LINE
8
BLACK
10
78800.0
20
50420.0
11
75200.0
21
50420.0
0
LINE
8
BLACK
10
75200.0
20
50420.0
11
75200.0
21
46420.0
0
LINE
8
BLACK
10
67700.0
20
46420.0
11
71300.0
21
46420.0
0
LINE
8
BLACK
10
71300.0
20
46420.0
11
71300.0
21
50420.0
0
LINE
8
BLACK
10
71300.0
20
50420.0
11
67700.0
21
50420.0
0
LINE
8
BLACK
10
67700.0
20
50420.0
11
67700.0
21
46420.0
0
LINE
8
BLACK
10
60200.0
20
46420.0
11
63800.0
21
46420.0
0
LINE
8
BLACK
10
63800.0
20
46420.0
11
63800.0
21
50420.0
0
LINE
8
BLACK
10
63800.0
20
50420.0
11
60200.0
21
50420.0
0
LINE
8
BLACK
10
60200.0
20
50420.0
11
60200.0
21
46420.0
0
LINE
8
BLACK
10
52700.0
20
46420.0
11
56300.0
21
46420.0
0
LINE
8
BLACK
10
56300.0
20
46420.0
11
56300.0
21
50420.0
0
LINE
8
BLACK
10
56300.0
20
50420.0
11
52700.0
21
50420.0
0
LINE
8
BLACK
10
52700.0
20
50420.0
11
52700.0
21
46420.0
0
ENDSEC
0
EOF
