G04 (created by PCBNEW (2013-jul-07)-stable) date Wed 28 May 2014 04:19:17 PM EDT*
%MOIN*%
G04 Gerber Fmt 3.4, Leading zero omitted, Abs format*
%FSLAX34Y34*%
G01*
G70*
G90*
G04 APERTURE LIST*
%ADD10C,0.00590551*%
%ADD11C,0.02*%
%ADD12C,0.009*%
%ADD13C,0.012*%
%ADD14C,0.005*%
%ADD15C,0.015*%
%ADD16C,0.01*%
%ADD17C,0.175*%
%ADD18O,0.08X0.12*%
%ADD19C,0.08*%
%ADD20R,0.07X0.12*%
%ADD21R,0.12X0.07*%
%ADD22R,0.067X0.067*%
%ADD23C,0.096*%
%ADD24C,0.16*%
%ADD25C,0.18*%
%ADD26R,0.12X0.12*%
%ADD27C,0.12*%
%ADD28R,0.1X0.1*%
%ADD29C,0.1*%
%ADD30R,0.0604X0.03*%
%ADD31C,0.093*%
%ADD32R,0.093X0.093*%
%ADD33C,0.11*%
%ADD34C,0.195*%
%ADD35C,0.14*%
%ADD36R,0.085X0.085*%
%ADD37C,0.085*%
G04 APERTURE END LIST*
G54D10*
G54D11*
X71195Y-32769D02*
X71804Y-32769D01*
X78695Y-32769D02*
X79304Y-32769D01*
X63695Y-32769D02*
X64304Y-32769D01*
X74695Y-32769D02*
X75304Y-32769D01*
X75000Y-33073D02*
X75000Y-32464D01*
X52195Y-32769D02*
X52804Y-32769D01*
X52500Y-33073D02*
X52500Y-32464D01*
X59695Y-32769D02*
X60304Y-32769D01*
X60000Y-33073D02*
X60000Y-32464D01*
X56195Y-32769D02*
X56804Y-32769D01*
X67195Y-32769D02*
X67804Y-32769D01*
X67500Y-33073D02*
X67500Y-32464D01*
G54D12*
X89500Y-51500D02*
X43500Y-51500D01*
X43500Y-30500D02*
X89500Y-30500D01*
X43500Y-30500D02*
X43500Y-51500D01*
G54D13*
X57845Y-45135D02*
X57845Y-44850D01*
X58073Y-45192D02*
X57273Y-44992D01*
X58073Y-44792D01*
X58073Y-44592D02*
X57540Y-44592D01*
X57692Y-44592D02*
X57616Y-44564D01*
X57578Y-44535D01*
X57540Y-44478D01*
X57540Y-44421D01*
X58073Y-43964D02*
X57273Y-43964D01*
X58035Y-43964D02*
X58073Y-44021D01*
X58073Y-44135D01*
X58035Y-44192D01*
X57997Y-44221D01*
X57921Y-44250D01*
X57692Y-44250D01*
X57616Y-44221D01*
X57578Y-44192D01*
X57540Y-44135D01*
X57540Y-44021D01*
X57578Y-43964D01*
X57540Y-43421D02*
X58073Y-43421D01*
X57540Y-43678D02*
X57959Y-43678D01*
X58035Y-43650D01*
X58073Y-43592D01*
X58073Y-43507D01*
X58035Y-43450D01*
X57997Y-43421D01*
X58073Y-43135D02*
X57540Y-43135D01*
X57273Y-43135D02*
X57311Y-43164D01*
X57350Y-43135D01*
X57311Y-43107D01*
X57273Y-43135D01*
X57350Y-43135D01*
X57540Y-42850D02*
X58073Y-42850D01*
X57616Y-42850D02*
X57578Y-42821D01*
X57540Y-42764D01*
X57540Y-42678D01*
X57578Y-42621D01*
X57654Y-42592D01*
X58073Y-42592D01*
X58073Y-42221D02*
X58035Y-42278D01*
X57997Y-42307D01*
X57921Y-42335D01*
X57692Y-42335D01*
X57616Y-42307D01*
X57578Y-42278D01*
X57540Y-42221D01*
X57540Y-42135D01*
X57578Y-42078D01*
X57616Y-42050D01*
X57692Y-42021D01*
X57921Y-42021D01*
X57997Y-42050D01*
X58035Y-42078D01*
X58073Y-42135D01*
X58073Y-42221D01*
X57997Y-40964D02*
X58035Y-40992D01*
X58073Y-41078D01*
X58073Y-41135D01*
X58035Y-41221D01*
X57959Y-41278D01*
X57883Y-41307D01*
X57730Y-41335D01*
X57616Y-41335D01*
X57464Y-41307D01*
X57388Y-41278D01*
X57311Y-41221D01*
X57273Y-41135D01*
X57273Y-41078D01*
X57311Y-40992D01*
X57350Y-40964D01*
X57540Y-40450D02*
X58073Y-40450D01*
X57540Y-40707D02*
X57959Y-40707D01*
X58035Y-40678D01*
X58073Y-40621D01*
X58073Y-40535D01*
X58035Y-40478D01*
X57997Y-40450D01*
X58073Y-40164D02*
X57540Y-40164D01*
X57692Y-40164D02*
X57616Y-40135D01*
X57578Y-40107D01*
X57540Y-40050D01*
X57540Y-39992D01*
X58073Y-39792D02*
X57540Y-39792D01*
X57692Y-39792D02*
X57616Y-39764D01*
X57578Y-39735D01*
X57540Y-39678D01*
X57540Y-39621D01*
X58035Y-39192D02*
X58073Y-39250D01*
X58073Y-39364D01*
X58035Y-39421D01*
X57959Y-39450D01*
X57654Y-39450D01*
X57578Y-39421D01*
X57540Y-39364D01*
X57540Y-39250D01*
X57578Y-39192D01*
X57654Y-39164D01*
X57730Y-39164D01*
X57807Y-39450D01*
X57540Y-38907D02*
X58073Y-38907D01*
X57616Y-38907D02*
X57578Y-38878D01*
X57540Y-38821D01*
X57540Y-38735D01*
X57578Y-38678D01*
X57654Y-38650D01*
X58073Y-38650D01*
X57540Y-38450D02*
X57540Y-38221D01*
X57273Y-38364D02*
X57959Y-38364D01*
X58035Y-38335D01*
X58073Y-38278D01*
X58073Y-38221D01*
X57997Y-37221D02*
X58035Y-37250D01*
X58073Y-37335D01*
X58073Y-37392D01*
X58035Y-37478D01*
X57959Y-37535D01*
X57883Y-37564D01*
X57730Y-37592D01*
X57616Y-37592D01*
X57464Y-37564D01*
X57388Y-37535D01*
X57311Y-37478D01*
X57273Y-37392D01*
X57273Y-37335D01*
X57311Y-37250D01*
X57350Y-37221D01*
X58073Y-36878D02*
X58035Y-36935D01*
X57997Y-36964D01*
X57921Y-36992D01*
X57692Y-36992D01*
X57616Y-36964D01*
X57578Y-36935D01*
X57540Y-36878D01*
X57540Y-36792D01*
X57578Y-36735D01*
X57616Y-36707D01*
X57692Y-36678D01*
X57921Y-36678D01*
X57997Y-36707D01*
X58035Y-36735D01*
X58073Y-36792D01*
X58073Y-36878D01*
X57540Y-36421D02*
X58073Y-36421D01*
X57616Y-36421D02*
X57578Y-36392D01*
X57540Y-36335D01*
X57540Y-36250D01*
X57578Y-36192D01*
X57654Y-36164D01*
X58073Y-36164D01*
X57540Y-35964D02*
X57540Y-35735D01*
X57273Y-35878D02*
X57959Y-35878D01*
X58035Y-35850D01*
X58073Y-35792D01*
X58073Y-35735D01*
X58073Y-35535D02*
X57540Y-35535D01*
X57692Y-35535D02*
X57616Y-35507D01*
X57578Y-35478D01*
X57540Y-35421D01*
X57540Y-35364D01*
X58073Y-35078D02*
X58035Y-35135D01*
X57997Y-35164D01*
X57921Y-35192D01*
X57692Y-35192D01*
X57616Y-35164D01*
X57578Y-35135D01*
X57540Y-35078D01*
X57540Y-34992D01*
X57578Y-34935D01*
X57616Y-34907D01*
X57692Y-34878D01*
X57921Y-34878D01*
X57997Y-34907D01*
X58035Y-34935D01*
X58073Y-34992D01*
X58073Y-35078D01*
X58073Y-34535D02*
X58035Y-34592D01*
X57959Y-34621D01*
X57273Y-34621D01*
X58073Y-34221D02*
X58035Y-34278D01*
X57959Y-34307D01*
X57273Y-34307D01*
X58035Y-33764D02*
X58073Y-33821D01*
X58073Y-33935D01*
X58035Y-33992D01*
X57959Y-34021D01*
X57654Y-34021D01*
X57578Y-33992D01*
X57540Y-33935D01*
X57540Y-33821D01*
X57578Y-33764D01*
X57654Y-33735D01*
X57730Y-33735D01*
X57807Y-34021D01*
X58073Y-33478D02*
X57540Y-33478D01*
X57692Y-33478D02*
X57616Y-33449D01*
X57578Y-33421D01*
X57540Y-33364D01*
X57540Y-33307D01*
X65823Y-39321D02*
X65023Y-39321D01*
X65595Y-39121D01*
X65023Y-38921D01*
X65823Y-38921D01*
X65823Y-38378D02*
X65404Y-38378D01*
X65328Y-38407D01*
X65290Y-38464D01*
X65290Y-38578D01*
X65328Y-38635D01*
X65785Y-38378D02*
X65823Y-38435D01*
X65823Y-38578D01*
X65785Y-38635D01*
X65709Y-38664D01*
X65633Y-38664D01*
X65557Y-38635D01*
X65519Y-38578D01*
X65519Y-38435D01*
X65480Y-38378D01*
X65290Y-38150D02*
X65823Y-38007D01*
X65290Y-37864D02*
X65823Y-38007D01*
X66014Y-38064D01*
X66052Y-38092D01*
X66090Y-38150D01*
X65100Y-37207D02*
X65061Y-37178D01*
X65023Y-37121D01*
X65023Y-36978D01*
X65061Y-36921D01*
X65100Y-36892D01*
X65176Y-36864D01*
X65252Y-36864D01*
X65366Y-36892D01*
X65823Y-37235D01*
X65823Y-36864D01*
X65023Y-36492D02*
X65023Y-36435D01*
X65061Y-36378D01*
X65100Y-36350D01*
X65176Y-36321D01*
X65328Y-36292D01*
X65519Y-36292D01*
X65671Y-36321D01*
X65747Y-36350D01*
X65785Y-36378D01*
X65823Y-36435D01*
X65823Y-36492D01*
X65785Y-36550D01*
X65747Y-36578D01*
X65671Y-36607D01*
X65519Y-36635D01*
X65328Y-36635D01*
X65176Y-36607D01*
X65100Y-36578D01*
X65061Y-36550D01*
X65023Y-36492D01*
X65823Y-35721D02*
X65823Y-36064D01*
X65823Y-35892D02*
X65023Y-35892D01*
X65138Y-35950D01*
X65214Y-36007D01*
X65252Y-36064D01*
X65290Y-35207D02*
X65823Y-35207D01*
X64985Y-35349D02*
X65557Y-35492D01*
X65557Y-35121D01*
X65023Y-43235D02*
X65823Y-43035D01*
X65023Y-42835D01*
X65404Y-42635D02*
X65404Y-42435D01*
X65823Y-42350D02*
X65823Y-42635D01*
X65023Y-42635D01*
X65023Y-42350D01*
X65823Y-41750D02*
X65442Y-41950D01*
X65823Y-42092D02*
X65023Y-42092D01*
X65023Y-41864D01*
X65061Y-41807D01*
X65100Y-41778D01*
X65176Y-41750D01*
X65290Y-41750D01*
X65366Y-41778D01*
X65404Y-41807D01*
X65442Y-41864D01*
X65442Y-42092D01*
X65823Y-41178D02*
X65823Y-41521D01*
X65823Y-41350D02*
X65023Y-41350D01*
X65138Y-41407D01*
X65214Y-41464D01*
X65252Y-41521D01*
X65747Y-40921D02*
X65785Y-40892D01*
X65823Y-40921D01*
X65785Y-40949D01*
X65747Y-40921D01*
X65823Y-40921D01*
X65823Y-40321D02*
X65823Y-40664D01*
X65823Y-40492D02*
X65023Y-40492D01*
X65138Y-40550D01*
X65214Y-40607D01*
X65252Y-40664D01*
G54D12*
X89500Y-51500D02*
X89500Y-30500D01*
G54D14*
X54800Y-47050D02*
X55400Y-47050D01*
X55400Y-47050D02*
X55400Y-45950D01*
X55400Y-45950D02*
X54800Y-45950D01*
X54200Y-45950D02*
X53600Y-45950D01*
X53600Y-45950D02*
X53600Y-47050D01*
X53600Y-47050D02*
X54200Y-47050D01*
X57700Y-46800D02*
X57700Y-47400D01*
X57700Y-47400D02*
X58800Y-47400D01*
X58800Y-47400D02*
X58800Y-46800D01*
X58800Y-46200D02*
X58800Y-45600D01*
X58800Y-45600D02*
X57700Y-45600D01*
X57700Y-45600D02*
X57700Y-46200D01*
X77300Y-47050D02*
X77900Y-47050D01*
X77900Y-47050D02*
X77900Y-45950D01*
X77900Y-45950D02*
X77300Y-45950D01*
X76700Y-45950D02*
X76100Y-45950D01*
X76100Y-45950D02*
X76100Y-47050D01*
X76100Y-47050D02*
X76700Y-47050D01*
X62300Y-47050D02*
X62900Y-47050D01*
X62900Y-47050D02*
X62900Y-45950D01*
X62900Y-45950D02*
X62300Y-45950D01*
X61700Y-45950D02*
X61100Y-45950D01*
X61100Y-45950D02*
X61100Y-47050D01*
X61100Y-47050D02*
X61700Y-47050D01*
X69800Y-47050D02*
X70400Y-47050D01*
X70400Y-47050D02*
X70400Y-45950D01*
X70400Y-45950D02*
X69800Y-45950D01*
X69200Y-45950D02*
X68600Y-45950D01*
X68600Y-45950D02*
X68600Y-47050D01*
X68600Y-47050D02*
X69200Y-47050D01*
G54D15*
X87000Y-37450D02*
X87000Y-37050D01*
X87200Y-37250D02*
X86800Y-37250D01*
G54D14*
X65200Y-46800D02*
X65200Y-47400D01*
X65200Y-47400D02*
X66300Y-47400D01*
X66300Y-47400D02*
X66300Y-46800D01*
X66300Y-46200D02*
X66300Y-45600D01*
X66300Y-45600D02*
X65200Y-45600D01*
X65200Y-45600D02*
X65200Y-46200D01*
X72700Y-46800D02*
X72700Y-47400D01*
X72700Y-47400D02*
X73800Y-47400D01*
X73800Y-47400D02*
X73800Y-46800D01*
X73800Y-46200D02*
X73800Y-45600D01*
X73800Y-45600D02*
X72700Y-45600D01*
X72700Y-45600D02*
X72700Y-46200D01*
X79950Y-46800D02*
X79950Y-47400D01*
X79950Y-47400D02*
X81050Y-47400D01*
X81050Y-47400D02*
X81050Y-46800D01*
X81050Y-46200D02*
X81050Y-45600D01*
X81050Y-45600D02*
X79950Y-45600D01*
X79950Y-45600D02*
X79950Y-46200D01*
X85200Y-36700D02*
X84600Y-36700D01*
X84600Y-36700D02*
X84600Y-37800D01*
X84600Y-37800D02*
X85200Y-37800D01*
X85800Y-37800D02*
X86400Y-37800D01*
X86400Y-37800D02*
X86400Y-36700D01*
X86400Y-36700D02*
X85800Y-36700D01*
G54D15*
X89500Y-38250D02*
X89500Y-43750D01*
X89500Y-43750D02*
X83750Y-43750D01*
X83750Y-43750D02*
X83750Y-38250D01*
X83750Y-38250D02*
X89500Y-38250D01*
X75500Y-32250D02*
X75500Y-35250D01*
X75500Y-35250D02*
X78500Y-35250D01*
X78500Y-35250D02*
X78500Y-32250D01*
X75500Y-32250D02*
X78500Y-32250D01*
X68000Y-32250D02*
X68000Y-35250D01*
X68000Y-35250D02*
X71000Y-35250D01*
X71000Y-35250D02*
X71000Y-32250D01*
X68000Y-32250D02*
X71000Y-32250D01*
X60500Y-32250D02*
X60500Y-35250D01*
X60500Y-35250D02*
X63500Y-35250D01*
X63500Y-35250D02*
X63500Y-32250D01*
X60500Y-32250D02*
X63500Y-32250D01*
X53000Y-32250D02*
X53000Y-35250D01*
X53000Y-35250D02*
X56000Y-35250D01*
X56000Y-35250D02*
X56000Y-32250D01*
X53000Y-32250D02*
X56000Y-32250D01*
X74400Y-44600D02*
X79600Y-44600D01*
X79600Y-44600D02*
X79600Y-35400D01*
X79600Y-35400D02*
X74400Y-35400D01*
X74400Y-35400D02*
X74400Y-44600D01*
X66900Y-44600D02*
X72100Y-44600D01*
X72100Y-44600D02*
X72100Y-35400D01*
X72100Y-35400D02*
X66900Y-35400D01*
X66900Y-35400D02*
X66900Y-44600D01*
X59400Y-44600D02*
X64600Y-44600D01*
X64600Y-44600D02*
X64600Y-35400D01*
X64600Y-35400D02*
X59400Y-35400D01*
X59400Y-35400D02*
X59400Y-44600D01*
X51900Y-44600D02*
X57100Y-44600D01*
X57100Y-44600D02*
X57100Y-35400D01*
X57100Y-35400D02*
X51900Y-35400D01*
X51900Y-35400D02*
X51900Y-44600D01*
G54D14*
X88800Y-45450D02*
X88800Y-44850D01*
X88800Y-44850D02*
X87700Y-44850D01*
X87700Y-44850D02*
X87700Y-45450D01*
X87700Y-46050D02*
X87700Y-46650D01*
X87700Y-46650D02*
X88800Y-46650D01*
X88800Y-46650D02*
X88800Y-46050D01*
X73550Y-36300D02*
X74150Y-36300D01*
X74150Y-36300D02*
X74150Y-35200D01*
X74150Y-35200D02*
X73550Y-35200D01*
X72950Y-35200D02*
X72350Y-35200D01*
X72350Y-35200D02*
X72350Y-36300D01*
X72350Y-36300D02*
X72950Y-36300D01*
G54D15*
X73250Y-33150D02*
X73250Y-34350D01*
X72850Y-32950D02*
G75*
G03X72850Y-32950I-100J0D01*
G74*
G01*
X46750Y-49500D02*
X46500Y-49000D01*
X46500Y-49000D02*
X46250Y-49500D01*
X46250Y-49500D02*
X46750Y-49500D01*
X49250Y-49750D02*
X45750Y-49750D01*
X45750Y-49750D02*
X45750Y-49000D01*
X49250Y-49750D02*
X49250Y-49000D01*
X49250Y-49000D02*
X49250Y-47500D01*
X49250Y-47500D02*
X45750Y-47500D01*
X45750Y-47500D02*
X45750Y-49000D01*
X45750Y-49000D02*
X49250Y-49000D01*
X87500Y-33250D02*
X85000Y-33250D01*
X87500Y-34750D02*
X85000Y-34750D01*
X87500Y-35500D02*
X85000Y-35500D01*
X86000Y-35250D02*
X85750Y-34750D01*
X85750Y-34750D02*
X85500Y-35250D01*
X85500Y-35250D02*
X86000Y-35250D01*
X85000Y-35500D02*
X85000Y-34750D01*
X87500Y-35500D02*
X87500Y-34750D01*
X87500Y-34750D02*
X87500Y-33250D01*
X85000Y-33250D02*
X85000Y-34750D01*
X44500Y-35750D02*
X44500Y-37750D01*
X51500Y-37750D02*
X51500Y-35750D01*
X44500Y-40250D02*
X51500Y-40250D01*
X51500Y-33250D02*
X44500Y-33250D01*
X87000Y-44000D02*
X83750Y-44000D01*
X83750Y-44000D02*
X83750Y-48500D01*
X83750Y-48500D02*
X87000Y-48500D01*
X87000Y-48500D02*
X87000Y-44000D01*
X44250Y-41250D02*
X50250Y-41250D01*
X44250Y-47250D02*
X50250Y-47250D01*
X44250Y-46250D02*
X43950Y-46250D01*
X43950Y-46250D02*
X43950Y-42250D01*
X43950Y-42250D02*
X44250Y-42250D01*
X48250Y-47250D02*
X48250Y-41250D01*
X44250Y-47250D02*
X44250Y-41250D01*
X50250Y-47250D02*
X50250Y-41250D01*
G54D16*
X54433Y-45623D02*
X54414Y-45642D01*
X54357Y-45661D01*
X54319Y-45661D01*
X54261Y-45642D01*
X54223Y-45604D01*
X54204Y-45566D01*
X54185Y-45490D01*
X54185Y-45433D01*
X54204Y-45357D01*
X54223Y-45319D01*
X54261Y-45280D01*
X54319Y-45261D01*
X54357Y-45261D01*
X54414Y-45280D01*
X54433Y-45300D01*
X54814Y-45661D02*
X54585Y-45661D01*
X54700Y-45661D02*
X54700Y-45261D01*
X54661Y-45319D01*
X54623Y-45357D01*
X54585Y-45376D01*
X53361Y-46928D02*
X53361Y-47157D01*
X53361Y-47042D02*
X52961Y-47042D01*
X53019Y-47080D01*
X53057Y-47119D01*
X53076Y-47157D01*
X52961Y-46680D02*
X52961Y-46642D01*
X52980Y-46604D01*
X53000Y-46585D01*
X53038Y-46566D01*
X53114Y-46547D01*
X53209Y-46547D01*
X53285Y-46566D01*
X53323Y-46585D01*
X53342Y-46604D01*
X53361Y-46642D01*
X53361Y-46680D01*
X53342Y-46719D01*
X53323Y-46738D01*
X53285Y-46757D01*
X53209Y-46776D01*
X53114Y-46776D01*
X53038Y-46757D01*
X53000Y-46738D01*
X52980Y-46719D01*
X52961Y-46680D01*
X53095Y-46204D02*
X53361Y-46204D01*
X53095Y-46376D02*
X53304Y-46376D01*
X53342Y-46357D01*
X53361Y-46319D01*
X53361Y-46261D01*
X53342Y-46223D01*
X53323Y-46204D01*
X53152Y-45880D02*
X53152Y-46014D01*
X53361Y-46014D02*
X52961Y-46014D01*
X52961Y-45823D01*
X57411Y-46566D02*
X57221Y-46699D01*
X57411Y-46795D02*
X57011Y-46795D01*
X57011Y-46642D01*
X57030Y-46604D01*
X57050Y-46585D01*
X57088Y-46566D01*
X57145Y-46566D01*
X57183Y-46585D01*
X57202Y-46604D01*
X57221Y-46642D01*
X57221Y-46795D01*
X57411Y-46185D02*
X57411Y-46414D01*
X57411Y-46299D02*
X57011Y-46299D01*
X57069Y-46338D01*
X57107Y-46376D01*
X57126Y-46414D01*
X59411Y-46766D02*
X59411Y-46995D01*
X59411Y-46880D02*
X59011Y-46880D01*
X59069Y-46919D01*
X59107Y-46957D01*
X59126Y-46995D01*
X59011Y-46404D02*
X59011Y-46595D01*
X59202Y-46614D01*
X59183Y-46595D01*
X59164Y-46557D01*
X59164Y-46461D01*
X59183Y-46423D01*
X59202Y-46404D01*
X59240Y-46385D01*
X59335Y-46385D01*
X59373Y-46404D01*
X59392Y-46423D01*
X59411Y-46461D01*
X59411Y-46557D01*
X59392Y-46595D01*
X59373Y-46614D01*
X59011Y-46138D02*
X59011Y-46100D01*
X59030Y-46061D01*
X59050Y-46042D01*
X59088Y-46023D01*
X59164Y-46004D01*
X59259Y-46004D01*
X59335Y-46023D01*
X59373Y-46042D01*
X59392Y-46061D01*
X59411Y-46100D01*
X59411Y-46138D01*
X59392Y-46176D01*
X59373Y-46195D01*
X59335Y-46214D01*
X59259Y-46233D01*
X59164Y-46233D01*
X59088Y-46214D01*
X59050Y-46195D01*
X59030Y-46176D01*
X59011Y-46138D01*
X76933Y-45623D02*
X76914Y-45642D01*
X76857Y-45661D01*
X76819Y-45661D01*
X76761Y-45642D01*
X76723Y-45604D01*
X76704Y-45566D01*
X76685Y-45490D01*
X76685Y-45433D01*
X76704Y-45357D01*
X76723Y-45319D01*
X76761Y-45280D01*
X76819Y-45261D01*
X76857Y-45261D01*
X76914Y-45280D01*
X76933Y-45300D01*
X77276Y-45395D02*
X77276Y-45661D01*
X77180Y-45242D02*
X77085Y-45528D01*
X77333Y-45528D01*
X75911Y-46928D02*
X75911Y-47157D01*
X75911Y-47042D02*
X75511Y-47042D01*
X75569Y-47080D01*
X75607Y-47119D01*
X75626Y-47157D01*
X75511Y-46680D02*
X75511Y-46642D01*
X75530Y-46604D01*
X75550Y-46585D01*
X75588Y-46566D01*
X75664Y-46547D01*
X75759Y-46547D01*
X75835Y-46566D01*
X75873Y-46585D01*
X75892Y-46604D01*
X75911Y-46642D01*
X75911Y-46680D01*
X75892Y-46719D01*
X75873Y-46738D01*
X75835Y-46757D01*
X75759Y-46776D01*
X75664Y-46776D01*
X75588Y-46757D01*
X75550Y-46738D01*
X75530Y-46719D01*
X75511Y-46680D01*
X75645Y-46204D02*
X75911Y-46204D01*
X75645Y-46376D02*
X75854Y-46376D01*
X75892Y-46357D01*
X75911Y-46319D01*
X75911Y-46261D01*
X75892Y-46223D01*
X75873Y-46204D01*
X75702Y-45880D02*
X75702Y-46014D01*
X75911Y-46014D02*
X75511Y-46014D01*
X75511Y-45823D01*
X61933Y-45623D02*
X61914Y-45642D01*
X61857Y-45661D01*
X61819Y-45661D01*
X61761Y-45642D01*
X61723Y-45604D01*
X61704Y-45566D01*
X61685Y-45490D01*
X61685Y-45433D01*
X61704Y-45357D01*
X61723Y-45319D01*
X61761Y-45280D01*
X61819Y-45261D01*
X61857Y-45261D01*
X61914Y-45280D01*
X61933Y-45300D01*
X62085Y-45300D02*
X62104Y-45280D01*
X62142Y-45261D01*
X62238Y-45261D01*
X62276Y-45280D01*
X62295Y-45300D01*
X62314Y-45338D01*
X62314Y-45376D01*
X62295Y-45433D01*
X62066Y-45661D01*
X62314Y-45661D01*
X60911Y-46928D02*
X60911Y-47157D01*
X60911Y-47042D02*
X60511Y-47042D01*
X60569Y-47080D01*
X60607Y-47119D01*
X60626Y-47157D01*
X60511Y-46680D02*
X60511Y-46642D01*
X60530Y-46604D01*
X60550Y-46585D01*
X60588Y-46566D01*
X60664Y-46547D01*
X60759Y-46547D01*
X60835Y-46566D01*
X60873Y-46585D01*
X60892Y-46604D01*
X60911Y-46642D01*
X60911Y-46680D01*
X60892Y-46719D01*
X60873Y-46738D01*
X60835Y-46757D01*
X60759Y-46776D01*
X60664Y-46776D01*
X60588Y-46757D01*
X60550Y-46738D01*
X60530Y-46719D01*
X60511Y-46680D01*
X60645Y-46204D02*
X60911Y-46204D01*
X60645Y-46376D02*
X60854Y-46376D01*
X60892Y-46357D01*
X60911Y-46319D01*
X60911Y-46261D01*
X60892Y-46223D01*
X60873Y-46204D01*
X60702Y-45880D02*
X60702Y-46014D01*
X60911Y-46014D02*
X60511Y-46014D01*
X60511Y-45823D01*
X69433Y-45623D02*
X69414Y-45642D01*
X69357Y-45661D01*
X69319Y-45661D01*
X69261Y-45642D01*
X69223Y-45604D01*
X69204Y-45566D01*
X69185Y-45490D01*
X69185Y-45433D01*
X69204Y-45357D01*
X69223Y-45319D01*
X69261Y-45280D01*
X69319Y-45261D01*
X69357Y-45261D01*
X69414Y-45280D01*
X69433Y-45300D01*
X69566Y-45261D02*
X69814Y-45261D01*
X69680Y-45414D01*
X69738Y-45414D01*
X69776Y-45433D01*
X69795Y-45452D01*
X69814Y-45490D01*
X69814Y-45585D01*
X69795Y-45623D01*
X69776Y-45642D01*
X69738Y-45661D01*
X69623Y-45661D01*
X69585Y-45642D01*
X69566Y-45623D01*
X68411Y-46928D02*
X68411Y-47157D01*
X68411Y-47042D02*
X68011Y-47042D01*
X68069Y-47080D01*
X68107Y-47119D01*
X68126Y-47157D01*
X68011Y-46680D02*
X68011Y-46642D01*
X68030Y-46604D01*
X68050Y-46585D01*
X68088Y-46566D01*
X68164Y-46547D01*
X68259Y-46547D01*
X68335Y-46566D01*
X68373Y-46585D01*
X68392Y-46604D01*
X68411Y-46642D01*
X68411Y-46680D01*
X68392Y-46719D01*
X68373Y-46738D01*
X68335Y-46757D01*
X68259Y-46776D01*
X68164Y-46776D01*
X68088Y-46757D01*
X68050Y-46738D01*
X68030Y-46719D01*
X68011Y-46680D01*
X68145Y-46204D02*
X68411Y-46204D01*
X68145Y-46376D02*
X68354Y-46376D01*
X68392Y-46357D01*
X68411Y-46319D01*
X68411Y-46261D01*
X68392Y-46223D01*
X68373Y-46204D01*
X68202Y-45880D02*
X68202Y-46014D01*
X68411Y-46014D02*
X68011Y-46014D01*
X68011Y-45823D01*
X87704Y-36661D02*
X87704Y-36261D01*
X87800Y-36261D01*
X87857Y-36280D01*
X87895Y-36319D01*
X87914Y-36357D01*
X87933Y-36433D01*
X87933Y-36490D01*
X87914Y-36566D01*
X87895Y-36604D01*
X87857Y-36642D01*
X87800Y-36661D01*
X87704Y-36661D01*
X88314Y-36661D02*
X88085Y-36661D01*
X88200Y-36661D02*
X88200Y-36261D01*
X88161Y-36319D01*
X88123Y-36357D01*
X88085Y-36376D01*
X64911Y-46566D02*
X64721Y-46699D01*
X64911Y-46795D02*
X64511Y-46795D01*
X64511Y-46642D01*
X64530Y-46604D01*
X64550Y-46585D01*
X64588Y-46566D01*
X64645Y-46566D01*
X64683Y-46585D01*
X64702Y-46604D01*
X64721Y-46642D01*
X64721Y-46795D01*
X64550Y-46414D02*
X64530Y-46395D01*
X64511Y-46357D01*
X64511Y-46261D01*
X64530Y-46223D01*
X64550Y-46204D01*
X64588Y-46185D01*
X64626Y-46185D01*
X64683Y-46204D01*
X64911Y-46433D01*
X64911Y-46185D01*
X66911Y-46766D02*
X66911Y-46995D01*
X66911Y-46880D02*
X66511Y-46880D01*
X66569Y-46919D01*
X66607Y-46957D01*
X66626Y-46995D01*
X66511Y-46404D02*
X66511Y-46595D01*
X66702Y-46614D01*
X66683Y-46595D01*
X66664Y-46557D01*
X66664Y-46461D01*
X66683Y-46423D01*
X66702Y-46404D01*
X66740Y-46385D01*
X66835Y-46385D01*
X66873Y-46404D01*
X66892Y-46423D01*
X66911Y-46461D01*
X66911Y-46557D01*
X66892Y-46595D01*
X66873Y-46614D01*
X66511Y-46138D02*
X66511Y-46100D01*
X66530Y-46061D01*
X66550Y-46042D01*
X66588Y-46023D01*
X66664Y-46004D01*
X66759Y-46004D01*
X66835Y-46023D01*
X66873Y-46042D01*
X66892Y-46061D01*
X66911Y-46100D01*
X66911Y-46138D01*
X66892Y-46176D01*
X66873Y-46195D01*
X66835Y-46214D01*
X66759Y-46233D01*
X66664Y-46233D01*
X66588Y-46214D01*
X66550Y-46195D01*
X66530Y-46176D01*
X66511Y-46138D01*
X72411Y-46566D02*
X72221Y-46699D01*
X72411Y-46795D02*
X72011Y-46795D01*
X72011Y-46642D01*
X72030Y-46604D01*
X72050Y-46585D01*
X72088Y-46566D01*
X72145Y-46566D01*
X72183Y-46585D01*
X72202Y-46604D01*
X72221Y-46642D01*
X72221Y-46795D01*
X72011Y-46433D02*
X72011Y-46185D01*
X72164Y-46319D01*
X72164Y-46261D01*
X72183Y-46223D01*
X72202Y-46204D01*
X72240Y-46185D01*
X72335Y-46185D01*
X72373Y-46204D01*
X72392Y-46223D01*
X72411Y-46261D01*
X72411Y-46376D01*
X72392Y-46414D01*
X72373Y-46433D01*
X74411Y-46766D02*
X74411Y-46995D01*
X74411Y-46880D02*
X74011Y-46880D01*
X74069Y-46919D01*
X74107Y-46957D01*
X74126Y-46995D01*
X74011Y-46404D02*
X74011Y-46595D01*
X74202Y-46614D01*
X74183Y-46595D01*
X74164Y-46557D01*
X74164Y-46461D01*
X74183Y-46423D01*
X74202Y-46404D01*
X74240Y-46385D01*
X74335Y-46385D01*
X74373Y-46404D01*
X74392Y-46423D01*
X74411Y-46461D01*
X74411Y-46557D01*
X74392Y-46595D01*
X74373Y-46614D01*
X74011Y-46138D02*
X74011Y-46100D01*
X74030Y-46061D01*
X74050Y-46042D01*
X74088Y-46023D01*
X74164Y-46004D01*
X74259Y-46004D01*
X74335Y-46023D01*
X74373Y-46042D01*
X74392Y-46061D01*
X74411Y-46100D01*
X74411Y-46138D01*
X74392Y-46176D01*
X74373Y-46195D01*
X74335Y-46214D01*
X74259Y-46233D01*
X74164Y-46233D01*
X74088Y-46214D01*
X74050Y-46195D01*
X74030Y-46176D01*
X74011Y-46138D01*
X79661Y-46566D02*
X79471Y-46699D01*
X79661Y-46795D02*
X79261Y-46795D01*
X79261Y-46642D01*
X79280Y-46604D01*
X79300Y-46585D01*
X79338Y-46566D01*
X79395Y-46566D01*
X79433Y-46585D01*
X79452Y-46604D01*
X79471Y-46642D01*
X79471Y-46795D01*
X79395Y-46223D02*
X79661Y-46223D01*
X79242Y-46319D02*
X79528Y-46414D01*
X79528Y-46166D01*
X80233Y-45411D02*
X80004Y-45411D01*
X80119Y-45411D02*
X80119Y-45011D01*
X80080Y-45069D01*
X80042Y-45107D01*
X80004Y-45126D01*
X80595Y-45011D02*
X80404Y-45011D01*
X80385Y-45202D01*
X80404Y-45183D01*
X80442Y-45164D01*
X80538Y-45164D01*
X80576Y-45183D01*
X80595Y-45202D01*
X80614Y-45240D01*
X80614Y-45335D01*
X80595Y-45373D01*
X80576Y-45392D01*
X80538Y-45411D01*
X80442Y-45411D01*
X80404Y-45392D01*
X80385Y-45373D01*
X80861Y-45011D02*
X80900Y-45011D01*
X80938Y-45030D01*
X80957Y-45050D01*
X80976Y-45088D01*
X80995Y-45164D01*
X80995Y-45259D01*
X80976Y-45335D01*
X80957Y-45373D01*
X80938Y-45392D01*
X80900Y-45411D01*
X80861Y-45411D01*
X80823Y-45392D01*
X80804Y-45373D01*
X80785Y-45335D01*
X80766Y-45259D01*
X80766Y-45164D01*
X80785Y-45088D01*
X80804Y-45050D01*
X80823Y-45030D01*
X80861Y-45011D01*
X84411Y-37316D02*
X84221Y-37449D01*
X84411Y-37545D02*
X84011Y-37545D01*
X84011Y-37392D01*
X84030Y-37354D01*
X84050Y-37335D01*
X84088Y-37316D01*
X84145Y-37316D01*
X84183Y-37335D01*
X84202Y-37354D01*
X84221Y-37392D01*
X84221Y-37545D01*
X84011Y-36954D02*
X84011Y-37145D01*
X84202Y-37164D01*
X84183Y-37145D01*
X84164Y-37107D01*
X84164Y-37011D01*
X84183Y-36973D01*
X84202Y-36954D01*
X84240Y-36935D01*
X84335Y-36935D01*
X84373Y-36954D01*
X84392Y-36973D01*
X84411Y-37011D01*
X84411Y-37107D01*
X84392Y-37145D01*
X84373Y-37164D01*
X84976Y-36411D02*
X84747Y-36411D01*
X84861Y-36411D02*
X84861Y-36011D01*
X84823Y-36069D01*
X84785Y-36107D01*
X84747Y-36126D01*
X85147Y-36373D02*
X85166Y-36392D01*
X85147Y-36411D01*
X85128Y-36392D01*
X85147Y-36373D01*
X85147Y-36411D01*
X85357Y-36411D02*
X85433Y-36411D01*
X85471Y-36392D01*
X85490Y-36373D01*
X85528Y-36316D01*
X85547Y-36240D01*
X85547Y-36088D01*
X85528Y-36050D01*
X85509Y-36030D01*
X85471Y-36011D01*
X85395Y-36011D01*
X85357Y-36030D01*
X85338Y-36050D01*
X85319Y-36088D01*
X85319Y-36183D01*
X85338Y-36221D01*
X85357Y-36240D01*
X85395Y-36259D01*
X85471Y-36259D01*
X85509Y-36240D01*
X85528Y-36221D01*
X85547Y-36183D01*
X85890Y-36011D02*
X85814Y-36011D01*
X85776Y-36030D01*
X85757Y-36050D01*
X85719Y-36107D01*
X85700Y-36183D01*
X85700Y-36335D01*
X85719Y-36373D01*
X85738Y-36392D01*
X85776Y-36411D01*
X85852Y-36411D01*
X85890Y-36392D01*
X85909Y-36373D01*
X85928Y-36335D01*
X85928Y-36240D01*
X85909Y-36202D01*
X85890Y-36183D01*
X85852Y-36164D01*
X85776Y-36164D01*
X85738Y-36183D01*
X85719Y-36202D01*
X85700Y-36240D01*
X86100Y-36411D02*
X86100Y-36011D01*
X86138Y-36259D02*
X86252Y-36411D01*
X86252Y-36145D02*
X86100Y-36297D01*
X88454Y-44411D02*
X88454Y-44011D01*
X88607Y-44011D01*
X88645Y-44030D01*
X88664Y-44050D01*
X88683Y-44088D01*
X88683Y-44145D01*
X88664Y-44183D01*
X88645Y-44202D01*
X88607Y-44221D01*
X88454Y-44221D01*
X89045Y-44011D02*
X88854Y-44011D01*
X88835Y-44202D01*
X88854Y-44183D01*
X88892Y-44164D01*
X88988Y-44164D01*
X89026Y-44183D01*
X89045Y-44202D01*
X89064Y-44240D01*
X89064Y-44335D01*
X89045Y-44373D01*
X89026Y-44392D01*
X88988Y-44411D01*
X88892Y-44411D01*
X88854Y-44392D01*
X88835Y-44373D01*
G54D15*
X89014Y-36907D02*
X89014Y-36450D01*
X89242Y-36678D02*
X88785Y-36678D01*
X88700Y-36192D02*
X88671Y-36164D01*
X88642Y-36107D01*
X88642Y-35964D01*
X88671Y-35907D01*
X88700Y-35878D01*
X88757Y-35850D01*
X88814Y-35850D01*
X88900Y-35878D01*
X89242Y-36221D01*
X89242Y-35850D01*
X88842Y-35335D02*
X89242Y-35335D01*
X88614Y-35478D02*
X89042Y-35621D01*
X89042Y-35250D01*
X88642Y-35107D02*
X89242Y-34907D01*
X88642Y-34707D01*
X89242Y-34507D02*
X88642Y-34507D01*
X88642Y-34364D01*
X88671Y-34278D01*
X88728Y-34221D01*
X88785Y-34192D01*
X88900Y-34164D01*
X88985Y-34164D01*
X89100Y-34192D01*
X89157Y-34221D01*
X89214Y-34278D01*
X89242Y-34364D01*
X89242Y-34507D01*
X89185Y-33564D02*
X89214Y-33592D01*
X89242Y-33678D01*
X89242Y-33735D01*
X89214Y-33821D01*
X89157Y-33878D01*
X89100Y-33907D01*
X88985Y-33935D01*
X88900Y-33935D01*
X88785Y-33907D01*
X88728Y-33878D01*
X88671Y-33821D01*
X88642Y-33735D01*
X88642Y-33678D01*
X88671Y-33592D01*
X88700Y-33564D01*
G54D16*
X75161Y-34045D02*
X74761Y-34045D01*
X74761Y-33892D01*
X74780Y-33854D01*
X74800Y-33835D01*
X74838Y-33816D01*
X74895Y-33816D01*
X74933Y-33835D01*
X74952Y-33854D01*
X74971Y-33892D01*
X74971Y-34045D01*
X74895Y-33473D02*
X75161Y-33473D01*
X74742Y-33569D02*
X75028Y-33664D01*
X75028Y-33416D01*
X78761Y-35002D02*
X78761Y-34926D01*
X78780Y-34888D01*
X78819Y-34850D01*
X78895Y-34830D01*
X79028Y-34830D01*
X79104Y-34850D01*
X79142Y-34888D01*
X79161Y-34926D01*
X79161Y-35002D01*
X79142Y-35040D01*
X79104Y-35078D01*
X79028Y-35097D01*
X78895Y-35097D01*
X78819Y-35078D01*
X78780Y-35040D01*
X78761Y-35002D01*
X78761Y-34659D02*
X79085Y-34659D01*
X79123Y-34640D01*
X79142Y-34621D01*
X79161Y-34583D01*
X79161Y-34507D01*
X79142Y-34469D01*
X79123Y-34450D01*
X79085Y-34430D01*
X78761Y-34430D01*
X78761Y-34297D02*
X78761Y-34069D01*
X79161Y-34183D02*
X78761Y-34183D01*
X79200Y-34030D02*
X79200Y-33726D01*
X79161Y-33630D02*
X78761Y-33630D01*
X78761Y-33535D01*
X78780Y-33478D01*
X78819Y-33440D01*
X78857Y-33421D01*
X78933Y-33402D01*
X78990Y-33402D01*
X79066Y-33421D01*
X79104Y-33440D01*
X79142Y-33478D01*
X79161Y-33535D01*
X79161Y-33630D01*
X67661Y-34045D02*
X67261Y-34045D01*
X67261Y-33892D01*
X67280Y-33854D01*
X67300Y-33835D01*
X67338Y-33816D01*
X67395Y-33816D01*
X67433Y-33835D01*
X67452Y-33854D01*
X67471Y-33892D01*
X67471Y-34045D01*
X67261Y-33683D02*
X67261Y-33435D01*
X67414Y-33569D01*
X67414Y-33511D01*
X67433Y-33473D01*
X67452Y-33454D01*
X67490Y-33435D01*
X67585Y-33435D01*
X67623Y-33454D01*
X67642Y-33473D01*
X67661Y-33511D01*
X67661Y-33626D01*
X67642Y-33664D01*
X67623Y-33683D01*
X71261Y-35002D02*
X71261Y-34926D01*
X71280Y-34888D01*
X71319Y-34850D01*
X71395Y-34830D01*
X71528Y-34830D01*
X71604Y-34850D01*
X71642Y-34888D01*
X71661Y-34926D01*
X71661Y-35002D01*
X71642Y-35040D01*
X71604Y-35078D01*
X71528Y-35097D01*
X71395Y-35097D01*
X71319Y-35078D01*
X71280Y-35040D01*
X71261Y-35002D01*
X71261Y-34659D02*
X71585Y-34659D01*
X71623Y-34640D01*
X71642Y-34621D01*
X71661Y-34583D01*
X71661Y-34507D01*
X71642Y-34469D01*
X71623Y-34450D01*
X71585Y-34430D01*
X71261Y-34430D01*
X71261Y-34297D02*
X71261Y-34069D01*
X71661Y-34183D02*
X71261Y-34183D01*
X71700Y-34030D02*
X71700Y-33726D01*
X71623Y-33402D02*
X71642Y-33421D01*
X71661Y-33478D01*
X71661Y-33516D01*
X71642Y-33573D01*
X71604Y-33611D01*
X71566Y-33630D01*
X71490Y-33650D01*
X71433Y-33650D01*
X71357Y-33630D01*
X71319Y-33611D01*
X71280Y-33573D01*
X71261Y-33516D01*
X71261Y-33478D01*
X71280Y-33421D01*
X71300Y-33402D01*
X60161Y-34045D02*
X59761Y-34045D01*
X59761Y-33892D01*
X59780Y-33854D01*
X59800Y-33835D01*
X59838Y-33816D01*
X59895Y-33816D01*
X59933Y-33835D01*
X59952Y-33854D01*
X59971Y-33892D01*
X59971Y-34045D01*
X59800Y-33664D02*
X59780Y-33645D01*
X59761Y-33607D01*
X59761Y-33511D01*
X59780Y-33473D01*
X59800Y-33454D01*
X59838Y-33435D01*
X59876Y-33435D01*
X59933Y-33454D01*
X60161Y-33683D01*
X60161Y-33435D01*
X63761Y-35002D02*
X63761Y-34926D01*
X63780Y-34888D01*
X63819Y-34850D01*
X63895Y-34830D01*
X64028Y-34830D01*
X64104Y-34850D01*
X64142Y-34888D01*
X64161Y-34926D01*
X64161Y-35002D01*
X64142Y-35040D01*
X64104Y-35078D01*
X64028Y-35097D01*
X63895Y-35097D01*
X63819Y-35078D01*
X63780Y-35040D01*
X63761Y-35002D01*
X63761Y-34659D02*
X64085Y-34659D01*
X64123Y-34640D01*
X64142Y-34621D01*
X64161Y-34583D01*
X64161Y-34507D01*
X64142Y-34469D01*
X64123Y-34450D01*
X64085Y-34430D01*
X63761Y-34430D01*
X63761Y-34297D02*
X63761Y-34069D01*
X64161Y-34183D02*
X63761Y-34183D01*
X64200Y-34030D02*
X64200Y-33726D01*
X63952Y-33497D02*
X63971Y-33440D01*
X63990Y-33421D01*
X64028Y-33402D01*
X64085Y-33402D01*
X64123Y-33421D01*
X64142Y-33440D01*
X64161Y-33478D01*
X64161Y-33630D01*
X63761Y-33630D01*
X63761Y-33497D01*
X63780Y-33459D01*
X63800Y-33440D01*
X63838Y-33421D01*
X63876Y-33421D01*
X63914Y-33440D01*
X63933Y-33459D01*
X63952Y-33497D01*
X63952Y-33630D01*
X52661Y-34045D02*
X52261Y-34045D01*
X52261Y-33892D01*
X52280Y-33854D01*
X52300Y-33835D01*
X52338Y-33816D01*
X52395Y-33816D01*
X52433Y-33835D01*
X52452Y-33854D01*
X52471Y-33892D01*
X52471Y-34045D01*
X52661Y-33435D02*
X52661Y-33664D01*
X52661Y-33549D02*
X52261Y-33549D01*
X52319Y-33588D01*
X52357Y-33626D01*
X52376Y-33664D01*
X56261Y-34973D02*
X56261Y-34897D01*
X56280Y-34859D01*
X56319Y-34821D01*
X56395Y-34802D01*
X56528Y-34802D01*
X56604Y-34821D01*
X56642Y-34859D01*
X56661Y-34897D01*
X56661Y-34973D01*
X56642Y-35011D01*
X56604Y-35049D01*
X56528Y-35069D01*
X56395Y-35069D01*
X56319Y-35049D01*
X56280Y-35011D01*
X56261Y-34973D01*
X56261Y-34630D02*
X56585Y-34630D01*
X56623Y-34611D01*
X56642Y-34592D01*
X56661Y-34554D01*
X56661Y-34478D01*
X56642Y-34440D01*
X56623Y-34421D01*
X56585Y-34402D01*
X56261Y-34402D01*
X56261Y-34269D02*
X56261Y-34040D01*
X56661Y-34154D02*
X56261Y-34154D01*
X56700Y-34002D02*
X56700Y-33697D01*
X56547Y-33621D02*
X56547Y-33430D01*
X56661Y-33659D02*
X56261Y-33526D01*
X56661Y-33392D01*
X74161Y-44216D02*
X73971Y-44349D01*
X74161Y-44445D02*
X73761Y-44445D01*
X73761Y-44292D01*
X73780Y-44254D01*
X73800Y-44235D01*
X73838Y-44216D01*
X73895Y-44216D01*
X73933Y-44235D01*
X73952Y-44254D01*
X73971Y-44292D01*
X73971Y-44445D01*
X74123Y-43816D02*
X74142Y-43835D01*
X74161Y-43892D01*
X74161Y-43930D01*
X74142Y-43988D01*
X74104Y-44026D01*
X74066Y-44045D01*
X73990Y-44064D01*
X73933Y-44064D01*
X73857Y-44045D01*
X73819Y-44026D01*
X73780Y-43988D01*
X73761Y-43930D01*
X73761Y-43892D01*
X73780Y-43835D01*
X73800Y-43816D01*
X74161Y-43645D02*
X73761Y-43645D01*
X73761Y-43549D01*
X73780Y-43492D01*
X73819Y-43454D01*
X73857Y-43435D01*
X73933Y-43416D01*
X73990Y-43416D01*
X74066Y-43435D01*
X74104Y-43454D01*
X74142Y-43492D01*
X74161Y-43549D01*
X74161Y-43645D01*
X73895Y-43073D02*
X74161Y-43073D01*
X73742Y-43169D02*
X74028Y-43264D01*
X74028Y-43016D01*
X77161Y-40904D02*
X76971Y-41038D01*
X77161Y-41133D02*
X76761Y-41133D01*
X76761Y-40980D01*
X76780Y-40942D01*
X76800Y-40923D01*
X76838Y-40904D01*
X76895Y-40904D01*
X76933Y-40923D01*
X76952Y-40942D01*
X76971Y-40980D01*
X76971Y-41133D01*
X77123Y-40504D02*
X77142Y-40523D01*
X77161Y-40580D01*
X77161Y-40619D01*
X77142Y-40676D01*
X77104Y-40714D01*
X77066Y-40733D01*
X76990Y-40752D01*
X76933Y-40752D01*
X76857Y-40733D01*
X76819Y-40714D01*
X76780Y-40676D01*
X76761Y-40619D01*
X76761Y-40580D01*
X76780Y-40523D01*
X76800Y-40504D01*
X77161Y-40333D02*
X76761Y-40333D01*
X76761Y-40238D01*
X76780Y-40180D01*
X76819Y-40142D01*
X76857Y-40123D01*
X76933Y-40104D01*
X76990Y-40104D01*
X77066Y-40123D01*
X77104Y-40142D01*
X77142Y-40180D01*
X77161Y-40238D01*
X77161Y-40333D01*
X77009Y-39933D02*
X77009Y-39628D01*
X76800Y-39457D02*
X76780Y-39438D01*
X76761Y-39399D01*
X76761Y-39304D01*
X76780Y-39266D01*
X76800Y-39247D01*
X76838Y-39228D01*
X76876Y-39228D01*
X76933Y-39247D01*
X77161Y-39476D01*
X77161Y-39228D01*
X76895Y-38885D02*
X77161Y-38885D01*
X76742Y-38980D02*
X77028Y-39076D01*
X77028Y-38828D01*
X66661Y-44216D02*
X66471Y-44349D01*
X66661Y-44445D02*
X66261Y-44445D01*
X66261Y-44292D01*
X66280Y-44254D01*
X66300Y-44235D01*
X66338Y-44216D01*
X66395Y-44216D01*
X66433Y-44235D01*
X66452Y-44254D01*
X66471Y-44292D01*
X66471Y-44445D01*
X66623Y-43816D02*
X66642Y-43835D01*
X66661Y-43892D01*
X66661Y-43930D01*
X66642Y-43988D01*
X66604Y-44026D01*
X66566Y-44045D01*
X66490Y-44064D01*
X66433Y-44064D01*
X66357Y-44045D01*
X66319Y-44026D01*
X66280Y-43988D01*
X66261Y-43930D01*
X66261Y-43892D01*
X66280Y-43835D01*
X66300Y-43816D01*
X66661Y-43645D02*
X66261Y-43645D01*
X66261Y-43549D01*
X66280Y-43492D01*
X66319Y-43454D01*
X66357Y-43435D01*
X66433Y-43416D01*
X66490Y-43416D01*
X66566Y-43435D01*
X66604Y-43454D01*
X66642Y-43492D01*
X66661Y-43549D01*
X66661Y-43645D01*
X66261Y-43283D02*
X66261Y-43035D01*
X66414Y-43169D01*
X66414Y-43111D01*
X66433Y-43073D01*
X66452Y-43054D01*
X66490Y-43035D01*
X66585Y-43035D01*
X66623Y-43054D01*
X66642Y-43073D01*
X66661Y-43111D01*
X66661Y-43226D01*
X66642Y-43264D01*
X66623Y-43283D01*
X69661Y-40904D02*
X69471Y-41038D01*
X69661Y-41133D02*
X69261Y-41133D01*
X69261Y-40980D01*
X69280Y-40942D01*
X69300Y-40923D01*
X69338Y-40904D01*
X69395Y-40904D01*
X69433Y-40923D01*
X69452Y-40942D01*
X69471Y-40980D01*
X69471Y-41133D01*
X69623Y-40504D02*
X69642Y-40523D01*
X69661Y-40580D01*
X69661Y-40619D01*
X69642Y-40676D01*
X69604Y-40714D01*
X69566Y-40733D01*
X69490Y-40752D01*
X69433Y-40752D01*
X69357Y-40733D01*
X69319Y-40714D01*
X69280Y-40676D01*
X69261Y-40619D01*
X69261Y-40580D01*
X69280Y-40523D01*
X69300Y-40504D01*
X69661Y-40333D02*
X69261Y-40333D01*
X69261Y-40238D01*
X69280Y-40180D01*
X69319Y-40142D01*
X69357Y-40123D01*
X69433Y-40104D01*
X69490Y-40104D01*
X69566Y-40123D01*
X69604Y-40142D01*
X69642Y-40180D01*
X69661Y-40238D01*
X69661Y-40333D01*
X69509Y-39933D02*
X69509Y-39628D01*
X69300Y-39457D02*
X69280Y-39438D01*
X69261Y-39399D01*
X69261Y-39304D01*
X69280Y-39266D01*
X69300Y-39247D01*
X69338Y-39228D01*
X69376Y-39228D01*
X69433Y-39247D01*
X69661Y-39476D01*
X69661Y-39228D01*
X69395Y-38885D02*
X69661Y-38885D01*
X69242Y-38980D02*
X69528Y-39076D01*
X69528Y-38828D01*
X59161Y-44216D02*
X58971Y-44349D01*
X59161Y-44445D02*
X58761Y-44445D01*
X58761Y-44292D01*
X58780Y-44254D01*
X58800Y-44235D01*
X58838Y-44216D01*
X58895Y-44216D01*
X58933Y-44235D01*
X58952Y-44254D01*
X58971Y-44292D01*
X58971Y-44445D01*
X59123Y-43816D02*
X59142Y-43835D01*
X59161Y-43892D01*
X59161Y-43930D01*
X59142Y-43988D01*
X59104Y-44026D01*
X59066Y-44045D01*
X58990Y-44064D01*
X58933Y-44064D01*
X58857Y-44045D01*
X58819Y-44026D01*
X58780Y-43988D01*
X58761Y-43930D01*
X58761Y-43892D01*
X58780Y-43835D01*
X58800Y-43816D01*
X59161Y-43645D02*
X58761Y-43645D01*
X58761Y-43549D01*
X58780Y-43492D01*
X58819Y-43454D01*
X58857Y-43435D01*
X58933Y-43416D01*
X58990Y-43416D01*
X59066Y-43435D01*
X59104Y-43454D01*
X59142Y-43492D01*
X59161Y-43549D01*
X59161Y-43645D01*
X58800Y-43264D02*
X58780Y-43245D01*
X58761Y-43207D01*
X58761Y-43111D01*
X58780Y-43073D01*
X58800Y-43054D01*
X58838Y-43035D01*
X58876Y-43035D01*
X58933Y-43054D01*
X59161Y-43283D01*
X59161Y-43035D01*
X62161Y-40904D02*
X61971Y-41038D01*
X62161Y-41133D02*
X61761Y-41133D01*
X61761Y-40980D01*
X61780Y-40942D01*
X61800Y-40923D01*
X61838Y-40904D01*
X61895Y-40904D01*
X61933Y-40923D01*
X61952Y-40942D01*
X61971Y-40980D01*
X61971Y-41133D01*
X62123Y-40504D02*
X62142Y-40523D01*
X62161Y-40580D01*
X62161Y-40619D01*
X62142Y-40676D01*
X62104Y-40714D01*
X62066Y-40733D01*
X61990Y-40752D01*
X61933Y-40752D01*
X61857Y-40733D01*
X61819Y-40714D01*
X61780Y-40676D01*
X61761Y-40619D01*
X61761Y-40580D01*
X61780Y-40523D01*
X61800Y-40504D01*
X62161Y-40333D02*
X61761Y-40333D01*
X61761Y-40238D01*
X61780Y-40180D01*
X61819Y-40142D01*
X61857Y-40123D01*
X61933Y-40104D01*
X61990Y-40104D01*
X62066Y-40123D01*
X62104Y-40142D01*
X62142Y-40180D01*
X62161Y-40238D01*
X62161Y-40333D01*
X62009Y-39933D02*
X62009Y-39628D01*
X61800Y-39457D02*
X61780Y-39438D01*
X61761Y-39399D01*
X61761Y-39304D01*
X61780Y-39266D01*
X61800Y-39247D01*
X61838Y-39228D01*
X61876Y-39228D01*
X61933Y-39247D01*
X62161Y-39476D01*
X62161Y-39228D01*
X61895Y-38885D02*
X62161Y-38885D01*
X61742Y-38980D02*
X62028Y-39076D01*
X62028Y-38828D01*
X51661Y-44216D02*
X51471Y-44349D01*
X51661Y-44445D02*
X51261Y-44445D01*
X51261Y-44292D01*
X51280Y-44254D01*
X51300Y-44235D01*
X51338Y-44216D01*
X51395Y-44216D01*
X51433Y-44235D01*
X51452Y-44254D01*
X51471Y-44292D01*
X51471Y-44445D01*
X51623Y-43816D02*
X51642Y-43835D01*
X51661Y-43892D01*
X51661Y-43930D01*
X51642Y-43988D01*
X51604Y-44026D01*
X51566Y-44045D01*
X51490Y-44064D01*
X51433Y-44064D01*
X51357Y-44045D01*
X51319Y-44026D01*
X51280Y-43988D01*
X51261Y-43930D01*
X51261Y-43892D01*
X51280Y-43835D01*
X51300Y-43816D01*
X51661Y-43645D02*
X51261Y-43645D01*
X51261Y-43549D01*
X51280Y-43492D01*
X51319Y-43454D01*
X51357Y-43435D01*
X51433Y-43416D01*
X51490Y-43416D01*
X51566Y-43435D01*
X51604Y-43454D01*
X51642Y-43492D01*
X51661Y-43549D01*
X51661Y-43645D01*
X51661Y-43035D02*
X51661Y-43264D01*
X51661Y-43149D02*
X51261Y-43149D01*
X51319Y-43188D01*
X51357Y-43226D01*
X51376Y-43264D01*
X54661Y-40904D02*
X54471Y-41038D01*
X54661Y-41133D02*
X54261Y-41133D01*
X54261Y-40980D01*
X54280Y-40942D01*
X54300Y-40923D01*
X54338Y-40904D01*
X54395Y-40904D01*
X54433Y-40923D01*
X54452Y-40942D01*
X54471Y-40980D01*
X54471Y-41133D01*
X54623Y-40504D02*
X54642Y-40523D01*
X54661Y-40580D01*
X54661Y-40619D01*
X54642Y-40676D01*
X54604Y-40714D01*
X54566Y-40733D01*
X54490Y-40752D01*
X54433Y-40752D01*
X54357Y-40733D01*
X54319Y-40714D01*
X54280Y-40676D01*
X54261Y-40619D01*
X54261Y-40580D01*
X54280Y-40523D01*
X54300Y-40504D01*
X54661Y-40333D02*
X54261Y-40333D01*
X54261Y-40238D01*
X54280Y-40180D01*
X54319Y-40142D01*
X54357Y-40123D01*
X54433Y-40104D01*
X54490Y-40104D01*
X54566Y-40123D01*
X54604Y-40142D01*
X54642Y-40180D01*
X54661Y-40238D01*
X54661Y-40333D01*
X54509Y-39933D02*
X54509Y-39628D01*
X54300Y-39457D02*
X54280Y-39438D01*
X54261Y-39399D01*
X54261Y-39304D01*
X54280Y-39266D01*
X54300Y-39247D01*
X54338Y-39228D01*
X54376Y-39228D01*
X54433Y-39247D01*
X54661Y-39476D01*
X54661Y-39228D01*
X54395Y-38885D02*
X54661Y-38885D01*
X54242Y-38980D02*
X54528Y-39076D01*
X54528Y-38828D01*
X89273Y-45816D02*
X89292Y-45835D01*
X89311Y-45892D01*
X89311Y-45930D01*
X89292Y-45988D01*
X89254Y-46026D01*
X89216Y-46045D01*
X89140Y-46064D01*
X89083Y-46064D01*
X89007Y-46045D01*
X88969Y-46026D01*
X88930Y-45988D01*
X88911Y-45930D01*
X88911Y-45892D01*
X88930Y-45835D01*
X88950Y-45816D01*
X88911Y-45473D02*
X88911Y-45549D01*
X88930Y-45588D01*
X88950Y-45607D01*
X89007Y-45645D01*
X89083Y-45664D01*
X89235Y-45664D01*
X89273Y-45645D01*
X89292Y-45626D01*
X89311Y-45588D01*
X89311Y-45511D01*
X89292Y-45473D01*
X89273Y-45454D01*
X89235Y-45435D01*
X89140Y-45435D01*
X89102Y-45454D01*
X89083Y-45473D01*
X89064Y-45511D01*
X89064Y-45588D01*
X89083Y-45626D01*
X89102Y-45645D01*
X89140Y-45664D01*
X87561Y-46178D02*
X87561Y-46407D01*
X87561Y-46292D02*
X87161Y-46292D01*
X87219Y-46330D01*
X87257Y-46369D01*
X87276Y-46407D01*
X87161Y-45930D02*
X87161Y-45892D01*
X87180Y-45854D01*
X87200Y-45835D01*
X87238Y-45816D01*
X87314Y-45797D01*
X87409Y-45797D01*
X87485Y-45816D01*
X87523Y-45835D01*
X87542Y-45854D01*
X87561Y-45892D01*
X87561Y-45930D01*
X87542Y-45969D01*
X87523Y-45988D01*
X87485Y-46007D01*
X87409Y-46026D01*
X87314Y-46026D01*
X87238Y-46007D01*
X87200Y-45988D01*
X87180Y-45969D01*
X87161Y-45930D01*
X87295Y-45454D02*
X87561Y-45454D01*
X87295Y-45626D02*
X87504Y-45626D01*
X87542Y-45607D01*
X87561Y-45569D01*
X87561Y-45511D01*
X87542Y-45473D01*
X87523Y-45454D01*
X87352Y-45130D02*
X87352Y-45264D01*
X87561Y-45264D02*
X87161Y-45264D01*
X87161Y-45073D01*
X73183Y-36873D02*
X73164Y-36892D01*
X73107Y-36911D01*
X73069Y-36911D01*
X73011Y-36892D01*
X72973Y-36854D01*
X72954Y-36816D01*
X72935Y-36740D01*
X72935Y-36683D01*
X72954Y-36607D01*
X72973Y-36569D01*
X73011Y-36530D01*
X73069Y-36511D01*
X73107Y-36511D01*
X73164Y-36530D01*
X73183Y-36550D01*
X73411Y-36683D02*
X73373Y-36664D01*
X73354Y-36645D01*
X73335Y-36607D01*
X73335Y-36588D01*
X73354Y-36550D01*
X73373Y-36530D01*
X73411Y-36511D01*
X73488Y-36511D01*
X73526Y-36530D01*
X73545Y-36550D01*
X73564Y-36588D01*
X73564Y-36607D01*
X73545Y-36645D01*
X73526Y-36664D01*
X73488Y-36683D01*
X73411Y-36683D01*
X73373Y-36702D01*
X73354Y-36721D01*
X73335Y-36759D01*
X73335Y-36835D01*
X73354Y-36873D01*
X73373Y-36892D01*
X73411Y-36911D01*
X73488Y-36911D01*
X73526Y-36892D01*
X73545Y-36873D01*
X73564Y-36835D01*
X73564Y-36759D01*
X73545Y-36721D01*
X73526Y-36702D01*
X73488Y-36683D01*
X72592Y-37261D02*
X72630Y-37261D01*
X72669Y-37280D01*
X72688Y-37300D01*
X72707Y-37338D01*
X72726Y-37414D01*
X72726Y-37509D01*
X72707Y-37585D01*
X72688Y-37623D01*
X72669Y-37642D01*
X72630Y-37661D01*
X72592Y-37661D01*
X72554Y-37642D01*
X72535Y-37623D01*
X72516Y-37585D01*
X72497Y-37509D01*
X72497Y-37414D01*
X72516Y-37338D01*
X72535Y-37300D01*
X72554Y-37280D01*
X72592Y-37261D01*
X72897Y-37623D02*
X72916Y-37642D01*
X72897Y-37661D01*
X72878Y-37642D01*
X72897Y-37623D01*
X72897Y-37661D01*
X73297Y-37661D02*
X73069Y-37661D01*
X73183Y-37661D02*
X73183Y-37261D01*
X73145Y-37319D01*
X73107Y-37357D01*
X73069Y-37376D01*
X73640Y-37395D02*
X73640Y-37661D01*
X73469Y-37395D02*
X73469Y-37604D01*
X73488Y-37642D01*
X73526Y-37661D01*
X73583Y-37661D01*
X73621Y-37642D01*
X73640Y-37623D01*
X73964Y-37452D02*
X73830Y-37452D01*
X73830Y-37661D02*
X73830Y-37261D01*
X74021Y-37261D01*
X73945Y-34511D02*
X73945Y-34835D01*
X73964Y-34873D01*
X73983Y-34892D01*
X74021Y-34911D01*
X74097Y-34911D01*
X74135Y-34892D01*
X74154Y-34873D01*
X74173Y-34835D01*
X74173Y-34511D01*
X74554Y-34511D02*
X74364Y-34511D01*
X74345Y-34702D01*
X74364Y-34683D01*
X74402Y-34664D01*
X74497Y-34664D01*
X74535Y-34683D01*
X74554Y-34702D01*
X74573Y-34740D01*
X74573Y-34835D01*
X74554Y-34873D01*
X74535Y-34892D01*
X74497Y-34911D01*
X74402Y-34911D01*
X74364Y-34892D01*
X74345Y-34873D01*
X71992Y-32661D02*
X71992Y-32261D01*
X72126Y-32547D01*
X72259Y-32261D01*
X72259Y-32661D01*
X72430Y-32547D02*
X72621Y-32547D01*
X72392Y-32661D02*
X72526Y-32261D01*
X72659Y-32661D01*
X72754Y-32261D02*
X73021Y-32661D01*
X73021Y-32261D02*
X72754Y-32661D01*
X73345Y-32261D02*
X73269Y-32261D01*
X73230Y-32280D01*
X73211Y-32300D01*
X73173Y-32357D01*
X73154Y-32433D01*
X73154Y-32585D01*
X73173Y-32623D01*
X73192Y-32642D01*
X73230Y-32661D01*
X73307Y-32661D01*
X73345Y-32642D01*
X73364Y-32623D01*
X73383Y-32585D01*
X73383Y-32490D01*
X73364Y-32452D01*
X73345Y-32433D01*
X73307Y-32414D01*
X73230Y-32414D01*
X73192Y-32433D01*
X73173Y-32452D01*
X73154Y-32490D01*
X73611Y-32433D02*
X73573Y-32414D01*
X73554Y-32395D01*
X73535Y-32357D01*
X73535Y-32338D01*
X73554Y-32300D01*
X73573Y-32280D01*
X73611Y-32261D01*
X73688Y-32261D01*
X73726Y-32280D01*
X73745Y-32300D01*
X73764Y-32338D01*
X73764Y-32357D01*
X73745Y-32395D01*
X73726Y-32414D01*
X73688Y-32433D01*
X73611Y-32433D01*
X73573Y-32452D01*
X73554Y-32471D01*
X73535Y-32509D01*
X73535Y-32585D01*
X73554Y-32623D01*
X73573Y-32642D01*
X73611Y-32661D01*
X73688Y-32661D01*
X73726Y-32642D01*
X73745Y-32623D01*
X73764Y-32585D01*
X73764Y-32509D01*
X73745Y-32471D01*
X73726Y-32452D01*
X73688Y-32433D01*
X74145Y-32661D02*
X73916Y-32661D01*
X74030Y-32661D02*
X74030Y-32261D01*
X73992Y-32319D01*
X73954Y-32357D01*
X73916Y-32376D01*
X74278Y-32261D02*
X74545Y-32261D01*
X74373Y-32661D01*
X45411Y-49795D02*
X45011Y-49795D01*
X45411Y-49566D02*
X45183Y-49738D01*
X45011Y-49566D02*
X45240Y-49795D01*
X45411Y-49185D02*
X45411Y-49414D01*
X45411Y-49299D02*
X45011Y-49299D01*
X45069Y-49338D01*
X45107Y-49376D01*
X45126Y-49414D01*
X46404Y-50411D02*
X46404Y-50011D01*
X46500Y-50011D01*
X46557Y-50030D01*
X46595Y-50069D01*
X46614Y-50107D01*
X46633Y-50183D01*
X46633Y-50240D01*
X46614Y-50316D01*
X46595Y-50354D01*
X46557Y-50392D01*
X46500Y-50411D01*
X46404Y-50411D01*
X46804Y-50411D02*
X46804Y-50011D01*
X46976Y-50392D02*
X47033Y-50411D01*
X47128Y-50411D01*
X47166Y-50392D01*
X47185Y-50373D01*
X47204Y-50335D01*
X47204Y-50297D01*
X47185Y-50259D01*
X47166Y-50240D01*
X47128Y-50221D01*
X47052Y-50202D01*
X47014Y-50183D01*
X46995Y-50164D01*
X46976Y-50126D01*
X46976Y-50088D01*
X46995Y-50050D01*
X47014Y-50030D01*
X47052Y-50011D01*
X47147Y-50011D01*
X47204Y-50030D01*
X47376Y-50411D02*
X47376Y-50011D01*
X47528Y-50011D01*
X47566Y-50030D01*
X47585Y-50050D01*
X47604Y-50088D01*
X47604Y-50145D01*
X47585Y-50183D01*
X47566Y-50202D01*
X47528Y-50221D01*
X47376Y-50221D01*
X47966Y-50411D02*
X47776Y-50411D01*
X47776Y-50011D01*
X48080Y-50297D02*
X48271Y-50297D01*
X48042Y-50411D02*
X48176Y-50011D01*
X48309Y-50411D01*
X48519Y-50221D02*
X48519Y-50411D01*
X48385Y-50011D02*
X48519Y-50221D01*
X48652Y-50011D01*
X84661Y-34295D02*
X84261Y-34295D01*
X84261Y-34142D01*
X84280Y-34104D01*
X84300Y-34085D01*
X84338Y-34066D01*
X84395Y-34066D01*
X84433Y-34085D01*
X84452Y-34104D01*
X84471Y-34142D01*
X84471Y-34295D01*
X84261Y-33933D02*
X84261Y-33666D01*
X84661Y-33838D01*
X84792Y-32892D02*
X84850Y-32911D01*
X84945Y-32911D01*
X84983Y-32892D01*
X85002Y-32873D01*
X85021Y-32835D01*
X85021Y-32797D01*
X85002Y-32759D01*
X84983Y-32740D01*
X84945Y-32721D01*
X84869Y-32702D01*
X84830Y-32683D01*
X84811Y-32664D01*
X84792Y-32626D01*
X84792Y-32588D01*
X84811Y-32550D01*
X84830Y-32530D01*
X84869Y-32511D01*
X84964Y-32511D01*
X85021Y-32530D01*
X85154Y-32511D02*
X85250Y-32911D01*
X85326Y-32626D01*
X85402Y-32911D01*
X85497Y-32511D01*
X85650Y-32911D02*
X85650Y-32511D01*
X85783Y-32511D02*
X86011Y-32511D01*
X85897Y-32911D02*
X85897Y-32511D01*
X86373Y-32873D02*
X86354Y-32892D01*
X86297Y-32911D01*
X86259Y-32911D01*
X86202Y-32892D01*
X86164Y-32854D01*
X86145Y-32816D01*
X86126Y-32740D01*
X86126Y-32683D01*
X86145Y-32607D01*
X86164Y-32569D01*
X86202Y-32530D01*
X86259Y-32511D01*
X86297Y-32511D01*
X86354Y-32530D01*
X86373Y-32550D01*
X86545Y-32911D02*
X86545Y-32511D01*
X86545Y-32702D02*
X86773Y-32702D01*
X86773Y-32911D02*
X86773Y-32511D01*
X86869Y-32950D02*
X87173Y-32950D01*
X87269Y-32911D02*
X87269Y-32511D01*
X87459Y-32911D02*
X87459Y-32511D01*
X87688Y-32911D01*
X87688Y-32511D01*
X44223Y-32702D02*
X44357Y-32702D01*
X44414Y-32911D02*
X44223Y-32911D01*
X44223Y-32511D01*
X44414Y-32511D01*
X44795Y-32911D02*
X44566Y-32911D01*
X44680Y-32911D02*
X44680Y-32511D01*
X44642Y-32569D01*
X44604Y-32607D01*
X44566Y-32626D01*
X45980Y-31952D02*
X46114Y-31952D01*
X46171Y-32161D02*
X45980Y-32161D01*
X45980Y-31761D01*
X46171Y-31761D01*
X46342Y-32161D02*
X46342Y-31761D01*
X46571Y-32161D01*
X46571Y-31761D01*
X46990Y-32123D02*
X46971Y-32142D01*
X46914Y-32161D01*
X46876Y-32161D01*
X46819Y-32142D01*
X46780Y-32104D01*
X46761Y-32066D01*
X46742Y-31990D01*
X46742Y-31933D01*
X46761Y-31857D01*
X46780Y-31819D01*
X46819Y-31780D01*
X46876Y-31761D01*
X46914Y-31761D01*
X46971Y-31780D01*
X46990Y-31800D01*
X47238Y-31761D02*
X47314Y-31761D01*
X47352Y-31780D01*
X47390Y-31819D01*
X47409Y-31895D01*
X47409Y-32028D01*
X47390Y-32104D01*
X47352Y-32142D01*
X47314Y-32161D01*
X47238Y-32161D01*
X47200Y-32142D01*
X47161Y-32104D01*
X47142Y-32028D01*
X47142Y-31895D01*
X47161Y-31819D01*
X47200Y-31780D01*
X47238Y-31761D01*
X47580Y-32161D02*
X47580Y-31761D01*
X47676Y-31761D01*
X47733Y-31780D01*
X47771Y-31819D01*
X47790Y-31857D01*
X47809Y-31933D01*
X47809Y-31990D01*
X47790Y-32066D01*
X47771Y-32104D01*
X47733Y-32142D01*
X47676Y-32161D01*
X47580Y-32161D01*
X47980Y-31952D02*
X48114Y-31952D01*
X48171Y-32161D02*
X47980Y-32161D01*
X47980Y-31761D01*
X48171Y-31761D01*
X48571Y-32161D02*
X48438Y-31971D01*
X48342Y-32161D02*
X48342Y-31761D01*
X48495Y-31761D01*
X48533Y-31780D01*
X48552Y-31800D01*
X48571Y-31838D01*
X48571Y-31895D01*
X48552Y-31933D01*
X48533Y-31952D01*
X48495Y-31971D01*
X48342Y-31971D01*
X48647Y-32200D02*
X48952Y-32200D01*
X49219Y-31761D02*
X49142Y-31761D01*
X49104Y-31780D01*
X49085Y-31800D01*
X49047Y-31857D01*
X49028Y-31933D01*
X49028Y-32085D01*
X49047Y-32123D01*
X49066Y-32142D01*
X49104Y-32161D01*
X49180Y-32161D01*
X49219Y-32142D01*
X49238Y-32123D01*
X49257Y-32085D01*
X49257Y-31990D01*
X49238Y-31952D01*
X49219Y-31933D01*
X49180Y-31914D01*
X49104Y-31914D01*
X49066Y-31933D01*
X49047Y-31952D01*
X49028Y-31990D01*
X49409Y-31800D02*
X49428Y-31780D01*
X49466Y-31761D01*
X49561Y-31761D01*
X49600Y-31780D01*
X49619Y-31800D01*
X49638Y-31838D01*
X49638Y-31876D01*
X49619Y-31933D01*
X49390Y-32161D01*
X49638Y-32161D01*
X49809Y-32161D02*
X49809Y-31761D01*
X49961Y-31761D01*
X50000Y-31780D01*
X50019Y-31800D01*
X50038Y-31838D01*
X50038Y-31895D01*
X50019Y-31933D01*
X50000Y-31952D01*
X49961Y-31971D01*
X49809Y-31971D01*
X85052Y-49161D02*
X84919Y-48971D01*
X84823Y-49161D02*
X84823Y-48761D01*
X84976Y-48761D01*
X85014Y-48780D01*
X85033Y-48800D01*
X85052Y-48838D01*
X85052Y-48895D01*
X85033Y-48933D01*
X85014Y-48952D01*
X84976Y-48971D01*
X84823Y-48971D01*
X85223Y-48952D02*
X85357Y-48952D01*
X85414Y-49161D02*
X85223Y-49161D01*
X85223Y-48761D01*
X85414Y-48761D01*
X85795Y-48780D02*
X85757Y-48761D01*
X85700Y-48761D01*
X85642Y-48780D01*
X85604Y-48819D01*
X85585Y-48857D01*
X85566Y-48933D01*
X85566Y-48990D01*
X85585Y-49066D01*
X85604Y-49104D01*
X85642Y-49142D01*
X85700Y-49161D01*
X85738Y-49161D01*
X85795Y-49142D01*
X85814Y-49123D01*
X85814Y-48990D01*
X85738Y-48990D01*
X86195Y-49161D02*
X85966Y-49161D01*
X86080Y-49161D02*
X86080Y-48761D01*
X86042Y-48819D01*
X86004Y-48857D01*
X85966Y-48876D01*
X50911Y-47295D02*
X50511Y-47295D01*
X50511Y-47142D01*
X50530Y-47104D01*
X50550Y-47085D01*
X50588Y-47066D01*
X50645Y-47066D01*
X50683Y-47085D01*
X50702Y-47104D01*
X50721Y-47142D01*
X50721Y-47295D01*
X50511Y-46723D02*
X50511Y-46799D01*
X50530Y-46838D01*
X50550Y-46857D01*
X50607Y-46895D01*
X50683Y-46914D01*
X50835Y-46914D01*
X50873Y-46895D01*
X50892Y-46876D01*
X50911Y-46838D01*
X50911Y-46761D01*
X50892Y-46723D01*
X50873Y-46704D01*
X50835Y-46685D01*
X50740Y-46685D01*
X50702Y-46704D01*
X50683Y-46723D01*
X50664Y-46761D01*
X50664Y-46838D01*
X50683Y-46876D01*
X50702Y-46895D01*
X50740Y-46914D01*
X50702Y-45088D02*
X50721Y-45030D01*
X50740Y-45011D01*
X50778Y-44992D01*
X50835Y-44992D01*
X50873Y-45011D01*
X50892Y-45030D01*
X50911Y-45069D01*
X50911Y-45221D01*
X50511Y-45221D01*
X50511Y-45088D01*
X50530Y-45050D01*
X50550Y-45030D01*
X50588Y-45011D01*
X50626Y-45011D01*
X50664Y-45030D01*
X50683Y-45050D01*
X50702Y-45088D01*
X50702Y-45221D01*
X50911Y-44821D02*
X50511Y-44821D01*
X50911Y-44592D01*
X50511Y-44592D01*
X50873Y-44173D02*
X50892Y-44192D01*
X50911Y-44250D01*
X50911Y-44288D01*
X50892Y-44345D01*
X50854Y-44383D01*
X50816Y-44402D01*
X50740Y-44421D01*
X50683Y-44421D01*
X50607Y-44402D01*
X50569Y-44383D01*
X50530Y-44345D01*
X50511Y-44288D01*
X50511Y-44250D01*
X50530Y-44192D01*
X50550Y-44173D01*
X50950Y-44097D02*
X50950Y-43792D01*
X50911Y-43697D02*
X50511Y-43697D01*
X50911Y-43507D02*
X50511Y-43507D01*
X50911Y-43278D01*
X50511Y-43278D01*
%LPC*%
G54D17*
X50500Y-50500D03*
X51000Y-31500D03*
X83000Y-50500D03*
X80500Y-31500D03*
G54D18*
X56000Y-50500D03*
X57000Y-50500D03*
X58000Y-50500D03*
X59000Y-50500D03*
X60000Y-50500D03*
X61000Y-50500D03*
X62000Y-50500D03*
X63000Y-50500D03*
X65000Y-50500D03*
X66000Y-50500D03*
X67000Y-50500D03*
X68000Y-50500D03*
X69000Y-50500D03*
X70000Y-50500D03*
X71000Y-50500D03*
X72000Y-50500D03*
X74000Y-50500D03*
X75000Y-50500D03*
X76000Y-50500D03*
X77000Y-50500D03*
X78000Y-50500D03*
X79000Y-50500D03*
X80000Y-50500D03*
X81000Y-50500D03*
X52400Y-31500D03*
X53400Y-31500D03*
X54400Y-31500D03*
X55400Y-31500D03*
X56400Y-31500D03*
X57400Y-31500D03*
X58400Y-31500D03*
X59400Y-31500D03*
X60400Y-31500D03*
X61400Y-31500D03*
X63000Y-31500D03*
X70000Y-31500D03*
X69000Y-31500D03*
X68000Y-31500D03*
X67000Y-31500D03*
X66000Y-31500D03*
X65000Y-31500D03*
X64000Y-31500D03*
X72000Y-31500D03*
X73000Y-31500D03*
X74000Y-31500D03*
X75000Y-31500D03*
X76000Y-31500D03*
X77000Y-31500D03*
X78000Y-31500D03*
X79000Y-31500D03*
G54D19*
X82000Y-31500D03*
X83000Y-31500D03*
X82000Y-32500D03*
X83000Y-32500D03*
X82000Y-33500D03*
X83000Y-33500D03*
X82000Y-34500D03*
X83000Y-34500D03*
X82000Y-35500D03*
X83000Y-35500D03*
X82000Y-36500D03*
X83000Y-36500D03*
X82000Y-37500D03*
X83000Y-37500D03*
X82000Y-38500D03*
X83000Y-38500D03*
X82000Y-39500D03*
X83000Y-39500D03*
X82000Y-40500D03*
X83000Y-40500D03*
X82000Y-41500D03*
X83000Y-41500D03*
X82000Y-42500D03*
X83000Y-42500D03*
X82000Y-43500D03*
X83000Y-43500D03*
X82000Y-44500D03*
X83000Y-44500D03*
X82000Y-45500D03*
X83000Y-45500D03*
X82000Y-46500D03*
X83000Y-46500D03*
X82000Y-47500D03*
X83000Y-47500D03*
X82000Y-48500D03*
X83000Y-48500D03*
G54D20*
X55100Y-46500D03*
X53900Y-46500D03*
G54D21*
X58250Y-47100D03*
X58250Y-45900D03*
G54D20*
X77600Y-46500D03*
X76400Y-46500D03*
X62600Y-46500D03*
X61400Y-46500D03*
X70100Y-46500D03*
X68900Y-46500D03*
G54D22*
X87585Y-37250D03*
X88415Y-37250D03*
G54D21*
X65750Y-47100D03*
X65750Y-45900D03*
X73250Y-47100D03*
X73250Y-45900D03*
X80500Y-47100D03*
X80500Y-45900D03*
G54D20*
X84900Y-37250D03*
X86100Y-37250D03*
G54D23*
X88320Y-41000D03*
G54D24*
X87140Y-41000D03*
G54D25*
X84780Y-41000D03*
G54D24*
X87530Y-39230D03*
X87530Y-42770D03*
G54D26*
X76311Y-33750D03*
G54D27*
X77689Y-33750D03*
G54D26*
X68811Y-33750D03*
G54D27*
X70189Y-33750D03*
G54D26*
X61311Y-33750D03*
G54D27*
X62689Y-33750D03*
G54D26*
X53811Y-33750D03*
G54D27*
X55189Y-33750D03*
G54D28*
X75500Y-43500D03*
G54D29*
X76500Y-43500D03*
X77500Y-43500D03*
X78500Y-43500D03*
X78500Y-36500D03*
X75500Y-36500D03*
G54D28*
X68000Y-43500D03*
G54D29*
X69000Y-43500D03*
X70000Y-43500D03*
X71000Y-43500D03*
X71000Y-36500D03*
X68000Y-36500D03*
G54D28*
X60500Y-43500D03*
G54D29*
X61500Y-43500D03*
X62500Y-43500D03*
X63500Y-43500D03*
X63500Y-36500D03*
X60500Y-36500D03*
G54D28*
X53000Y-43500D03*
G54D29*
X54000Y-43500D03*
X55000Y-43500D03*
X56000Y-43500D03*
X56000Y-36500D03*
X53000Y-36500D03*
G54D21*
X88250Y-45150D03*
X88250Y-46350D03*
G54D20*
X73850Y-35750D03*
X72650Y-35750D03*
G54D30*
X72778Y-33376D03*
X72778Y-33750D03*
X72778Y-34124D03*
X73722Y-34124D03*
X73722Y-33750D03*
X73722Y-33376D03*
G54D31*
X47500Y-48250D03*
X48500Y-48250D03*
G54D32*
X46500Y-48250D03*
G54D31*
X86750Y-34000D03*
G54D32*
X85750Y-34000D03*
G54D33*
X48000Y-36750D03*
G54D19*
X50500Y-40780D03*
X49500Y-40780D03*
X48500Y-40780D03*
X50000Y-32720D03*
X48000Y-32720D03*
X45500Y-32720D03*
G54D34*
X51300Y-34670D03*
X51300Y-38830D03*
X44700Y-34670D03*
X44700Y-38830D03*
G54D19*
X86250Y-46250D03*
X86250Y-45250D03*
X86250Y-47250D03*
G54D35*
X45250Y-46250D03*
X45250Y-42250D03*
G54D36*
X47250Y-44250D03*
G54D37*
X47250Y-45250D03*
G54D35*
X49250Y-46250D03*
M02*
