G04 (created by PCBNEW-RS274X (2011-05-25)-stable) date Tue 18 Mar 2014 04:02:36 PM EDT*
G01*
G70*
G90*
%MOIN*%
G04 Gerber Fmt 3.4, Leading zero omitted, Abs format*
%FSLAX34Y34*%
G04 APERTURE LIST*
%ADD10C,0.006000*%
%ADD11C,0.009000*%
%ADD12C,0.155000*%
%ADD13O,0.060000X0.100000*%
%ADD14C,0.060000*%
%ADD15R,0.050000X0.100000*%
%ADD16R,0.100000X0.050000*%
%ADD17R,0.047000X0.047000*%
%ADD18C,0.076000*%
%ADD19C,0.140000*%
%ADD20C,0.160000*%
%ADD21R,0.080000X0.080000*%
%ADD22C,0.080000*%
%ADD23C,0.035000*%
%ADD24C,0.008000*%
%ADD25C,0.040000*%
%ADD26C,0.010000*%
G04 APERTURE END LIST*
G54D10*
G54D11*
X89500Y-51500D02*
X43500Y-51500D01*
X43500Y-30500D02*
X89500Y-30500D01*
X43500Y-30500D02*
X43500Y-51500D01*
X89500Y-51500D02*
X89500Y-30500D01*
G54D12*
X50500Y-50500D03*
X51000Y-31500D03*
X83000Y-50500D03*
X80500Y-31500D03*
G54D13*
X56000Y-50500D03*
X57000Y-50500D03*
X58000Y-50500D03*
X59000Y-50500D03*
X60000Y-50500D03*
X61000Y-50500D03*
X62000Y-50500D03*
X63000Y-50500D03*
X65000Y-50500D03*
X66000Y-50500D03*
X67000Y-50500D03*
X68000Y-50500D03*
X69000Y-50500D03*
X70000Y-50500D03*
X71000Y-50500D03*
X72000Y-50500D03*
X74000Y-50500D03*
X75000Y-50500D03*
X76000Y-50500D03*
X77000Y-50500D03*
X78000Y-50500D03*
X79000Y-50500D03*
X80000Y-50500D03*
X81000Y-50500D03*
X52400Y-31500D03*
X53400Y-31500D03*
X54400Y-31500D03*
X55400Y-31500D03*
X56400Y-31500D03*
X57400Y-31500D03*
X58400Y-31500D03*
X59400Y-31500D03*
X60400Y-31500D03*
X61400Y-31500D03*
X63000Y-31500D03*
X70000Y-31500D03*
X69000Y-31500D03*
X68000Y-31500D03*
X67000Y-31500D03*
X66000Y-31500D03*
X65000Y-31500D03*
X64000Y-31500D03*
X72000Y-31500D03*
X73000Y-31500D03*
X74000Y-31500D03*
X75000Y-31500D03*
X76000Y-31500D03*
X77000Y-31500D03*
X78000Y-31500D03*
X79000Y-31500D03*
G54D14*
X82000Y-31500D03*
X83000Y-31500D03*
X82000Y-32500D03*
X83000Y-32500D03*
X82000Y-33500D03*
X83000Y-33500D03*
X82000Y-34500D03*
X83000Y-34500D03*
X82000Y-35500D03*
X83000Y-35500D03*
X82000Y-36500D03*
X83000Y-36500D03*
X82000Y-37500D03*
X83000Y-37500D03*
X82000Y-38500D03*
X83000Y-38500D03*
X82000Y-39500D03*
X83000Y-39500D03*
X82000Y-40500D03*
X83000Y-40500D03*
X82000Y-41500D03*
X83000Y-41500D03*
X82000Y-42500D03*
X83000Y-42500D03*
X82000Y-43500D03*
X83000Y-43500D03*
X82000Y-44500D03*
X83000Y-44500D03*
X82000Y-45500D03*
X83000Y-45500D03*
X82000Y-46500D03*
X83000Y-46500D03*
X82000Y-47500D03*
X83000Y-47500D03*
X82000Y-48500D03*
X83000Y-48500D03*
G54D15*
X55100Y-47500D03*
X53900Y-47500D03*
G54D16*
X58250Y-49100D03*
X58250Y-47900D03*
G54D15*
X77600Y-47500D03*
X76400Y-47500D03*
X62600Y-47500D03*
X61400Y-47500D03*
X70100Y-47500D03*
X68900Y-47500D03*
G54D17*
X87585Y-34500D03*
X88415Y-34500D03*
G54D16*
X65750Y-49100D03*
X65750Y-47900D03*
X73250Y-49100D03*
X73250Y-47900D03*
X80500Y-49100D03*
X80500Y-47900D03*
G54D15*
X84900Y-34500D03*
X86100Y-34500D03*
G54D18*
X88320Y-41000D03*
G54D19*
X87140Y-41000D03*
G54D20*
X84780Y-41000D03*
G54D19*
X87530Y-39230D03*
X87530Y-42770D03*
G54D21*
X53000Y-44500D03*
G54D22*
X54000Y-44500D03*
X55000Y-44500D03*
X56000Y-44500D03*
X56000Y-37500D03*
X53000Y-37500D03*
G54D21*
X60500Y-44500D03*
G54D22*
X61500Y-44500D03*
X62500Y-44500D03*
X63500Y-44500D03*
X63500Y-37500D03*
X60500Y-37500D03*
G54D21*
X68000Y-44500D03*
G54D22*
X69000Y-44500D03*
X70000Y-44500D03*
X71000Y-44500D03*
X71000Y-37500D03*
X68000Y-37500D03*
G54D21*
X75500Y-44500D03*
G54D22*
X76500Y-44500D03*
X77500Y-44500D03*
X78500Y-44500D03*
X78500Y-37500D03*
X75500Y-37500D03*
G54D21*
X76250Y-34250D03*
G54D22*
X77750Y-34250D03*
G54D21*
X68750Y-34250D03*
G54D22*
X70250Y-34250D03*
G54D21*
X61250Y-34250D03*
G54D22*
X62750Y-34250D03*
G54D21*
X53750Y-34250D03*
G54D22*
X55250Y-34250D03*
G54D23*
X64401Y-37514D03*
X65920Y-47273D03*
X62180Y-37178D03*
X71176Y-49121D03*
X56750Y-49198D03*
X64250Y-48750D03*
X79234Y-49029D03*
X62756Y-46697D03*
X77047Y-47500D03*
X70653Y-47500D03*
G54D24*
X58250Y-47900D02*
X58250Y-47507D01*
X63466Y-36579D02*
X64401Y-37514D01*
X59964Y-36579D02*
X63466Y-36579D01*
X52398Y-44145D02*
X59964Y-36579D01*
X52398Y-47536D02*
X52398Y-44145D01*
X53006Y-48144D02*
X52398Y-47536D01*
X54288Y-48144D02*
X53006Y-48144D01*
X54310Y-48122D02*
X54288Y-48144D01*
X54310Y-47338D02*
X54310Y-48122D01*
X54792Y-46856D02*
X54310Y-47338D01*
X57599Y-46856D02*
X54792Y-46856D01*
X58250Y-47507D02*
X57599Y-46856D01*
X65920Y-47337D02*
X65920Y-47273D01*
X65750Y-47507D02*
X65920Y-47337D01*
X65750Y-47900D02*
X65750Y-47507D01*
X56965Y-30857D02*
X58400Y-30857D01*
X56944Y-30878D02*
X56965Y-30857D01*
X56944Y-31948D02*
X56944Y-30878D01*
X61322Y-36326D02*
X56944Y-31948D01*
X63677Y-36326D02*
X61322Y-36326D01*
X73250Y-45899D02*
X63677Y-36326D01*
X73250Y-47900D02*
X73250Y-45899D01*
X58400Y-31500D02*
X58400Y-30857D01*
X61198Y-35941D02*
X57400Y-32143D01*
X63553Y-35941D02*
X61198Y-35941D01*
X73112Y-45500D02*
X63553Y-35941D01*
X78493Y-45500D02*
X73112Y-45500D01*
X80500Y-47507D02*
X78493Y-45500D01*
X80500Y-47900D02*
X80500Y-47507D01*
X57400Y-31500D02*
X57400Y-32143D01*
X68958Y-43956D02*
X62180Y-37178D01*
X69456Y-43956D02*
X68958Y-43956D01*
X70000Y-44500D02*
X69456Y-43956D01*
X59400Y-31500D02*
X59400Y-32143D01*
X76819Y-43819D02*
X77500Y-44500D01*
X75682Y-43819D02*
X76819Y-43819D01*
X64006Y-32143D02*
X75682Y-43819D01*
X59400Y-32143D02*
X64006Y-32143D01*
G54D25*
X88415Y-34500D02*
X88415Y-35038D01*
X53900Y-47500D02*
X53900Y-46697D01*
X61400Y-47500D02*
X61400Y-46697D01*
X59353Y-44650D02*
X61400Y-46697D01*
X56000Y-44650D02*
X59353Y-44650D01*
X56000Y-44500D02*
X56000Y-44650D01*
X53953Y-46697D02*
X53900Y-46697D01*
X56000Y-44650D02*
X53953Y-46697D01*
X68900Y-47500D02*
X68921Y-47500D01*
X87308Y-41000D02*
X87140Y-41000D01*
X88584Y-39724D02*
X87308Y-41000D01*
X88584Y-35207D02*
X88584Y-39724D01*
X88415Y-35038D02*
X88584Y-35207D01*
X76400Y-47500D02*
X75847Y-47500D01*
X74893Y-48454D02*
X75847Y-47500D01*
X69875Y-48454D02*
X74893Y-48454D01*
X68921Y-47500D02*
X69875Y-48454D01*
X63500Y-44500D02*
X63500Y-44597D01*
X63500Y-44597D02*
X61400Y-46697D01*
X66897Y-44597D02*
X68900Y-46600D01*
X63500Y-44597D02*
X66897Y-44597D01*
X71000Y-44500D02*
X68900Y-46600D01*
X68900Y-46600D02*
X68900Y-47500D01*
G54D24*
X87585Y-34500D02*
X86100Y-34500D01*
X72586Y-49121D02*
X72607Y-49100D01*
X71176Y-49121D02*
X72586Y-49121D01*
X73250Y-49100D02*
X72607Y-49100D01*
X57509Y-49198D02*
X57607Y-49100D01*
X56750Y-49198D02*
X57509Y-49198D01*
X58250Y-49100D02*
X57607Y-49100D01*
X64757Y-48750D02*
X65107Y-49100D01*
X64250Y-48750D02*
X64757Y-48750D01*
X65750Y-49100D02*
X65107Y-49100D01*
X79786Y-49029D02*
X79857Y-49100D01*
X79234Y-49029D02*
X79786Y-49029D01*
X80500Y-49100D02*
X79857Y-49100D01*
G54D25*
X56607Y-48454D02*
X55653Y-47500D01*
X61646Y-48454D02*
X56607Y-48454D01*
X62047Y-48053D02*
X61646Y-48454D01*
X62047Y-47500D02*
X62047Y-48053D01*
X62600Y-47500D02*
X62047Y-47500D01*
X55100Y-47500D02*
X55653Y-47500D01*
X62600Y-47500D02*
X62600Y-46697D01*
X62600Y-46697D02*
X62756Y-46697D01*
X77600Y-47500D02*
X77047Y-47500D01*
X66554Y-46697D02*
X62756Y-46697D01*
X69553Y-49696D02*
X66554Y-46697D01*
X75404Y-49696D02*
X69553Y-49696D01*
X77047Y-48053D02*
X75404Y-49696D01*
X77047Y-47500D02*
X77047Y-48053D01*
X77600Y-47500D02*
X78153Y-47500D01*
X84900Y-40880D02*
X84780Y-41000D01*
X84900Y-34500D02*
X84900Y-40880D01*
X79199Y-48546D02*
X78153Y-47500D01*
X81174Y-48546D02*
X79199Y-48546D01*
X81890Y-49262D02*
X81174Y-48546D01*
X83314Y-49262D02*
X81890Y-49262D01*
X84780Y-47796D02*
X83314Y-49262D01*
X84780Y-41000D02*
X84780Y-47796D01*
X70100Y-47500D02*
X70653Y-47500D01*
G54D10*
G36*
X73010Y-47451D02*
X72711Y-47451D01*
X72638Y-47481D01*
X72582Y-47537D01*
X72551Y-47610D01*
X72551Y-47689D01*
X72551Y-48054D01*
X70597Y-48054D01*
X70599Y-48050D01*
X70599Y-47951D01*
X70600Y-47612D01*
X70600Y-47388D01*
X70599Y-47049D01*
X70599Y-46950D01*
X70561Y-46859D01*
X70491Y-46789D01*
X70399Y-46751D01*
X70212Y-46750D01*
X70150Y-46812D01*
X70150Y-47450D01*
X70538Y-47450D01*
X70600Y-47388D01*
X70600Y-47612D01*
X70538Y-47550D01*
X70200Y-47550D01*
X70150Y-47550D01*
X70050Y-47550D01*
X70050Y-47450D01*
X70050Y-46812D01*
X69988Y-46750D01*
X69801Y-46751D01*
X69709Y-46789D01*
X69639Y-46859D01*
X69601Y-46950D01*
X69601Y-47049D01*
X69600Y-47388D01*
X69662Y-47450D01*
X70050Y-47450D01*
X70050Y-47550D01*
X70000Y-47550D01*
X69662Y-47550D01*
X69600Y-47612D01*
X69600Y-47613D01*
X69349Y-47362D01*
X69349Y-46961D01*
X69319Y-46888D01*
X69300Y-46869D01*
X69300Y-46765D01*
X70966Y-45099D01*
X71119Y-45099D01*
X71339Y-45008D01*
X71508Y-44839D01*
X71599Y-44619D01*
X71599Y-44588D01*
X73010Y-45999D01*
X73010Y-47451D01*
X73010Y-47451D01*
G37*
G54D26*
X73010Y-47451D02*
X72711Y-47451D01*
X72638Y-47481D01*
X72582Y-47537D01*
X72551Y-47610D01*
X72551Y-47689D01*
X72551Y-48054D01*
X70597Y-48054D01*
X70599Y-48050D01*
X70599Y-47951D01*
X70600Y-47612D01*
X70600Y-47388D01*
X70599Y-47049D01*
X70599Y-46950D01*
X70561Y-46859D01*
X70491Y-46789D01*
X70399Y-46751D01*
X70212Y-46750D01*
X70150Y-46812D01*
X70150Y-47450D01*
X70538Y-47450D01*
X70600Y-47388D01*
X70600Y-47612D01*
X70538Y-47550D01*
X70200Y-47550D01*
X70150Y-47550D01*
X70050Y-47550D01*
X70050Y-47450D01*
X70050Y-46812D01*
X69988Y-46750D01*
X69801Y-46751D01*
X69709Y-46789D01*
X69639Y-46859D01*
X69601Y-46950D01*
X69601Y-47049D01*
X69600Y-47388D01*
X69662Y-47450D01*
X70050Y-47450D01*
X70050Y-47550D01*
X70000Y-47550D01*
X69662Y-47550D01*
X69600Y-47612D01*
X69600Y-47613D01*
X69349Y-47362D01*
X69349Y-46961D01*
X69319Y-46888D01*
X69300Y-46869D01*
X69300Y-46765D01*
X70966Y-45099D01*
X71119Y-45099D01*
X71339Y-45008D01*
X71508Y-44839D01*
X71599Y-44619D01*
X71599Y-44588D01*
X73010Y-45999D01*
X73010Y-47451D01*
G54D10*
G36*
X89255Y-51255D02*
X88984Y-51255D01*
X88984Y-39724D01*
X88984Y-35207D01*
X88954Y-35054D01*
X88867Y-34924D01*
X88815Y-34872D01*
X88815Y-34851D01*
X88818Y-34848D01*
X88849Y-34775D01*
X88849Y-34696D01*
X88849Y-34226D01*
X88819Y-34153D01*
X88763Y-34097D01*
X88690Y-34066D01*
X88611Y-34066D01*
X88141Y-34066D01*
X88068Y-34096D01*
X88012Y-34152D01*
X88000Y-34180D01*
X87989Y-34153D01*
X87933Y-34097D01*
X87860Y-34066D01*
X87781Y-34066D01*
X87311Y-34066D01*
X87238Y-34096D01*
X87182Y-34152D01*
X87151Y-34225D01*
X87151Y-34260D01*
X86549Y-34260D01*
X86549Y-33961D01*
X86519Y-33888D01*
X86463Y-33832D01*
X86390Y-33801D01*
X86311Y-33801D01*
X85811Y-33801D01*
X85738Y-33831D01*
X85682Y-33887D01*
X85651Y-33960D01*
X85651Y-34039D01*
X85651Y-35039D01*
X85681Y-35112D01*
X85737Y-35168D01*
X85810Y-35199D01*
X85889Y-35199D01*
X86389Y-35199D01*
X86462Y-35169D01*
X86518Y-35113D01*
X86549Y-35040D01*
X86549Y-34961D01*
X86549Y-34740D01*
X87151Y-34740D01*
X87151Y-34774D01*
X87181Y-34847D01*
X87237Y-34903D01*
X87310Y-34934D01*
X87389Y-34934D01*
X87859Y-34934D01*
X87932Y-34904D01*
X87988Y-34848D01*
X87999Y-34819D01*
X88011Y-34847D01*
X88015Y-34851D01*
X88015Y-35038D01*
X88045Y-35191D01*
X88132Y-35321D01*
X88184Y-35373D01*
X88184Y-38611D01*
X88041Y-38468D01*
X87710Y-38330D01*
X87352Y-38330D01*
X87021Y-38467D01*
X86768Y-38719D01*
X86630Y-39050D01*
X86630Y-39408D01*
X86767Y-39739D01*
X87019Y-39992D01*
X87278Y-40100D01*
X86962Y-40100D01*
X86631Y-40237D01*
X86378Y-40489D01*
X86240Y-40820D01*
X86240Y-41178D01*
X86377Y-41509D01*
X86629Y-41762D01*
X86960Y-41900D01*
X87279Y-41900D01*
X87021Y-42007D01*
X86768Y-42259D01*
X86630Y-42590D01*
X86630Y-42948D01*
X86767Y-43279D01*
X87019Y-43532D01*
X87350Y-43670D01*
X87708Y-43670D01*
X88039Y-43533D01*
X88292Y-43281D01*
X88430Y-42950D01*
X88430Y-42592D01*
X88293Y-42261D01*
X88041Y-42008D01*
X87710Y-41870D01*
X87390Y-41870D01*
X87649Y-41763D01*
X87902Y-41511D01*
X87934Y-41434D01*
X87991Y-41491D01*
X88204Y-41580D01*
X88435Y-41580D01*
X88648Y-41492D01*
X88811Y-41329D01*
X88900Y-41116D01*
X88900Y-40885D01*
X88812Y-40672D01*
X88649Y-40509D01*
X88448Y-40425D01*
X88863Y-40009D01*
X88866Y-40007D01*
X88867Y-40007D01*
X88953Y-39878D01*
X88954Y-39877D01*
X88984Y-39724D01*
X88984Y-51255D01*
X85810Y-51255D01*
X85810Y-41196D01*
X85807Y-40786D01*
X85657Y-40424D01*
X85513Y-40338D01*
X85442Y-40409D01*
X85442Y-40267D01*
X85400Y-40196D01*
X85400Y-34612D01*
X85400Y-34388D01*
X85399Y-34049D01*
X85399Y-33950D01*
X85361Y-33859D01*
X85291Y-33789D01*
X85199Y-33751D01*
X85012Y-33750D01*
X84950Y-33812D01*
X84950Y-34450D01*
X85338Y-34450D01*
X85400Y-34388D01*
X85400Y-34612D01*
X85338Y-34550D01*
X84950Y-34550D01*
X84950Y-35188D01*
X85012Y-35250D01*
X85199Y-35249D01*
X85291Y-35211D01*
X85361Y-35141D01*
X85399Y-35050D01*
X85399Y-34951D01*
X85400Y-34612D01*
X85400Y-40196D01*
X85356Y-40123D01*
X84976Y-39970D01*
X84850Y-39970D01*
X84850Y-35188D01*
X84850Y-34550D01*
X84850Y-34450D01*
X84850Y-33812D01*
X84788Y-33750D01*
X84601Y-33751D01*
X84509Y-33789D01*
X84439Y-33859D01*
X84401Y-33950D01*
X84401Y-34049D01*
X84400Y-34388D01*
X84462Y-34450D01*
X84850Y-34450D01*
X84850Y-34550D01*
X84462Y-34550D01*
X84400Y-34612D01*
X84401Y-34951D01*
X84401Y-35050D01*
X84439Y-35141D01*
X84509Y-35211D01*
X84601Y-35249D01*
X84788Y-35250D01*
X84850Y-35188D01*
X84850Y-39970D01*
X84566Y-39973D01*
X84204Y-40123D01*
X84118Y-40267D01*
X84780Y-40929D01*
X85442Y-40267D01*
X85442Y-40409D01*
X84851Y-41000D01*
X85513Y-41662D01*
X85657Y-41576D01*
X85810Y-41196D01*
X85810Y-51255D01*
X85442Y-51255D01*
X85442Y-41733D01*
X84780Y-41071D01*
X84709Y-41142D01*
X84709Y-41000D01*
X84047Y-40338D01*
X83903Y-40424D01*
X83750Y-40804D01*
X83753Y-41214D01*
X83903Y-41576D01*
X84047Y-41662D01*
X84709Y-41000D01*
X84709Y-41142D01*
X84118Y-41733D01*
X84204Y-41877D01*
X84584Y-42030D01*
X84994Y-42027D01*
X85356Y-41877D01*
X85442Y-41733D01*
X85442Y-51255D01*
X83623Y-51255D01*
X83826Y-51053D01*
X83975Y-50695D01*
X83975Y-50307D01*
X83827Y-49949D01*
X83553Y-49674D01*
X83499Y-49651D01*
X83499Y-48599D01*
X83499Y-48401D01*
X83499Y-47599D01*
X83499Y-47401D01*
X83499Y-46599D01*
X83499Y-46401D01*
X83499Y-45599D01*
X83499Y-45401D01*
X83499Y-44599D01*
X83499Y-44401D01*
X83499Y-43599D01*
X83499Y-43401D01*
X83499Y-42599D01*
X83499Y-42401D01*
X83499Y-41599D01*
X83499Y-41401D01*
X83499Y-40599D01*
X83499Y-40401D01*
X83499Y-39599D01*
X83499Y-39401D01*
X83499Y-38599D01*
X83499Y-38401D01*
X83499Y-37599D01*
X83499Y-37401D01*
X83499Y-36599D01*
X83499Y-36401D01*
X83499Y-35599D01*
X83499Y-35401D01*
X83499Y-34599D01*
X83499Y-34401D01*
X83499Y-33599D01*
X83499Y-33401D01*
X83499Y-32599D01*
X83499Y-32401D01*
X83499Y-31599D01*
X83499Y-31401D01*
X83423Y-31218D01*
X83283Y-31077D01*
X83099Y-31001D01*
X82901Y-31001D01*
X82718Y-31077D01*
X82577Y-31217D01*
X82501Y-31401D01*
X82501Y-31599D01*
X82577Y-31782D01*
X82717Y-31923D01*
X82901Y-31999D01*
X83099Y-31999D01*
X83282Y-31923D01*
X83423Y-31783D01*
X83499Y-31599D01*
X83499Y-32401D01*
X83423Y-32218D01*
X83283Y-32077D01*
X83099Y-32001D01*
X82901Y-32001D01*
X82718Y-32077D01*
X82577Y-32217D01*
X82501Y-32401D01*
X82501Y-32599D01*
X82577Y-32782D01*
X82717Y-32923D01*
X82901Y-32999D01*
X83099Y-32999D01*
X83282Y-32923D01*
X83423Y-32783D01*
X83499Y-32599D01*
X83499Y-33401D01*
X83423Y-33218D01*
X83283Y-33077D01*
X83099Y-33001D01*
X82901Y-33001D01*
X82718Y-33077D01*
X82577Y-33217D01*
X82501Y-33401D01*
X82501Y-33599D01*
X82577Y-33782D01*
X82717Y-33923D01*
X82901Y-33999D01*
X83099Y-33999D01*
X83282Y-33923D01*
X83423Y-33783D01*
X83499Y-33599D01*
X83499Y-34401D01*
X83423Y-34218D01*
X83283Y-34077D01*
X83099Y-34001D01*
X82901Y-34001D01*
X82718Y-34077D01*
X82577Y-34217D01*
X82501Y-34401D01*
X82501Y-34599D01*
X82577Y-34782D01*
X82717Y-34923D01*
X82901Y-34999D01*
X83099Y-34999D01*
X83282Y-34923D01*
X83423Y-34783D01*
X83499Y-34599D01*
X83499Y-35401D01*
X83423Y-35218D01*
X83283Y-35077D01*
X83099Y-35001D01*
X82901Y-35001D01*
X82718Y-35077D01*
X82577Y-35217D01*
X82501Y-35401D01*
X82501Y-35599D01*
X82577Y-35782D01*
X82717Y-35923D01*
X82901Y-35999D01*
X83099Y-35999D01*
X83282Y-35923D01*
X83423Y-35783D01*
X83499Y-35599D01*
X83499Y-36401D01*
X83423Y-36218D01*
X83283Y-36077D01*
X83099Y-36001D01*
X82901Y-36001D01*
X82718Y-36077D01*
X82577Y-36217D01*
X82501Y-36401D01*
X82501Y-36599D01*
X82577Y-36782D01*
X82717Y-36923D01*
X82901Y-36999D01*
X83099Y-36999D01*
X83282Y-36923D01*
X83423Y-36783D01*
X83499Y-36599D01*
X83499Y-37401D01*
X83423Y-37218D01*
X83283Y-37077D01*
X83099Y-37001D01*
X82901Y-37001D01*
X82718Y-37077D01*
X82577Y-37217D01*
X82501Y-37401D01*
X82501Y-37599D01*
X82577Y-37782D01*
X82717Y-37923D01*
X82901Y-37999D01*
X83099Y-37999D01*
X83282Y-37923D01*
X83423Y-37783D01*
X83499Y-37599D01*
X83499Y-38401D01*
X83423Y-38218D01*
X83283Y-38077D01*
X83099Y-38001D01*
X82901Y-38001D01*
X82718Y-38077D01*
X82577Y-38217D01*
X82501Y-38401D01*
X82501Y-38599D01*
X82577Y-38782D01*
X82717Y-38923D01*
X82901Y-38999D01*
X83099Y-38999D01*
X83282Y-38923D01*
X83423Y-38783D01*
X83499Y-38599D01*
X83499Y-39401D01*
X83423Y-39218D01*
X83283Y-39077D01*
X83099Y-39001D01*
X82901Y-39001D01*
X82718Y-39077D01*
X82577Y-39217D01*
X82501Y-39401D01*
X82501Y-39599D01*
X82577Y-39782D01*
X82717Y-39923D01*
X82901Y-39999D01*
X83099Y-39999D01*
X83282Y-39923D01*
X83423Y-39783D01*
X83499Y-39599D01*
X83499Y-40401D01*
X83423Y-40218D01*
X83283Y-40077D01*
X83099Y-40001D01*
X82901Y-40001D01*
X82718Y-40077D01*
X82577Y-40217D01*
X82501Y-40401D01*
X82501Y-40599D01*
X82577Y-40782D01*
X82717Y-40923D01*
X82901Y-40999D01*
X83099Y-40999D01*
X83282Y-40923D01*
X83423Y-40783D01*
X83499Y-40599D01*
X83499Y-41401D01*
X83423Y-41218D01*
X83283Y-41077D01*
X83099Y-41001D01*
X82901Y-41001D01*
X82718Y-41077D01*
X82577Y-41217D01*
X82501Y-41401D01*
X82501Y-41599D01*
X82577Y-41782D01*
X82717Y-41923D01*
X82901Y-41999D01*
X83099Y-41999D01*
X83282Y-41923D01*
X83423Y-41783D01*
X83499Y-41599D01*
X83499Y-42401D01*
X83423Y-42218D01*
X83283Y-42077D01*
X83099Y-42001D01*
X82901Y-42001D01*
X82718Y-42077D01*
X82577Y-42217D01*
X82501Y-42401D01*
X82501Y-42599D01*
X82577Y-42782D01*
X82717Y-42923D01*
X82901Y-42999D01*
X83099Y-42999D01*
X83282Y-42923D01*
X83423Y-42783D01*
X83499Y-42599D01*
X83499Y-43401D01*
X83423Y-43218D01*
X83283Y-43077D01*
X83099Y-43001D01*
X82901Y-43001D01*
X82718Y-43077D01*
X82577Y-43217D01*
X82501Y-43401D01*
X82501Y-43599D01*
X82577Y-43782D01*
X82717Y-43923D01*
X82901Y-43999D01*
X83099Y-43999D01*
X83282Y-43923D01*
X83423Y-43783D01*
X83499Y-43599D01*
X83499Y-44401D01*
X83423Y-44218D01*
X83283Y-44077D01*
X83099Y-44001D01*
X82901Y-44001D01*
X82718Y-44077D01*
X82577Y-44217D01*
X82501Y-44401D01*
X82501Y-44599D01*
X82577Y-44782D01*
X82717Y-44923D01*
X82901Y-44999D01*
X83099Y-44999D01*
X83282Y-44923D01*
X83423Y-44783D01*
X83499Y-44599D01*
X83499Y-45401D01*
X83423Y-45218D01*
X83283Y-45077D01*
X83099Y-45001D01*
X82901Y-45001D01*
X82718Y-45077D01*
X82577Y-45217D01*
X82501Y-45401D01*
X82501Y-45599D01*
X82577Y-45782D01*
X82717Y-45923D01*
X82901Y-45999D01*
X83099Y-45999D01*
X83282Y-45923D01*
X83423Y-45783D01*
X83499Y-45599D01*
X83499Y-46401D01*
X83423Y-46218D01*
X83283Y-46077D01*
X83099Y-46001D01*
X82901Y-46001D01*
X82718Y-46077D01*
X82577Y-46217D01*
X82501Y-46401D01*
X82501Y-46599D01*
X82577Y-46782D01*
X82717Y-46923D01*
X82901Y-46999D01*
X83099Y-46999D01*
X83282Y-46923D01*
X83423Y-46783D01*
X83499Y-46599D01*
X83499Y-47401D01*
X83423Y-47218D01*
X83283Y-47077D01*
X83099Y-47001D01*
X82901Y-47001D01*
X82718Y-47077D01*
X82577Y-47217D01*
X82501Y-47401D01*
X82501Y-47599D01*
X82577Y-47782D01*
X82717Y-47923D01*
X82901Y-47999D01*
X83099Y-47999D01*
X83282Y-47923D01*
X83423Y-47783D01*
X83499Y-47599D01*
X83499Y-48401D01*
X83423Y-48218D01*
X83283Y-48077D01*
X83099Y-48001D01*
X82901Y-48001D01*
X82718Y-48077D01*
X82577Y-48217D01*
X82501Y-48401D01*
X82501Y-48599D01*
X82577Y-48782D01*
X82717Y-48923D01*
X82901Y-48999D01*
X83099Y-48999D01*
X83282Y-48923D01*
X83423Y-48783D01*
X83499Y-48599D01*
X83499Y-49651D01*
X83195Y-49525D01*
X82807Y-49525D01*
X82499Y-49652D01*
X82499Y-48599D01*
X82499Y-48401D01*
X82499Y-47599D01*
X82499Y-47401D01*
X82499Y-46599D01*
X82499Y-46401D01*
X82499Y-45599D01*
X82499Y-45401D01*
X82499Y-44599D01*
X82499Y-44401D01*
X82499Y-43599D01*
X82499Y-43401D01*
X82499Y-42599D01*
X82499Y-42401D01*
X82499Y-41599D01*
X82499Y-41401D01*
X82499Y-40599D01*
X82499Y-40401D01*
X82499Y-39599D01*
X82499Y-39401D01*
X82499Y-38599D01*
X82499Y-38401D01*
X82499Y-37599D01*
X82499Y-37401D01*
X82499Y-36599D01*
X82499Y-36401D01*
X82499Y-35599D01*
X82499Y-35401D01*
X82499Y-34599D01*
X82499Y-34401D01*
X82499Y-33599D01*
X82499Y-33401D01*
X82499Y-32599D01*
X82499Y-32401D01*
X82499Y-31599D01*
X82499Y-31401D01*
X82423Y-31218D01*
X82283Y-31077D01*
X82099Y-31001D01*
X81901Y-31001D01*
X81718Y-31077D01*
X81577Y-31217D01*
X81501Y-31401D01*
X81501Y-31599D01*
X81577Y-31782D01*
X81717Y-31923D01*
X81901Y-31999D01*
X82099Y-31999D01*
X82282Y-31923D01*
X82423Y-31783D01*
X82499Y-31599D01*
X82499Y-32401D01*
X82423Y-32218D01*
X82283Y-32077D01*
X82099Y-32001D01*
X81901Y-32001D01*
X81718Y-32077D01*
X81577Y-32217D01*
X81501Y-32401D01*
X81501Y-32599D01*
X81577Y-32782D01*
X81717Y-32923D01*
X81901Y-32999D01*
X82099Y-32999D01*
X82282Y-32923D01*
X82423Y-32783D01*
X82499Y-32599D01*
X82499Y-33401D01*
X82423Y-33218D01*
X82283Y-33077D01*
X82099Y-33001D01*
X81901Y-33001D01*
X81718Y-33077D01*
X81577Y-33217D01*
X81501Y-33401D01*
X81501Y-33599D01*
X81577Y-33782D01*
X81717Y-33923D01*
X81901Y-33999D01*
X82099Y-33999D01*
X82282Y-33923D01*
X82423Y-33783D01*
X82499Y-33599D01*
X82499Y-34401D01*
X82423Y-34218D01*
X82283Y-34077D01*
X82099Y-34001D01*
X81901Y-34001D01*
X81718Y-34077D01*
X81577Y-34217D01*
X81501Y-34401D01*
X81501Y-34599D01*
X81577Y-34782D01*
X81717Y-34923D01*
X81901Y-34999D01*
X82099Y-34999D01*
X82282Y-34923D01*
X82423Y-34783D01*
X82499Y-34599D01*
X82499Y-35401D01*
X82423Y-35218D01*
X82283Y-35077D01*
X82099Y-35001D01*
X81901Y-35001D01*
X81718Y-35077D01*
X81577Y-35217D01*
X81501Y-35401D01*
X81501Y-35599D01*
X81577Y-35782D01*
X81717Y-35923D01*
X81901Y-35999D01*
X82099Y-35999D01*
X82282Y-35923D01*
X82423Y-35783D01*
X82499Y-35599D01*
X82499Y-36401D01*
X82423Y-36218D01*
X82283Y-36077D01*
X82099Y-36001D01*
X81901Y-36001D01*
X81718Y-36077D01*
X81577Y-36217D01*
X81501Y-36401D01*
X81501Y-36599D01*
X81577Y-36782D01*
X81717Y-36923D01*
X81901Y-36999D01*
X82099Y-36999D01*
X82282Y-36923D01*
X82423Y-36783D01*
X82499Y-36599D01*
X82499Y-37401D01*
X82423Y-37218D01*
X82283Y-37077D01*
X82099Y-37001D01*
X81901Y-37001D01*
X81718Y-37077D01*
X81577Y-37217D01*
X81501Y-37401D01*
X81501Y-37599D01*
X81577Y-37782D01*
X81717Y-37923D01*
X81901Y-37999D01*
X82099Y-37999D01*
X82282Y-37923D01*
X82423Y-37783D01*
X82499Y-37599D01*
X82499Y-38401D01*
X82423Y-38218D01*
X82283Y-38077D01*
X82099Y-38001D01*
X81901Y-38001D01*
X81718Y-38077D01*
X81577Y-38217D01*
X81501Y-38401D01*
X81501Y-38599D01*
X81577Y-38782D01*
X81717Y-38923D01*
X81901Y-38999D01*
X82099Y-38999D01*
X82282Y-38923D01*
X82423Y-38783D01*
X82499Y-38599D01*
X82499Y-39401D01*
X82423Y-39218D01*
X82283Y-39077D01*
X82099Y-39001D01*
X81901Y-39001D01*
X81718Y-39077D01*
X81577Y-39217D01*
X81501Y-39401D01*
X81501Y-39599D01*
X81577Y-39782D01*
X81717Y-39923D01*
X81901Y-39999D01*
X82099Y-39999D01*
X82282Y-39923D01*
X82423Y-39783D01*
X82499Y-39599D01*
X82499Y-40401D01*
X82423Y-40218D01*
X82283Y-40077D01*
X82099Y-40001D01*
X81901Y-40001D01*
X81718Y-40077D01*
X81577Y-40217D01*
X81501Y-40401D01*
X81501Y-40599D01*
X81577Y-40782D01*
X81717Y-40923D01*
X81901Y-40999D01*
X82099Y-40999D01*
X82282Y-40923D01*
X82423Y-40783D01*
X82499Y-40599D01*
X82499Y-41401D01*
X82423Y-41218D01*
X82283Y-41077D01*
X82099Y-41001D01*
X81901Y-41001D01*
X81718Y-41077D01*
X81577Y-41217D01*
X81501Y-41401D01*
X81501Y-41599D01*
X81577Y-41782D01*
X81717Y-41923D01*
X81901Y-41999D01*
X82099Y-41999D01*
X82282Y-41923D01*
X82423Y-41783D01*
X82499Y-41599D01*
X82499Y-42401D01*
X82423Y-42218D01*
X82283Y-42077D01*
X82099Y-42001D01*
X81901Y-42001D01*
X81718Y-42077D01*
X81577Y-42217D01*
X81501Y-42401D01*
X81501Y-42599D01*
X81577Y-42782D01*
X81717Y-42923D01*
X81901Y-42999D01*
X82099Y-42999D01*
X82282Y-42923D01*
X82423Y-42783D01*
X82499Y-42599D01*
X82499Y-43401D01*
X82423Y-43218D01*
X82283Y-43077D01*
X82099Y-43001D01*
X81901Y-43001D01*
X81718Y-43077D01*
X81577Y-43217D01*
X81501Y-43401D01*
X81501Y-43599D01*
X81577Y-43782D01*
X81717Y-43923D01*
X81901Y-43999D01*
X82099Y-43999D01*
X82282Y-43923D01*
X82423Y-43783D01*
X82499Y-43599D01*
X82499Y-44401D01*
X82423Y-44218D01*
X82283Y-44077D01*
X82099Y-44001D01*
X81901Y-44001D01*
X81718Y-44077D01*
X81577Y-44217D01*
X81501Y-44401D01*
X81501Y-44599D01*
X81577Y-44782D01*
X81717Y-44923D01*
X81901Y-44999D01*
X82099Y-44999D01*
X82282Y-44923D01*
X82423Y-44783D01*
X82499Y-44599D01*
X82499Y-45401D01*
X82423Y-45218D01*
X82283Y-45077D01*
X82099Y-45001D01*
X81901Y-45001D01*
X81718Y-45077D01*
X81577Y-45217D01*
X81501Y-45401D01*
X81501Y-45599D01*
X81577Y-45782D01*
X81717Y-45923D01*
X81901Y-45999D01*
X82099Y-45999D01*
X82282Y-45923D01*
X82423Y-45783D01*
X82499Y-45599D01*
X82499Y-46401D01*
X82423Y-46218D01*
X82283Y-46077D01*
X82099Y-46001D01*
X81901Y-46001D01*
X81718Y-46077D01*
X81577Y-46217D01*
X81501Y-46401D01*
X81501Y-46599D01*
X81577Y-46782D01*
X81717Y-46923D01*
X81901Y-46999D01*
X82099Y-46999D01*
X82282Y-46923D01*
X82423Y-46783D01*
X82499Y-46599D01*
X82499Y-47401D01*
X82423Y-47218D01*
X82283Y-47077D01*
X82099Y-47001D01*
X81901Y-47001D01*
X81718Y-47077D01*
X81577Y-47217D01*
X81501Y-47401D01*
X81501Y-47599D01*
X81577Y-47782D01*
X81717Y-47923D01*
X81901Y-47999D01*
X82099Y-47999D01*
X82282Y-47923D01*
X82423Y-47783D01*
X82499Y-47599D01*
X82499Y-48401D01*
X82423Y-48218D01*
X82283Y-48077D01*
X82099Y-48001D01*
X81901Y-48001D01*
X81718Y-48077D01*
X81577Y-48217D01*
X81501Y-48401D01*
X81501Y-48599D01*
X81577Y-48782D01*
X81717Y-48923D01*
X81901Y-48999D01*
X82099Y-48999D01*
X82282Y-48923D01*
X82423Y-48783D01*
X82499Y-48599D01*
X82499Y-49652D01*
X82449Y-49673D01*
X82174Y-49947D01*
X82025Y-50305D01*
X82025Y-50693D01*
X82173Y-51051D01*
X82376Y-51255D01*
X81490Y-51255D01*
X81490Y-50811D01*
X81490Y-50616D01*
X81490Y-50190D01*
X81416Y-50010D01*
X81278Y-49872D01*
X81199Y-49839D01*
X81199Y-49390D01*
X81199Y-49311D01*
X81199Y-48811D01*
X81169Y-48738D01*
X81113Y-48682D01*
X81040Y-48651D01*
X80961Y-48651D01*
X79961Y-48651D01*
X79888Y-48681D01*
X79832Y-48737D01*
X79808Y-48793D01*
X79786Y-48789D01*
X79524Y-48789D01*
X79447Y-48712D01*
X79309Y-48654D01*
X79160Y-48654D01*
X79022Y-48711D01*
X78917Y-48816D01*
X78859Y-48954D01*
X78859Y-49103D01*
X78916Y-49241D01*
X79021Y-49346D01*
X79159Y-49404D01*
X79308Y-49404D01*
X79446Y-49347D01*
X79524Y-49269D01*
X79686Y-49269D01*
X79687Y-49270D01*
X79765Y-49322D01*
X79801Y-49329D01*
X79801Y-49389D01*
X79831Y-49462D01*
X79887Y-49518D01*
X79960Y-49549D01*
X80039Y-49549D01*
X81039Y-49549D01*
X81112Y-49519D01*
X81168Y-49463D01*
X81199Y-49390D01*
X81199Y-49839D01*
X81098Y-49797D01*
X80903Y-49797D01*
X80723Y-49871D01*
X80585Y-50009D01*
X80510Y-50189D01*
X80510Y-50384D01*
X80510Y-50810D01*
X80584Y-50990D01*
X80722Y-51128D01*
X80902Y-51203D01*
X81097Y-51203D01*
X81277Y-51129D01*
X81415Y-50991D01*
X81490Y-50811D01*
X81490Y-51255D01*
X80490Y-51255D01*
X80490Y-50811D01*
X80490Y-50616D01*
X80490Y-50190D01*
X80416Y-50010D01*
X80278Y-49872D01*
X80098Y-49797D01*
X79903Y-49797D01*
X79723Y-49871D01*
X79585Y-50009D01*
X79510Y-50189D01*
X79510Y-50384D01*
X79510Y-50810D01*
X79584Y-50990D01*
X79722Y-51128D01*
X79902Y-51203D01*
X80097Y-51203D01*
X80277Y-51129D01*
X80415Y-50991D01*
X80490Y-50811D01*
X80490Y-51255D01*
X79490Y-51255D01*
X79490Y-50811D01*
X79490Y-50616D01*
X79490Y-50190D01*
X79416Y-50010D01*
X79278Y-49872D01*
X79098Y-49797D01*
X78903Y-49797D01*
X78723Y-49871D01*
X78585Y-50009D01*
X78510Y-50189D01*
X78510Y-50384D01*
X78510Y-50810D01*
X78584Y-50990D01*
X78722Y-51128D01*
X78902Y-51203D01*
X79097Y-51203D01*
X79277Y-51129D01*
X79415Y-50991D01*
X79490Y-50811D01*
X79490Y-51255D01*
X78490Y-51255D01*
X78490Y-50811D01*
X78490Y-50616D01*
X78490Y-50190D01*
X78416Y-50010D01*
X78278Y-49872D01*
X78100Y-49797D01*
X78100Y-47612D01*
X78100Y-47388D01*
X78099Y-47049D01*
X78099Y-46950D01*
X78061Y-46859D01*
X77991Y-46789D01*
X77899Y-46751D01*
X77712Y-46750D01*
X77650Y-46812D01*
X77650Y-47450D01*
X78038Y-47450D01*
X78100Y-47388D01*
X78100Y-47612D01*
X78038Y-47550D01*
X77650Y-47550D01*
X77650Y-48188D01*
X77712Y-48250D01*
X77899Y-48249D01*
X77991Y-48211D01*
X78061Y-48141D01*
X78099Y-48050D01*
X78099Y-47951D01*
X78100Y-47612D01*
X78100Y-49797D01*
X78098Y-49797D01*
X77903Y-49797D01*
X77723Y-49871D01*
X77585Y-50009D01*
X77550Y-50093D01*
X77550Y-48188D01*
X77550Y-47550D01*
X77550Y-47450D01*
X77550Y-46812D01*
X77488Y-46750D01*
X77301Y-46751D01*
X77209Y-46789D01*
X77139Y-46859D01*
X77101Y-46950D01*
X77101Y-47049D01*
X77100Y-47388D01*
X77162Y-47450D01*
X77550Y-47450D01*
X77550Y-47550D01*
X77162Y-47550D01*
X77100Y-47612D01*
X77101Y-47951D01*
X77101Y-48050D01*
X77139Y-48141D01*
X77209Y-48211D01*
X77301Y-48249D01*
X77488Y-48250D01*
X77550Y-48188D01*
X77550Y-50093D01*
X77510Y-50189D01*
X77510Y-50384D01*
X77510Y-50810D01*
X77584Y-50990D01*
X77722Y-51128D01*
X77902Y-51203D01*
X78097Y-51203D01*
X78277Y-51129D01*
X78415Y-50991D01*
X78490Y-50811D01*
X78490Y-51255D01*
X77490Y-51255D01*
X77490Y-50811D01*
X77490Y-50616D01*
X77490Y-50190D01*
X77416Y-50010D01*
X77278Y-49872D01*
X77098Y-49797D01*
X76903Y-49797D01*
X76723Y-49871D01*
X76585Y-50009D01*
X76510Y-50189D01*
X76510Y-50384D01*
X76510Y-50810D01*
X76584Y-50990D01*
X76722Y-51128D01*
X76902Y-51203D01*
X77097Y-51203D01*
X77277Y-51129D01*
X77415Y-50991D01*
X77490Y-50811D01*
X77490Y-51255D01*
X76490Y-51255D01*
X76490Y-50811D01*
X76490Y-50616D01*
X76490Y-50190D01*
X76416Y-50010D01*
X76278Y-49872D01*
X76098Y-49797D01*
X75903Y-49797D01*
X75723Y-49871D01*
X75585Y-50009D01*
X75510Y-50189D01*
X75510Y-50384D01*
X75510Y-50810D01*
X75584Y-50990D01*
X75722Y-51128D01*
X75902Y-51203D01*
X76097Y-51203D01*
X76277Y-51129D01*
X76415Y-50991D01*
X76490Y-50811D01*
X76490Y-51255D01*
X75490Y-51255D01*
X75490Y-50811D01*
X75490Y-50616D01*
X75490Y-50190D01*
X75416Y-50010D01*
X75278Y-49872D01*
X75098Y-49797D01*
X74903Y-49797D01*
X74723Y-49871D01*
X74585Y-50009D01*
X74510Y-50189D01*
X74510Y-50384D01*
X74510Y-50810D01*
X74584Y-50990D01*
X74722Y-51128D01*
X74902Y-51203D01*
X75097Y-51203D01*
X75277Y-51129D01*
X75415Y-50991D01*
X75490Y-50811D01*
X75490Y-51255D01*
X74490Y-51255D01*
X74490Y-50811D01*
X74490Y-50616D01*
X74490Y-50190D01*
X74416Y-50010D01*
X74278Y-49872D01*
X74098Y-49797D01*
X73903Y-49797D01*
X73723Y-49871D01*
X73585Y-50009D01*
X73510Y-50189D01*
X73510Y-50384D01*
X73510Y-50810D01*
X73584Y-50990D01*
X73722Y-51128D01*
X73902Y-51203D01*
X74097Y-51203D01*
X74277Y-51129D01*
X74415Y-50991D01*
X74490Y-50811D01*
X74490Y-51255D01*
X72490Y-51255D01*
X72490Y-50811D01*
X72490Y-50616D01*
X72490Y-50190D01*
X72416Y-50010D01*
X72278Y-49872D01*
X72098Y-49797D01*
X71903Y-49797D01*
X71723Y-49871D01*
X71585Y-50009D01*
X71510Y-50189D01*
X71510Y-50384D01*
X71510Y-50810D01*
X71584Y-50990D01*
X71722Y-51128D01*
X71902Y-51203D01*
X72097Y-51203D01*
X72277Y-51129D01*
X72415Y-50991D01*
X72490Y-50811D01*
X72490Y-51255D01*
X71490Y-51255D01*
X71490Y-50811D01*
X71490Y-50616D01*
X71490Y-50190D01*
X71416Y-50010D01*
X71278Y-49872D01*
X71098Y-49797D01*
X70903Y-49797D01*
X70723Y-49871D01*
X70585Y-50009D01*
X70510Y-50189D01*
X70510Y-50384D01*
X70510Y-50810D01*
X70584Y-50990D01*
X70722Y-51128D01*
X70902Y-51203D01*
X71097Y-51203D01*
X71277Y-51129D01*
X71415Y-50991D01*
X71490Y-50811D01*
X71490Y-51255D01*
X70490Y-51255D01*
X70490Y-50811D01*
X70490Y-50616D01*
X70490Y-50190D01*
X70416Y-50010D01*
X70278Y-49872D01*
X70098Y-49797D01*
X69903Y-49797D01*
X69723Y-49871D01*
X69585Y-50009D01*
X69510Y-50189D01*
X69510Y-50384D01*
X69510Y-50810D01*
X69584Y-50990D01*
X69722Y-51128D01*
X69902Y-51203D01*
X70097Y-51203D01*
X70277Y-51129D01*
X70415Y-50991D01*
X70490Y-50811D01*
X70490Y-51255D01*
X69490Y-51255D01*
X69490Y-50811D01*
X69490Y-50616D01*
X69490Y-50190D01*
X69416Y-50010D01*
X69278Y-49872D01*
X69098Y-49797D01*
X68903Y-49797D01*
X68723Y-49871D01*
X68585Y-50009D01*
X68510Y-50189D01*
X68510Y-50384D01*
X68510Y-50810D01*
X68584Y-50990D01*
X68722Y-51128D01*
X68902Y-51203D01*
X69097Y-51203D01*
X69277Y-51129D01*
X69415Y-50991D01*
X69490Y-50811D01*
X69490Y-51255D01*
X68490Y-51255D01*
X68490Y-50811D01*
X68490Y-50616D01*
X68490Y-50190D01*
X68416Y-50010D01*
X68278Y-49872D01*
X68098Y-49797D01*
X67903Y-49797D01*
X67723Y-49871D01*
X67585Y-50009D01*
X67510Y-50189D01*
X67510Y-50384D01*
X67510Y-50810D01*
X67584Y-50990D01*
X67722Y-51128D01*
X67902Y-51203D01*
X68097Y-51203D01*
X68277Y-51129D01*
X68415Y-50991D01*
X68490Y-50811D01*
X68490Y-51255D01*
X67490Y-51255D01*
X67490Y-50811D01*
X67490Y-50616D01*
X67490Y-50190D01*
X67416Y-50010D01*
X67278Y-49872D01*
X67098Y-49797D01*
X66903Y-49797D01*
X66723Y-49871D01*
X66585Y-50009D01*
X66510Y-50189D01*
X66510Y-50384D01*
X66510Y-50810D01*
X66584Y-50990D01*
X66722Y-51128D01*
X66902Y-51203D01*
X67097Y-51203D01*
X67277Y-51129D01*
X67415Y-50991D01*
X67490Y-50811D01*
X67490Y-51255D01*
X66490Y-51255D01*
X66490Y-50811D01*
X66490Y-50616D01*
X66490Y-50190D01*
X66449Y-50090D01*
X66449Y-49390D01*
X66449Y-49311D01*
X66449Y-48811D01*
X66449Y-48190D01*
X66449Y-48111D01*
X66449Y-47611D01*
X66419Y-47538D01*
X66363Y-47482D01*
X66290Y-47451D01*
X66251Y-47451D01*
X66295Y-47348D01*
X66295Y-47199D01*
X66238Y-47061D01*
X66133Y-46956D01*
X65995Y-46898D01*
X65846Y-46898D01*
X65708Y-46955D01*
X65603Y-47060D01*
X65545Y-47198D01*
X65545Y-47347D01*
X65555Y-47373D01*
X65528Y-47415D01*
X65520Y-47451D01*
X65211Y-47451D01*
X65138Y-47481D01*
X65082Y-47537D01*
X65051Y-47610D01*
X65051Y-47689D01*
X65051Y-48189D01*
X65081Y-48262D01*
X65137Y-48318D01*
X65210Y-48349D01*
X65289Y-48349D01*
X66289Y-48349D01*
X66362Y-48319D01*
X66418Y-48263D01*
X66449Y-48190D01*
X66449Y-48811D01*
X66419Y-48738D01*
X66363Y-48682D01*
X66290Y-48651D01*
X66211Y-48651D01*
X65211Y-48651D01*
X65138Y-48681D01*
X65082Y-48736D01*
X64927Y-48580D01*
X64849Y-48528D01*
X64757Y-48510D01*
X64540Y-48510D01*
X64463Y-48433D01*
X64325Y-48375D01*
X64176Y-48375D01*
X64038Y-48432D01*
X63933Y-48537D01*
X63875Y-48675D01*
X63875Y-48824D01*
X63932Y-48962D01*
X64037Y-49067D01*
X64175Y-49125D01*
X64324Y-49125D01*
X64462Y-49068D01*
X64540Y-48990D01*
X64657Y-48990D01*
X64935Y-49267D01*
X64937Y-49270D01*
X65014Y-49321D01*
X65015Y-49322D01*
X65051Y-49329D01*
X65051Y-49389D01*
X65081Y-49462D01*
X65137Y-49518D01*
X65210Y-49549D01*
X65289Y-49549D01*
X66289Y-49549D01*
X66362Y-49519D01*
X66418Y-49463D01*
X66449Y-49390D01*
X66449Y-50090D01*
X66416Y-50010D01*
X66278Y-49872D01*
X66098Y-49797D01*
X65903Y-49797D01*
X65723Y-49871D01*
X65585Y-50009D01*
X65510Y-50189D01*
X65510Y-50384D01*
X65510Y-50810D01*
X65584Y-50990D01*
X65722Y-51128D01*
X65902Y-51203D01*
X66097Y-51203D01*
X66277Y-51129D01*
X66415Y-50991D01*
X66490Y-50811D01*
X66490Y-51255D01*
X65490Y-51255D01*
X65490Y-50811D01*
X65490Y-50616D01*
X65490Y-50190D01*
X65416Y-50010D01*
X65278Y-49872D01*
X65098Y-49797D01*
X64903Y-49797D01*
X64723Y-49871D01*
X64585Y-50009D01*
X64510Y-50189D01*
X64510Y-50384D01*
X64510Y-50810D01*
X64584Y-50990D01*
X64722Y-51128D01*
X64902Y-51203D01*
X65097Y-51203D01*
X65277Y-51129D01*
X65415Y-50991D01*
X65490Y-50811D01*
X65490Y-51255D01*
X63490Y-51255D01*
X63490Y-50811D01*
X63490Y-50616D01*
X63490Y-50190D01*
X63416Y-50010D01*
X63278Y-49872D01*
X63100Y-49797D01*
X63100Y-47612D01*
X63100Y-47388D01*
X63099Y-47049D01*
X63099Y-46950D01*
X63061Y-46859D01*
X62991Y-46789D01*
X62899Y-46751D01*
X62712Y-46750D01*
X62650Y-46812D01*
X62650Y-47450D01*
X63038Y-47450D01*
X63100Y-47388D01*
X63100Y-47612D01*
X63038Y-47550D01*
X62650Y-47550D01*
X62650Y-48188D01*
X62712Y-48250D01*
X62899Y-48249D01*
X62991Y-48211D01*
X63061Y-48141D01*
X63099Y-48050D01*
X63099Y-47951D01*
X63100Y-47612D01*
X63100Y-49797D01*
X63098Y-49797D01*
X62903Y-49797D01*
X62723Y-49871D01*
X62585Y-50009D01*
X62550Y-50093D01*
X62550Y-48188D01*
X62550Y-47550D01*
X62550Y-47450D01*
X62550Y-46812D01*
X62488Y-46750D01*
X62301Y-46751D01*
X62209Y-46789D01*
X62139Y-46859D01*
X62101Y-46950D01*
X62101Y-47049D01*
X62100Y-47388D01*
X62162Y-47450D01*
X62550Y-47450D01*
X62550Y-47550D01*
X62162Y-47550D01*
X62100Y-47612D01*
X62101Y-47951D01*
X62101Y-48050D01*
X62139Y-48141D01*
X62209Y-48211D01*
X62301Y-48249D01*
X62488Y-48250D01*
X62550Y-48188D01*
X62550Y-50093D01*
X62510Y-50189D01*
X62510Y-50384D01*
X62510Y-50810D01*
X62584Y-50990D01*
X62722Y-51128D01*
X62902Y-51203D01*
X63097Y-51203D01*
X63277Y-51129D01*
X63415Y-50991D01*
X63490Y-50811D01*
X63490Y-51255D01*
X62490Y-51255D01*
X62490Y-50811D01*
X62490Y-50616D01*
X62490Y-50190D01*
X62416Y-50010D01*
X62278Y-49872D01*
X62098Y-49797D01*
X61903Y-49797D01*
X61723Y-49871D01*
X61585Y-50009D01*
X61510Y-50189D01*
X61510Y-50384D01*
X61510Y-50810D01*
X61584Y-50990D01*
X61722Y-51128D01*
X61902Y-51203D01*
X62097Y-51203D01*
X62277Y-51129D01*
X62415Y-50991D01*
X62490Y-50811D01*
X62490Y-51255D01*
X61490Y-51255D01*
X61490Y-50811D01*
X61490Y-50616D01*
X61490Y-50190D01*
X61416Y-50010D01*
X61278Y-49872D01*
X61098Y-49797D01*
X60903Y-49797D01*
X60723Y-49871D01*
X60585Y-50009D01*
X60510Y-50189D01*
X60510Y-50384D01*
X60510Y-50810D01*
X60584Y-50990D01*
X60722Y-51128D01*
X60902Y-51203D01*
X61097Y-51203D01*
X61277Y-51129D01*
X61415Y-50991D01*
X61490Y-50811D01*
X61490Y-51255D01*
X60490Y-51255D01*
X60490Y-50811D01*
X60490Y-50616D01*
X60490Y-50190D01*
X60416Y-50010D01*
X60278Y-49872D01*
X60098Y-49797D01*
X59903Y-49797D01*
X59723Y-49871D01*
X59585Y-50009D01*
X59510Y-50189D01*
X59510Y-50384D01*
X59510Y-50810D01*
X59584Y-50990D01*
X59722Y-51128D01*
X59902Y-51203D01*
X60097Y-51203D01*
X60277Y-51129D01*
X60415Y-50991D01*
X60490Y-50811D01*
X60490Y-51255D01*
X59490Y-51255D01*
X59490Y-50811D01*
X59490Y-50616D01*
X59490Y-50190D01*
X59416Y-50010D01*
X59278Y-49872D01*
X59098Y-49797D01*
X58949Y-49797D01*
X58949Y-49390D01*
X58949Y-49311D01*
X58949Y-48811D01*
X58919Y-48738D01*
X58863Y-48682D01*
X58790Y-48651D01*
X58711Y-48651D01*
X57711Y-48651D01*
X57638Y-48681D01*
X57582Y-48737D01*
X57551Y-48810D01*
X57551Y-48870D01*
X57515Y-48878D01*
X57437Y-48930D01*
X57435Y-48932D01*
X57409Y-48958D01*
X57040Y-48958D01*
X56963Y-48881D01*
X56825Y-48823D01*
X56676Y-48823D01*
X56538Y-48880D01*
X56433Y-48985D01*
X56375Y-49123D01*
X56375Y-49272D01*
X56432Y-49410D01*
X56537Y-49515D01*
X56675Y-49573D01*
X56824Y-49573D01*
X56962Y-49516D01*
X57040Y-49438D01*
X57509Y-49438D01*
X57566Y-49426D01*
X57581Y-49462D01*
X57637Y-49518D01*
X57710Y-49549D01*
X57789Y-49549D01*
X58789Y-49549D01*
X58862Y-49519D01*
X58918Y-49463D01*
X58949Y-49390D01*
X58949Y-49797D01*
X58903Y-49797D01*
X58723Y-49871D01*
X58585Y-50009D01*
X58510Y-50189D01*
X58510Y-50384D01*
X58510Y-50810D01*
X58584Y-50990D01*
X58722Y-51128D01*
X58902Y-51203D01*
X59097Y-51203D01*
X59277Y-51129D01*
X59415Y-50991D01*
X59490Y-50811D01*
X59490Y-51255D01*
X58490Y-51255D01*
X58490Y-50811D01*
X58490Y-50616D01*
X58490Y-50190D01*
X58416Y-50010D01*
X58278Y-49872D01*
X58098Y-49797D01*
X57903Y-49797D01*
X57723Y-49871D01*
X57585Y-50009D01*
X57510Y-50189D01*
X57510Y-50384D01*
X57510Y-50810D01*
X57584Y-50990D01*
X57722Y-51128D01*
X57902Y-51203D01*
X58097Y-51203D01*
X58277Y-51129D01*
X58415Y-50991D01*
X58490Y-50811D01*
X58490Y-51255D01*
X57490Y-51255D01*
X57490Y-50811D01*
X57490Y-50616D01*
X57490Y-50190D01*
X57416Y-50010D01*
X57278Y-49872D01*
X57098Y-49797D01*
X56903Y-49797D01*
X56723Y-49871D01*
X56585Y-50009D01*
X56510Y-50189D01*
X56510Y-50384D01*
X56510Y-50810D01*
X56584Y-50990D01*
X56722Y-51128D01*
X56902Y-51203D01*
X57097Y-51203D01*
X57277Y-51129D01*
X57415Y-50991D01*
X57490Y-50811D01*
X57490Y-51255D01*
X56490Y-51255D01*
X56490Y-50811D01*
X56490Y-50616D01*
X56490Y-50190D01*
X56416Y-50010D01*
X56278Y-49872D01*
X56098Y-49797D01*
X55903Y-49797D01*
X55723Y-49871D01*
X55600Y-49994D01*
X55600Y-47612D01*
X55538Y-47550D01*
X55150Y-47550D01*
X55150Y-48188D01*
X55212Y-48250D01*
X55399Y-48249D01*
X55491Y-48211D01*
X55561Y-48141D01*
X55599Y-48050D01*
X55599Y-47951D01*
X55600Y-47612D01*
X55600Y-49994D01*
X55585Y-50009D01*
X55510Y-50189D01*
X55510Y-50384D01*
X55510Y-50810D01*
X55584Y-50990D01*
X55722Y-51128D01*
X55902Y-51203D01*
X56097Y-51203D01*
X56277Y-51129D01*
X56415Y-50991D01*
X56490Y-50811D01*
X56490Y-51255D01*
X55050Y-51255D01*
X55050Y-48188D01*
X55050Y-47550D01*
X54662Y-47550D01*
X54600Y-47612D01*
X54601Y-47951D01*
X54601Y-48050D01*
X54639Y-48141D01*
X54709Y-48211D01*
X54801Y-48249D01*
X54988Y-48250D01*
X55050Y-48188D01*
X55050Y-51255D01*
X51123Y-51255D01*
X51326Y-51053D01*
X51475Y-50695D01*
X51475Y-50307D01*
X51327Y-49949D01*
X51053Y-49674D01*
X50695Y-49525D01*
X50307Y-49525D01*
X49949Y-49673D01*
X49674Y-49947D01*
X49525Y-50305D01*
X49525Y-50693D01*
X49673Y-51051D01*
X49876Y-51255D01*
X43745Y-51255D01*
X43745Y-30745D01*
X50376Y-30745D01*
X50174Y-30947D01*
X50025Y-31305D01*
X50025Y-31693D01*
X50173Y-32051D01*
X50447Y-32326D01*
X50805Y-32475D01*
X51193Y-32475D01*
X51551Y-32327D01*
X51826Y-32053D01*
X51918Y-31830D01*
X51984Y-31990D01*
X52122Y-32128D01*
X52302Y-32203D01*
X52497Y-32203D01*
X52677Y-32129D01*
X52815Y-31991D01*
X52890Y-31811D01*
X52890Y-31616D01*
X52890Y-31190D01*
X52816Y-31010D01*
X52678Y-30872D01*
X52498Y-30797D01*
X52303Y-30797D01*
X52123Y-30871D01*
X51985Y-31009D01*
X51918Y-31169D01*
X51827Y-30949D01*
X51623Y-30745D01*
X56749Y-30745D01*
X56722Y-30786D01*
X56704Y-30878D01*
X56704Y-30898D01*
X56678Y-30872D01*
X56498Y-30797D01*
X56303Y-30797D01*
X56123Y-30871D01*
X55985Y-31009D01*
X55910Y-31189D01*
X55910Y-31384D01*
X55910Y-31810D01*
X55984Y-31990D01*
X56122Y-32128D01*
X56302Y-32203D01*
X56497Y-32203D01*
X56677Y-32129D01*
X56739Y-32066D01*
X56774Y-32118D01*
X60995Y-36339D01*
X59964Y-36339D01*
X59963Y-36339D01*
X59945Y-36342D01*
X59872Y-36357D01*
X59794Y-36409D01*
X59792Y-36411D01*
X56599Y-39604D01*
X56599Y-37619D01*
X56599Y-37381D01*
X56508Y-37161D01*
X56339Y-36992D01*
X56119Y-36901D01*
X55890Y-36901D01*
X55890Y-31811D01*
X55890Y-31616D01*
X55890Y-31190D01*
X55816Y-31010D01*
X55678Y-30872D01*
X55498Y-30797D01*
X55303Y-30797D01*
X55123Y-30871D01*
X54985Y-31009D01*
X54910Y-31189D01*
X54910Y-31384D01*
X54910Y-31810D01*
X54984Y-31990D01*
X55122Y-32128D01*
X55302Y-32203D01*
X55497Y-32203D01*
X55677Y-32129D01*
X55815Y-31991D01*
X55890Y-31811D01*
X55890Y-36901D01*
X55881Y-36901D01*
X55849Y-36914D01*
X55849Y-34369D01*
X55849Y-34131D01*
X55758Y-33911D01*
X55589Y-33742D01*
X55369Y-33651D01*
X55131Y-33651D01*
X54911Y-33742D01*
X54890Y-33763D01*
X54890Y-31811D01*
X54890Y-31616D01*
X54890Y-31190D01*
X54816Y-31010D01*
X54678Y-30872D01*
X54498Y-30797D01*
X54303Y-30797D01*
X54123Y-30871D01*
X53985Y-31009D01*
X53910Y-31189D01*
X53910Y-31384D01*
X53910Y-31810D01*
X53984Y-31990D01*
X54122Y-32128D01*
X54302Y-32203D01*
X54497Y-32203D01*
X54677Y-32129D01*
X54815Y-31991D01*
X54890Y-31811D01*
X54890Y-33763D01*
X54742Y-33911D01*
X54651Y-34131D01*
X54651Y-34369D01*
X54742Y-34589D01*
X54911Y-34758D01*
X55131Y-34849D01*
X55369Y-34849D01*
X55589Y-34758D01*
X55758Y-34589D01*
X55849Y-34369D01*
X55849Y-36914D01*
X55661Y-36992D01*
X55492Y-37161D01*
X55401Y-37381D01*
X55401Y-37619D01*
X55492Y-37839D01*
X55661Y-38008D01*
X55881Y-38099D01*
X56119Y-38099D01*
X56339Y-38008D01*
X56508Y-37839D01*
X56599Y-37619D01*
X56599Y-39604D01*
X54349Y-41854D01*
X54349Y-34690D01*
X54349Y-34611D01*
X54349Y-33811D01*
X54319Y-33738D01*
X54263Y-33682D01*
X54190Y-33651D01*
X54111Y-33651D01*
X53890Y-33651D01*
X53890Y-31811D01*
X53890Y-31616D01*
X53890Y-31190D01*
X53816Y-31010D01*
X53678Y-30872D01*
X53498Y-30797D01*
X53303Y-30797D01*
X53123Y-30871D01*
X52985Y-31009D01*
X52910Y-31189D01*
X52910Y-31384D01*
X52910Y-31810D01*
X52984Y-31990D01*
X53122Y-32128D01*
X53302Y-32203D01*
X53497Y-32203D01*
X53677Y-32129D01*
X53815Y-31991D01*
X53890Y-31811D01*
X53890Y-33651D01*
X53311Y-33651D01*
X53238Y-33681D01*
X53182Y-33737D01*
X53151Y-33810D01*
X53151Y-33889D01*
X53151Y-34689D01*
X53181Y-34762D01*
X53237Y-34818D01*
X53310Y-34849D01*
X53389Y-34849D01*
X54189Y-34849D01*
X54262Y-34819D01*
X54318Y-34763D01*
X54349Y-34690D01*
X54349Y-41854D01*
X53599Y-42604D01*
X53599Y-37619D01*
X53599Y-37381D01*
X53508Y-37161D01*
X53339Y-36992D01*
X53119Y-36901D01*
X52881Y-36901D01*
X52661Y-36992D01*
X52492Y-37161D01*
X52401Y-37381D01*
X52401Y-37619D01*
X52492Y-37839D01*
X52661Y-38008D01*
X52881Y-38099D01*
X53119Y-38099D01*
X53339Y-38008D01*
X53508Y-37839D01*
X53599Y-37619D01*
X53599Y-42604D01*
X52228Y-43975D01*
X52176Y-44053D01*
X52158Y-44145D01*
X52158Y-47536D01*
X52176Y-47628D01*
X52228Y-47706D01*
X52834Y-48311D01*
X52836Y-48314D01*
X52913Y-48365D01*
X52914Y-48366D01*
X52987Y-48380D01*
X53005Y-48384D01*
X53005Y-48383D01*
X53006Y-48384D01*
X54288Y-48384D01*
X54380Y-48366D01*
X54458Y-48314D01*
X54480Y-48292D01*
X54532Y-48214D01*
X54550Y-48122D01*
X54550Y-47437D01*
X54600Y-47387D01*
X54600Y-47388D01*
X54662Y-47450D01*
X55000Y-47450D01*
X55050Y-47450D01*
X55150Y-47450D01*
X55200Y-47450D01*
X55538Y-47450D01*
X55600Y-47388D01*
X55599Y-47096D01*
X57499Y-47096D01*
X57854Y-47451D01*
X57711Y-47451D01*
X57638Y-47481D01*
X57582Y-47537D01*
X57551Y-47610D01*
X57551Y-47689D01*
X57551Y-48189D01*
X57581Y-48262D01*
X57637Y-48318D01*
X57710Y-48349D01*
X57789Y-48349D01*
X58789Y-48349D01*
X58862Y-48319D01*
X58918Y-48263D01*
X58949Y-48190D01*
X58949Y-48111D01*
X58949Y-47611D01*
X58919Y-47538D01*
X58863Y-47482D01*
X58790Y-47451D01*
X58711Y-47451D01*
X58479Y-47451D01*
X58472Y-47415D01*
X58420Y-47337D01*
X58417Y-47335D01*
X57769Y-46686D01*
X57691Y-46634D01*
X57599Y-46616D01*
X54792Y-46616D01*
X54700Y-46634D01*
X54622Y-46686D01*
X54620Y-46688D01*
X54348Y-46959D01*
X54321Y-46894D01*
X56116Y-45099D01*
X56119Y-45099D01*
X56237Y-45050D01*
X59187Y-45050D01*
X61000Y-46862D01*
X61000Y-46869D01*
X60982Y-46887D01*
X60951Y-46960D01*
X60951Y-47039D01*
X60951Y-48039D01*
X60981Y-48112D01*
X61037Y-48168D01*
X61110Y-48199D01*
X61189Y-48199D01*
X61689Y-48199D01*
X61762Y-48169D01*
X61818Y-48113D01*
X61849Y-48040D01*
X61849Y-47961D01*
X61849Y-46961D01*
X61819Y-46888D01*
X61800Y-46869D01*
X61800Y-46862D01*
X63563Y-45099D01*
X63619Y-45099D01*
X63839Y-45008D01*
X63850Y-44997D01*
X66731Y-44997D01*
X68500Y-46765D01*
X68500Y-46869D01*
X68482Y-46887D01*
X68451Y-46960D01*
X68451Y-47039D01*
X68451Y-48039D01*
X68481Y-48112D01*
X68537Y-48168D01*
X68610Y-48199D01*
X68689Y-48199D01*
X69054Y-48199D01*
X69592Y-48737D01*
X69721Y-48824D01*
X69722Y-48824D01*
X69875Y-48854D01*
X70913Y-48854D01*
X70859Y-48908D01*
X70801Y-49046D01*
X70801Y-49195D01*
X70858Y-49333D01*
X70963Y-49438D01*
X71101Y-49496D01*
X71250Y-49496D01*
X71388Y-49439D01*
X71466Y-49361D01*
X72551Y-49361D01*
X72551Y-49389D01*
X72581Y-49462D01*
X72637Y-49518D01*
X72710Y-49549D01*
X72789Y-49549D01*
X73789Y-49549D01*
X73862Y-49519D01*
X73918Y-49463D01*
X73949Y-49390D01*
X73949Y-49311D01*
X73949Y-48854D01*
X74893Y-48854D01*
X75046Y-48824D01*
X75176Y-48737D01*
X75951Y-47962D01*
X75951Y-48039D01*
X75981Y-48112D01*
X76037Y-48168D01*
X76110Y-48199D01*
X76189Y-48199D01*
X76689Y-48199D01*
X76762Y-48169D01*
X76818Y-48113D01*
X76849Y-48040D01*
X76849Y-47961D01*
X76849Y-46961D01*
X76819Y-46888D01*
X76763Y-46832D01*
X76690Y-46801D01*
X76611Y-46801D01*
X76111Y-46801D01*
X76038Y-46831D01*
X75982Y-46887D01*
X75951Y-46960D01*
X75951Y-47039D01*
X75951Y-47100D01*
X75847Y-47100D01*
X75693Y-47130D01*
X75564Y-47217D01*
X74727Y-48054D01*
X73949Y-48054D01*
X73949Y-47611D01*
X73919Y-47538D01*
X73863Y-47482D01*
X73790Y-47451D01*
X73711Y-47451D01*
X73490Y-47451D01*
X73490Y-45899D01*
X73472Y-45807D01*
X73427Y-45740D01*
X78393Y-45740D01*
X80104Y-47451D01*
X79961Y-47451D01*
X79888Y-47481D01*
X79832Y-47537D01*
X79801Y-47610D01*
X79801Y-47689D01*
X79801Y-48189D01*
X79831Y-48262D01*
X79887Y-48318D01*
X79960Y-48349D01*
X80039Y-48349D01*
X81039Y-48349D01*
X81112Y-48319D01*
X81168Y-48263D01*
X81199Y-48190D01*
X81199Y-48111D01*
X81199Y-47611D01*
X81169Y-47538D01*
X81113Y-47482D01*
X81040Y-47451D01*
X80961Y-47451D01*
X80729Y-47451D01*
X80722Y-47415D01*
X80670Y-47337D01*
X80667Y-47335D01*
X79490Y-46157D01*
X79490Y-31811D01*
X79490Y-31616D01*
X79490Y-31190D01*
X79416Y-31010D01*
X79278Y-30872D01*
X79098Y-30797D01*
X78903Y-30797D01*
X78723Y-30871D01*
X78585Y-31009D01*
X78510Y-31189D01*
X78510Y-31384D01*
X78510Y-31810D01*
X78584Y-31990D01*
X78722Y-32128D01*
X78902Y-32203D01*
X79097Y-32203D01*
X79277Y-32129D01*
X79415Y-31991D01*
X79490Y-31811D01*
X79490Y-46157D01*
X79099Y-45766D01*
X79099Y-44619D01*
X79099Y-44381D01*
X79099Y-37619D01*
X79099Y-37381D01*
X79008Y-37161D01*
X78839Y-36992D01*
X78619Y-36901D01*
X78490Y-36901D01*
X78490Y-31811D01*
X78490Y-31616D01*
X78490Y-31190D01*
X78416Y-31010D01*
X78278Y-30872D01*
X78098Y-30797D01*
X77903Y-30797D01*
X77723Y-30871D01*
X77585Y-31009D01*
X77510Y-31189D01*
X77510Y-31384D01*
X77510Y-31810D01*
X77584Y-31990D01*
X77722Y-32128D01*
X77902Y-32203D01*
X78097Y-32203D01*
X78277Y-32129D01*
X78415Y-31991D01*
X78490Y-31811D01*
X78490Y-36901D01*
X78381Y-36901D01*
X78349Y-36914D01*
X78349Y-34369D01*
X78349Y-34131D01*
X78258Y-33911D01*
X78089Y-33742D01*
X77869Y-33651D01*
X77631Y-33651D01*
X77490Y-33709D01*
X77490Y-31811D01*
X77490Y-31616D01*
X77490Y-31190D01*
X77416Y-31010D01*
X77278Y-30872D01*
X77098Y-30797D01*
X76903Y-30797D01*
X76723Y-30871D01*
X76585Y-31009D01*
X76510Y-31189D01*
X76510Y-31384D01*
X76510Y-31810D01*
X76584Y-31990D01*
X76722Y-32128D01*
X76902Y-32203D01*
X77097Y-32203D01*
X77277Y-32129D01*
X77415Y-31991D01*
X77490Y-31811D01*
X77490Y-33709D01*
X77411Y-33742D01*
X77242Y-33911D01*
X77151Y-34131D01*
X77151Y-34369D01*
X77242Y-34589D01*
X77411Y-34758D01*
X77631Y-34849D01*
X77869Y-34849D01*
X78089Y-34758D01*
X78258Y-34589D01*
X78349Y-34369D01*
X78349Y-36914D01*
X78161Y-36992D01*
X77992Y-37161D01*
X77901Y-37381D01*
X77901Y-37619D01*
X77992Y-37839D01*
X78161Y-38008D01*
X78381Y-38099D01*
X78619Y-38099D01*
X78839Y-38008D01*
X79008Y-37839D01*
X79099Y-37619D01*
X79099Y-44381D01*
X79008Y-44161D01*
X78839Y-43992D01*
X78619Y-43901D01*
X78381Y-43901D01*
X78161Y-43992D01*
X78000Y-44153D01*
X77839Y-43992D01*
X77619Y-43901D01*
X77381Y-43901D01*
X77281Y-43941D01*
X76989Y-43649D01*
X76911Y-43597D01*
X76849Y-43584D01*
X76849Y-34690D01*
X76849Y-34611D01*
X76849Y-33811D01*
X76819Y-33738D01*
X76763Y-33682D01*
X76690Y-33651D01*
X76611Y-33651D01*
X76490Y-33651D01*
X76490Y-31811D01*
X76490Y-31616D01*
X76490Y-31190D01*
X76416Y-31010D01*
X76278Y-30872D01*
X76098Y-30797D01*
X75903Y-30797D01*
X75723Y-30871D01*
X75585Y-31009D01*
X75510Y-31189D01*
X75510Y-31384D01*
X75510Y-31810D01*
X75584Y-31990D01*
X75722Y-32128D01*
X75902Y-32203D01*
X76097Y-32203D01*
X76277Y-32129D01*
X76415Y-31991D01*
X76490Y-31811D01*
X76490Y-33651D01*
X75811Y-33651D01*
X75738Y-33681D01*
X75682Y-33737D01*
X75651Y-33810D01*
X75651Y-33889D01*
X75651Y-34689D01*
X75681Y-34762D01*
X75737Y-34818D01*
X75810Y-34849D01*
X75889Y-34849D01*
X76689Y-34849D01*
X76762Y-34819D01*
X76818Y-34763D01*
X76849Y-34690D01*
X76849Y-43584D01*
X76819Y-43579D01*
X76099Y-43579D01*
X76099Y-37619D01*
X76099Y-37381D01*
X76008Y-37161D01*
X75839Y-36992D01*
X75619Y-36901D01*
X75490Y-36901D01*
X75490Y-31811D01*
X75490Y-31616D01*
X75490Y-31190D01*
X75416Y-31010D01*
X75278Y-30872D01*
X75098Y-30797D01*
X74903Y-30797D01*
X74723Y-30871D01*
X74585Y-31009D01*
X74510Y-31189D01*
X74510Y-31384D01*
X74510Y-31810D01*
X74584Y-31990D01*
X74722Y-32128D01*
X74902Y-32203D01*
X75097Y-32203D01*
X75277Y-32129D01*
X75415Y-31991D01*
X75490Y-31811D01*
X75490Y-36901D01*
X75381Y-36901D01*
X75161Y-36992D01*
X74992Y-37161D01*
X74901Y-37381D01*
X74901Y-37619D01*
X74992Y-37839D01*
X75161Y-38008D01*
X75381Y-38099D01*
X75619Y-38099D01*
X75839Y-38008D01*
X76008Y-37839D01*
X76099Y-37619D01*
X76099Y-43579D01*
X75781Y-43579D01*
X74490Y-42287D01*
X74490Y-31811D01*
X74490Y-31616D01*
X74490Y-31190D01*
X74416Y-31010D01*
X74278Y-30872D01*
X74098Y-30797D01*
X73903Y-30797D01*
X73723Y-30871D01*
X73585Y-31009D01*
X73510Y-31189D01*
X73510Y-31384D01*
X73510Y-31810D01*
X73584Y-31990D01*
X73722Y-32128D01*
X73902Y-32203D01*
X74097Y-32203D01*
X74277Y-32129D01*
X74415Y-31991D01*
X74490Y-31811D01*
X74490Y-42287D01*
X73490Y-41287D01*
X73490Y-31811D01*
X73490Y-31616D01*
X73490Y-31190D01*
X73416Y-31010D01*
X73278Y-30872D01*
X73098Y-30797D01*
X72903Y-30797D01*
X72723Y-30871D01*
X72585Y-31009D01*
X72510Y-31189D01*
X72510Y-31384D01*
X72510Y-31810D01*
X72584Y-31990D01*
X72722Y-32128D01*
X72902Y-32203D01*
X73097Y-32203D01*
X73277Y-32129D01*
X73415Y-31991D01*
X73490Y-31811D01*
X73490Y-41287D01*
X72490Y-40287D01*
X72490Y-31811D01*
X72490Y-31616D01*
X72490Y-31190D01*
X72416Y-31010D01*
X72278Y-30872D01*
X72098Y-30797D01*
X71903Y-30797D01*
X71723Y-30871D01*
X71585Y-31009D01*
X71510Y-31189D01*
X71510Y-31384D01*
X71510Y-31810D01*
X71584Y-31990D01*
X71722Y-32128D01*
X71902Y-32203D01*
X72097Y-32203D01*
X72277Y-32129D01*
X72415Y-31991D01*
X72490Y-31811D01*
X72490Y-40287D01*
X71599Y-39396D01*
X71599Y-37619D01*
X71599Y-37381D01*
X71508Y-37161D01*
X71339Y-36992D01*
X71119Y-36901D01*
X70881Y-36901D01*
X70849Y-36914D01*
X70849Y-34369D01*
X70849Y-34131D01*
X70758Y-33911D01*
X70589Y-33742D01*
X70490Y-33701D01*
X70490Y-31811D01*
X70490Y-31616D01*
X70490Y-31190D01*
X70416Y-31010D01*
X70278Y-30872D01*
X70098Y-30797D01*
X69903Y-30797D01*
X69723Y-30871D01*
X69585Y-31009D01*
X69510Y-31189D01*
X69510Y-31384D01*
X69510Y-31810D01*
X69584Y-31990D01*
X69722Y-32128D01*
X69902Y-32203D01*
X70097Y-32203D01*
X70277Y-32129D01*
X70415Y-31991D01*
X70490Y-31811D01*
X70490Y-33701D01*
X70369Y-33651D01*
X70131Y-33651D01*
X69911Y-33742D01*
X69742Y-33911D01*
X69651Y-34131D01*
X69651Y-34369D01*
X69742Y-34589D01*
X69911Y-34758D01*
X70131Y-34849D01*
X70369Y-34849D01*
X70589Y-34758D01*
X70758Y-34589D01*
X70849Y-34369D01*
X70849Y-36914D01*
X70661Y-36992D01*
X70492Y-37161D01*
X70401Y-37381D01*
X70401Y-37619D01*
X70492Y-37839D01*
X70661Y-38008D01*
X70881Y-38099D01*
X71119Y-38099D01*
X71339Y-38008D01*
X71508Y-37839D01*
X71599Y-37619D01*
X71599Y-39396D01*
X69490Y-37287D01*
X69490Y-31811D01*
X69490Y-31616D01*
X69490Y-31190D01*
X69416Y-31010D01*
X69278Y-30872D01*
X69098Y-30797D01*
X68903Y-30797D01*
X68723Y-30871D01*
X68585Y-31009D01*
X68510Y-31189D01*
X68510Y-31384D01*
X68510Y-31810D01*
X68584Y-31990D01*
X68722Y-32128D01*
X68902Y-32203D01*
X69097Y-32203D01*
X69277Y-32129D01*
X69415Y-31991D01*
X69490Y-31811D01*
X69490Y-37287D01*
X69349Y-37146D01*
X69349Y-34690D01*
X69349Y-34611D01*
X69349Y-33811D01*
X69319Y-33738D01*
X69263Y-33682D01*
X69190Y-33651D01*
X69111Y-33651D01*
X68490Y-33651D01*
X68490Y-31811D01*
X68490Y-31616D01*
X68490Y-31190D01*
X68416Y-31010D01*
X68278Y-30872D01*
X68098Y-30797D01*
X67903Y-30797D01*
X67723Y-30871D01*
X67585Y-31009D01*
X67510Y-31189D01*
X67510Y-31384D01*
X67510Y-31810D01*
X67584Y-31990D01*
X67722Y-32128D01*
X67902Y-32203D01*
X68097Y-32203D01*
X68277Y-32129D01*
X68415Y-31991D01*
X68490Y-31811D01*
X68490Y-33651D01*
X68311Y-33651D01*
X68238Y-33681D01*
X68182Y-33737D01*
X68151Y-33810D01*
X68151Y-33889D01*
X68151Y-34689D01*
X68181Y-34762D01*
X68237Y-34818D01*
X68310Y-34849D01*
X68389Y-34849D01*
X69189Y-34849D01*
X69262Y-34819D01*
X69318Y-34763D01*
X69349Y-34690D01*
X69349Y-37146D01*
X67490Y-35287D01*
X67490Y-31811D01*
X67490Y-31616D01*
X67490Y-31190D01*
X67416Y-31010D01*
X67278Y-30872D01*
X67098Y-30797D01*
X66903Y-30797D01*
X66723Y-30871D01*
X66585Y-31009D01*
X66510Y-31189D01*
X66510Y-31384D01*
X66510Y-31810D01*
X66584Y-31990D01*
X66722Y-32128D01*
X66902Y-32203D01*
X67097Y-32203D01*
X67277Y-32129D01*
X67415Y-31991D01*
X67490Y-31811D01*
X67490Y-35287D01*
X66490Y-34287D01*
X66490Y-31811D01*
X66490Y-31616D01*
X66490Y-31190D01*
X66416Y-31010D01*
X66278Y-30872D01*
X66098Y-30797D01*
X65903Y-30797D01*
X65723Y-30871D01*
X65585Y-31009D01*
X65510Y-31189D01*
X65510Y-31384D01*
X65510Y-31810D01*
X65584Y-31990D01*
X65722Y-32128D01*
X65902Y-32203D01*
X66097Y-32203D01*
X66277Y-32129D01*
X66415Y-31991D01*
X66490Y-31811D01*
X66490Y-34287D01*
X65490Y-33287D01*
X65490Y-31811D01*
X65490Y-31616D01*
X65490Y-31190D01*
X65416Y-31010D01*
X65278Y-30872D01*
X65098Y-30797D01*
X64903Y-30797D01*
X64723Y-30871D01*
X64585Y-31009D01*
X64510Y-31189D01*
X64510Y-31384D01*
X64510Y-31810D01*
X64584Y-31990D01*
X64722Y-32128D01*
X64902Y-32203D01*
X65097Y-32203D01*
X65277Y-32129D01*
X65415Y-31991D01*
X65490Y-31811D01*
X65490Y-33287D01*
X64304Y-32101D01*
X64415Y-31991D01*
X64490Y-31811D01*
X64490Y-31616D01*
X64490Y-31190D01*
X64416Y-31010D01*
X64278Y-30872D01*
X64098Y-30797D01*
X63903Y-30797D01*
X63723Y-30871D01*
X63585Y-31009D01*
X63510Y-31189D01*
X63510Y-31384D01*
X63510Y-31810D01*
X63548Y-31903D01*
X63451Y-31903D01*
X63490Y-31811D01*
X63490Y-31616D01*
X63490Y-31190D01*
X63416Y-31010D01*
X63278Y-30872D01*
X63098Y-30797D01*
X62903Y-30797D01*
X62723Y-30871D01*
X62585Y-31009D01*
X62510Y-31189D01*
X62510Y-31384D01*
X62510Y-31810D01*
X62548Y-31903D01*
X61851Y-31903D01*
X61890Y-31811D01*
X61890Y-31616D01*
X61890Y-31190D01*
X61816Y-31010D01*
X61678Y-30872D01*
X61498Y-30797D01*
X61303Y-30797D01*
X61123Y-30871D01*
X60985Y-31009D01*
X60910Y-31189D01*
X60910Y-31384D01*
X60910Y-31810D01*
X60948Y-31903D01*
X60851Y-31903D01*
X60890Y-31811D01*
X60890Y-31616D01*
X60890Y-31190D01*
X60816Y-31010D01*
X60678Y-30872D01*
X60498Y-30797D01*
X60303Y-30797D01*
X60123Y-30871D01*
X59985Y-31009D01*
X59910Y-31189D01*
X59910Y-31384D01*
X59910Y-31810D01*
X59948Y-31903D01*
X59851Y-31903D01*
X59890Y-31811D01*
X59890Y-31616D01*
X59890Y-31190D01*
X59816Y-31010D01*
X59678Y-30872D01*
X59498Y-30797D01*
X59303Y-30797D01*
X59123Y-30871D01*
X58985Y-31009D01*
X58910Y-31189D01*
X58910Y-31384D01*
X58910Y-31810D01*
X58984Y-31990D01*
X59122Y-32128D01*
X59160Y-32143D01*
X59178Y-32235D01*
X59230Y-32313D01*
X59308Y-32365D01*
X59400Y-32383D01*
X63906Y-32383D01*
X75424Y-43901D01*
X75061Y-43901D01*
X74988Y-43931D01*
X74932Y-43987D01*
X74901Y-44060D01*
X74901Y-44139D01*
X74901Y-44939D01*
X74931Y-45012D01*
X74987Y-45068D01*
X75060Y-45099D01*
X75139Y-45099D01*
X75939Y-45099D01*
X76012Y-45069D01*
X76068Y-45013D01*
X76097Y-44944D01*
X76161Y-45008D01*
X76381Y-45099D01*
X76619Y-45099D01*
X76839Y-45008D01*
X77000Y-44847D01*
X77161Y-45008D01*
X77381Y-45099D01*
X77619Y-45099D01*
X77839Y-45008D01*
X78000Y-44847D01*
X78161Y-45008D01*
X78381Y-45099D01*
X78619Y-45099D01*
X78839Y-45008D01*
X79008Y-44839D01*
X79099Y-44619D01*
X79099Y-45766D01*
X78663Y-45330D01*
X78585Y-45278D01*
X78493Y-45260D01*
X73211Y-45260D01*
X68599Y-40647D01*
X68599Y-37619D01*
X68599Y-37381D01*
X68508Y-37161D01*
X68339Y-36992D01*
X68119Y-36901D01*
X67881Y-36901D01*
X67661Y-36992D01*
X67492Y-37161D01*
X67401Y-37381D01*
X67401Y-37619D01*
X67492Y-37839D01*
X67661Y-38008D01*
X67881Y-38099D01*
X68119Y-38099D01*
X68339Y-38008D01*
X68508Y-37839D01*
X68599Y-37619D01*
X68599Y-40647D01*
X63723Y-35771D01*
X63645Y-35719D01*
X63553Y-35701D01*
X63349Y-35701D01*
X63349Y-34369D01*
X63349Y-34131D01*
X63258Y-33911D01*
X63089Y-33742D01*
X62869Y-33651D01*
X62631Y-33651D01*
X62411Y-33742D01*
X62242Y-33911D01*
X62151Y-34131D01*
X62151Y-34369D01*
X62242Y-34589D01*
X62411Y-34758D01*
X62631Y-34849D01*
X62869Y-34849D01*
X63089Y-34758D01*
X63258Y-34589D01*
X63349Y-34369D01*
X63349Y-35701D01*
X61849Y-35701D01*
X61849Y-34690D01*
X61849Y-34611D01*
X61849Y-33811D01*
X61819Y-33738D01*
X61763Y-33682D01*
X61690Y-33651D01*
X61611Y-33651D01*
X60811Y-33651D01*
X60738Y-33681D01*
X60682Y-33737D01*
X60651Y-33810D01*
X60651Y-33889D01*
X60651Y-34689D01*
X60681Y-34762D01*
X60737Y-34818D01*
X60810Y-34849D01*
X60889Y-34849D01*
X61689Y-34849D01*
X61762Y-34819D01*
X61818Y-34763D01*
X61849Y-34690D01*
X61849Y-35701D01*
X61298Y-35701D01*
X57701Y-32104D01*
X57815Y-31991D01*
X57890Y-31811D01*
X57890Y-31616D01*
X57890Y-31190D01*
X57851Y-31097D01*
X57948Y-31097D01*
X57910Y-31189D01*
X57910Y-31384D01*
X57910Y-31810D01*
X57984Y-31990D01*
X58122Y-32128D01*
X58302Y-32203D01*
X58497Y-32203D01*
X58677Y-32129D01*
X58815Y-31991D01*
X58890Y-31811D01*
X58890Y-31616D01*
X58890Y-31190D01*
X58816Y-31010D01*
X58678Y-30872D01*
X58639Y-30856D01*
X58622Y-30765D01*
X58608Y-30745D01*
X79876Y-30745D01*
X79674Y-30947D01*
X79525Y-31305D01*
X79525Y-31693D01*
X79673Y-32051D01*
X79947Y-32326D01*
X80305Y-32475D01*
X80693Y-32475D01*
X81051Y-32327D01*
X81326Y-32053D01*
X81475Y-31695D01*
X81475Y-31307D01*
X81327Y-30949D01*
X81123Y-30745D01*
X89255Y-30745D01*
X89255Y-51255D01*
X89255Y-51255D01*
G37*
G54D26*
X89255Y-51255D02*
X88984Y-51255D01*
X88984Y-39724D01*
X88984Y-35207D01*
X88954Y-35054D01*
X88867Y-34924D01*
X88815Y-34872D01*
X88815Y-34851D01*
X88818Y-34848D01*
X88849Y-34775D01*
X88849Y-34696D01*
X88849Y-34226D01*
X88819Y-34153D01*
X88763Y-34097D01*
X88690Y-34066D01*
X88611Y-34066D01*
X88141Y-34066D01*
X88068Y-34096D01*
X88012Y-34152D01*
X88000Y-34180D01*
X87989Y-34153D01*
X87933Y-34097D01*
X87860Y-34066D01*
X87781Y-34066D01*
X87311Y-34066D01*
X87238Y-34096D01*
X87182Y-34152D01*
X87151Y-34225D01*
X87151Y-34260D01*
X86549Y-34260D01*
X86549Y-33961D01*
X86519Y-33888D01*
X86463Y-33832D01*
X86390Y-33801D01*
X86311Y-33801D01*
X85811Y-33801D01*
X85738Y-33831D01*
X85682Y-33887D01*
X85651Y-33960D01*
X85651Y-34039D01*
X85651Y-35039D01*
X85681Y-35112D01*
X85737Y-35168D01*
X85810Y-35199D01*
X85889Y-35199D01*
X86389Y-35199D01*
X86462Y-35169D01*
X86518Y-35113D01*
X86549Y-35040D01*
X86549Y-34961D01*
X86549Y-34740D01*
X87151Y-34740D01*
X87151Y-34774D01*
X87181Y-34847D01*
X87237Y-34903D01*
X87310Y-34934D01*
X87389Y-34934D01*
X87859Y-34934D01*
X87932Y-34904D01*
X87988Y-34848D01*
X87999Y-34819D01*
X88011Y-34847D01*
X88015Y-34851D01*
X88015Y-35038D01*
X88045Y-35191D01*
X88132Y-35321D01*
X88184Y-35373D01*
X88184Y-38611D01*
X88041Y-38468D01*
X87710Y-38330D01*
X87352Y-38330D01*
X87021Y-38467D01*
X86768Y-38719D01*
X86630Y-39050D01*
X86630Y-39408D01*
X86767Y-39739D01*
X87019Y-39992D01*
X87278Y-40100D01*
X86962Y-40100D01*
X86631Y-40237D01*
X86378Y-40489D01*
X86240Y-40820D01*
X86240Y-41178D01*
X86377Y-41509D01*
X86629Y-41762D01*
X86960Y-41900D01*
X87279Y-41900D01*
X87021Y-42007D01*
X86768Y-42259D01*
X86630Y-42590D01*
X86630Y-42948D01*
X86767Y-43279D01*
X87019Y-43532D01*
X87350Y-43670D01*
X87708Y-43670D01*
X88039Y-43533D01*
X88292Y-43281D01*
X88430Y-42950D01*
X88430Y-42592D01*
X88293Y-42261D01*
X88041Y-42008D01*
X87710Y-41870D01*
X87390Y-41870D01*
X87649Y-41763D01*
X87902Y-41511D01*
X87934Y-41434D01*
X87991Y-41491D01*
X88204Y-41580D01*
X88435Y-41580D01*
X88648Y-41492D01*
X88811Y-41329D01*
X88900Y-41116D01*
X88900Y-40885D01*
X88812Y-40672D01*
X88649Y-40509D01*
X88448Y-40425D01*
X88863Y-40009D01*
X88866Y-40007D01*
X88867Y-40007D01*
X88953Y-39878D01*
X88954Y-39877D01*
X88984Y-39724D01*
X88984Y-51255D01*
X85810Y-51255D01*
X85810Y-41196D01*
X85807Y-40786D01*
X85657Y-40424D01*
X85513Y-40338D01*
X85442Y-40409D01*
X85442Y-40267D01*
X85400Y-40196D01*
X85400Y-34612D01*
X85400Y-34388D01*
X85399Y-34049D01*
X85399Y-33950D01*
X85361Y-33859D01*
X85291Y-33789D01*
X85199Y-33751D01*
X85012Y-33750D01*
X84950Y-33812D01*
X84950Y-34450D01*
X85338Y-34450D01*
X85400Y-34388D01*
X85400Y-34612D01*
X85338Y-34550D01*
X84950Y-34550D01*
X84950Y-35188D01*
X85012Y-35250D01*
X85199Y-35249D01*
X85291Y-35211D01*
X85361Y-35141D01*
X85399Y-35050D01*
X85399Y-34951D01*
X85400Y-34612D01*
X85400Y-40196D01*
X85356Y-40123D01*
X84976Y-39970D01*
X84850Y-39970D01*
X84850Y-35188D01*
X84850Y-34550D01*
X84850Y-34450D01*
X84850Y-33812D01*
X84788Y-33750D01*
X84601Y-33751D01*
X84509Y-33789D01*
X84439Y-33859D01*
X84401Y-33950D01*
X84401Y-34049D01*
X84400Y-34388D01*
X84462Y-34450D01*
X84850Y-34450D01*
X84850Y-34550D01*
X84462Y-34550D01*
X84400Y-34612D01*
X84401Y-34951D01*
X84401Y-35050D01*
X84439Y-35141D01*
X84509Y-35211D01*
X84601Y-35249D01*
X84788Y-35250D01*
X84850Y-35188D01*
X84850Y-39970D01*
X84566Y-39973D01*
X84204Y-40123D01*
X84118Y-40267D01*
X84780Y-40929D01*
X85442Y-40267D01*
X85442Y-40409D01*
X84851Y-41000D01*
X85513Y-41662D01*
X85657Y-41576D01*
X85810Y-41196D01*
X85810Y-51255D01*
X85442Y-51255D01*
X85442Y-41733D01*
X84780Y-41071D01*
X84709Y-41142D01*
X84709Y-41000D01*
X84047Y-40338D01*
X83903Y-40424D01*
X83750Y-40804D01*
X83753Y-41214D01*
X83903Y-41576D01*
X84047Y-41662D01*
X84709Y-41000D01*
X84709Y-41142D01*
X84118Y-41733D01*
X84204Y-41877D01*
X84584Y-42030D01*
X84994Y-42027D01*
X85356Y-41877D01*
X85442Y-41733D01*
X85442Y-51255D01*
X83623Y-51255D01*
X83826Y-51053D01*
X83975Y-50695D01*
X83975Y-50307D01*
X83827Y-49949D01*
X83553Y-49674D01*
X83499Y-49651D01*
X83499Y-48599D01*
X83499Y-48401D01*
X83499Y-47599D01*
X83499Y-47401D01*
X83499Y-46599D01*
X83499Y-46401D01*
X83499Y-45599D01*
X83499Y-45401D01*
X83499Y-44599D01*
X83499Y-44401D01*
X83499Y-43599D01*
X83499Y-43401D01*
X83499Y-42599D01*
X83499Y-42401D01*
X83499Y-41599D01*
X83499Y-41401D01*
X83499Y-40599D01*
X83499Y-40401D01*
X83499Y-39599D01*
X83499Y-39401D01*
X83499Y-38599D01*
X83499Y-38401D01*
X83499Y-37599D01*
X83499Y-37401D01*
X83499Y-36599D01*
X83499Y-36401D01*
X83499Y-35599D01*
X83499Y-35401D01*
X83499Y-34599D01*
X83499Y-34401D01*
X83499Y-33599D01*
X83499Y-33401D01*
X83499Y-32599D01*
X83499Y-32401D01*
X83499Y-31599D01*
X83499Y-31401D01*
X83423Y-31218D01*
X83283Y-31077D01*
X83099Y-31001D01*
X82901Y-31001D01*
X82718Y-31077D01*
X82577Y-31217D01*
X82501Y-31401D01*
X82501Y-31599D01*
X82577Y-31782D01*
X82717Y-31923D01*
X82901Y-31999D01*
X83099Y-31999D01*
X83282Y-31923D01*
X83423Y-31783D01*
X83499Y-31599D01*
X83499Y-32401D01*
X83423Y-32218D01*
X83283Y-32077D01*
X83099Y-32001D01*
X82901Y-32001D01*
X82718Y-32077D01*
X82577Y-32217D01*
X82501Y-32401D01*
X82501Y-32599D01*
X82577Y-32782D01*
X82717Y-32923D01*
X82901Y-32999D01*
X83099Y-32999D01*
X83282Y-32923D01*
X83423Y-32783D01*
X83499Y-32599D01*
X83499Y-33401D01*
X83423Y-33218D01*
X83283Y-33077D01*
X83099Y-33001D01*
X82901Y-33001D01*
X82718Y-33077D01*
X82577Y-33217D01*
X82501Y-33401D01*
X82501Y-33599D01*
X82577Y-33782D01*
X82717Y-33923D01*
X82901Y-33999D01*
X83099Y-33999D01*
X83282Y-33923D01*
X83423Y-33783D01*
X83499Y-33599D01*
X83499Y-34401D01*
X83423Y-34218D01*
X83283Y-34077D01*
X83099Y-34001D01*
X82901Y-34001D01*
X82718Y-34077D01*
X82577Y-34217D01*
X82501Y-34401D01*
X82501Y-34599D01*
X82577Y-34782D01*
X82717Y-34923D01*
X82901Y-34999D01*
X83099Y-34999D01*
X83282Y-34923D01*
X83423Y-34783D01*
X83499Y-34599D01*
X83499Y-35401D01*
X83423Y-35218D01*
X83283Y-35077D01*
X83099Y-35001D01*
X82901Y-35001D01*
X82718Y-35077D01*
X82577Y-35217D01*
X82501Y-35401D01*
X82501Y-35599D01*
X82577Y-35782D01*
X82717Y-35923D01*
X82901Y-35999D01*
X83099Y-35999D01*
X83282Y-35923D01*
X83423Y-35783D01*
X83499Y-35599D01*
X83499Y-36401D01*
X83423Y-36218D01*
X83283Y-36077D01*
X83099Y-36001D01*
X82901Y-36001D01*
X82718Y-36077D01*
X82577Y-36217D01*
X82501Y-36401D01*
X82501Y-36599D01*
X82577Y-36782D01*
X82717Y-36923D01*
X82901Y-36999D01*
X83099Y-36999D01*
X83282Y-36923D01*
X83423Y-36783D01*
X83499Y-36599D01*
X83499Y-37401D01*
X83423Y-37218D01*
X83283Y-37077D01*
X83099Y-37001D01*
X82901Y-37001D01*
X82718Y-37077D01*
X82577Y-37217D01*
X82501Y-37401D01*
X82501Y-37599D01*
X82577Y-37782D01*
X82717Y-37923D01*
X82901Y-37999D01*
X83099Y-37999D01*
X83282Y-37923D01*
X83423Y-37783D01*
X83499Y-37599D01*
X83499Y-38401D01*
X83423Y-38218D01*
X83283Y-38077D01*
X83099Y-38001D01*
X82901Y-38001D01*
X82718Y-38077D01*
X82577Y-38217D01*
X82501Y-38401D01*
X82501Y-38599D01*
X82577Y-38782D01*
X82717Y-38923D01*
X82901Y-38999D01*
X83099Y-38999D01*
X83282Y-38923D01*
X83423Y-38783D01*
X83499Y-38599D01*
X83499Y-39401D01*
X83423Y-39218D01*
X83283Y-39077D01*
X83099Y-39001D01*
X82901Y-39001D01*
X82718Y-39077D01*
X82577Y-39217D01*
X82501Y-39401D01*
X82501Y-39599D01*
X82577Y-39782D01*
X82717Y-39923D01*
X82901Y-39999D01*
X83099Y-39999D01*
X83282Y-39923D01*
X83423Y-39783D01*
X83499Y-39599D01*
X83499Y-40401D01*
X83423Y-40218D01*
X83283Y-40077D01*
X83099Y-40001D01*
X82901Y-40001D01*
X82718Y-40077D01*
X82577Y-40217D01*
X82501Y-40401D01*
X82501Y-40599D01*
X82577Y-40782D01*
X82717Y-40923D01*
X82901Y-40999D01*
X83099Y-40999D01*
X83282Y-40923D01*
X83423Y-40783D01*
X83499Y-40599D01*
X83499Y-41401D01*
X83423Y-41218D01*
X83283Y-41077D01*
X83099Y-41001D01*
X82901Y-41001D01*
X82718Y-41077D01*
X82577Y-41217D01*
X82501Y-41401D01*
X82501Y-41599D01*
X82577Y-41782D01*
X82717Y-41923D01*
X82901Y-41999D01*
X83099Y-41999D01*
X83282Y-41923D01*
X83423Y-41783D01*
X83499Y-41599D01*
X83499Y-42401D01*
X83423Y-42218D01*
X83283Y-42077D01*
X83099Y-42001D01*
X82901Y-42001D01*
X82718Y-42077D01*
X82577Y-42217D01*
X82501Y-42401D01*
X82501Y-42599D01*
X82577Y-42782D01*
X82717Y-42923D01*
X82901Y-42999D01*
X83099Y-42999D01*
X83282Y-42923D01*
X83423Y-42783D01*
X83499Y-42599D01*
X83499Y-43401D01*
X83423Y-43218D01*
X83283Y-43077D01*
X83099Y-43001D01*
X82901Y-43001D01*
X82718Y-43077D01*
X82577Y-43217D01*
X82501Y-43401D01*
X82501Y-43599D01*
X82577Y-43782D01*
X82717Y-43923D01*
X82901Y-43999D01*
X83099Y-43999D01*
X83282Y-43923D01*
X83423Y-43783D01*
X83499Y-43599D01*
X83499Y-44401D01*
X83423Y-44218D01*
X83283Y-44077D01*
X83099Y-44001D01*
X82901Y-44001D01*
X82718Y-44077D01*
X82577Y-44217D01*
X82501Y-44401D01*
X82501Y-44599D01*
X82577Y-44782D01*
X82717Y-44923D01*
X82901Y-44999D01*
X83099Y-44999D01*
X83282Y-44923D01*
X83423Y-44783D01*
X83499Y-44599D01*
X83499Y-45401D01*
X83423Y-45218D01*
X83283Y-45077D01*
X83099Y-45001D01*
X82901Y-45001D01*
X82718Y-45077D01*
X82577Y-45217D01*
X82501Y-45401D01*
X82501Y-45599D01*
X82577Y-45782D01*
X82717Y-45923D01*
X82901Y-45999D01*
X83099Y-45999D01*
X83282Y-45923D01*
X83423Y-45783D01*
X83499Y-45599D01*
X83499Y-46401D01*
X83423Y-46218D01*
X83283Y-46077D01*
X83099Y-46001D01*
X82901Y-46001D01*
X82718Y-46077D01*
X82577Y-46217D01*
X82501Y-46401D01*
X82501Y-46599D01*
X82577Y-46782D01*
X82717Y-46923D01*
X82901Y-46999D01*
X83099Y-46999D01*
X83282Y-46923D01*
X83423Y-46783D01*
X83499Y-46599D01*
X83499Y-47401D01*
X83423Y-47218D01*
X83283Y-47077D01*
X83099Y-47001D01*
X82901Y-47001D01*
X82718Y-47077D01*
X82577Y-47217D01*
X82501Y-47401D01*
X82501Y-47599D01*
X82577Y-47782D01*
X82717Y-47923D01*
X82901Y-47999D01*
X83099Y-47999D01*
X83282Y-47923D01*
X83423Y-47783D01*
X83499Y-47599D01*
X83499Y-48401D01*
X83423Y-48218D01*
X83283Y-48077D01*
X83099Y-48001D01*
X82901Y-48001D01*
X82718Y-48077D01*
X82577Y-48217D01*
X82501Y-48401D01*
X82501Y-48599D01*
X82577Y-48782D01*
X82717Y-48923D01*
X82901Y-48999D01*
X83099Y-48999D01*
X83282Y-48923D01*
X83423Y-48783D01*
X83499Y-48599D01*
X83499Y-49651D01*
X83195Y-49525D01*
X82807Y-49525D01*
X82499Y-49652D01*
X82499Y-48599D01*
X82499Y-48401D01*
X82499Y-47599D01*
X82499Y-47401D01*
X82499Y-46599D01*
X82499Y-46401D01*
X82499Y-45599D01*
X82499Y-45401D01*
X82499Y-44599D01*
X82499Y-44401D01*
X82499Y-43599D01*
X82499Y-43401D01*
X82499Y-42599D01*
X82499Y-42401D01*
X82499Y-41599D01*
X82499Y-41401D01*
X82499Y-40599D01*
X82499Y-40401D01*
X82499Y-39599D01*
X82499Y-39401D01*
X82499Y-38599D01*
X82499Y-38401D01*
X82499Y-37599D01*
X82499Y-37401D01*
X82499Y-36599D01*
X82499Y-36401D01*
X82499Y-35599D01*
X82499Y-35401D01*
X82499Y-34599D01*
X82499Y-34401D01*
X82499Y-33599D01*
X82499Y-33401D01*
X82499Y-32599D01*
X82499Y-32401D01*
X82499Y-31599D01*
X82499Y-31401D01*
X82423Y-31218D01*
X82283Y-31077D01*
X82099Y-31001D01*
X81901Y-31001D01*
X81718Y-31077D01*
X81577Y-31217D01*
X81501Y-31401D01*
X81501Y-31599D01*
X81577Y-31782D01*
X81717Y-31923D01*
X81901Y-31999D01*
X82099Y-31999D01*
X82282Y-31923D01*
X82423Y-31783D01*
X82499Y-31599D01*
X82499Y-32401D01*
X82423Y-32218D01*
X82283Y-32077D01*
X82099Y-32001D01*
X81901Y-32001D01*
X81718Y-32077D01*
X81577Y-32217D01*
X81501Y-32401D01*
X81501Y-32599D01*
X81577Y-32782D01*
X81717Y-32923D01*
X81901Y-32999D01*
X82099Y-32999D01*
X82282Y-32923D01*
X82423Y-32783D01*
X82499Y-32599D01*
X82499Y-33401D01*
X82423Y-33218D01*
X82283Y-33077D01*
X82099Y-33001D01*
X81901Y-33001D01*
X81718Y-33077D01*
X81577Y-33217D01*
X81501Y-33401D01*
X81501Y-33599D01*
X81577Y-33782D01*
X81717Y-33923D01*
X81901Y-33999D01*
X82099Y-33999D01*
X82282Y-33923D01*
X82423Y-33783D01*
X82499Y-33599D01*
X82499Y-34401D01*
X82423Y-34218D01*
X82283Y-34077D01*
X82099Y-34001D01*
X81901Y-34001D01*
X81718Y-34077D01*
X81577Y-34217D01*
X81501Y-34401D01*
X81501Y-34599D01*
X81577Y-34782D01*
X81717Y-34923D01*
X81901Y-34999D01*
X82099Y-34999D01*
X82282Y-34923D01*
X82423Y-34783D01*
X82499Y-34599D01*
X82499Y-35401D01*
X82423Y-35218D01*
X82283Y-35077D01*
X82099Y-35001D01*
X81901Y-35001D01*
X81718Y-35077D01*
X81577Y-35217D01*
X81501Y-35401D01*
X81501Y-35599D01*
X81577Y-35782D01*
X81717Y-35923D01*
X81901Y-35999D01*
X82099Y-35999D01*
X82282Y-35923D01*
X82423Y-35783D01*
X82499Y-35599D01*
X82499Y-36401D01*
X82423Y-36218D01*
X82283Y-36077D01*
X82099Y-36001D01*
X81901Y-36001D01*
X81718Y-36077D01*
X81577Y-36217D01*
X81501Y-36401D01*
X81501Y-36599D01*
X81577Y-36782D01*
X81717Y-36923D01*
X81901Y-36999D01*
X82099Y-36999D01*
X82282Y-36923D01*
X82423Y-36783D01*
X82499Y-36599D01*
X82499Y-37401D01*
X82423Y-37218D01*
X82283Y-37077D01*
X82099Y-37001D01*
X81901Y-37001D01*
X81718Y-37077D01*
X81577Y-37217D01*
X81501Y-37401D01*
X81501Y-37599D01*
X81577Y-37782D01*
X81717Y-37923D01*
X81901Y-37999D01*
X82099Y-37999D01*
X82282Y-37923D01*
X82423Y-37783D01*
X82499Y-37599D01*
X82499Y-38401D01*
X82423Y-38218D01*
X82283Y-38077D01*
X82099Y-38001D01*
X81901Y-38001D01*
X81718Y-38077D01*
X81577Y-38217D01*
X81501Y-38401D01*
X81501Y-38599D01*
X81577Y-38782D01*
X81717Y-38923D01*
X81901Y-38999D01*
X82099Y-38999D01*
X82282Y-38923D01*
X82423Y-38783D01*
X82499Y-38599D01*
X82499Y-39401D01*
X82423Y-39218D01*
X82283Y-39077D01*
X82099Y-39001D01*
X81901Y-39001D01*
X81718Y-39077D01*
X81577Y-39217D01*
X81501Y-39401D01*
X81501Y-39599D01*
X81577Y-39782D01*
X81717Y-39923D01*
X81901Y-39999D01*
X82099Y-39999D01*
X82282Y-39923D01*
X82423Y-39783D01*
X82499Y-39599D01*
X82499Y-40401D01*
X82423Y-40218D01*
X82283Y-40077D01*
X82099Y-40001D01*
X81901Y-40001D01*
X81718Y-40077D01*
X81577Y-40217D01*
X81501Y-40401D01*
X81501Y-40599D01*
X81577Y-40782D01*
X81717Y-40923D01*
X81901Y-40999D01*
X82099Y-40999D01*
X82282Y-40923D01*
X82423Y-40783D01*
X82499Y-40599D01*
X82499Y-41401D01*
X82423Y-41218D01*
X82283Y-41077D01*
X82099Y-41001D01*
X81901Y-41001D01*
X81718Y-41077D01*
X81577Y-41217D01*
X81501Y-41401D01*
X81501Y-41599D01*
X81577Y-41782D01*
X81717Y-41923D01*
X81901Y-41999D01*
X82099Y-41999D01*
X82282Y-41923D01*
X82423Y-41783D01*
X82499Y-41599D01*
X82499Y-42401D01*
X82423Y-42218D01*
X82283Y-42077D01*
X82099Y-42001D01*
X81901Y-42001D01*
X81718Y-42077D01*
X81577Y-42217D01*
X81501Y-42401D01*
X81501Y-42599D01*
X81577Y-42782D01*
X81717Y-42923D01*
X81901Y-42999D01*
X82099Y-42999D01*
X82282Y-42923D01*
X82423Y-42783D01*
X82499Y-42599D01*
X82499Y-43401D01*
X82423Y-43218D01*
X82283Y-43077D01*
X82099Y-43001D01*
X81901Y-43001D01*
X81718Y-43077D01*
X81577Y-43217D01*
X81501Y-43401D01*
X81501Y-43599D01*
X81577Y-43782D01*
X81717Y-43923D01*
X81901Y-43999D01*
X82099Y-43999D01*
X82282Y-43923D01*
X82423Y-43783D01*
X82499Y-43599D01*
X82499Y-44401D01*
X82423Y-44218D01*
X82283Y-44077D01*
X82099Y-44001D01*
X81901Y-44001D01*
X81718Y-44077D01*
X81577Y-44217D01*
X81501Y-44401D01*
X81501Y-44599D01*
X81577Y-44782D01*
X81717Y-44923D01*
X81901Y-44999D01*
X82099Y-44999D01*
X82282Y-44923D01*
X82423Y-44783D01*
X82499Y-44599D01*
X82499Y-45401D01*
X82423Y-45218D01*
X82283Y-45077D01*
X82099Y-45001D01*
X81901Y-45001D01*
X81718Y-45077D01*
X81577Y-45217D01*
X81501Y-45401D01*
X81501Y-45599D01*
X81577Y-45782D01*
X81717Y-45923D01*
X81901Y-45999D01*
X82099Y-45999D01*
X82282Y-45923D01*
X82423Y-45783D01*
X82499Y-45599D01*
X82499Y-46401D01*
X82423Y-46218D01*
X82283Y-46077D01*
X82099Y-46001D01*
X81901Y-46001D01*
X81718Y-46077D01*
X81577Y-46217D01*
X81501Y-46401D01*
X81501Y-46599D01*
X81577Y-46782D01*
X81717Y-46923D01*
X81901Y-46999D01*
X82099Y-46999D01*
X82282Y-46923D01*
X82423Y-46783D01*
X82499Y-46599D01*
X82499Y-47401D01*
X82423Y-47218D01*
X82283Y-47077D01*
X82099Y-47001D01*
X81901Y-47001D01*
X81718Y-47077D01*
X81577Y-47217D01*
X81501Y-47401D01*
X81501Y-47599D01*
X81577Y-47782D01*
X81717Y-47923D01*
X81901Y-47999D01*
X82099Y-47999D01*
X82282Y-47923D01*
X82423Y-47783D01*
X82499Y-47599D01*
X82499Y-48401D01*
X82423Y-48218D01*
X82283Y-48077D01*
X82099Y-48001D01*
X81901Y-48001D01*
X81718Y-48077D01*
X81577Y-48217D01*
X81501Y-48401D01*
X81501Y-48599D01*
X81577Y-48782D01*
X81717Y-48923D01*
X81901Y-48999D01*
X82099Y-48999D01*
X82282Y-48923D01*
X82423Y-48783D01*
X82499Y-48599D01*
X82499Y-49652D01*
X82449Y-49673D01*
X82174Y-49947D01*
X82025Y-50305D01*
X82025Y-50693D01*
X82173Y-51051D01*
X82376Y-51255D01*
X81490Y-51255D01*
X81490Y-50811D01*
X81490Y-50616D01*
X81490Y-50190D01*
X81416Y-50010D01*
X81278Y-49872D01*
X81199Y-49839D01*
X81199Y-49390D01*
X81199Y-49311D01*
X81199Y-48811D01*
X81169Y-48738D01*
X81113Y-48682D01*
X81040Y-48651D01*
X80961Y-48651D01*
X79961Y-48651D01*
X79888Y-48681D01*
X79832Y-48737D01*
X79808Y-48793D01*
X79786Y-48789D01*
X79524Y-48789D01*
X79447Y-48712D01*
X79309Y-48654D01*
X79160Y-48654D01*
X79022Y-48711D01*
X78917Y-48816D01*
X78859Y-48954D01*
X78859Y-49103D01*
X78916Y-49241D01*
X79021Y-49346D01*
X79159Y-49404D01*
X79308Y-49404D01*
X79446Y-49347D01*
X79524Y-49269D01*
X79686Y-49269D01*
X79687Y-49270D01*
X79765Y-49322D01*
X79801Y-49329D01*
X79801Y-49389D01*
X79831Y-49462D01*
X79887Y-49518D01*
X79960Y-49549D01*
X80039Y-49549D01*
X81039Y-49549D01*
X81112Y-49519D01*
X81168Y-49463D01*
X81199Y-49390D01*
X81199Y-49839D01*
X81098Y-49797D01*
X80903Y-49797D01*
X80723Y-49871D01*
X80585Y-50009D01*
X80510Y-50189D01*
X80510Y-50384D01*
X80510Y-50810D01*
X80584Y-50990D01*
X80722Y-51128D01*
X80902Y-51203D01*
X81097Y-51203D01*
X81277Y-51129D01*
X81415Y-50991D01*
X81490Y-50811D01*
X81490Y-51255D01*
X80490Y-51255D01*
X80490Y-50811D01*
X80490Y-50616D01*
X80490Y-50190D01*
X80416Y-50010D01*
X80278Y-49872D01*
X80098Y-49797D01*
X79903Y-49797D01*
X79723Y-49871D01*
X79585Y-50009D01*
X79510Y-50189D01*
X79510Y-50384D01*
X79510Y-50810D01*
X79584Y-50990D01*
X79722Y-51128D01*
X79902Y-51203D01*
X80097Y-51203D01*
X80277Y-51129D01*
X80415Y-50991D01*
X80490Y-50811D01*
X80490Y-51255D01*
X79490Y-51255D01*
X79490Y-50811D01*
X79490Y-50616D01*
X79490Y-50190D01*
X79416Y-50010D01*
X79278Y-49872D01*
X79098Y-49797D01*
X78903Y-49797D01*
X78723Y-49871D01*
X78585Y-50009D01*
X78510Y-50189D01*
X78510Y-50384D01*
X78510Y-50810D01*
X78584Y-50990D01*
X78722Y-51128D01*
X78902Y-51203D01*
X79097Y-51203D01*
X79277Y-51129D01*
X79415Y-50991D01*
X79490Y-50811D01*
X79490Y-51255D01*
X78490Y-51255D01*
X78490Y-50811D01*
X78490Y-50616D01*
X78490Y-50190D01*
X78416Y-50010D01*
X78278Y-49872D01*
X78100Y-49797D01*
X78100Y-47612D01*
X78100Y-47388D01*
X78099Y-47049D01*
X78099Y-46950D01*
X78061Y-46859D01*
X77991Y-46789D01*
X77899Y-46751D01*
X77712Y-46750D01*
X77650Y-46812D01*
X77650Y-47450D01*
X78038Y-47450D01*
X78100Y-47388D01*
X78100Y-47612D01*
X78038Y-47550D01*
X77650Y-47550D01*
X77650Y-48188D01*
X77712Y-48250D01*
X77899Y-48249D01*
X77991Y-48211D01*
X78061Y-48141D01*
X78099Y-48050D01*
X78099Y-47951D01*
X78100Y-47612D01*
X78100Y-49797D01*
X78098Y-49797D01*
X77903Y-49797D01*
X77723Y-49871D01*
X77585Y-50009D01*
X77550Y-50093D01*
X77550Y-48188D01*
X77550Y-47550D01*
X77550Y-47450D01*
X77550Y-46812D01*
X77488Y-46750D01*
X77301Y-46751D01*
X77209Y-46789D01*
X77139Y-46859D01*
X77101Y-46950D01*
X77101Y-47049D01*
X77100Y-47388D01*
X77162Y-47450D01*
X77550Y-47450D01*
X77550Y-47550D01*
X77162Y-47550D01*
X77100Y-47612D01*
X77101Y-47951D01*
X77101Y-48050D01*
X77139Y-48141D01*
X77209Y-48211D01*
X77301Y-48249D01*
X77488Y-48250D01*
X77550Y-48188D01*
X77550Y-50093D01*
X77510Y-50189D01*
X77510Y-50384D01*
X77510Y-50810D01*
X77584Y-50990D01*
X77722Y-51128D01*
X77902Y-51203D01*
X78097Y-51203D01*
X78277Y-51129D01*
X78415Y-50991D01*
X78490Y-50811D01*
X78490Y-51255D01*
X77490Y-51255D01*
X77490Y-50811D01*
X77490Y-50616D01*
X77490Y-50190D01*
X77416Y-50010D01*
X77278Y-49872D01*
X77098Y-49797D01*
X76903Y-49797D01*
X76723Y-49871D01*
X76585Y-50009D01*
X76510Y-50189D01*
X76510Y-50384D01*
X76510Y-50810D01*
X76584Y-50990D01*
X76722Y-51128D01*
X76902Y-51203D01*
X77097Y-51203D01*
X77277Y-51129D01*
X77415Y-50991D01*
X77490Y-50811D01*
X77490Y-51255D01*
X76490Y-51255D01*
X76490Y-50811D01*
X76490Y-50616D01*
X76490Y-50190D01*
X76416Y-50010D01*
X76278Y-49872D01*
X76098Y-49797D01*
X75903Y-49797D01*
X75723Y-49871D01*
X75585Y-50009D01*
X75510Y-50189D01*
X75510Y-50384D01*
X75510Y-50810D01*
X75584Y-50990D01*
X75722Y-51128D01*
X75902Y-51203D01*
X76097Y-51203D01*
X76277Y-51129D01*
X76415Y-50991D01*
X76490Y-50811D01*
X76490Y-51255D01*
X75490Y-51255D01*
X75490Y-50811D01*
X75490Y-50616D01*
X75490Y-50190D01*
X75416Y-50010D01*
X75278Y-49872D01*
X75098Y-49797D01*
X74903Y-49797D01*
X74723Y-49871D01*
X74585Y-50009D01*
X74510Y-50189D01*
X74510Y-50384D01*
X74510Y-50810D01*
X74584Y-50990D01*
X74722Y-51128D01*
X74902Y-51203D01*
X75097Y-51203D01*
X75277Y-51129D01*
X75415Y-50991D01*
X75490Y-50811D01*
X75490Y-51255D01*
X74490Y-51255D01*
X74490Y-50811D01*
X74490Y-50616D01*
X74490Y-50190D01*
X74416Y-50010D01*
X74278Y-49872D01*
X74098Y-49797D01*
X73903Y-49797D01*
X73723Y-49871D01*
X73585Y-50009D01*
X73510Y-50189D01*
X73510Y-50384D01*
X73510Y-50810D01*
X73584Y-50990D01*
X73722Y-51128D01*
X73902Y-51203D01*
X74097Y-51203D01*
X74277Y-51129D01*
X74415Y-50991D01*
X74490Y-50811D01*
X74490Y-51255D01*
X72490Y-51255D01*
X72490Y-50811D01*
X72490Y-50616D01*
X72490Y-50190D01*
X72416Y-50010D01*
X72278Y-49872D01*
X72098Y-49797D01*
X71903Y-49797D01*
X71723Y-49871D01*
X71585Y-50009D01*
X71510Y-50189D01*
X71510Y-50384D01*
X71510Y-50810D01*
X71584Y-50990D01*
X71722Y-51128D01*
X71902Y-51203D01*
X72097Y-51203D01*
X72277Y-51129D01*
X72415Y-50991D01*
X72490Y-50811D01*
X72490Y-51255D01*
X71490Y-51255D01*
X71490Y-50811D01*
X71490Y-50616D01*
X71490Y-50190D01*
X71416Y-50010D01*
X71278Y-49872D01*
X71098Y-49797D01*
X70903Y-49797D01*
X70723Y-49871D01*
X70585Y-50009D01*
X70510Y-50189D01*
X70510Y-50384D01*
X70510Y-50810D01*
X70584Y-50990D01*
X70722Y-51128D01*
X70902Y-51203D01*
X71097Y-51203D01*
X71277Y-51129D01*
X71415Y-50991D01*
X71490Y-50811D01*
X71490Y-51255D01*
X70490Y-51255D01*
X70490Y-50811D01*
X70490Y-50616D01*
X70490Y-50190D01*
X70416Y-50010D01*
X70278Y-49872D01*
X70098Y-49797D01*
X69903Y-49797D01*
X69723Y-49871D01*
X69585Y-50009D01*
X69510Y-50189D01*
X69510Y-50384D01*
X69510Y-50810D01*
X69584Y-50990D01*
X69722Y-51128D01*
X69902Y-51203D01*
X70097Y-51203D01*
X70277Y-51129D01*
X70415Y-50991D01*
X70490Y-50811D01*
X70490Y-51255D01*
X69490Y-51255D01*
X69490Y-50811D01*
X69490Y-50616D01*
X69490Y-50190D01*
X69416Y-50010D01*
X69278Y-49872D01*
X69098Y-49797D01*
X68903Y-49797D01*
X68723Y-49871D01*
X68585Y-50009D01*
X68510Y-50189D01*
X68510Y-50384D01*
X68510Y-50810D01*
X68584Y-50990D01*
X68722Y-51128D01*
X68902Y-51203D01*
X69097Y-51203D01*
X69277Y-51129D01*
X69415Y-50991D01*
X69490Y-50811D01*
X69490Y-51255D01*
X68490Y-51255D01*
X68490Y-50811D01*
X68490Y-50616D01*
X68490Y-50190D01*
X68416Y-50010D01*
X68278Y-49872D01*
X68098Y-49797D01*
X67903Y-49797D01*
X67723Y-49871D01*
X67585Y-50009D01*
X67510Y-50189D01*
X67510Y-50384D01*
X67510Y-50810D01*
X67584Y-50990D01*
X67722Y-51128D01*
X67902Y-51203D01*
X68097Y-51203D01*
X68277Y-51129D01*
X68415Y-50991D01*
X68490Y-50811D01*
X68490Y-51255D01*
X67490Y-51255D01*
X67490Y-50811D01*
X67490Y-50616D01*
X67490Y-50190D01*
X67416Y-50010D01*
X67278Y-49872D01*
X67098Y-49797D01*
X66903Y-49797D01*
X66723Y-49871D01*
X66585Y-50009D01*
X66510Y-50189D01*
X66510Y-50384D01*
X66510Y-50810D01*
X66584Y-50990D01*
X66722Y-51128D01*
X66902Y-51203D01*
X67097Y-51203D01*
X67277Y-51129D01*
X67415Y-50991D01*
X67490Y-50811D01*
X67490Y-51255D01*
X66490Y-51255D01*
X66490Y-50811D01*
X66490Y-50616D01*
X66490Y-50190D01*
X66449Y-50090D01*
X66449Y-49390D01*
X66449Y-49311D01*
X66449Y-48811D01*
X66449Y-48190D01*
X66449Y-48111D01*
X66449Y-47611D01*
X66419Y-47538D01*
X66363Y-47482D01*
X66290Y-47451D01*
X66251Y-47451D01*
X66295Y-47348D01*
X66295Y-47199D01*
X66238Y-47061D01*
X66133Y-46956D01*
X65995Y-46898D01*
X65846Y-46898D01*
X65708Y-46955D01*
X65603Y-47060D01*
X65545Y-47198D01*
X65545Y-47347D01*
X65555Y-47373D01*
X65528Y-47415D01*
X65520Y-47451D01*
X65211Y-47451D01*
X65138Y-47481D01*
X65082Y-47537D01*
X65051Y-47610D01*
X65051Y-47689D01*
X65051Y-48189D01*
X65081Y-48262D01*
X65137Y-48318D01*
X65210Y-48349D01*
X65289Y-48349D01*
X66289Y-48349D01*
X66362Y-48319D01*
X66418Y-48263D01*
X66449Y-48190D01*
X66449Y-48811D01*
X66419Y-48738D01*
X66363Y-48682D01*
X66290Y-48651D01*
X66211Y-48651D01*
X65211Y-48651D01*
X65138Y-48681D01*
X65082Y-48736D01*
X64927Y-48580D01*
X64849Y-48528D01*
X64757Y-48510D01*
X64540Y-48510D01*
X64463Y-48433D01*
X64325Y-48375D01*
X64176Y-48375D01*
X64038Y-48432D01*
X63933Y-48537D01*
X63875Y-48675D01*
X63875Y-48824D01*
X63932Y-48962D01*
X64037Y-49067D01*
X64175Y-49125D01*
X64324Y-49125D01*
X64462Y-49068D01*
X64540Y-48990D01*
X64657Y-48990D01*
X64935Y-49267D01*
X64937Y-49270D01*
X65014Y-49321D01*
X65015Y-49322D01*
X65051Y-49329D01*
X65051Y-49389D01*
X65081Y-49462D01*
X65137Y-49518D01*
X65210Y-49549D01*
X65289Y-49549D01*
X66289Y-49549D01*
X66362Y-49519D01*
X66418Y-49463D01*
X66449Y-49390D01*
X66449Y-50090D01*
X66416Y-50010D01*
X66278Y-49872D01*
X66098Y-49797D01*
X65903Y-49797D01*
X65723Y-49871D01*
X65585Y-50009D01*
X65510Y-50189D01*
X65510Y-50384D01*
X65510Y-50810D01*
X65584Y-50990D01*
X65722Y-51128D01*
X65902Y-51203D01*
X66097Y-51203D01*
X66277Y-51129D01*
X66415Y-50991D01*
X66490Y-50811D01*
X66490Y-51255D01*
X65490Y-51255D01*
X65490Y-50811D01*
X65490Y-50616D01*
X65490Y-50190D01*
X65416Y-50010D01*
X65278Y-49872D01*
X65098Y-49797D01*
X64903Y-49797D01*
X64723Y-49871D01*
X64585Y-50009D01*
X64510Y-50189D01*
X64510Y-50384D01*
X64510Y-50810D01*
X64584Y-50990D01*
X64722Y-51128D01*
X64902Y-51203D01*
X65097Y-51203D01*
X65277Y-51129D01*
X65415Y-50991D01*
X65490Y-50811D01*
X65490Y-51255D01*
X63490Y-51255D01*
X63490Y-50811D01*
X63490Y-50616D01*
X63490Y-50190D01*
X63416Y-50010D01*
X63278Y-49872D01*
X63100Y-49797D01*
X63100Y-47612D01*
X63100Y-47388D01*
X63099Y-47049D01*
X63099Y-46950D01*
X63061Y-46859D01*
X62991Y-46789D01*
X62899Y-46751D01*
X62712Y-46750D01*
X62650Y-46812D01*
X62650Y-47450D01*
X63038Y-47450D01*
X63100Y-47388D01*
X63100Y-47612D01*
X63038Y-47550D01*
X62650Y-47550D01*
X62650Y-48188D01*
X62712Y-48250D01*
X62899Y-48249D01*
X62991Y-48211D01*
X63061Y-48141D01*
X63099Y-48050D01*
X63099Y-47951D01*
X63100Y-47612D01*
X63100Y-49797D01*
X63098Y-49797D01*
X62903Y-49797D01*
X62723Y-49871D01*
X62585Y-50009D01*
X62550Y-50093D01*
X62550Y-48188D01*
X62550Y-47550D01*
X62550Y-47450D01*
X62550Y-46812D01*
X62488Y-46750D01*
X62301Y-46751D01*
X62209Y-46789D01*
X62139Y-46859D01*
X62101Y-46950D01*
X62101Y-47049D01*
X62100Y-47388D01*
X62162Y-47450D01*
X62550Y-47450D01*
X62550Y-47550D01*
X62162Y-47550D01*
X62100Y-47612D01*
X62101Y-47951D01*
X62101Y-48050D01*
X62139Y-48141D01*
X62209Y-48211D01*
X62301Y-48249D01*
X62488Y-48250D01*
X62550Y-48188D01*
X62550Y-50093D01*
X62510Y-50189D01*
X62510Y-50384D01*
X62510Y-50810D01*
X62584Y-50990D01*
X62722Y-51128D01*
X62902Y-51203D01*
X63097Y-51203D01*
X63277Y-51129D01*
X63415Y-50991D01*
X63490Y-50811D01*
X63490Y-51255D01*
X62490Y-51255D01*
X62490Y-50811D01*
X62490Y-50616D01*
X62490Y-50190D01*
X62416Y-50010D01*
X62278Y-49872D01*
X62098Y-49797D01*
X61903Y-49797D01*
X61723Y-49871D01*
X61585Y-50009D01*
X61510Y-50189D01*
X61510Y-50384D01*
X61510Y-50810D01*
X61584Y-50990D01*
X61722Y-51128D01*
X61902Y-51203D01*
X62097Y-51203D01*
X62277Y-51129D01*
X62415Y-50991D01*
X62490Y-50811D01*
X62490Y-51255D01*
X61490Y-51255D01*
X61490Y-50811D01*
X61490Y-50616D01*
X61490Y-50190D01*
X61416Y-50010D01*
X61278Y-49872D01*
X61098Y-49797D01*
X60903Y-49797D01*
X60723Y-49871D01*
X60585Y-50009D01*
X60510Y-50189D01*
X60510Y-50384D01*
X60510Y-50810D01*
X60584Y-50990D01*
X60722Y-51128D01*
X60902Y-51203D01*
X61097Y-51203D01*
X61277Y-51129D01*
X61415Y-50991D01*
X61490Y-50811D01*
X61490Y-51255D01*
X60490Y-51255D01*
X60490Y-50811D01*
X60490Y-50616D01*
X60490Y-50190D01*
X60416Y-50010D01*
X60278Y-49872D01*
X60098Y-49797D01*
X59903Y-49797D01*
X59723Y-49871D01*
X59585Y-50009D01*
X59510Y-50189D01*
X59510Y-50384D01*
X59510Y-50810D01*
X59584Y-50990D01*
X59722Y-51128D01*
X59902Y-51203D01*
X60097Y-51203D01*
X60277Y-51129D01*
X60415Y-50991D01*
X60490Y-50811D01*
X60490Y-51255D01*
X59490Y-51255D01*
X59490Y-50811D01*
X59490Y-50616D01*
X59490Y-50190D01*
X59416Y-50010D01*
X59278Y-49872D01*
X59098Y-49797D01*
X58949Y-49797D01*
X58949Y-49390D01*
X58949Y-49311D01*
X58949Y-48811D01*
X58919Y-48738D01*
X58863Y-48682D01*
X58790Y-48651D01*
X58711Y-48651D01*
X57711Y-48651D01*
X57638Y-48681D01*
X57582Y-48737D01*
X57551Y-48810D01*
X57551Y-48870D01*
X57515Y-48878D01*
X57437Y-48930D01*
X57435Y-48932D01*
X57409Y-48958D01*
X57040Y-48958D01*
X56963Y-48881D01*
X56825Y-48823D01*
X56676Y-48823D01*
X56538Y-48880D01*
X56433Y-48985D01*
X56375Y-49123D01*
X56375Y-49272D01*
X56432Y-49410D01*
X56537Y-49515D01*
X56675Y-49573D01*
X56824Y-49573D01*
X56962Y-49516D01*
X57040Y-49438D01*
X57509Y-49438D01*
X57566Y-49426D01*
X57581Y-49462D01*
X57637Y-49518D01*
X57710Y-49549D01*
X57789Y-49549D01*
X58789Y-49549D01*
X58862Y-49519D01*
X58918Y-49463D01*
X58949Y-49390D01*
X58949Y-49797D01*
X58903Y-49797D01*
X58723Y-49871D01*
X58585Y-50009D01*
X58510Y-50189D01*
X58510Y-50384D01*
X58510Y-50810D01*
X58584Y-50990D01*
X58722Y-51128D01*
X58902Y-51203D01*
X59097Y-51203D01*
X59277Y-51129D01*
X59415Y-50991D01*
X59490Y-50811D01*
X59490Y-51255D01*
X58490Y-51255D01*
X58490Y-50811D01*
X58490Y-50616D01*
X58490Y-50190D01*
X58416Y-50010D01*
X58278Y-49872D01*
X58098Y-49797D01*
X57903Y-49797D01*
X57723Y-49871D01*
X57585Y-50009D01*
X57510Y-50189D01*
X57510Y-50384D01*
X57510Y-50810D01*
X57584Y-50990D01*
X57722Y-51128D01*
X57902Y-51203D01*
X58097Y-51203D01*
X58277Y-51129D01*
X58415Y-50991D01*
X58490Y-50811D01*
X58490Y-51255D01*
X57490Y-51255D01*
X57490Y-50811D01*
X57490Y-50616D01*
X57490Y-50190D01*
X57416Y-50010D01*
X57278Y-49872D01*
X57098Y-49797D01*
X56903Y-49797D01*
X56723Y-49871D01*
X56585Y-50009D01*
X56510Y-50189D01*
X56510Y-50384D01*
X56510Y-50810D01*
X56584Y-50990D01*
X56722Y-51128D01*
X56902Y-51203D01*
X57097Y-51203D01*
X57277Y-51129D01*
X57415Y-50991D01*
X57490Y-50811D01*
X57490Y-51255D01*
X56490Y-51255D01*
X56490Y-50811D01*
X56490Y-50616D01*
X56490Y-50190D01*
X56416Y-50010D01*
X56278Y-49872D01*
X56098Y-49797D01*
X55903Y-49797D01*
X55723Y-49871D01*
X55600Y-49994D01*
X55600Y-47612D01*
X55538Y-47550D01*
X55150Y-47550D01*
X55150Y-48188D01*
X55212Y-48250D01*
X55399Y-48249D01*
X55491Y-48211D01*
X55561Y-48141D01*
X55599Y-48050D01*
X55599Y-47951D01*
X55600Y-47612D01*
X55600Y-49994D01*
X55585Y-50009D01*
X55510Y-50189D01*
X55510Y-50384D01*
X55510Y-50810D01*
X55584Y-50990D01*
X55722Y-51128D01*
X55902Y-51203D01*
X56097Y-51203D01*
X56277Y-51129D01*
X56415Y-50991D01*
X56490Y-50811D01*
X56490Y-51255D01*
X55050Y-51255D01*
X55050Y-48188D01*
X55050Y-47550D01*
X54662Y-47550D01*
X54600Y-47612D01*
X54601Y-47951D01*
X54601Y-48050D01*
X54639Y-48141D01*
X54709Y-48211D01*
X54801Y-48249D01*
X54988Y-48250D01*
X55050Y-48188D01*
X55050Y-51255D01*
X51123Y-51255D01*
X51326Y-51053D01*
X51475Y-50695D01*
X51475Y-50307D01*
X51327Y-49949D01*
X51053Y-49674D01*
X50695Y-49525D01*
X50307Y-49525D01*
X49949Y-49673D01*
X49674Y-49947D01*
X49525Y-50305D01*
X49525Y-50693D01*
X49673Y-51051D01*
X49876Y-51255D01*
X43745Y-51255D01*
X43745Y-30745D01*
X50376Y-30745D01*
X50174Y-30947D01*
X50025Y-31305D01*
X50025Y-31693D01*
X50173Y-32051D01*
X50447Y-32326D01*
X50805Y-32475D01*
X51193Y-32475D01*
X51551Y-32327D01*
X51826Y-32053D01*
X51918Y-31830D01*
X51984Y-31990D01*
X52122Y-32128D01*
X52302Y-32203D01*
X52497Y-32203D01*
X52677Y-32129D01*
X52815Y-31991D01*
X52890Y-31811D01*
X52890Y-31616D01*
X52890Y-31190D01*
X52816Y-31010D01*
X52678Y-30872D01*
X52498Y-30797D01*
X52303Y-30797D01*
X52123Y-30871D01*
X51985Y-31009D01*
X51918Y-31169D01*
X51827Y-30949D01*
X51623Y-30745D01*
X56749Y-30745D01*
X56722Y-30786D01*
X56704Y-30878D01*
X56704Y-30898D01*
X56678Y-30872D01*
X56498Y-30797D01*
X56303Y-30797D01*
X56123Y-30871D01*
X55985Y-31009D01*
X55910Y-31189D01*
X55910Y-31384D01*
X55910Y-31810D01*
X55984Y-31990D01*
X56122Y-32128D01*
X56302Y-32203D01*
X56497Y-32203D01*
X56677Y-32129D01*
X56739Y-32066D01*
X56774Y-32118D01*
X60995Y-36339D01*
X59964Y-36339D01*
X59963Y-36339D01*
X59945Y-36342D01*
X59872Y-36357D01*
X59794Y-36409D01*
X59792Y-36411D01*
X56599Y-39604D01*
X56599Y-37619D01*
X56599Y-37381D01*
X56508Y-37161D01*
X56339Y-36992D01*
X56119Y-36901D01*
X55890Y-36901D01*
X55890Y-31811D01*
X55890Y-31616D01*
X55890Y-31190D01*
X55816Y-31010D01*
X55678Y-30872D01*
X55498Y-30797D01*
X55303Y-30797D01*
X55123Y-30871D01*
X54985Y-31009D01*
X54910Y-31189D01*
X54910Y-31384D01*
X54910Y-31810D01*
X54984Y-31990D01*
X55122Y-32128D01*
X55302Y-32203D01*
X55497Y-32203D01*
X55677Y-32129D01*
X55815Y-31991D01*
X55890Y-31811D01*
X55890Y-36901D01*
X55881Y-36901D01*
X55849Y-36914D01*
X55849Y-34369D01*
X55849Y-34131D01*
X55758Y-33911D01*
X55589Y-33742D01*
X55369Y-33651D01*
X55131Y-33651D01*
X54911Y-33742D01*
X54890Y-33763D01*
X54890Y-31811D01*
X54890Y-31616D01*
X54890Y-31190D01*
X54816Y-31010D01*
X54678Y-30872D01*
X54498Y-30797D01*
X54303Y-30797D01*
X54123Y-30871D01*
X53985Y-31009D01*
X53910Y-31189D01*
X53910Y-31384D01*
X53910Y-31810D01*
X53984Y-31990D01*
X54122Y-32128D01*
X54302Y-32203D01*
X54497Y-32203D01*
X54677Y-32129D01*
X54815Y-31991D01*
X54890Y-31811D01*
X54890Y-33763D01*
X54742Y-33911D01*
X54651Y-34131D01*
X54651Y-34369D01*
X54742Y-34589D01*
X54911Y-34758D01*
X55131Y-34849D01*
X55369Y-34849D01*
X55589Y-34758D01*
X55758Y-34589D01*
X55849Y-34369D01*
X55849Y-36914D01*
X55661Y-36992D01*
X55492Y-37161D01*
X55401Y-37381D01*
X55401Y-37619D01*
X55492Y-37839D01*
X55661Y-38008D01*
X55881Y-38099D01*
X56119Y-38099D01*
X56339Y-38008D01*
X56508Y-37839D01*
X56599Y-37619D01*
X56599Y-39604D01*
X54349Y-41854D01*
X54349Y-34690D01*
X54349Y-34611D01*
X54349Y-33811D01*
X54319Y-33738D01*
X54263Y-33682D01*
X54190Y-33651D01*
X54111Y-33651D01*
X53890Y-33651D01*
X53890Y-31811D01*
X53890Y-31616D01*
X53890Y-31190D01*
X53816Y-31010D01*
X53678Y-30872D01*
X53498Y-30797D01*
X53303Y-30797D01*
X53123Y-30871D01*
X52985Y-31009D01*
X52910Y-31189D01*
X52910Y-31384D01*
X52910Y-31810D01*
X52984Y-31990D01*
X53122Y-32128D01*
X53302Y-32203D01*
X53497Y-32203D01*
X53677Y-32129D01*
X53815Y-31991D01*
X53890Y-31811D01*
X53890Y-33651D01*
X53311Y-33651D01*
X53238Y-33681D01*
X53182Y-33737D01*
X53151Y-33810D01*
X53151Y-33889D01*
X53151Y-34689D01*
X53181Y-34762D01*
X53237Y-34818D01*
X53310Y-34849D01*
X53389Y-34849D01*
X54189Y-34849D01*
X54262Y-34819D01*
X54318Y-34763D01*
X54349Y-34690D01*
X54349Y-41854D01*
X53599Y-42604D01*
X53599Y-37619D01*
X53599Y-37381D01*
X53508Y-37161D01*
X53339Y-36992D01*
X53119Y-36901D01*
X52881Y-36901D01*
X52661Y-36992D01*
X52492Y-37161D01*
X52401Y-37381D01*
X52401Y-37619D01*
X52492Y-37839D01*
X52661Y-38008D01*
X52881Y-38099D01*
X53119Y-38099D01*
X53339Y-38008D01*
X53508Y-37839D01*
X53599Y-37619D01*
X53599Y-42604D01*
X52228Y-43975D01*
X52176Y-44053D01*
X52158Y-44145D01*
X52158Y-47536D01*
X52176Y-47628D01*
X52228Y-47706D01*
X52834Y-48311D01*
X52836Y-48314D01*
X52913Y-48365D01*
X52914Y-48366D01*
X52987Y-48380D01*
X53005Y-48384D01*
X53005Y-48383D01*
X53006Y-48384D01*
X54288Y-48384D01*
X54380Y-48366D01*
X54458Y-48314D01*
X54480Y-48292D01*
X54532Y-48214D01*
X54550Y-48122D01*
X54550Y-47437D01*
X54600Y-47387D01*
X54600Y-47388D01*
X54662Y-47450D01*
X55000Y-47450D01*
X55050Y-47450D01*
X55150Y-47450D01*
X55200Y-47450D01*
X55538Y-47450D01*
X55600Y-47388D01*
X55599Y-47096D01*
X57499Y-47096D01*
X57854Y-47451D01*
X57711Y-47451D01*
X57638Y-47481D01*
X57582Y-47537D01*
X57551Y-47610D01*
X57551Y-47689D01*
X57551Y-48189D01*
X57581Y-48262D01*
X57637Y-48318D01*
X57710Y-48349D01*
X57789Y-48349D01*
X58789Y-48349D01*
X58862Y-48319D01*
X58918Y-48263D01*
X58949Y-48190D01*
X58949Y-48111D01*
X58949Y-47611D01*
X58919Y-47538D01*
X58863Y-47482D01*
X58790Y-47451D01*
X58711Y-47451D01*
X58479Y-47451D01*
X58472Y-47415D01*
X58420Y-47337D01*
X58417Y-47335D01*
X57769Y-46686D01*
X57691Y-46634D01*
X57599Y-46616D01*
X54792Y-46616D01*
X54700Y-46634D01*
X54622Y-46686D01*
X54620Y-46688D01*
X54348Y-46959D01*
X54321Y-46894D01*
X56116Y-45099D01*
X56119Y-45099D01*
X56237Y-45050D01*
X59187Y-45050D01*
X61000Y-46862D01*
X61000Y-46869D01*
X60982Y-46887D01*
X60951Y-46960D01*
X60951Y-47039D01*
X60951Y-48039D01*
X60981Y-48112D01*
X61037Y-48168D01*
X61110Y-48199D01*
X61189Y-48199D01*
X61689Y-48199D01*
X61762Y-48169D01*
X61818Y-48113D01*
X61849Y-48040D01*
X61849Y-47961D01*
X61849Y-46961D01*
X61819Y-46888D01*
X61800Y-46869D01*
X61800Y-46862D01*
X63563Y-45099D01*
X63619Y-45099D01*
X63839Y-45008D01*
X63850Y-44997D01*
X66731Y-44997D01*
X68500Y-46765D01*
X68500Y-46869D01*
X68482Y-46887D01*
X68451Y-46960D01*
X68451Y-47039D01*
X68451Y-48039D01*
X68481Y-48112D01*
X68537Y-48168D01*
X68610Y-48199D01*
X68689Y-48199D01*
X69054Y-48199D01*
X69592Y-48737D01*
X69721Y-48824D01*
X69722Y-48824D01*
X69875Y-48854D01*
X70913Y-48854D01*
X70859Y-48908D01*
X70801Y-49046D01*
X70801Y-49195D01*
X70858Y-49333D01*
X70963Y-49438D01*
X71101Y-49496D01*
X71250Y-49496D01*
X71388Y-49439D01*
X71466Y-49361D01*
X72551Y-49361D01*
X72551Y-49389D01*
X72581Y-49462D01*
X72637Y-49518D01*
X72710Y-49549D01*
X72789Y-49549D01*
X73789Y-49549D01*
X73862Y-49519D01*
X73918Y-49463D01*
X73949Y-49390D01*
X73949Y-49311D01*
X73949Y-48854D01*
X74893Y-48854D01*
X75046Y-48824D01*
X75176Y-48737D01*
X75951Y-47962D01*
X75951Y-48039D01*
X75981Y-48112D01*
X76037Y-48168D01*
X76110Y-48199D01*
X76189Y-48199D01*
X76689Y-48199D01*
X76762Y-48169D01*
X76818Y-48113D01*
X76849Y-48040D01*
X76849Y-47961D01*
X76849Y-46961D01*
X76819Y-46888D01*
X76763Y-46832D01*
X76690Y-46801D01*
X76611Y-46801D01*
X76111Y-46801D01*
X76038Y-46831D01*
X75982Y-46887D01*
X75951Y-46960D01*
X75951Y-47039D01*
X75951Y-47100D01*
X75847Y-47100D01*
X75693Y-47130D01*
X75564Y-47217D01*
X74727Y-48054D01*
X73949Y-48054D01*
X73949Y-47611D01*
X73919Y-47538D01*
X73863Y-47482D01*
X73790Y-47451D01*
X73711Y-47451D01*
X73490Y-47451D01*
X73490Y-45899D01*
X73472Y-45807D01*
X73427Y-45740D01*
X78393Y-45740D01*
X80104Y-47451D01*
X79961Y-47451D01*
X79888Y-47481D01*
X79832Y-47537D01*
X79801Y-47610D01*
X79801Y-47689D01*
X79801Y-48189D01*
X79831Y-48262D01*
X79887Y-48318D01*
X79960Y-48349D01*
X80039Y-48349D01*
X81039Y-48349D01*
X81112Y-48319D01*
X81168Y-48263D01*
X81199Y-48190D01*
X81199Y-48111D01*
X81199Y-47611D01*
X81169Y-47538D01*
X81113Y-47482D01*
X81040Y-47451D01*
X80961Y-47451D01*
X80729Y-47451D01*
X80722Y-47415D01*
X80670Y-47337D01*
X80667Y-47335D01*
X79490Y-46157D01*
X79490Y-31811D01*
X79490Y-31616D01*
X79490Y-31190D01*
X79416Y-31010D01*
X79278Y-30872D01*
X79098Y-30797D01*
X78903Y-30797D01*
X78723Y-30871D01*
X78585Y-31009D01*
X78510Y-31189D01*
X78510Y-31384D01*
X78510Y-31810D01*
X78584Y-31990D01*
X78722Y-32128D01*
X78902Y-32203D01*
X79097Y-32203D01*
X79277Y-32129D01*
X79415Y-31991D01*
X79490Y-31811D01*
X79490Y-46157D01*
X79099Y-45766D01*
X79099Y-44619D01*
X79099Y-44381D01*
X79099Y-37619D01*
X79099Y-37381D01*
X79008Y-37161D01*
X78839Y-36992D01*
X78619Y-36901D01*
X78490Y-36901D01*
X78490Y-31811D01*
X78490Y-31616D01*
X78490Y-31190D01*
X78416Y-31010D01*
X78278Y-30872D01*
X78098Y-30797D01*
X77903Y-30797D01*
X77723Y-30871D01*
X77585Y-31009D01*
X77510Y-31189D01*
X77510Y-31384D01*
X77510Y-31810D01*
X77584Y-31990D01*
X77722Y-32128D01*
X77902Y-32203D01*
X78097Y-32203D01*
X78277Y-32129D01*
X78415Y-31991D01*
X78490Y-31811D01*
X78490Y-36901D01*
X78381Y-36901D01*
X78349Y-36914D01*
X78349Y-34369D01*
X78349Y-34131D01*
X78258Y-33911D01*
X78089Y-33742D01*
X77869Y-33651D01*
X77631Y-33651D01*
X77490Y-33709D01*
X77490Y-31811D01*
X77490Y-31616D01*
X77490Y-31190D01*
X77416Y-31010D01*
X77278Y-30872D01*
X77098Y-30797D01*
X76903Y-30797D01*
X76723Y-30871D01*
X76585Y-31009D01*
X76510Y-31189D01*
X76510Y-31384D01*
X76510Y-31810D01*
X76584Y-31990D01*
X76722Y-32128D01*
X76902Y-32203D01*
X77097Y-32203D01*
X77277Y-32129D01*
X77415Y-31991D01*
X77490Y-31811D01*
X77490Y-33709D01*
X77411Y-33742D01*
X77242Y-33911D01*
X77151Y-34131D01*
X77151Y-34369D01*
X77242Y-34589D01*
X77411Y-34758D01*
X77631Y-34849D01*
X77869Y-34849D01*
X78089Y-34758D01*
X78258Y-34589D01*
X78349Y-34369D01*
X78349Y-36914D01*
X78161Y-36992D01*
X77992Y-37161D01*
X77901Y-37381D01*
X77901Y-37619D01*
X77992Y-37839D01*
X78161Y-38008D01*
X78381Y-38099D01*
X78619Y-38099D01*
X78839Y-38008D01*
X79008Y-37839D01*
X79099Y-37619D01*
X79099Y-44381D01*
X79008Y-44161D01*
X78839Y-43992D01*
X78619Y-43901D01*
X78381Y-43901D01*
X78161Y-43992D01*
X78000Y-44153D01*
X77839Y-43992D01*
X77619Y-43901D01*
X77381Y-43901D01*
X77281Y-43941D01*
X76989Y-43649D01*
X76911Y-43597D01*
X76849Y-43584D01*
X76849Y-34690D01*
X76849Y-34611D01*
X76849Y-33811D01*
X76819Y-33738D01*
X76763Y-33682D01*
X76690Y-33651D01*
X76611Y-33651D01*
X76490Y-33651D01*
X76490Y-31811D01*
X76490Y-31616D01*
X76490Y-31190D01*
X76416Y-31010D01*
X76278Y-30872D01*
X76098Y-30797D01*
X75903Y-30797D01*
X75723Y-30871D01*
X75585Y-31009D01*
X75510Y-31189D01*
X75510Y-31384D01*
X75510Y-31810D01*
X75584Y-31990D01*
X75722Y-32128D01*
X75902Y-32203D01*
X76097Y-32203D01*
X76277Y-32129D01*
X76415Y-31991D01*
X76490Y-31811D01*
X76490Y-33651D01*
X75811Y-33651D01*
X75738Y-33681D01*
X75682Y-33737D01*
X75651Y-33810D01*
X75651Y-33889D01*
X75651Y-34689D01*
X75681Y-34762D01*
X75737Y-34818D01*
X75810Y-34849D01*
X75889Y-34849D01*
X76689Y-34849D01*
X76762Y-34819D01*
X76818Y-34763D01*
X76849Y-34690D01*
X76849Y-43584D01*
X76819Y-43579D01*
X76099Y-43579D01*
X76099Y-37619D01*
X76099Y-37381D01*
X76008Y-37161D01*
X75839Y-36992D01*
X75619Y-36901D01*
X75490Y-36901D01*
X75490Y-31811D01*
X75490Y-31616D01*
X75490Y-31190D01*
X75416Y-31010D01*
X75278Y-30872D01*
X75098Y-30797D01*
X74903Y-30797D01*
X74723Y-30871D01*
X74585Y-31009D01*
X74510Y-31189D01*
X74510Y-31384D01*
X74510Y-31810D01*
X74584Y-31990D01*
X74722Y-32128D01*
X74902Y-32203D01*
X75097Y-32203D01*
X75277Y-32129D01*
X75415Y-31991D01*
X75490Y-31811D01*
X75490Y-36901D01*
X75381Y-36901D01*
X75161Y-36992D01*
X74992Y-37161D01*
X74901Y-37381D01*
X74901Y-37619D01*
X74992Y-37839D01*
X75161Y-38008D01*
X75381Y-38099D01*
X75619Y-38099D01*
X75839Y-38008D01*
X76008Y-37839D01*
X76099Y-37619D01*
X76099Y-43579D01*
X75781Y-43579D01*
X74490Y-42287D01*
X74490Y-31811D01*
X74490Y-31616D01*
X74490Y-31190D01*
X74416Y-31010D01*
X74278Y-30872D01*
X74098Y-30797D01*
X73903Y-30797D01*
X73723Y-30871D01*
X73585Y-31009D01*
X73510Y-31189D01*
X73510Y-31384D01*
X73510Y-31810D01*
X73584Y-31990D01*
X73722Y-32128D01*
X73902Y-32203D01*
X74097Y-32203D01*
X74277Y-32129D01*
X74415Y-31991D01*
X74490Y-31811D01*
X74490Y-42287D01*
X73490Y-41287D01*
X73490Y-31811D01*
X73490Y-31616D01*
X73490Y-31190D01*
X73416Y-31010D01*
X73278Y-30872D01*
X73098Y-30797D01*
X72903Y-30797D01*
X72723Y-30871D01*
X72585Y-31009D01*
X72510Y-31189D01*
X72510Y-31384D01*
X72510Y-31810D01*
X72584Y-31990D01*
X72722Y-32128D01*
X72902Y-32203D01*
X73097Y-32203D01*
X73277Y-32129D01*
X73415Y-31991D01*
X73490Y-31811D01*
X73490Y-41287D01*
X72490Y-40287D01*
X72490Y-31811D01*
X72490Y-31616D01*
X72490Y-31190D01*
X72416Y-31010D01*
X72278Y-30872D01*
X72098Y-30797D01*
X71903Y-30797D01*
X71723Y-30871D01*
X71585Y-31009D01*
X71510Y-31189D01*
X71510Y-31384D01*
X71510Y-31810D01*
X71584Y-31990D01*
X71722Y-32128D01*
X71902Y-32203D01*
X72097Y-32203D01*
X72277Y-32129D01*
X72415Y-31991D01*
X72490Y-31811D01*
X72490Y-40287D01*
X71599Y-39396D01*
X71599Y-37619D01*
X71599Y-37381D01*
X71508Y-37161D01*
X71339Y-36992D01*
X71119Y-36901D01*
X70881Y-36901D01*
X70849Y-36914D01*
X70849Y-34369D01*
X70849Y-34131D01*
X70758Y-33911D01*
X70589Y-33742D01*
X70490Y-33701D01*
X70490Y-31811D01*
X70490Y-31616D01*
X70490Y-31190D01*
X70416Y-31010D01*
X70278Y-30872D01*
X70098Y-30797D01*
X69903Y-30797D01*
X69723Y-30871D01*
X69585Y-31009D01*
X69510Y-31189D01*
X69510Y-31384D01*
X69510Y-31810D01*
X69584Y-31990D01*
X69722Y-32128D01*
X69902Y-32203D01*
X70097Y-32203D01*
X70277Y-32129D01*
X70415Y-31991D01*
X70490Y-31811D01*
X70490Y-33701D01*
X70369Y-33651D01*
X70131Y-33651D01*
X69911Y-33742D01*
X69742Y-33911D01*
X69651Y-34131D01*
X69651Y-34369D01*
X69742Y-34589D01*
X69911Y-34758D01*
X70131Y-34849D01*
X70369Y-34849D01*
X70589Y-34758D01*
X70758Y-34589D01*
X70849Y-34369D01*
X70849Y-36914D01*
X70661Y-36992D01*
X70492Y-37161D01*
X70401Y-37381D01*
X70401Y-37619D01*
X70492Y-37839D01*
X70661Y-38008D01*
X70881Y-38099D01*
X71119Y-38099D01*
X71339Y-38008D01*
X71508Y-37839D01*
X71599Y-37619D01*
X71599Y-39396D01*
X69490Y-37287D01*
X69490Y-31811D01*
X69490Y-31616D01*
X69490Y-31190D01*
X69416Y-31010D01*
X69278Y-30872D01*
X69098Y-30797D01*
X68903Y-30797D01*
X68723Y-30871D01*
X68585Y-31009D01*
X68510Y-31189D01*
X68510Y-31384D01*
X68510Y-31810D01*
X68584Y-31990D01*
X68722Y-32128D01*
X68902Y-32203D01*
X69097Y-32203D01*
X69277Y-32129D01*
X69415Y-31991D01*
X69490Y-31811D01*
X69490Y-37287D01*
X69349Y-37146D01*
X69349Y-34690D01*
X69349Y-34611D01*
X69349Y-33811D01*
X69319Y-33738D01*
X69263Y-33682D01*
X69190Y-33651D01*
X69111Y-33651D01*
X68490Y-33651D01*
X68490Y-31811D01*
X68490Y-31616D01*
X68490Y-31190D01*
X68416Y-31010D01*
X68278Y-30872D01*
X68098Y-30797D01*
X67903Y-30797D01*
X67723Y-30871D01*
X67585Y-31009D01*
X67510Y-31189D01*
X67510Y-31384D01*
X67510Y-31810D01*
X67584Y-31990D01*
X67722Y-32128D01*
X67902Y-32203D01*
X68097Y-32203D01*
X68277Y-32129D01*
X68415Y-31991D01*
X68490Y-31811D01*
X68490Y-33651D01*
X68311Y-33651D01*
X68238Y-33681D01*
X68182Y-33737D01*
X68151Y-33810D01*
X68151Y-33889D01*
X68151Y-34689D01*
X68181Y-34762D01*
X68237Y-34818D01*
X68310Y-34849D01*
X68389Y-34849D01*
X69189Y-34849D01*
X69262Y-34819D01*
X69318Y-34763D01*
X69349Y-34690D01*
X69349Y-37146D01*
X67490Y-35287D01*
X67490Y-31811D01*
X67490Y-31616D01*
X67490Y-31190D01*
X67416Y-31010D01*
X67278Y-30872D01*
X67098Y-30797D01*
X66903Y-30797D01*
X66723Y-30871D01*
X66585Y-31009D01*
X66510Y-31189D01*
X66510Y-31384D01*
X66510Y-31810D01*
X66584Y-31990D01*
X66722Y-32128D01*
X66902Y-32203D01*
X67097Y-32203D01*
X67277Y-32129D01*
X67415Y-31991D01*
X67490Y-31811D01*
X67490Y-35287D01*
X66490Y-34287D01*
X66490Y-31811D01*
X66490Y-31616D01*
X66490Y-31190D01*
X66416Y-31010D01*
X66278Y-30872D01*
X66098Y-30797D01*
X65903Y-30797D01*
X65723Y-30871D01*
X65585Y-31009D01*
X65510Y-31189D01*
X65510Y-31384D01*
X65510Y-31810D01*
X65584Y-31990D01*
X65722Y-32128D01*
X65902Y-32203D01*
X66097Y-32203D01*
X66277Y-32129D01*
X66415Y-31991D01*
X66490Y-31811D01*
X66490Y-34287D01*
X65490Y-33287D01*
X65490Y-31811D01*
X65490Y-31616D01*
X65490Y-31190D01*
X65416Y-31010D01*
X65278Y-30872D01*
X65098Y-30797D01*
X64903Y-30797D01*
X64723Y-30871D01*
X64585Y-31009D01*
X64510Y-31189D01*
X64510Y-31384D01*
X64510Y-31810D01*
X64584Y-31990D01*
X64722Y-32128D01*
X64902Y-32203D01*
X65097Y-32203D01*
X65277Y-32129D01*
X65415Y-31991D01*
X65490Y-31811D01*
X65490Y-33287D01*
X64304Y-32101D01*
X64415Y-31991D01*
X64490Y-31811D01*
X64490Y-31616D01*
X64490Y-31190D01*
X64416Y-31010D01*
X64278Y-30872D01*
X64098Y-30797D01*
X63903Y-30797D01*
X63723Y-30871D01*
X63585Y-31009D01*
X63510Y-31189D01*
X63510Y-31384D01*
X63510Y-31810D01*
X63548Y-31903D01*
X63451Y-31903D01*
X63490Y-31811D01*
X63490Y-31616D01*
X63490Y-31190D01*
X63416Y-31010D01*
X63278Y-30872D01*
X63098Y-30797D01*
X62903Y-30797D01*
X62723Y-30871D01*
X62585Y-31009D01*
X62510Y-31189D01*
X62510Y-31384D01*
X62510Y-31810D01*
X62548Y-31903D01*
X61851Y-31903D01*
X61890Y-31811D01*
X61890Y-31616D01*
X61890Y-31190D01*
X61816Y-31010D01*
X61678Y-30872D01*
X61498Y-30797D01*
X61303Y-30797D01*
X61123Y-30871D01*
X60985Y-31009D01*
X60910Y-31189D01*
X60910Y-31384D01*
X60910Y-31810D01*
X60948Y-31903D01*
X60851Y-31903D01*
X60890Y-31811D01*
X60890Y-31616D01*
X60890Y-31190D01*
X60816Y-31010D01*
X60678Y-30872D01*
X60498Y-30797D01*
X60303Y-30797D01*
X60123Y-30871D01*
X59985Y-31009D01*
X59910Y-31189D01*
X59910Y-31384D01*
X59910Y-31810D01*
X59948Y-31903D01*
X59851Y-31903D01*
X59890Y-31811D01*
X59890Y-31616D01*
X59890Y-31190D01*
X59816Y-31010D01*
X59678Y-30872D01*
X59498Y-30797D01*
X59303Y-30797D01*
X59123Y-30871D01*
X58985Y-31009D01*
X58910Y-31189D01*
X58910Y-31384D01*
X58910Y-31810D01*
X58984Y-31990D01*
X59122Y-32128D01*
X59160Y-32143D01*
X59178Y-32235D01*
X59230Y-32313D01*
X59308Y-32365D01*
X59400Y-32383D01*
X63906Y-32383D01*
X75424Y-43901D01*
X75061Y-43901D01*
X74988Y-43931D01*
X74932Y-43987D01*
X74901Y-44060D01*
X74901Y-44139D01*
X74901Y-44939D01*
X74931Y-45012D01*
X74987Y-45068D01*
X75060Y-45099D01*
X75139Y-45099D01*
X75939Y-45099D01*
X76012Y-45069D01*
X76068Y-45013D01*
X76097Y-44944D01*
X76161Y-45008D01*
X76381Y-45099D01*
X76619Y-45099D01*
X76839Y-45008D01*
X77000Y-44847D01*
X77161Y-45008D01*
X77381Y-45099D01*
X77619Y-45099D01*
X77839Y-45008D01*
X78000Y-44847D01*
X78161Y-45008D01*
X78381Y-45099D01*
X78619Y-45099D01*
X78839Y-45008D01*
X79008Y-44839D01*
X79099Y-44619D01*
X79099Y-45766D01*
X78663Y-45330D01*
X78585Y-45278D01*
X78493Y-45260D01*
X73211Y-45260D01*
X68599Y-40647D01*
X68599Y-37619D01*
X68599Y-37381D01*
X68508Y-37161D01*
X68339Y-36992D01*
X68119Y-36901D01*
X67881Y-36901D01*
X67661Y-36992D01*
X67492Y-37161D01*
X67401Y-37381D01*
X67401Y-37619D01*
X67492Y-37839D01*
X67661Y-38008D01*
X67881Y-38099D01*
X68119Y-38099D01*
X68339Y-38008D01*
X68508Y-37839D01*
X68599Y-37619D01*
X68599Y-40647D01*
X63723Y-35771D01*
X63645Y-35719D01*
X63553Y-35701D01*
X63349Y-35701D01*
X63349Y-34369D01*
X63349Y-34131D01*
X63258Y-33911D01*
X63089Y-33742D01*
X62869Y-33651D01*
X62631Y-33651D01*
X62411Y-33742D01*
X62242Y-33911D01*
X62151Y-34131D01*
X62151Y-34369D01*
X62242Y-34589D01*
X62411Y-34758D01*
X62631Y-34849D01*
X62869Y-34849D01*
X63089Y-34758D01*
X63258Y-34589D01*
X63349Y-34369D01*
X63349Y-35701D01*
X61849Y-35701D01*
X61849Y-34690D01*
X61849Y-34611D01*
X61849Y-33811D01*
X61819Y-33738D01*
X61763Y-33682D01*
X61690Y-33651D01*
X61611Y-33651D01*
X60811Y-33651D01*
X60738Y-33681D01*
X60682Y-33737D01*
X60651Y-33810D01*
X60651Y-33889D01*
X60651Y-34689D01*
X60681Y-34762D01*
X60737Y-34818D01*
X60810Y-34849D01*
X60889Y-34849D01*
X61689Y-34849D01*
X61762Y-34819D01*
X61818Y-34763D01*
X61849Y-34690D01*
X61849Y-35701D01*
X61298Y-35701D01*
X57701Y-32104D01*
X57815Y-31991D01*
X57890Y-31811D01*
X57890Y-31616D01*
X57890Y-31190D01*
X57851Y-31097D01*
X57948Y-31097D01*
X57910Y-31189D01*
X57910Y-31384D01*
X57910Y-31810D01*
X57984Y-31990D01*
X58122Y-32128D01*
X58302Y-32203D01*
X58497Y-32203D01*
X58677Y-32129D01*
X58815Y-31991D01*
X58890Y-31811D01*
X58890Y-31616D01*
X58890Y-31190D01*
X58816Y-31010D01*
X58678Y-30872D01*
X58639Y-30856D01*
X58622Y-30765D01*
X58608Y-30745D01*
X79876Y-30745D01*
X79674Y-30947D01*
X79525Y-31305D01*
X79525Y-31693D01*
X79673Y-32051D01*
X79947Y-32326D01*
X80305Y-32475D01*
X80693Y-32475D01*
X81051Y-32327D01*
X81326Y-32053D01*
X81475Y-31695D01*
X81475Y-31307D01*
X81327Y-30949D01*
X81123Y-30745D01*
X89255Y-30745D01*
X89255Y-51255D01*
M02*
