M48
;DRILL file {PCBnew (2011-05-25)-stable} date Tue 18 Mar 2014 04:02:47 PM EDT
;FORMAT={2:4/ absolute / inch / suppress trailing zeros}
FMAT,2
INCH,LZ
T1C0.025
T2C0.040
T3C0.051
T4C0.063
T5C0.106
T6C0.124
T7C0.130
%
G90
G05
M72
T1
X05675Y-049198
X06218Y-037178
X062756Y-046697
X06425Y-04875
X064401Y-037514
X06592Y-047273
X070653Y-0475
X071176Y-049121
X077047Y-0475
X079234Y-049029
T2
X0524Y-0315
X053Y-0375
X053Y-0445
X0534Y-0315
X054Y-0445
X0544Y-0315
X055Y-0445
X0554Y-0315
X056Y-0375
X056Y-0445
X056Y-0505
X0564Y-0315
X057Y-0505
X0574Y-0315
X058Y-0505
X0584Y-0315
X059Y-0505
X0594Y-0315
X06Y-0505
X0604Y-0315
X0605Y-0375
X0605Y-0445
X061Y-0505
X0614Y-0315
X0615Y-0445
X062Y-0505
X0625Y-0445
X063Y-0315
X063Y-0505
X0635Y-0375
X0635Y-0445
X064Y-0315
X065Y-0315
X065Y-0505
X066Y-0315
X066Y-0505
X067Y-0315
X067Y-0505
X068Y-0315
X068Y-0375
X068Y-0445
X068Y-0505
X069Y-0315
X069Y-0445
X069Y-0505
X07Y-0315
X07Y-0445
X07Y-0505
X071Y-0375
X071Y-0445
X071Y-0505
X072Y-0315
X072Y-0505
X073Y-0315
X074Y-0315
X074Y-0505
X075Y-0315
X075Y-0505
X0755Y-0375
X0755Y-0445
X076Y-0315
X076Y-0505
X0765Y-0445
X077Y-0315
X077Y-0505
X0775Y-0445
X078Y-0315
X078Y-0505
X0785Y-0375
X0785Y-0445
X079Y-0315
X079Y-0505
X08Y-0505
X081Y-0505
X082Y-0315
X082Y-0325
X082Y-0335
X082Y-0345
X082Y-0355
X082Y-0365
X082Y-0375
X082Y-0385
X082Y-0395
X082Y-0405
X082Y-0415
X082Y-0425
X082Y-0435
X082Y-0445
X082Y-0455
X082Y-0465
X082Y-0475
X082Y-0485
X083Y-0315
X083Y-0325
X083Y-0335
X083Y-0345
X083Y-0355
X083Y-0365
X083Y-0375
X083Y-0385
X083Y-0395
X083Y-0405
X083Y-0415
X083Y-0425
X083Y-0435
X083Y-0445
X083Y-0455
X083Y-0465
X083Y-0475
X083Y-0485
T3
X05375Y-03425
X05525Y-03425
X06125Y-03425
X06275Y-03425
X06875Y-03425
X07025Y-03425
X07625Y-03425
X07775Y-03425
T4
X08832Y-041
T5
X08714Y-041
X08753Y-03923
X08753Y-04277
T6
X08478Y-041
T7
X0505Y-0505
X051Y-0315
X0805Y-0315
X083Y-0505
T0
M30
