G04 (created by PCBNEW-RS274X (2011-05-25)-stable) date Tue 18 Mar 2014 04:02:36 PM EDT*
G01*
G70*
G90*
%MOIN*%
G04 Gerber Fmt 3.4, Leading zero omitted, Abs format*
%FSLAX34Y34*%
G04 APERTURE LIST*
%ADD10C,0.006000*%
%ADD11C,0.009000*%
%ADD12C,0.155000*%
%ADD13O,0.060000X0.100000*%
%ADD14C,0.060000*%
%ADD15R,0.050000X0.080000*%
%ADD16C,0.076000*%
%ADD17C,0.140000*%
%ADD18C,0.160000*%
%ADD19R,0.080000X0.080000*%
%ADD20C,0.080000*%
%ADD21C,0.035000*%
%ADD22C,0.008000*%
%ADD23C,0.040000*%
%ADD24C,0.010000*%
G04 APERTURE END LIST*
G54D10*
G54D11*
X89500Y-51500D02*
X43500Y-51500D01*
X43500Y-30500D02*
X89500Y-30500D01*
X43500Y-30500D02*
X43500Y-51500D01*
X89500Y-51500D02*
X89500Y-30500D01*
G54D12*
X50500Y-50500D03*
X51000Y-31500D03*
X83000Y-50500D03*
X80500Y-31500D03*
G54D13*
X56000Y-50500D03*
X57000Y-50500D03*
X58000Y-50500D03*
X59000Y-50500D03*
X60000Y-50500D03*
X61000Y-50500D03*
X62000Y-50500D03*
X63000Y-50500D03*
X65000Y-50500D03*
X66000Y-50500D03*
X67000Y-50500D03*
X68000Y-50500D03*
X69000Y-50500D03*
X70000Y-50500D03*
X71000Y-50500D03*
X72000Y-50500D03*
X74000Y-50500D03*
X75000Y-50500D03*
X76000Y-50500D03*
X77000Y-50500D03*
X78000Y-50500D03*
X79000Y-50500D03*
X80000Y-50500D03*
X81000Y-50500D03*
X52400Y-31500D03*
X53400Y-31500D03*
X54400Y-31500D03*
X55400Y-31500D03*
X56400Y-31500D03*
X57400Y-31500D03*
X58400Y-31500D03*
X59400Y-31500D03*
X60400Y-31500D03*
X61400Y-31500D03*
X63000Y-31500D03*
X70000Y-31500D03*
X69000Y-31500D03*
X68000Y-31500D03*
X67000Y-31500D03*
X66000Y-31500D03*
X65000Y-31500D03*
X64000Y-31500D03*
X72000Y-31500D03*
X73000Y-31500D03*
X74000Y-31500D03*
X75000Y-31500D03*
X76000Y-31500D03*
X77000Y-31500D03*
X78000Y-31500D03*
X79000Y-31500D03*
G54D14*
X82000Y-31500D03*
X83000Y-31500D03*
X82000Y-32500D03*
X83000Y-32500D03*
X82000Y-33500D03*
X83000Y-33500D03*
X82000Y-34500D03*
X83000Y-34500D03*
X82000Y-35500D03*
X83000Y-35500D03*
X82000Y-36500D03*
X83000Y-36500D03*
X82000Y-37500D03*
X83000Y-37500D03*
X82000Y-38500D03*
X83000Y-38500D03*
X82000Y-39500D03*
X83000Y-39500D03*
X82000Y-40500D03*
X83000Y-40500D03*
X82000Y-41500D03*
X83000Y-41500D03*
X82000Y-42500D03*
X83000Y-42500D03*
X82000Y-43500D03*
X83000Y-43500D03*
X82000Y-44500D03*
X83000Y-44500D03*
X82000Y-45500D03*
X83000Y-45500D03*
X82000Y-46500D03*
X83000Y-46500D03*
X82000Y-47500D03*
X83000Y-47500D03*
X82000Y-48500D03*
X83000Y-48500D03*
G54D15*
X70500Y-49250D03*
X69500Y-49250D03*
X68500Y-49250D03*
X68500Y-45750D03*
X69500Y-45750D03*
X70500Y-45750D03*
X78000Y-49250D03*
X77000Y-49250D03*
X76000Y-49250D03*
X76000Y-45750D03*
X77000Y-45750D03*
X78000Y-45750D03*
G54D16*
X88320Y-41000D03*
G54D17*
X87140Y-41000D03*
G54D18*
X84780Y-41000D03*
G54D17*
X87530Y-39230D03*
X87530Y-42770D03*
G54D15*
X55500Y-49250D03*
X54500Y-49250D03*
X53500Y-49250D03*
X53500Y-45750D03*
X54500Y-45750D03*
X55500Y-45750D03*
X63000Y-49250D03*
X62000Y-49250D03*
X61000Y-49250D03*
X61000Y-45750D03*
X62000Y-45750D03*
X63000Y-45750D03*
G54D19*
X53000Y-44500D03*
G54D20*
X54000Y-44500D03*
X55000Y-44500D03*
X56000Y-44500D03*
X56000Y-37500D03*
X53000Y-37500D03*
G54D19*
X60500Y-44500D03*
G54D20*
X61500Y-44500D03*
X62500Y-44500D03*
X63500Y-44500D03*
X63500Y-37500D03*
X60500Y-37500D03*
G54D19*
X68000Y-44500D03*
G54D20*
X69000Y-44500D03*
X70000Y-44500D03*
X71000Y-44500D03*
X71000Y-37500D03*
X68000Y-37500D03*
G54D19*
X75500Y-44500D03*
G54D20*
X76500Y-44500D03*
X77500Y-44500D03*
X78500Y-44500D03*
X78500Y-37500D03*
X75500Y-37500D03*
G54D19*
X76250Y-34250D03*
G54D20*
X77750Y-34250D03*
G54D19*
X68750Y-34250D03*
G54D20*
X70250Y-34250D03*
G54D19*
X61250Y-34250D03*
G54D20*
X62750Y-34250D03*
G54D19*
X53750Y-34250D03*
G54D20*
X55250Y-34250D03*
G54D21*
X64401Y-37514D03*
X65920Y-47273D03*
X62180Y-37178D03*
X71176Y-49121D03*
X56750Y-49198D03*
X64250Y-48750D03*
X79234Y-49029D03*
X62756Y-46697D03*
X77047Y-47500D03*
X70653Y-47500D03*
G54D22*
X65000Y-31500D02*
X65000Y-32143D01*
X64402Y-37514D02*
X64401Y-37514D01*
X64402Y-32741D02*
X64402Y-37514D01*
X65000Y-32143D02*
X64402Y-32741D01*
X64081Y-32224D02*
X64000Y-32143D01*
X64081Y-45434D02*
X64081Y-32224D01*
X65920Y-47273D02*
X64081Y-45434D01*
X64000Y-31500D02*
X64000Y-32143D01*
G54D23*
X52946Y-44554D02*
X53000Y-44500D01*
X52946Y-46338D02*
X52946Y-44554D01*
X53061Y-46453D02*
X52946Y-46338D01*
X54500Y-46453D02*
X53061Y-46453D01*
X54500Y-45750D02*
X54500Y-46453D01*
X60446Y-44554D02*
X60500Y-44500D01*
X60446Y-46338D02*
X60446Y-44554D01*
X60561Y-46453D02*
X60446Y-46338D01*
X62000Y-46453D02*
X60561Y-46453D01*
X62000Y-45750D02*
X62000Y-46453D01*
X67946Y-44554D02*
X68000Y-44500D01*
X67946Y-46337D02*
X67946Y-44554D01*
X68062Y-46453D02*
X67946Y-46337D01*
X69500Y-46453D02*
X68062Y-46453D01*
X69500Y-45750D02*
X69500Y-46453D01*
X75447Y-44553D02*
X75500Y-44500D01*
X75447Y-46275D02*
X75447Y-44553D01*
X75625Y-46453D02*
X75447Y-46275D01*
X77000Y-46453D02*
X75625Y-46453D01*
X77000Y-45750D02*
X77000Y-46453D01*
X53000Y-35000D02*
X53000Y-37500D01*
X53750Y-34250D02*
X53000Y-35000D01*
X55250Y-36750D02*
X56000Y-37500D01*
X55250Y-34250D02*
X55250Y-36750D01*
X60500Y-35000D02*
X60500Y-37500D01*
X61250Y-34250D02*
X60500Y-35000D01*
X63500Y-35000D02*
X63500Y-37500D01*
X62750Y-34250D02*
X63500Y-35000D01*
X68000Y-35000D02*
X68000Y-37500D01*
X68750Y-34250D02*
X68000Y-35000D01*
X70250Y-36750D02*
X71000Y-37500D01*
X70250Y-34250D02*
X70250Y-36750D01*
X75500Y-35000D02*
X75500Y-37500D01*
X76250Y-34250D02*
X75500Y-35000D01*
X77750Y-36750D02*
X78500Y-37500D01*
X77750Y-34250D02*
X77750Y-36750D01*
G54D22*
X59965Y-30857D02*
X63000Y-30857D01*
X59944Y-30878D02*
X59965Y-30857D01*
X59944Y-39556D02*
X59944Y-30878D01*
X55000Y-44500D02*
X59944Y-39556D01*
X63000Y-31500D02*
X63000Y-30857D01*
X62083Y-32826D02*
X61400Y-32143D01*
X62083Y-35584D02*
X62083Y-32826D01*
X62500Y-36001D02*
X62083Y-35584D01*
X62500Y-44500D02*
X62500Y-36001D01*
X61400Y-31500D02*
X61400Y-32143D01*
X60400Y-31500D02*
X60400Y-32143D01*
X61899Y-36897D02*
X62180Y-37178D01*
X61899Y-33642D02*
X61899Y-36897D01*
X60400Y-32143D02*
X61899Y-33642D01*
G54D23*
X54500Y-49250D02*
X54500Y-48547D01*
X61000Y-50500D02*
X61000Y-50403D01*
X59144Y-48547D02*
X54500Y-48547D01*
X61000Y-50403D02*
X59144Y-48547D01*
X62000Y-50403D02*
X61000Y-50403D01*
X62000Y-50403D02*
X62000Y-50500D01*
X62000Y-50403D02*
X62000Y-49250D01*
X62000Y-49250D02*
X62000Y-48547D01*
X69500Y-49250D02*
X69500Y-48547D01*
X77000Y-48548D02*
X77000Y-49250D01*
X76999Y-48547D02*
X77000Y-48548D01*
X69500Y-48547D02*
X76999Y-48547D01*
X80706Y-49146D02*
X78554Y-46994D01*
X83584Y-49146D02*
X80706Y-49146D01*
X83700Y-49030D02*
X83584Y-49146D01*
X83700Y-44440D02*
X83700Y-49030D01*
X87140Y-41000D02*
X83700Y-44440D01*
X77000Y-48548D02*
X78554Y-46994D01*
X78554Y-44554D02*
X78500Y-44500D01*
X78554Y-46994D02*
X78554Y-44554D01*
X63695Y-44695D02*
X63695Y-46852D01*
X63500Y-44500D02*
X63695Y-44695D01*
X62000Y-48547D02*
X63695Y-46852D01*
X65390Y-48547D02*
X69500Y-48547D01*
X63695Y-46852D02*
X65390Y-48547D01*
G54D22*
X71047Y-49250D02*
X71176Y-49121D01*
X70500Y-49250D02*
X71047Y-49250D01*
X56698Y-49250D02*
X56750Y-49198D01*
X55500Y-49250D02*
X56698Y-49250D01*
X64207Y-48707D02*
X64250Y-48750D01*
X63000Y-48707D02*
X64207Y-48707D01*
X63000Y-49250D02*
X63000Y-48707D01*
X78912Y-48707D02*
X79234Y-49029D01*
X78000Y-48707D02*
X78912Y-48707D01*
X78000Y-49250D02*
X78000Y-48707D01*
G54D23*
X78000Y-45750D02*
X78000Y-46453D01*
X63000Y-45750D02*
X63000Y-46453D01*
X55500Y-45750D02*
X55500Y-46453D01*
X63000Y-46453D02*
X62756Y-46697D01*
X62473Y-46980D02*
X62756Y-46697D01*
X56027Y-46980D02*
X62473Y-46980D01*
X55500Y-46453D02*
X56027Y-46980D01*
X70500Y-45750D02*
X70500Y-46453D01*
X77047Y-47500D02*
X77047Y-47406D01*
X77047Y-47406D02*
X78000Y-46453D01*
X71100Y-47053D02*
X70653Y-47500D01*
X71453Y-47406D02*
X71100Y-47053D01*
X77047Y-47406D02*
X71453Y-47406D01*
X71100Y-47053D02*
X70500Y-46453D01*
G54D10*
G36*
X89255Y-51255D02*
X88900Y-51255D01*
X88900Y-41116D01*
X88900Y-40885D01*
X88812Y-40672D01*
X88649Y-40509D01*
X88436Y-40420D01*
X88430Y-40420D01*
X88430Y-39410D01*
X88430Y-39052D01*
X88293Y-38721D01*
X88041Y-38468D01*
X87710Y-38330D01*
X87352Y-38330D01*
X87021Y-38467D01*
X86768Y-38719D01*
X86630Y-39050D01*
X86630Y-39408D01*
X86767Y-39739D01*
X87019Y-39992D01*
X87199Y-40067D01*
X86943Y-40070D01*
X86623Y-40203D01*
X86549Y-40338D01*
X87140Y-40929D01*
X87731Y-40338D01*
X87657Y-40203D01*
X87473Y-40130D01*
X87708Y-40130D01*
X88039Y-39993D01*
X88292Y-39741D01*
X88430Y-39410D01*
X88430Y-40420D01*
X88205Y-40420D01*
X87992Y-40508D01*
X87960Y-40539D01*
X87937Y-40483D01*
X87802Y-40409D01*
X87211Y-41000D01*
X87802Y-41591D01*
X87937Y-41517D01*
X87959Y-41459D01*
X87991Y-41491D01*
X88204Y-41580D01*
X88435Y-41580D01*
X88648Y-41492D01*
X88811Y-41329D01*
X88900Y-41116D01*
X88900Y-51255D01*
X88430Y-51255D01*
X88430Y-42950D01*
X88430Y-42592D01*
X88293Y-42261D01*
X88041Y-42008D01*
X87710Y-41870D01*
X87481Y-41870D01*
X87657Y-41797D01*
X87731Y-41662D01*
X87140Y-41071D01*
X87069Y-41142D01*
X87069Y-41000D01*
X86478Y-40409D01*
X86343Y-40483D01*
X86206Y-40827D01*
X86210Y-41197D01*
X86343Y-41517D01*
X86478Y-41591D01*
X87069Y-41000D01*
X87069Y-41142D01*
X86549Y-41662D01*
X86623Y-41797D01*
X86967Y-41934D01*
X87203Y-41931D01*
X87021Y-42007D01*
X86768Y-42259D01*
X86630Y-42590D01*
X86630Y-42948D01*
X86767Y-43279D01*
X87019Y-43532D01*
X87350Y-43670D01*
X87708Y-43670D01*
X88039Y-43533D01*
X88292Y-43281D01*
X88430Y-42950D01*
X88430Y-51255D01*
X85780Y-51255D01*
X85780Y-41200D01*
X85780Y-40802D01*
X85628Y-40434D01*
X85347Y-40153D01*
X84980Y-40000D01*
X84582Y-40000D01*
X84214Y-40152D01*
X83933Y-40433D01*
X83780Y-40800D01*
X83780Y-41198D01*
X83932Y-41566D01*
X84213Y-41847D01*
X84580Y-42000D01*
X84978Y-42000D01*
X85346Y-41848D01*
X85627Y-41567D01*
X85780Y-41200D01*
X85780Y-51255D01*
X83623Y-51255D01*
X83826Y-51053D01*
X83975Y-50695D01*
X83975Y-50307D01*
X83827Y-49949D01*
X83553Y-49674D01*
X83499Y-49651D01*
X83499Y-48599D01*
X83499Y-48401D01*
X83499Y-47599D01*
X83499Y-47401D01*
X83499Y-46599D01*
X83499Y-46401D01*
X83499Y-45599D01*
X83499Y-45401D01*
X83499Y-44599D01*
X83499Y-44401D01*
X83499Y-43599D01*
X83499Y-43401D01*
X83499Y-42599D01*
X83499Y-42401D01*
X83499Y-41599D01*
X83499Y-41401D01*
X83499Y-40599D01*
X83499Y-40401D01*
X83499Y-39599D01*
X83499Y-39401D01*
X83499Y-38599D01*
X83499Y-38401D01*
X83499Y-37599D01*
X83499Y-37401D01*
X83499Y-36599D01*
X83499Y-36401D01*
X83499Y-35599D01*
X83499Y-35401D01*
X83499Y-34599D01*
X83499Y-34401D01*
X83499Y-33599D01*
X83499Y-33401D01*
X83499Y-32599D01*
X83499Y-32401D01*
X83499Y-31599D01*
X83499Y-31401D01*
X83423Y-31218D01*
X83283Y-31077D01*
X83099Y-31001D01*
X82901Y-31001D01*
X82718Y-31077D01*
X82577Y-31217D01*
X82501Y-31401D01*
X82501Y-31599D01*
X82577Y-31782D01*
X82717Y-31923D01*
X82901Y-31999D01*
X83099Y-31999D01*
X83282Y-31923D01*
X83423Y-31783D01*
X83499Y-31599D01*
X83499Y-32401D01*
X83423Y-32218D01*
X83283Y-32077D01*
X83099Y-32001D01*
X82901Y-32001D01*
X82718Y-32077D01*
X82577Y-32217D01*
X82501Y-32401D01*
X82501Y-32599D01*
X82577Y-32782D01*
X82717Y-32923D01*
X82901Y-32999D01*
X83099Y-32999D01*
X83282Y-32923D01*
X83423Y-32783D01*
X83499Y-32599D01*
X83499Y-33401D01*
X83423Y-33218D01*
X83283Y-33077D01*
X83099Y-33001D01*
X82901Y-33001D01*
X82718Y-33077D01*
X82577Y-33217D01*
X82501Y-33401D01*
X82501Y-33599D01*
X82577Y-33782D01*
X82717Y-33923D01*
X82901Y-33999D01*
X83099Y-33999D01*
X83282Y-33923D01*
X83423Y-33783D01*
X83499Y-33599D01*
X83499Y-34401D01*
X83423Y-34218D01*
X83283Y-34077D01*
X83099Y-34001D01*
X82901Y-34001D01*
X82718Y-34077D01*
X82577Y-34217D01*
X82501Y-34401D01*
X82501Y-34599D01*
X82577Y-34782D01*
X82717Y-34923D01*
X82901Y-34999D01*
X83099Y-34999D01*
X83282Y-34923D01*
X83423Y-34783D01*
X83499Y-34599D01*
X83499Y-35401D01*
X83423Y-35218D01*
X83283Y-35077D01*
X83099Y-35001D01*
X82901Y-35001D01*
X82718Y-35077D01*
X82577Y-35217D01*
X82501Y-35401D01*
X82501Y-35599D01*
X82577Y-35782D01*
X82717Y-35923D01*
X82901Y-35999D01*
X83099Y-35999D01*
X83282Y-35923D01*
X83423Y-35783D01*
X83499Y-35599D01*
X83499Y-36401D01*
X83423Y-36218D01*
X83283Y-36077D01*
X83099Y-36001D01*
X82901Y-36001D01*
X82718Y-36077D01*
X82577Y-36217D01*
X82501Y-36401D01*
X82501Y-36599D01*
X82577Y-36782D01*
X82717Y-36923D01*
X82901Y-36999D01*
X83099Y-36999D01*
X83282Y-36923D01*
X83423Y-36783D01*
X83499Y-36599D01*
X83499Y-37401D01*
X83423Y-37218D01*
X83283Y-37077D01*
X83099Y-37001D01*
X82901Y-37001D01*
X82718Y-37077D01*
X82577Y-37217D01*
X82501Y-37401D01*
X82501Y-37599D01*
X82577Y-37782D01*
X82717Y-37923D01*
X82901Y-37999D01*
X83099Y-37999D01*
X83282Y-37923D01*
X83423Y-37783D01*
X83499Y-37599D01*
X83499Y-38401D01*
X83423Y-38218D01*
X83283Y-38077D01*
X83099Y-38001D01*
X82901Y-38001D01*
X82718Y-38077D01*
X82577Y-38217D01*
X82501Y-38401D01*
X82501Y-38599D01*
X82577Y-38782D01*
X82717Y-38923D01*
X82901Y-38999D01*
X83099Y-38999D01*
X83282Y-38923D01*
X83423Y-38783D01*
X83499Y-38599D01*
X83499Y-39401D01*
X83423Y-39218D01*
X83283Y-39077D01*
X83099Y-39001D01*
X82901Y-39001D01*
X82718Y-39077D01*
X82577Y-39217D01*
X82501Y-39401D01*
X82501Y-39599D01*
X82577Y-39782D01*
X82717Y-39923D01*
X82901Y-39999D01*
X83099Y-39999D01*
X83282Y-39923D01*
X83423Y-39783D01*
X83499Y-39599D01*
X83499Y-40401D01*
X83423Y-40218D01*
X83283Y-40077D01*
X83099Y-40001D01*
X82901Y-40001D01*
X82718Y-40077D01*
X82577Y-40217D01*
X82501Y-40401D01*
X82501Y-40599D01*
X82577Y-40782D01*
X82717Y-40923D01*
X82901Y-40999D01*
X83099Y-40999D01*
X83282Y-40923D01*
X83423Y-40783D01*
X83499Y-40599D01*
X83499Y-41401D01*
X83423Y-41218D01*
X83283Y-41077D01*
X83099Y-41001D01*
X82901Y-41001D01*
X82718Y-41077D01*
X82577Y-41217D01*
X82501Y-41401D01*
X82501Y-41599D01*
X82577Y-41782D01*
X82717Y-41923D01*
X82901Y-41999D01*
X83099Y-41999D01*
X83282Y-41923D01*
X83423Y-41783D01*
X83499Y-41599D01*
X83499Y-42401D01*
X83423Y-42218D01*
X83283Y-42077D01*
X83099Y-42001D01*
X82901Y-42001D01*
X82718Y-42077D01*
X82577Y-42217D01*
X82501Y-42401D01*
X82501Y-42599D01*
X82577Y-42782D01*
X82717Y-42923D01*
X82901Y-42999D01*
X83099Y-42999D01*
X83282Y-42923D01*
X83423Y-42783D01*
X83499Y-42599D01*
X83499Y-43401D01*
X83423Y-43218D01*
X83283Y-43077D01*
X83099Y-43001D01*
X82901Y-43001D01*
X82718Y-43077D01*
X82577Y-43217D01*
X82501Y-43401D01*
X82501Y-43599D01*
X82577Y-43782D01*
X82717Y-43923D01*
X82901Y-43999D01*
X83099Y-43999D01*
X83282Y-43923D01*
X83423Y-43783D01*
X83499Y-43599D01*
X83499Y-44401D01*
X83423Y-44218D01*
X83283Y-44077D01*
X83099Y-44001D01*
X82901Y-44001D01*
X82718Y-44077D01*
X82577Y-44217D01*
X82501Y-44401D01*
X82501Y-44599D01*
X82577Y-44782D01*
X82717Y-44923D01*
X82901Y-44999D01*
X83099Y-44999D01*
X83282Y-44923D01*
X83423Y-44783D01*
X83499Y-44599D01*
X83499Y-45401D01*
X83423Y-45218D01*
X83283Y-45077D01*
X83099Y-45001D01*
X82901Y-45001D01*
X82718Y-45077D01*
X82577Y-45217D01*
X82501Y-45401D01*
X82501Y-45599D01*
X82577Y-45782D01*
X82717Y-45923D01*
X82901Y-45999D01*
X83099Y-45999D01*
X83282Y-45923D01*
X83423Y-45783D01*
X83499Y-45599D01*
X83499Y-46401D01*
X83423Y-46218D01*
X83283Y-46077D01*
X83099Y-46001D01*
X82901Y-46001D01*
X82718Y-46077D01*
X82577Y-46217D01*
X82501Y-46401D01*
X82501Y-46599D01*
X82577Y-46782D01*
X82717Y-46923D01*
X82901Y-46999D01*
X83099Y-46999D01*
X83282Y-46923D01*
X83423Y-46783D01*
X83499Y-46599D01*
X83499Y-47401D01*
X83423Y-47218D01*
X83283Y-47077D01*
X83099Y-47001D01*
X82901Y-47001D01*
X82718Y-47077D01*
X82577Y-47217D01*
X82501Y-47401D01*
X82501Y-47599D01*
X82577Y-47782D01*
X82717Y-47923D01*
X82901Y-47999D01*
X83099Y-47999D01*
X83282Y-47923D01*
X83423Y-47783D01*
X83499Y-47599D01*
X83499Y-48401D01*
X83423Y-48218D01*
X83283Y-48077D01*
X83099Y-48001D01*
X82901Y-48001D01*
X82718Y-48077D01*
X82577Y-48217D01*
X82501Y-48401D01*
X82501Y-48599D01*
X82577Y-48782D01*
X82717Y-48923D01*
X82901Y-48999D01*
X83099Y-48999D01*
X83282Y-48923D01*
X83423Y-48783D01*
X83499Y-48599D01*
X83499Y-49651D01*
X83195Y-49525D01*
X82807Y-49525D01*
X82499Y-49652D01*
X82499Y-48599D01*
X82499Y-48401D01*
X82499Y-47599D01*
X82499Y-47401D01*
X82499Y-46599D01*
X82499Y-46401D01*
X82499Y-45599D01*
X82499Y-45401D01*
X82499Y-44599D01*
X82499Y-44401D01*
X82499Y-43599D01*
X82499Y-43401D01*
X82499Y-42599D01*
X82499Y-42401D01*
X82499Y-41599D01*
X82499Y-41401D01*
X82499Y-40599D01*
X82499Y-40401D01*
X82499Y-39599D01*
X82499Y-39401D01*
X82499Y-38599D01*
X82499Y-38401D01*
X82499Y-37599D01*
X82499Y-37401D01*
X82499Y-36599D01*
X82499Y-36401D01*
X82499Y-35599D01*
X82499Y-35401D01*
X82499Y-34599D01*
X82499Y-34401D01*
X82499Y-33599D01*
X82499Y-33401D01*
X82499Y-32599D01*
X82499Y-32401D01*
X82499Y-31599D01*
X82499Y-31401D01*
X82423Y-31218D01*
X82283Y-31077D01*
X82099Y-31001D01*
X81901Y-31001D01*
X81718Y-31077D01*
X81577Y-31217D01*
X81501Y-31401D01*
X81501Y-31599D01*
X81577Y-31782D01*
X81717Y-31923D01*
X81901Y-31999D01*
X82099Y-31999D01*
X82282Y-31923D01*
X82423Y-31783D01*
X82499Y-31599D01*
X82499Y-32401D01*
X82423Y-32218D01*
X82283Y-32077D01*
X82099Y-32001D01*
X81901Y-32001D01*
X81718Y-32077D01*
X81577Y-32217D01*
X81501Y-32401D01*
X81501Y-32599D01*
X81577Y-32782D01*
X81717Y-32923D01*
X81901Y-32999D01*
X82099Y-32999D01*
X82282Y-32923D01*
X82423Y-32783D01*
X82499Y-32599D01*
X82499Y-33401D01*
X82423Y-33218D01*
X82283Y-33077D01*
X82099Y-33001D01*
X81901Y-33001D01*
X81718Y-33077D01*
X81577Y-33217D01*
X81501Y-33401D01*
X81501Y-33599D01*
X81577Y-33782D01*
X81717Y-33923D01*
X81901Y-33999D01*
X82099Y-33999D01*
X82282Y-33923D01*
X82423Y-33783D01*
X82499Y-33599D01*
X82499Y-34401D01*
X82423Y-34218D01*
X82283Y-34077D01*
X82099Y-34001D01*
X81901Y-34001D01*
X81718Y-34077D01*
X81577Y-34217D01*
X81501Y-34401D01*
X81501Y-34599D01*
X81577Y-34782D01*
X81717Y-34923D01*
X81901Y-34999D01*
X82099Y-34999D01*
X82282Y-34923D01*
X82423Y-34783D01*
X82499Y-34599D01*
X82499Y-35401D01*
X82423Y-35218D01*
X82283Y-35077D01*
X82099Y-35001D01*
X81901Y-35001D01*
X81718Y-35077D01*
X81577Y-35217D01*
X81501Y-35401D01*
X81501Y-35599D01*
X81577Y-35782D01*
X81717Y-35923D01*
X81901Y-35999D01*
X82099Y-35999D01*
X82282Y-35923D01*
X82423Y-35783D01*
X82499Y-35599D01*
X82499Y-36401D01*
X82423Y-36218D01*
X82283Y-36077D01*
X82099Y-36001D01*
X81901Y-36001D01*
X81718Y-36077D01*
X81577Y-36217D01*
X81501Y-36401D01*
X81501Y-36599D01*
X81577Y-36782D01*
X81717Y-36923D01*
X81901Y-36999D01*
X82099Y-36999D01*
X82282Y-36923D01*
X82423Y-36783D01*
X82499Y-36599D01*
X82499Y-37401D01*
X82423Y-37218D01*
X82283Y-37077D01*
X82099Y-37001D01*
X81901Y-37001D01*
X81718Y-37077D01*
X81577Y-37217D01*
X81501Y-37401D01*
X81501Y-37599D01*
X81577Y-37782D01*
X81717Y-37923D01*
X81901Y-37999D01*
X82099Y-37999D01*
X82282Y-37923D01*
X82423Y-37783D01*
X82499Y-37599D01*
X82499Y-38401D01*
X82423Y-38218D01*
X82283Y-38077D01*
X82099Y-38001D01*
X81901Y-38001D01*
X81718Y-38077D01*
X81577Y-38217D01*
X81501Y-38401D01*
X81501Y-38599D01*
X81577Y-38782D01*
X81717Y-38923D01*
X81901Y-38999D01*
X82099Y-38999D01*
X82282Y-38923D01*
X82423Y-38783D01*
X82499Y-38599D01*
X82499Y-39401D01*
X82423Y-39218D01*
X82283Y-39077D01*
X82099Y-39001D01*
X81901Y-39001D01*
X81718Y-39077D01*
X81577Y-39217D01*
X81501Y-39401D01*
X81501Y-39599D01*
X81577Y-39782D01*
X81717Y-39923D01*
X81901Y-39999D01*
X82099Y-39999D01*
X82282Y-39923D01*
X82423Y-39783D01*
X82499Y-39599D01*
X82499Y-40401D01*
X82423Y-40218D01*
X82283Y-40077D01*
X82099Y-40001D01*
X81901Y-40001D01*
X81718Y-40077D01*
X81577Y-40217D01*
X81501Y-40401D01*
X81501Y-40599D01*
X81577Y-40782D01*
X81717Y-40923D01*
X81901Y-40999D01*
X82099Y-40999D01*
X82282Y-40923D01*
X82423Y-40783D01*
X82499Y-40599D01*
X82499Y-41401D01*
X82423Y-41218D01*
X82283Y-41077D01*
X82099Y-41001D01*
X81901Y-41001D01*
X81718Y-41077D01*
X81577Y-41217D01*
X81501Y-41401D01*
X81501Y-41599D01*
X81577Y-41782D01*
X81717Y-41923D01*
X81901Y-41999D01*
X82099Y-41999D01*
X82282Y-41923D01*
X82423Y-41783D01*
X82499Y-41599D01*
X82499Y-42401D01*
X82423Y-42218D01*
X82283Y-42077D01*
X82099Y-42001D01*
X81901Y-42001D01*
X81718Y-42077D01*
X81577Y-42217D01*
X81501Y-42401D01*
X81501Y-42599D01*
X81577Y-42782D01*
X81717Y-42923D01*
X81901Y-42999D01*
X82099Y-42999D01*
X82282Y-42923D01*
X82423Y-42783D01*
X82499Y-42599D01*
X82499Y-43401D01*
X82423Y-43218D01*
X82283Y-43077D01*
X82099Y-43001D01*
X81901Y-43001D01*
X81718Y-43077D01*
X81577Y-43217D01*
X81501Y-43401D01*
X81501Y-43599D01*
X81577Y-43782D01*
X81717Y-43923D01*
X81901Y-43999D01*
X82099Y-43999D01*
X82282Y-43923D01*
X82423Y-43783D01*
X82499Y-43599D01*
X82499Y-44401D01*
X82423Y-44218D01*
X82283Y-44077D01*
X82099Y-44001D01*
X81901Y-44001D01*
X81718Y-44077D01*
X81577Y-44217D01*
X81501Y-44401D01*
X81501Y-44599D01*
X81577Y-44782D01*
X81717Y-44923D01*
X81901Y-44999D01*
X82099Y-44999D01*
X82282Y-44923D01*
X82423Y-44783D01*
X82499Y-44599D01*
X82499Y-45401D01*
X82423Y-45218D01*
X82283Y-45077D01*
X82099Y-45001D01*
X81901Y-45001D01*
X81718Y-45077D01*
X81577Y-45217D01*
X81501Y-45401D01*
X81501Y-45599D01*
X81577Y-45782D01*
X81717Y-45923D01*
X81901Y-45999D01*
X82099Y-45999D01*
X82282Y-45923D01*
X82423Y-45783D01*
X82499Y-45599D01*
X82499Y-46401D01*
X82423Y-46218D01*
X82283Y-46077D01*
X82099Y-46001D01*
X81901Y-46001D01*
X81718Y-46077D01*
X81577Y-46217D01*
X81501Y-46401D01*
X81501Y-46599D01*
X81577Y-46782D01*
X81717Y-46923D01*
X81901Y-46999D01*
X82099Y-46999D01*
X82282Y-46923D01*
X82423Y-46783D01*
X82499Y-46599D01*
X82499Y-47401D01*
X82423Y-47218D01*
X82283Y-47077D01*
X82099Y-47001D01*
X81901Y-47001D01*
X81718Y-47077D01*
X81577Y-47217D01*
X81501Y-47401D01*
X81501Y-47599D01*
X81577Y-47782D01*
X81717Y-47923D01*
X81901Y-47999D01*
X82099Y-47999D01*
X82282Y-47923D01*
X82423Y-47783D01*
X82499Y-47599D01*
X82499Y-48401D01*
X82423Y-48218D01*
X82283Y-48077D01*
X82099Y-48001D01*
X81901Y-48001D01*
X81718Y-48077D01*
X81577Y-48217D01*
X81501Y-48401D01*
X81501Y-48599D01*
X81577Y-48782D01*
X81717Y-48923D01*
X81901Y-48999D01*
X82099Y-48999D01*
X82282Y-48923D01*
X82423Y-48783D01*
X82499Y-48599D01*
X82499Y-49652D01*
X82449Y-49673D01*
X82174Y-49947D01*
X82025Y-50305D01*
X82025Y-50693D01*
X82173Y-51051D01*
X82376Y-51255D01*
X81490Y-51255D01*
X81490Y-50811D01*
X81490Y-50616D01*
X81490Y-50190D01*
X81416Y-50010D01*
X81278Y-49872D01*
X81098Y-49797D01*
X80903Y-49797D01*
X80723Y-49871D01*
X80585Y-50009D01*
X80510Y-50189D01*
X80510Y-50384D01*
X80510Y-50810D01*
X80584Y-50990D01*
X80722Y-51128D01*
X80902Y-51203D01*
X81097Y-51203D01*
X81277Y-51129D01*
X81415Y-50991D01*
X81490Y-50811D01*
X81490Y-51255D01*
X80490Y-51255D01*
X80490Y-50811D01*
X80490Y-50616D01*
X80490Y-50190D01*
X80416Y-50010D01*
X80278Y-49872D01*
X80098Y-49797D01*
X79903Y-49797D01*
X79723Y-49871D01*
X79609Y-49985D01*
X79609Y-49104D01*
X79609Y-48955D01*
X79552Y-48817D01*
X79490Y-48755D01*
X79490Y-31811D01*
X79490Y-31616D01*
X79490Y-31190D01*
X79416Y-31010D01*
X79278Y-30872D01*
X79098Y-30797D01*
X78903Y-30797D01*
X78723Y-30871D01*
X78585Y-31009D01*
X78510Y-31189D01*
X78510Y-31384D01*
X78510Y-31810D01*
X78584Y-31990D01*
X78722Y-32128D01*
X78902Y-32203D01*
X79097Y-32203D01*
X79277Y-32129D01*
X79415Y-31991D01*
X79490Y-31811D01*
X79490Y-48755D01*
X79447Y-48712D01*
X79309Y-48654D01*
X79198Y-48654D01*
X79141Y-48596D01*
X79141Y-44603D01*
X79131Y-44349D01*
X79099Y-44270D01*
X79099Y-37619D01*
X79099Y-37381D01*
X79008Y-37161D01*
X78839Y-36992D01*
X78619Y-36901D01*
X78490Y-36901D01*
X78490Y-31811D01*
X78490Y-31616D01*
X78490Y-31190D01*
X78416Y-31010D01*
X78278Y-30872D01*
X78098Y-30797D01*
X77903Y-30797D01*
X77723Y-30871D01*
X77585Y-31009D01*
X77510Y-31189D01*
X77510Y-31384D01*
X77510Y-31810D01*
X77584Y-31990D01*
X77722Y-32128D01*
X77902Y-32203D01*
X78097Y-32203D01*
X78277Y-32129D01*
X78415Y-31991D01*
X78490Y-31811D01*
X78490Y-36901D01*
X78466Y-36901D01*
X78150Y-36584D01*
X78150Y-34697D01*
X78258Y-34589D01*
X78349Y-34369D01*
X78349Y-34131D01*
X78258Y-33911D01*
X78089Y-33742D01*
X77869Y-33651D01*
X77631Y-33651D01*
X77490Y-33709D01*
X77490Y-31811D01*
X77490Y-31616D01*
X77490Y-31190D01*
X77416Y-31010D01*
X77278Y-30872D01*
X77098Y-30797D01*
X76903Y-30797D01*
X76723Y-30871D01*
X76585Y-31009D01*
X76510Y-31189D01*
X76510Y-31384D01*
X76510Y-31810D01*
X76584Y-31990D01*
X76722Y-32128D01*
X76902Y-32203D01*
X77097Y-32203D01*
X77277Y-32129D01*
X77415Y-31991D01*
X77490Y-31811D01*
X77490Y-33709D01*
X77411Y-33742D01*
X77242Y-33911D01*
X77151Y-34131D01*
X77151Y-34369D01*
X77242Y-34589D01*
X77350Y-34697D01*
X77350Y-36750D01*
X77380Y-36903D01*
X77467Y-37033D01*
X77901Y-37466D01*
X77901Y-37619D01*
X77992Y-37839D01*
X78161Y-38008D01*
X78381Y-38099D01*
X78619Y-38099D01*
X78839Y-38008D01*
X79008Y-37839D01*
X79099Y-37619D01*
X79099Y-44270D01*
X79054Y-44160D01*
X78949Y-44122D01*
X78878Y-44193D01*
X78878Y-44051D01*
X78840Y-43946D01*
X78603Y-43859D01*
X78349Y-43869D01*
X78160Y-43946D01*
X78122Y-44051D01*
X78500Y-44429D01*
X78878Y-44051D01*
X78878Y-44193D01*
X78571Y-44500D01*
X78949Y-44878D01*
X79054Y-44840D01*
X79141Y-44603D01*
X79141Y-48596D01*
X79082Y-48537D01*
X79004Y-48485D01*
X78912Y-48467D01*
X78878Y-48467D01*
X78878Y-44949D01*
X78500Y-44571D01*
X78122Y-44949D01*
X78160Y-45054D01*
X78397Y-45141D01*
X78651Y-45131D01*
X78840Y-45054D01*
X78878Y-44949D01*
X78878Y-48467D01*
X78449Y-48467D01*
X78449Y-46190D01*
X78449Y-46111D01*
X78449Y-45311D01*
X78419Y-45238D01*
X78363Y-45182D01*
X78290Y-45151D01*
X78211Y-45151D01*
X77711Y-45151D01*
X77638Y-45181D01*
X77582Y-45237D01*
X77551Y-45310D01*
X77551Y-45389D01*
X77551Y-46189D01*
X77581Y-46262D01*
X77600Y-46281D01*
X77600Y-46287D01*
X77391Y-46496D01*
X77400Y-46453D01*
X77400Y-46281D01*
X77418Y-46263D01*
X77449Y-46190D01*
X77449Y-46111D01*
X77449Y-45311D01*
X77419Y-45238D01*
X77363Y-45182D01*
X77290Y-45151D01*
X77211Y-45151D01*
X76711Y-45151D01*
X76638Y-45181D01*
X76582Y-45237D01*
X76551Y-45310D01*
X76551Y-45389D01*
X76551Y-46053D01*
X76449Y-46053D01*
X76449Y-45311D01*
X76419Y-45238D01*
X76363Y-45182D01*
X76290Y-45151D01*
X76211Y-45151D01*
X75847Y-45151D01*
X75847Y-45099D01*
X75939Y-45099D01*
X76012Y-45069D01*
X76068Y-45013D01*
X76097Y-44944D01*
X76161Y-45008D01*
X76381Y-45099D01*
X76619Y-45099D01*
X76839Y-45008D01*
X77000Y-44847D01*
X77161Y-45008D01*
X77381Y-45099D01*
X77619Y-45099D01*
X77839Y-45008D01*
X77990Y-44856D01*
X78051Y-44878D01*
X78429Y-44500D01*
X78051Y-44122D01*
X77990Y-44143D01*
X77839Y-43992D01*
X77619Y-43901D01*
X77381Y-43901D01*
X77161Y-43992D01*
X77000Y-44153D01*
X76849Y-44002D01*
X76849Y-34690D01*
X76849Y-34611D01*
X76849Y-33811D01*
X76819Y-33738D01*
X76763Y-33682D01*
X76690Y-33651D01*
X76611Y-33651D01*
X76490Y-33651D01*
X76490Y-31811D01*
X76490Y-31616D01*
X76490Y-31190D01*
X76416Y-31010D01*
X76278Y-30872D01*
X76098Y-30797D01*
X75903Y-30797D01*
X75723Y-30871D01*
X75585Y-31009D01*
X75510Y-31189D01*
X75510Y-31384D01*
X75510Y-31810D01*
X75584Y-31990D01*
X75722Y-32128D01*
X75902Y-32203D01*
X76097Y-32203D01*
X76277Y-32129D01*
X76415Y-31991D01*
X76490Y-31811D01*
X76490Y-33651D01*
X75811Y-33651D01*
X75738Y-33681D01*
X75682Y-33737D01*
X75651Y-33810D01*
X75651Y-33889D01*
X75651Y-34283D01*
X75490Y-34444D01*
X75490Y-31811D01*
X75490Y-31616D01*
X75490Y-31190D01*
X75416Y-31010D01*
X75278Y-30872D01*
X75098Y-30797D01*
X74903Y-30797D01*
X74723Y-30871D01*
X74585Y-31009D01*
X74510Y-31189D01*
X74510Y-31384D01*
X74510Y-31810D01*
X74584Y-31990D01*
X74722Y-32128D01*
X74902Y-32203D01*
X75097Y-32203D01*
X75277Y-32129D01*
X75415Y-31991D01*
X75490Y-31811D01*
X75490Y-34444D01*
X75217Y-34717D01*
X75130Y-34847D01*
X75100Y-35000D01*
X75100Y-37053D01*
X74992Y-37161D01*
X74901Y-37381D01*
X74901Y-37619D01*
X74992Y-37839D01*
X75161Y-38008D01*
X75381Y-38099D01*
X75619Y-38099D01*
X75839Y-38008D01*
X76008Y-37839D01*
X76099Y-37619D01*
X76099Y-37381D01*
X76008Y-37161D01*
X75900Y-37053D01*
X75900Y-35165D01*
X76216Y-34849D01*
X76689Y-34849D01*
X76762Y-34819D01*
X76818Y-34763D01*
X76849Y-34690D01*
X76849Y-44002D01*
X76839Y-43992D01*
X76619Y-43901D01*
X76381Y-43901D01*
X76161Y-43992D01*
X76096Y-44056D01*
X76069Y-43988D01*
X76013Y-43932D01*
X75940Y-43901D01*
X75861Y-43901D01*
X75061Y-43901D01*
X74988Y-43931D01*
X74932Y-43987D01*
X74901Y-44060D01*
X74901Y-44139D01*
X74901Y-44939D01*
X74931Y-45012D01*
X74987Y-45068D01*
X75047Y-45093D01*
X75047Y-46275D01*
X75077Y-46428D01*
X75164Y-46558D01*
X75339Y-46733D01*
X75342Y-46736D01*
X75471Y-46822D01*
X75472Y-46823D01*
X75594Y-46846D01*
X75624Y-46853D01*
X75624Y-46852D01*
X75625Y-46853D01*
X77000Y-46853D01*
X77042Y-46844D01*
X76881Y-47006D01*
X74490Y-47006D01*
X74490Y-31811D01*
X74490Y-31616D01*
X74490Y-31190D01*
X74416Y-31010D01*
X74278Y-30872D01*
X74098Y-30797D01*
X73903Y-30797D01*
X73723Y-30871D01*
X73585Y-31009D01*
X73510Y-31189D01*
X73510Y-31384D01*
X73510Y-31810D01*
X73584Y-31990D01*
X73722Y-32128D01*
X73902Y-32203D01*
X74097Y-32203D01*
X74277Y-32129D01*
X74415Y-31991D01*
X74490Y-31811D01*
X74490Y-47006D01*
X73490Y-47006D01*
X73490Y-31811D01*
X73490Y-31616D01*
X73490Y-31190D01*
X73416Y-31010D01*
X73278Y-30872D01*
X73098Y-30797D01*
X72903Y-30797D01*
X72723Y-30871D01*
X72585Y-31009D01*
X72510Y-31189D01*
X72510Y-31384D01*
X72510Y-31810D01*
X72584Y-31990D01*
X72722Y-32128D01*
X72902Y-32203D01*
X73097Y-32203D01*
X73277Y-32129D01*
X73415Y-31991D01*
X73490Y-31811D01*
X73490Y-47006D01*
X72490Y-47006D01*
X72490Y-31811D01*
X72490Y-31616D01*
X72490Y-31190D01*
X72416Y-31010D01*
X72278Y-30872D01*
X72098Y-30797D01*
X71903Y-30797D01*
X71723Y-30871D01*
X71585Y-31009D01*
X71510Y-31189D01*
X71510Y-31384D01*
X71510Y-31810D01*
X71584Y-31990D01*
X71722Y-32128D01*
X71902Y-32203D01*
X72097Y-32203D01*
X72277Y-32129D01*
X72415Y-31991D01*
X72490Y-31811D01*
X72490Y-47006D01*
X71641Y-47006D01*
X71641Y-44603D01*
X71631Y-44349D01*
X71599Y-44270D01*
X71599Y-37619D01*
X71599Y-37381D01*
X71508Y-37161D01*
X71339Y-36992D01*
X71119Y-36901D01*
X70966Y-36901D01*
X70650Y-36584D01*
X70650Y-34697D01*
X70758Y-34589D01*
X70849Y-34369D01*
X70849Y-34131D01*
X70758Y-33911D01*
X70589Y-33742D01*
X70490Y-33701D01*
X70490Y-31811D01*
X70490Y-31616D01*
X70490Y-31190D01*
X70416Y-31010D01*
X70278Y-30872D01*
X70098Y-30797D01*
X69903Y-30797D01*
X69723Y-30871D01*
X69585Y-31009D01*
X69510Y-31189D01*
X69510Y-31384D01*
X69510Y-31810D01*
X69584Y-31990D01*
X69722Y-32128D01*
X69902Y-32203D01*
X70097Y-32203D01*
X70277Y-32129D01*
X70415Y-31991D01*
X70490Y-31811D01*
X70490Y-33701D01*
X70369Y-33651D01*
X70131Y-33651D01*
X69911Y-33742D01*
X69742Y-33911D01*
X69651Y-34131D01*
X69651Y-34369D01*
X69742Y-34589D01*
X69850Y-34697D01*
X69850Y-36750D01*
X69880Y-36903D01*
X69967Y-37033D01*
X70401Y-37466D01*
X70401Y-37619D01*
X70492Y-37839D01*
X70661Y-38008D01*
X70881Y-38099D01*
X71119Y-38099D01*
X71339Y-38008D01*
X71508Y-37839D01*
X71599Y-37619D01*
X71599Y-44270D01*
X71554Y-44160D01*
X71449Y-44122D01*
X71378Y-44193D01*
X71378Y-44051D01*
X71340Y-43946D01*
X71103Y-43859D01*
X70849Y-43869D01*
X70660Y-43946D01*
X70622Y-44051D01*
X71000Y-44429D01*
X71378Y-44051D01*
X71378Y-44193D01*
X71071Y-44500D01*
X71449Y-44878D01*
X71554Y-44840D01*
X71641Y-44603D01*
X71641Y-47006D01*
X71619Y-47006D01*
X71383Y-46770D01*
X71379Y-46767D01*
X71378Y-46765D01*
X71378Y-44949D01*
X71000Y-44571D01*
X70929Y-44642D01*
X70929Y-44500D01*
X70551Y-44122D01*
X70490Y-44143D01*
X70339Y-43992D01*
X70119Y-43901D01*
X69881Y-43901D01*
X69661Y-43992D01*
X69500Y-44153D01*
X69490Y-44143D01*
X69490Y-31811D01*
X69490Y-31616D01*
X69490Y-31190D01*
X69416Y-31010D01*
X69278Y-30872D01*
X69098Y-30797D01*
X68903Y-30797D01*
X68723Y-30871D01*
X68585Y-31009D01*
X68510Y-31189D01*
X68510Y-31384D01*
X68510Y-31810D01*
X68584Y-31990D01*
X68722Y-32128D01*
X68902Y-32203D01*
X69097Y-32203D01*
X69277Y-32129D01*
X69415Y-31991D01*
X69490Y-31811D01*
X69490Y-44143D01*
X69349Y-44002D01*
X69349Y-34690D01*
X69349Y-34611D01*
X69349Y-33811D01*
X69319Y-33738D01*
X69263Y-33682D01*
X69190Y-33651D01*
X69111Y-33651D01*
X68490Y-33651D01*
X68490Y-31811D01*
X68490Y-31616D01*
X68490Y-31190D01*
X68416Y-31010D01*
X68278Y-30872D01*
X68098Y-30797D01*
X67903Y-30797D01*
X67723Y-30871D01*
X67585Y-31009D01*
X67510Y-31189D01*
X67510Y-31384D01*
X67510Y-31810D01*
X67584Y-31990D01*
X67722Y-32128D01*
X67902Y-32203D01*
X68097Y-32203D01*
X68277Y-32129D01*
X68415Y-31991D01*
X68490Y-31811D01*
X68490Y-33651D01*
X68311Y-33651D01*
X68238Y-33681D01*
X68182Y-33737D01*
X68151Y-33810D01*
X68151Y-33889D01*
X68151Y-34283D01*
X67717Y-34717D01*
X67630Y-34847D01*
X67600Y-35000D01*
X67600Y-37053D01*
X67492Y-37161D01*
X67490Y-37165D01*
X67490Y-31811D01*
X67490Y-31616D01*
X67490Y-31190D01*
X67416Y-31010D01*
X67278Y-30872D01*
X67098Y-30797D01*
X66903Y-30797D01*
X66723Y-30871D01*
X66585Y-31009D01*
X66510Y-31189D01*
X66510Y-31384D01*
X66510Y-31810D01*
X66584Y-31990D01*
X66722Y-32128D01*
X66902Y-32203D01*
X67097Y-32203D01*
X67277Y-32129D01*
X67415Y-31991D01*
X67490Y-31811D01*
X67490Y-37165D01*
X67401Y-37381D01*
X67401Y-37619D01*
X67492Y-37839D01*
X67661Y-38008D01*
X67881Y-38099D01*
X68119Y-38099D01*
X68339Y-38008D01*
X68508Y-37839D01*
X68599Y-37619D01*
X68599Y-37381D01*
X68508Y-37161D01*
X68400Y-37053D01*
X68400Y-35165D01*
X68716Y-34849D01*
X69189Y-34849D01*
X69262Y-34819D01*
X69318Y-34763D01*
X69349Y-34690D01*
X69349Y-44002D01*
X69339Y-43992D01*
X69119Y-43901D01*
X68881Y-43901D01*
X68661Y-43992D01*
X68596Y-44056D01*
X68569Y-43988D01*
X68513Y-43932D01*
X68440Y-43901D01*
X68361Y-43901D01*
X67561Y-43901D01*
X67488Y-43931D01*
X67432Y-43987D01*
X67401Y-44060D01*
X67401Y-44139D01*
X67401Y-44939D01*
X67431Y-45012D01*
X67487Y-45068D01*
X67546Y-45093D01*
X67546Y-46337D01*
X67576Y-46490D01*
X67663Y-46620D01*
X67779Y-46736D01*
X67909Y-46823D01*
X68062Y-46853D01*
X69500Y-46853D01*
X69653Y-46823D01*
X69783Y-46736D01*
X69870Y-46606D01*
X69900Y-46453D01*
X69900Y-46281D01*
X69918Y-46263D01*
X69949Y-46190D01*
X69949Y-46111D01*
X69949Y-45311D01*
X69919Y-45238D01*
X69863Y-45182D01*
X69790Y-45151D01*
X69711Y-45151D01*
X69211Y-45151D01*
X69138Y-45181D01*
X69082Y-45237D01*
X69051Y-45310D01*
X69051Y-45389D01*
X69051Y-46053D01*
X68949Y-46053D01*
X68949Y-45311D01*
X68919Y-45238D01*
X68863Y-45182D01*
X68790Y-45151D01*
X68711Y-45151D01*
X68346Y-45151D01*
X68346Y-45099D01*
X68439Y-45099D01*
X68512Y-45069D01*
X68568Y-45013D01*
X68597Y-44944D01*
X68661Y-45008D01*
X68881Y-45099D01*
X69119Y-45099D01*
X69339Y-45008D01*
X69500Y-44847D01*
X69661Y-45008D01*
X69881Y-45099D01*
X70119Y-45099D01*
X70339Y-45008D01*
X70490Y-44856D01*
X70551Y-44878D01*
X70929Y-44500D01*
X70929Y-44642D01*
X70622Y-44949D01*
X70660Y-45054D01*
X70897Y-45141D01*
X71151Y-45131D01*
X71340Y-45054D01*
X71378Y-44949D01*
X71378Y-46765D01*
X70900Y-46287D01*
X70900Y-46281D01*
X70918Y-46263D01*
X70949Y-46190D01*
X70949Y-46111D01*
X70949Y-45311D01*
X70919Y-45238D01*
X70863Y-45182D01*
X70790Y-45151D01*
X70711Y-45151D01*
X70211Y-45151D01*
X70138Y-45181D01*
X70082Y-45237D01*
X70051Y-45310D01*
X70051Y-45389D01*
X70051Y-46189D01*
X70081Y-46262D01*
X70100Y-46281D01*
X70100Y-46453D01*
X70130Y-46606D01*
X70217Y-46736D01*
X70534Y-47052D01*
X70370Y-47217D01*
X70283Y-47347D01*
X70253Y-47500D01*
X70283Y-47653D01*
X70370Y-47783D01*
X70500Y-47870D01*
X70653Y-47900D01*
X70806Y-47870D01*
X70936Y-47783D01*
X71100Y-47619D01*
X71170Y-47689D01*
X71299Y-47776D01*
X71300Y-47776D01*
X71453Y-47806D01*
X76798Y-47806D01*
X76894Y-47870D01*
X77047Y-47900D01*
X77200Y-47870D01*
X77330Y-47783D01*
X77417Y-47653D01*
X77429Y-47589D01*
X78279Y-46738D01*
X78282Y-46736D01*
X78283Y-46736D01*
X78369Y-46607D01*
X78370Y-46606D01*
X78393Y-46484D01*
X78400Y-46454D01*
X78399Y-46453D01*
X78400Y-46453D01*
X78400Y-46281D01*
X78418Y-46263D01*
X78449Y-46190D01*
X78449Y-48467D01*
X78000Y-48467D01*
X77908Y-48485D01*
X77830Y-48537D01*
X77778Y-48615D01*
X77770Y-48651D01*
X77711Y-48651D01*
X77638Y-48681D01*
X77582Y-48737D01*
X77551Y-48810D01*
X77551Y-48889D01*
X77551Y-49689D01*
X77581Y-49762D01*
X77637Y-49818D01*
X77710Y-49849D01*
X77776Y-49849D01*
X77723Y-49871D01*
X77585Y-50009D01*
X77510Y-50189D01*
X77510Y-50384D01*
X77510Y-50810D01*
X77584Y-50990D01*
X77722Y-51128D01*
X77902Y-51203D01*
X78097Y-51203D01*
X78277Y-51129D01*
X78415Y-50991D01*
X78490Y-50811D01*
X78490Y-50616D01*
X78490Y-50190D01*
X78416Y-50010D01*
X78278Y-49872D01*
X78222Y-49849D01*
X78289Y-49849D01*
X78362Y-49819D01*
X78418Y-49763D01*
X78449Y-49690D01*
X78449Y-49611D01*
X78449Y-48947D01*
X78812Y-48947D01*
X78859Y-48993D01*
X78859Y-49103D01*
X78916Y-49241D01*
X79021Y-49346D01*
X79159Y-49404D01*
X79308Y-49404D01*
X79446Y-49347D01*
X79551Y-49242D01*
X79609Y-49104D01*
X79609Y-49985D01*
X79585Y-50009D01*
X79510Y-50189D01*
X79510Y-50384D01*
X79510Y-50810D01*
X79584Y-50990D01*
X79722Y-51128D01*
X79902Y-51203D01*
X80097Y-51203D01*
X80277Y-51129D01*
X80415Y-50991D01*
X80490Y-50811D01*
X80490Y-51255D01*
X79490Y-51255D01*
X79490Y-50811D01*
X79490Y-50616D01*
X79490Y-50190D01*
X79416Y-50010D01*
X79278Y-49872D01*
X79098Y-49797D01*
X78903Y-49797D01*
X78723Y-49871D01*
X78585Y-50009D01*
X78510Y-50189D01*
X78510Y-50384D01*
X78510Y-50810D01*
X78584Y-50990D01*
X78722Y-51128D01*
X78902Y-51203D01*
X79097Y-51203D01*
X79277Y-51129D01*
X79415Y-50991D01*
X79490Y-50811D01*
X79490Y-51255D01*
X77500Y-51255D01*
X77500Y-49362D01*
X77500Y-49138D01*
X77499Y-48801D01*
X77461Y-48709D01*
X77391Y-48639D01*
X77300Y-48601D01*
X77201Y-48601D01*
X77112Y-48600D01*
X77050Y-48662D01*
X77050Y-49200D01*
X77438Y-49200D01*
X77500Y-49138D01*
X77500Y-49362D01*
X77438Y-49300D01*
X77100Y-49300D01*
X77050Y-49300D01*
X76950Y-49300D01*
X76950Y-49200D01*
X76950Y-48662D01*
X76888Y-48600D01*
X76799Y-48601D01*
X76700Y-48601D01*
X76609Y-48639D01*
X76539Y-48709D01*
X76501Y-48801D01*
X76500Y-49138D01*
X76562Y-49200D01*
X76950Y-49200D01*
X76950Y-49300D01*
X76900Y-49300D01*
X76562Y-49300D01*
X76500Y-49362D01*
X76501Y-49699D01*
X76539Y-49791D01*
X76609Y-49861D01*
X76696Y-49897D01*
X76585Y-50009D01*
X76510Y-50189D01*
X76510Y-50384D01*
X76510Y-50810D01*
X76584Y-50990D01*
X76722Y-51128D01*
X76902Y-51203D01*
X77097Y-51203D01*
X77277Y-51129D01*
X77415Y-50991D01*
X77490Y-50811D01*
X77490Y-50616D01*
X77490Y-50190D01*
X77416Y-50010D01*
X77303Y-49897D01*
X77391Y-49861D01*
X77461Y-49791D01*
X77499Y-49699D01*
X77500Y-49362D01*
X77500Y-51255D01*
X76490Y-51255D01*
X76490Y-50811D01*
X76490Y-50616D01*
X76490Y-50190D01*
X76416Y-50010D01*
X76278Y-49872D01*
X76222Y-49849D01*
X76289Y-49849D01*
X76362Y-49819D01*
X76418Y-49763D01*
X76449Y-49690D01*
X76449Y-49611D01*
X76449Y-48811D01*
X76419Y-48738D01*
X76363Y-48682D01*
X76290Y-48651D01*
X76211Y-48651D01*
X75711Y-48651D01*
X75638Y-48681D01*
X75582Y-48737D01*
X75551Y-48810D01*
X75551Y-48889D01*
X75551Y-49689D01*
X75581Y-49762D01*
X75637Y-49818D01*
X75710Y-49849D01*
X75776Y-49849D01*
X75723Y-49871D01*
X75585Y-50009D01*
X75510Y-50189D01*
X75510Y-50384D01*
X75510Y-50810D01*
X75584Y-50990D01*
X75722Y-51128D01*
X75902Y-51203D01*
X76097Y-51203D01*
X76277Y-51129D01*
X76415Y-50991D01*
X76490Y-50811D01*
X76490Y-51255D01*
X75490Y-51255D01*
X75490Y-50811D01*
X75490Y-50616D01*
X75490Y-50190D01*
X75416Y-50010D01*
X75278Y-49872D01*
X75098Y-49797D01*
X74903Y-49797D01*
X74723Y-49871D01*
X74585Y-50009D01*
X74510Y-50189D01*
X74510Y-50384D01*
X74510Y-50810D01*
X74584Y-50990D01*
X74722Y-51128D01*
X74902Y-51203D01*
X75097Y-51203D01*
X75277Y-51129D01*
X75415Y-50991D01*
X75490Y-50811D01*
X75490Y-51255D01*
X74490Y-51255D01*
X74490Y-50811D01*
X74490Y-50616D01*
X74490Y-50190D01*
X74416Y-50010D01*
X74278Y-49872D01*
X74098Y-49797D01*
X73903Y-49797D01*
X73723Y-49871D01*
X73585Y-50009D01*
X73510Y-50189D01*
X73510Y-50384D01*
X73510Y-50810D01*
X73584Y-50990D01*
X73722Y-51128D01*
X73902Y-51203D01*
X74097Y-51203D01*
X74277Y-51129D01*
X74415Y-50991D01*
X74490Y-50811D01*
X74490Y-51255D01*
X72490Y-51255D01*
X72490Y-50811D01*
X72490Y-50616D01*
X72490Y-50190D01*
X72416Y-50010D01*
X72278Y-49872D01*
X72098Y-49797D01*
X71903Y-49797D01*
X71723Y-49871D01*
X71585Y-50009D01*
X71551Y-50090D01*
X71551Y-49196D01*
X71551Y-49047D01*
X71494Y-48909D01*
X71389Y-48804D01*
X71251Y-48746D01*
X71102Y-48746D01*
X70964Y-48803D01*
X70949Y-48818D01*
X70949Y-48811D01*
X70919Y-48738D01*
X70863Y-48682D01*
X70790Y-48651D01*
X70711Y-48651D01*
X70211Y-48651D01*
X70138Y-48681D01*
X70082Y-48737D01*
X70051Y-48810D01*
X70051Y-48889D01*
X70051Y-49689D01*
X70081Y-49762D01*
X70128Y-49809D01*
X70098Y-49797D01*
X69955Y-49797D01*
X69961Y-49791D01*
X69999Y-49699D01*
X70000Y-49362D01*
X70000Y-49138D01*
X69999Y-48801D01*
X69961Y-48709D01*
X69891Y-48639D01*
X69800Y-48601D01*
X69701Y-48601D01*
X69612Y-48600D01*
X69550Y-48662D01*
X69550Y-49200D01*
X69938Y-49200D01*
X70000Y-49138D01*
X70000Y-49362D01*
X69938Y-49300D01*
X69550Y-49300D01*
X69550Y-49838D01*
X69612Y-49900D01*
X69694Y-49899D01*
X69585Y-50009D01*
X69510Y-50189D01*
X69510Y-50384D01*
X69510Y-50810D01*
X69584Y-50990D01*
X69722Y-51128D01*
X69902Y-51203D01*
X70097Y-51203D01*
X70277Y-51129D01*
X70415Y-50991D01*
X70490Y-50811D01*
X70490Y-50616D01*
X70490Y-50190D01*
X70416Y-50010D01*
X70278Y-49872D01*
X70222Y-49849D01*
X70289Y-49849D01*
X70776Y-49849D01*
X70723Y-49871D01*
X70585Y-50009D01*
X70510Y-50189D01*
X70510Y-50384D01*
X70510Y-50810D01*
X70584Y-50990D01*
X70722Y-51128D01*
X70902Y-51203D01*
X71097Y-51203D01*
X71277Y-51129D01*
X71415Y-50991D01*
X71490Y-50811D01*
X71490Y-50616D01*
X71490Y-50190D01*
X71416Y-50010D01*
X71278Y-49872D01*
X71098Y-49797D01*
X70903Y-49797D01*
X70870Y-49810D01*
X70918Y-49763D01*
X70949Y-49690D01*
X70949Y-49611D01*
X70949Y-49490D01*
X71047Y-49490D01*
X71074Y-49484D01*
X71101Y-49496D01*
X71250Y-49496D01*
X71388Y-49439D01*
X71493Y-49334D01*
X71551Y-49196D01*
X71551Y-50090D01*
X71510Y-50189D01*
X71510Y-50384D01*
X71510Y-50810D01*
X71584Y-50990D01*
X71722Y-51128D01*
X71902Y-51203D01*
X72097Y-51203D01*
X72277Y-51129D01*
X72415Y-50991D01*
X72490Y-50811D01*
X72490Y-51255D01*
X69490Y-51255D01*
X69490Y-50811D01*
X69490Y-50616D01*
X69490Y-50190D01*
X69416Y-50010D01*
X69305Y-49899D01*
X69388Y-49900D01*
X69450Y-49838D01*
X69450Y-49300D01*
X69450Y-49200D01*
X69450Y-48662D01*
X69388Y-48600D01*
X69299Y-48601D01*
X69200Y-48601D01*
X69109Y-48639D01*
X69039Y-48709D01*
X69001Y-48801D01*
X69000Y-49138D01*
X69062Y-49200D01*
X69450Y-49200D01*
X69450Y-49300D01*
X69062Y-49300D01*
X69000Y-49362D01*
X69001Y-49699D01*
X69039Y-49791D01*
X69045Y-49797D01*
X68903Y-49797D01*
X68870Y-49810D01*
X68918Y-49763D01*
X68949Y-49690D01*
X68949Y-49611D01*
X68949Y-48811D01*
X68919Y-48738D01*
X68863Y-48682D01*
X68790Y-48651D01*
X68711Y-48651D01*
X68211Y-48651D01*
X68138Y-48681D01*
X68082Y-48737D01*
X68051Y-48810D01*
X68051Y-48889D01*
X68051Y-49689D01*
X68081Y-49762D01*
X68128Y-49809D01*
X68098Y-49797D01*
X67903Y-49797D01*
X67723Y-49871D01*
X67585Y-50009D01*
X67510Y-50189D01*
X67510Y-50384D01*
X67510Y-50810D01*
X67584Y-50990D01*
X67722Y-51128D01*
X67902Y-51203D01*
X68097Y-51203D01*
X68277Y-51129D01*
X68415Y-50991D01*
X68490Y-50811D01*
X68490Y-50616D01*
X68490Y-50190D01*
X68416Y-50010D01*
X68278Y-49872D01*
X68222Y-49849D01*
X68289Y-49849D01*
X68776Y-49849D01*
X68723Y-49871D01*
X68585Y-50009D01*
X68510Y-50189D01*
X68510Y-50384D01*
X68510Y-50810D01*
X68584Y-50990D01*
X68722Y-51128D01*
X68902Y-51203D01*
X69097Y-51203D01*
X69277Y-51129D01*
X69415Y-50991D01*
X69490Y-50811D01*
X69490Y-51255D01*
X67490Y-51255D01*
X67490Y-50811D01*
X67490Y-50616D01*
X67490Y-50190D01*
X67416Y-50010D01*
X67278Y-49872D01*
X67098Y-49797D01*
X66903Y-49797D01*
X66723Y-49871D01*
X66585Y-50009D01*
X66510Y-50189D01*
X66510Y-50384D01*
X66510Y-50810D01*
X66584Y-50990D01*
X66722Y-51128D01*
X66902Y-51203D01*
X67097Y-51203D01*
X67277Y-51129D01*
X67415Y-50991D01*
X67490Y-50811D01*
X67490Y-51255D01*
X66490Y-51255D01*
X66490Y-50811D01*
X66490Y-50616D01*
X66490Y-50190D01*
X66490Y-31811D01*
X66490Y-31616D01*
X66490Y-31190D01*
X66416Y-31010D01*
X66278Y-30872D01*
X66098Y-30797D01*
X65903Y-30797D01*
X65723Y-30871D01*
X65585Y-31009D01*
X65510Y-31189D01*
X65510Y-31384D01*
X65510Y-31810D01*
X65584Y-31990D01*
X65722Y-32128D01*
X65902Y-32203D01*
X66097Y-32203D01*
X66277Y-32129D01*
X66415Y-31991D01*
X66490Y-31811D01*
X66490Y-50190D01*
X66416Y-50010D01*
X66278Y-49872D01*
X66098Y-49797D01*
X65903Y-49797D01*
X65723Y-49871D01*
X65585Y-50009D01*
X65510Y-50189D01*
X65510Y-50384D01*
X65510Y-50810D01*
X65584Y-50990D01*
X65722Y-51128D01*
X65902Y-51203D01*
X66097Y-51203D01*
X66277Y-51129D01*
X66415Y-50991D01*
X66490Y-50811D01*
X66490Y-51255D01*
X65490Y-51255D01*
X65490Y-50811D01*
X65490Y-50616D01*
X65490Y-50190D01*
X65416Y-50010D01*
X65278Y-49872D01*
X65098Y-49797D01*
X64903Y-49797D01*
X64723Y-49871D01*
X64625Y-49969D01*
X64625Y-48825D01*
X64625Y-48676D01*
X64568Y-48538D01*
X64463Y-48433D01*
X64325Y-48375D01*
X64176Y-48375D01*
X64038Y-48432D01*
X64003Y-48467D01*
X63000Y-48467D01*
X62908Y-48485D01*
X62830Y-48537D01*
X62778Y-48615D01*
X62770Y-48651D01*
X62711Y-48651D01*
X62638Y-48681D01*
X62582Y-48737D01*
X62551Y-48810D01*
X62551Y-48889D01*
X62551Y-49689D01*
X62581Y-49762D01*
X62637Y-49818D01*
X62710Y-49849D01*
X62776Y-49849D01*
X62723Y-49871D01*
X62585Y-50009D01*
X62522Y-50158D01*
X62489Y-50043D01*
X62354Y-49876D01*
X62391Y-49861D01*
X62461Y-49791D01*
X62499Y-49699D01*
X62500Y-49362D01*
X62500Y-49138D01*
X62499Y-48801D01*
X62461Y-48709D01*
X62391Y-48639D01*
X62300Y-48601D01*
X62201Y-48601D01*
X62112Y-48600D01*
X62050Y-48662D01*
X62050Y-49200D01*
X62438Y-49200D01*
X62500Y-49138D01*
X62500Y-49362D01*
X62438Y-49300D01*
X62050Y-49300D01*
X62050Y-49815D01*
X62050Y-49838D01*
X62050Y-50400D01*
X62050Y-50450D01*
X62050Y-50550D01*
X62050Y-50600D01*
X62050Y-51185D01*
X62135Y-51232D01*
X62163Y-51228D01*
X62353Y-51125D01*
X62489Y-50957D01*
X62523Y-50841D01*
X62584Y-50990D01*
X62722Y-51128D01*
X62902Y-51203D01*
X63097Y-51203D01*
X63277Y-51129D01*
X63415Y-50991D01*
X63490Y-50811D01*
X63490Y-50616D01*
X63490Y-50190D01*
X63416Y-50010D01*
X63278Y-49872D01*
X63222Y-49849D01*
X63289Y-49849D01*
X63362Y-49819D01*
X63418Y-49763D01*
X63449Y-49690D01*
X63449Y-49611D01*
X63449Y-48947D01*
X63925Y-48947D01*
X63932Y-48962D01*
X64037Y-49067D01*
X64175Y-49125D01*
X64324Y-49125D01*
X64462Y-49068D01*
X64567Y-48963D01*
X64625Y-48825D01*
X64625Y-49969D01*
X64585Y-50009D01*
X64510Y-50189D01*
X64510Y-50384D01*
X64510Y-50810D01*
X64584Y-50990D01*
X64722Y-51128D01*
X64902Y-51203D01*
X65097Y-51203D01*
X65277Y-51129D01*
X65415Y-50991D01*
X65490Y-50811D01*
X65490Y-51255D01*
X61950Y-51255D01*
X61950Y-51185D01*
X61950Y-50550D01*
X61950Y-50450D01*
X61950Y-49838D01*
X61950Y-49815D01*
X61950Y-49300D01*
X61950Y-49200D01*
X61950Y-48662D01*
X61888Y-48600D01*
X61799Y-48601D01*
X61700Y-48601D01*
X61609Y-48639D01*
X61539Y-48709D01*
X61501Y-48801D01*
X61500Y-49138D01*
X61562Y-49200D01*
X61950Y-49200D01*
X61950Y-49300D01*
X61562Y-49300D01*
X61500Y-49362D01*
X61501Y-49699D01*
X61539Y-49791D01*
X61609Y-49861D01*
X61645Y-49876D01*
X61511Y-50043D01*
X61500Y-50080D01*
X61489Y-50043D01*
X61353Y-49875D01*
X61298Y-49845D01*
X61362Y-49819D01*
X61418Y-49763D01*
X61449Y-49690D01*
X61449Y-49611D01*
X61449Y-48811D01*
X61419Y-48738D01*
X61363Y-48682D01*
X61290Y-48651D01*
X61211Y-48651D01*
X60711Y-48651D01*
X60638Y-48681D01*
X60582Y-48737D01*
X60551Y-48810D01*
X60551Y-48889D01*
X60551Y-49689D01*
X60581Y-49762D01*
X60637Y-49818D01*
X60701Y-49845D01*
X60647Y-49875D01*
X60511Y-50043D01*
X60476Y-50158D01*
X60416Y-50010D01*
X60278Y-49872D01*
X60098Y-49797D01*
X59903Y-49797D01*
X59723Y-49871D01*
X59585Y-50009D01*
X59510Y-50189D01*
X59510Y-50384D01*
X59510Y-50810D01*
X59584Y-50990D01*
X59722Y-51128D01*
X59902Y-51203D01*
X60097Y-51203D01*
X60277Y-51129D01*
X60415Y-50991D01*
X60477Y-50841D01*
X60511Y-50957D01*
X60647Y-51125D01*
X60837Y-51228D01*
X60865Y-51232D01*
X60950Y-51185D01*
X60950Y-50600D01*
X60950Y-50550D01*
X60950Y-50450D01*
X61050Y-50450D01*
X61100Y-50450D01*
X61450Y-50450D01*
X61550Y-50450D01*
X61950Y-50450D01*
X61950Y-50550D01*
X61550Y-50550D01*
X61450Y-50550D01*
X61050Y-50550D01*
X61050Y-51185D01*
X61135Y-51232D01*
X61163Y-51228D01*
X61353Y-51125D01*
X61489Y-50957D01*
X61500Y-50919D01*
X61511Y-50957D01*
X61647Y-51125D01*
X61837Y-51228D01*
X61865Y-51232D01*
X61950Y-51185D01*
X61950Y-51255D01*
X59490Y-51255D01*
X59490Y-50811D01*
X59490Y-50616D01*
X59490Y-50190D01*
X59416Y-50010D01*
X59278Y-49872D01*
X59098Y-49797D01*
X58903Y-49797D01*
X58723Y-49871D01*
X58585Y-50009D01*
X58510Y-50189D01*
X58510Y-50384D01*
X58510Y-50810D01*
X58584Y-50990D01*
X58722Y-51128D01*
X58902Y-51203D01*
X59097Y-51203D01*
X59277Y-51129D01*
X59415Y-50991D01*
X59490Y-50811D01*
X59490Y-51255D01*
X58490Y-51255D01*
X58490Y-50811D01*
X58490Y-50616D01*
X58490Y-50190D01*
X58416Y-50010D01*
X58278Y-49872D01*
X58098Y-49797D01*
X57903Y-49797D01*
X57723Y-49871D01*
X57585Y-50009D01*
X57510Y-50189D01*
X57510Y-50384D01*
X57510Y-50810D01*
X57584Y-50990D01*
X57722Y-51128D01*
X57902Y-51203D01*
X58097Y-51203D01*
X58277Y-51129D01*
X58415Y-50991D01*
X58490Y-50811D01*
X58490Y-51255D01*
X57490Y-51255D01*
X57490Y-50811D01*
X57490Y-50616D01*
X57490Y-50190D01*
X57416Y-50010D01*
X57278Y-49872D01*
X57125Y-49808D01*
X57125Y-49273D01*
X57125Y-49124D01*
X57068Y-48986D01*
X56963Y-48881D01*
X56825Y-48823D01*
X56676Y-48823D01*
X56538Y-48880D01*
X56433Y-48985D01*
X56422Y-49010D01*
X55949Y-49010D01*
X55949Y-48811D01*
X55919Y-48738D01*
X55863Y-48682D01*
X55790Y-48651D01*
X55711Y-48651D01*
X55211Y-48651D01*
X55138Y-48681D01*
X55082Y-48737D01*
X55051Y-48810D01*
X55051Y-48889D01*
X55051Y-49689D01*
X55081Y-49762D01*
X55137Y-49818D01*
X55210Y-49849D01*
X55289Y-49849D01*
X55776Y-49849D01*
X55723Y-49871D01*
X55585Y-50009D01*
X55510Y-50189D01*
X55510Y-50384D01*
X55510Y-50810D01*
X55584Y-50990D01*
X55722Y-51128D01*
X55902Y-51203D01*
X56097Y-51203D01*
X56277Y-51129D01*
X56415Y-50991D01*
X56490Y-50811D01*
X56490Y-50616D01*
X56490Y-50190D01*
X56416Y-50010D01*
X56278Y-49872D01*
X56098Y-49797D01*
X55903Y-49797D01*
X55870Y-49810D01*
X55918Y-49763D01*
X55949Y-49690D01*
X55949Y-49611D01*
X55949Y-49490D01*
X56512Y-49490D01*
X56537Y-49515D01*
X56675Y-49573D01*
X56824Y-49573D01*
X56962Y-49516D01*
X57067Y-49411D01*
X57125Y-49273D01*
X57125Y-49808D01*
X57098Y-49797D01*
X56903Y-49797D01*
X56723Y-49871D01*
X56585Y-50009D01*
X56510Y-50189D01*
X56510Y-50384D01*
X56510Y-50810D01*
X56584Y-50990D01*
X56722Y-51128D01*
X56902Y-51203D01*
X57097Y-51203D01*
X57277Y-51129D01*
X57415Y-50991D01*
X57490Y-50811D01*
X57490Y-51255D01*
X55000Y-51255D01*
X55000Y-49362D01*
X55000Y-49138D01*
X54999Y-48801D01*
X54961Y-48709D01*
X54891Y-48639D01*
X54800Y-48601D01*
X54701Y-48601D01*
X54612Y-48600D01*
X54550Y-48662D01*
X54550Y-49200D01*
X54938Y-49200D01*
X55000Y-49138D01*
X55000Y-49362D01*
X54938Y-49300D01*
X54550Y-49300D01*
X54550Y-49838D01*
X54612Y-49900D01*
X54701Y-49899D01*
X54800Y-49899D01*
X54891Y-49861D01*
X54961Y-49791D01*
X54999Y-49699D01*
X55000Y-49362D01*
X55000Y-51255D01*
X54450Y-51255D01*
X54450Y-49838D01*
X54450Y-49300D01*
X54450Y-49200D01*
X54450Y-48662D01*
X54388Y-48600D01*
X54299Y-48601D01*
X54200Y-48601D01*
X54109Y-48639D01*
X54039Y-48709D01*
X54001Y-48801D01*
X54000Y-49138D01*
X54062Y-49200D01*
X54450Y-49200D01*
X54450Y-49300D01*
X54062Y-49300D01*
X54000Y-49362D01*
X54001Y-49699D01*
X54039Y-49791D01*
X54109Y-49861D01*
X54200Y-49899D01*
X54299Y-49899D01*
X54388Y-49900D01*
X54450Y-49838D01*
X54450Y-51255D01*
X53949Y-51255D01*
X53949Y-49690D01*
X53949Y-49611D01*
X53949Y-48811D01*
X53919Y-48738D01*
X53863Y-48682D01*
X53790Y-48651D01*
X53711Y-48651D01*
X53211Y-48651D01*
X53138Y-48681D01*
X53082Y-48737D01*
X53051Y-48810D01*
X53051Y-48889D01*
X53051Y-49689D01*
X53081Y-49762D01*
X53137Y-49818D01*
X53210Y-49849D01*
X53289Y-49849D01*
X53789Y-49849D01*
X53862Y-49819D01*
X53918Y-49763D01*
X53949Y-49690D01*
X53949Y-51255D01*
X51123Y-51255D01*
X51326Y-51053D01*
X51475Y-50695D01*
X51475Y-50307D01*
X51327Y-49949D01*
X51053Y-49674D01*
X50695Y-49525D01*
X50307Y-49525D01*
X49949Y-49673D01*
X49674Y-49947D01*
X49525Y-50305D01*
X49525Y-50693D01*
X49673Y-51051D01*
X49876Y-51255D01*
X43745Y-51255D01*
X43745Y-30745D01*
X50376Y-30745D01*
X50174Y-30947D01*
X50025Y-31305D01*
X50025Y-31693D01*
X50173Y-32051D01*
X50447Y-32326D01*
X50805Y-32475D01*
X51193Y-32475D01*
X51551Y-32327D01*
X51826Y-32053D01*
X51918Y-31830D01*
X51984Y-31990D01*
X52122Y-32128D01*
X52302Y-32203D01*
X52497Y-32203D01*
X52677Y-32129D01*
X52815Y-31991D01*
X52890Y-31811D01*
X52890Y-31616D01*
X52890Y-31190D01*
X52816Y-31010D01*
X52678Y-30872D01*
X52498Y-30797D01*
X52303Y-30797D01*
X52123Y-30871D01*
X51985Y-31009D01*
X51918Y-31169D01*
X51827Y-30949D01*
X51623Y-30745D01*
X59749Y-30745D01*
X59722Y-30786D01*
X59704Y-30878D01*
X59704Y-30898D01*
X59678Y-30872D01*
X59498Y-30797D01*
X59303Y-30797D01*
X59123Y-30871D01*
X58985Y-31009D01*
X58910Y-31189D01*
X58910Y-31384D01*
X58910Y-31810D01*
X58984Y-31990D01*
X59122Y-32128D01*
X59302Y-32203D01*
X59497Y-32203D01*
X59677Y-32129D01*
X59704Y-32102D01*
X59704Y-39456D01*
X58890Y-40269D01*
X58890Y-31811D01*
X58890Y-31616D01*
X58890Y-31190D01*
X58816Y-31010D01*
X58678Y-30872D01*
X58498Y-30797D01*
X58303Y-30797D01*
X58123Y-30871D01*
X57985Y-31009D01*
X57910Y-31189D01*
X57910Y-31384D01*
X57910Y-31810D01*
X57984Y-31990D01*
X58122Y-32128D01*
X58302Y-32203D01*
X58497Y-32203D01*
X58677Y-32129D01*
X58815Y-31991D01*
X58890Y-31811D01*
X58890Y-40269D01*
X57890Y-41269D01*
X57890Y-31811D01*
X57890Y-31616D01*
X57890Y-31190D01*
X57816Y-31010D01*
X57678Y-30872D01*
X57498Y-30797D01*
X57303Y-30797D01*
X57123Y-30871D01*
X56985Y-31009D01*
X56910Y-31189D01*
X56910Y-31384D01*
X56910Y-31810D01*
X56984Y-31990D01*
X57122Y-32128D01*
X57302Y-32203D01*
X57497Y-32203D01*
X57677Y-32129D01*
X57815Y-31991D01*
X57890Y-31811D01*
X57890Y-41269D01*
X56890Y-42269D01*
X56890Y-31811D01*
X56890Y-31616D01*
X56890Y-31190D01*
X56816Y-31010D01*
X56678Y-30872D01*
X56498Y-30797D01*
X56303Y-30797D01*
X56123Y-30871D01*
X55985Y-31009D01*
X55910Y-31189D01*
X55910Y-31384D01*
X55910Y-31810D01*
X55984Y-31990D01*
X56122Y-32128D01*
X56302Y-32203D01*
X56497Y-32203D01*
X56677Y-32129D01*
X56815Y-31991D01*
X56890Y-31811D01*
X56890Y-42269D01*
X56599Y-42560D01*
X56599Y-37619D01*
X56599Y-37381D01*
X56508Y-37161D01*
X56339Y-36992D01*
X56119Y-36901D01*
X55966Y-36901D01*
X55890Y-36824D01*
X55890Y-31811D01*
X55890Y-31616D01*
X55890Y-31190D01*
X55816Y-31010D01*
X55678Y-30872D01*
X55498Y-30797D01*
X55303Y-30797D01*
X55123Y-30871D01*
X54985Y-31009D01*
X54910Y-31189D01*
X54910Y-31384D01*
X54910Y-31810D01*
X54984Y-31990D01*
X55122Y-32128D01*
X55302Y-32203D01*
X55497Y-32203D01*
X55677Y-32129D01*
X55815Y-31991D01*
X55890Y-31811D01*
X55890Y-36824D01*
X55650Y-36584D01*
X55650Y-34697D01*
X55758Y-34589D01*
X55849Y-34369D01*
X55849Y-34131D01*
X55758Y-33911D01*
X55589Y-33742D01*
X55369Y-33651D01*
X55131Y-33651D01*
X54911Y-33742D01*
X54890Y-33763D01*
X54890Y-31811D01*
X54890Y-31616D01*
X54890Y-31190D01*
X54816Y-31010D01*
X54678Y-30872D01*
X54498Y-30797D01*
X54303Y-30797D01*
X54123Y-30871D01*
X53985Y-31009D01*
X53910Y-31189D01*
X53910Y-31384D01*
X53910Y-31810D01*
X53984Y-31990D01*
X54122Y-32128D01*
X54302Y-32203D01*
X54497Y-32203D01*
X54677Y-32129D01*
X54815Y-31991D01*
X54890Y-31811D01*
X54890Y-33763D01*
X54742Y-33911D01*
X54651Y-34131D01*
X54651Y-34369D01*
X54742Y-34589D01*
X54850Y-34697D01*
X54850Y-36750D01*
X54880Y-36903D01*
X54967Y-37033D01*
X55401Y-37466D01*
X55401Y-37619D01*
X55492Y-37839D01*
X55661Y-38008D01*
X55881Y-38099D01*
X56119Y-38099D01*
X56339Y-38008D01*
X56508Y-37839D01*
X56599Y-37619D01*
X56599Y-42560D01*
X55218Y-43941D01*
X55119Y-43901D01*
X54881Y-43901D01*
X54661Y-43992D01*
X54500Y-44153D01*
X54349Y-44002D01*
X54349Y-34690D01*
X54349Y-34611D01*
X54349Y-33811D01*
X54319Y-33738D01*
X54263Y-33682D01*
X54190Y-33651D01*
X54111Y-33651D01*
X53890Y-33651D01*
X53890Y-31811D01*
X53890Y-31616D01*
X53890Y-31190D01*
X53816Y-31010D01*
X53678Y-30872D01*
X53498Y-30797D01*
X53303Y-30797D01*
X53123Y-30871D01*
X52985Y-31009D01*
X52910Y-31189D01*
X52910Y-31384D01*
X52910Y-31810D01*
X52984Y-31990D01*
X53122Y-32128D01*
X53302Y-32203D01*
X53497Y-32203D01*
X53677Y-32129D01*
X53815Y-31991D01*
X53890Y-31811D01*
X53890Y-33651D01*
X53311Y-33651D01*
X53238Y-33681D01*
X53182Y-33737D01*
X53151Y-33810D01*
X53151Y-33889D01*
X53151Y-34283D01*
X52717Y-34717D01*
X52630Y-34847D01*
X52600Y-35000D01*
X52600Y-37053D01*
X52492Y-37161D01*
X52401Y-37381D01*
X52401Y-37619D01*
X52492Y-37839D01*
X52661Y-38008D01*
X52881Y-38099D01*
X53119Y-38099D01*
X53339Y-38008D01*
X53508Y-37839D01*
X53599Y-37619D01*
X53599Y-37381D01*
X53508Y-37161D01*
X53400Y-37053D01*
X53400Y-35165D01*
X53716Y-34849D01*
X54189Y-34849D01*
X54262Y-34819D01*
X54318Y-34763D01*
X54349Y-34690D01*
X54349Y-44002D01*
X54339Y-43992D01*
X54119Y-43901D01*
X53881Y-43901D01*
X53661Y-43992D01*
X53596Y-44056D01*
X53569Y-43988D01*
X53513Y-43932D01*
X53440Y-43901D01*
X53361Y-43901D01*
X52561Y-43901D01*
X52488Y-43931D01*
X52432Y-43987D01*
X52401Y-44060D01*
X52401Y-44139D01*
X52401Y-44939D01*
X52431Y-45012D01*
X52487Y-45068D01*
X52546Y-45093D01*
X52546Y-46338D01*
X52576Y-46491D01*
X52663Y-46621D01*
X52776Y-46733D01*
X52778Y-46736D01*
X52907Y-46822D01*
X52908Y-46823D01*
X53061Y-46853D01*
X54500Y-46853D01*
X54653Y-46823D01*
X54783Y-46736D01*
X54870Y-46606D01*
X54900Y-46453D01*
X54900Y-46281D01*
X54918Y-46263D01*
X54949Y-46190D01*
X54949Y-46111D01*
X54949Y-45311D01*
X54919Y-45238D01*
X54863Y-45182D01*
X54790Y-45151D01*
X54711Y-45151D01*
X54211Y-45151D01*
X54138Y-45181D01*
X54082Y-45237D01*
X54051Y-45310D01*
X54051Y-45389D01*
X54051Y-46053D01*
X53949Y-46053D01*
X53949Y-45311D01*
X53919Y-45238D01*
X53863Y-45182D01*
X53790Y-45151D01*
X53711Y-45151D01*
X53346Y-45151D01*
X53346Y-45099D01*
X53439Y-45099D01*
X53512Y-45069D01*
X53568Y-45013D01*
X53597Y-44944D01*
X53661Y-45008D01*
X53881Y-45099D01*
X54119Y-45099D01*
X54339Y-45008D01*
X54500Y-44847D01*
X54661Y-45008D01*
X54881Y-45099D01*
X55119Y-45099D01*
X55339Y-45008D01*
X55490Y-44856D01*
X55551Y-44878D01*
X55894Y-44535D01*
X55929Y-44500D01*
X56000Y-44429D01*
X56035Y-44394D01*
X56378Y-44051D01*
X56340Y-43946D01*
X56103Y-43859D01*
X55975Y-43864D01*
X60111Y-39727D01*
X60113Y-39726D01*
X60114Y-39726D01*
X60165Y-39649D01*
X60166Y-39648D01*
X60180Y-39575D01*
X60184Y-39557D01*
X60183Y-39556D01*
X60184Y-39556D01*
X60184Y-38017D01*
X60381Y-38099D01*
X60619Y-38099D01*
X60839Y-38008D01*
X61008Y-37839D01*
X61099Y-37619D01*
X61099Y-37381D01*
X61008Y-37161D01*
X60900Y-37053D01*
X60900Y-35165D01*
X61216Y-34849D01*
X61659Y-34849D01*
X61659Y-36897D01*
X61677Y-36989D01*
X61729Y-37067D01*
X61805Y-37142D01*
X61805Y-37252D01*
X61862Y-37390D01*
X61967Y-37495D01*
X62105Y-37553D01*
X62254Y-37553D01*
X62260Y-37550D01*
X62260Y-43951D01*
X62161Y-43992D01*
X62000Y-44153D01*
X61839Y-43992D01*
X61619Y-43901D01*
X61381Y-43901D01*
X61161Y-43992D01*
X61096Y-44056D01*
X61069Y-43988D01*
X61013Y-43932D01*
X60940Y-43901D01*
X60861Y-43901D01*
X60061Y-43901D01*
X59988Y-43931D01*
X59932Y-43987D01*
X59901Y-44060D01*
X59901Y-44139D01*
X59901Y-44939D01*
X59931Y-45012D01*
X59987Y-45068D01*
X60046Y-45093D01*
X60046Y-46338D01*
X60076Y-46491D01*
X60135Y-46580D01*
X56641Y-46580D01*
X56641Y-44603D01*
X56631Y-44349D01*
X56554Y-44160D01*
X56449Y-44122D01*
X56071Y-44500D01*
X56449Y-44878D01*
X56554Y-44840D01*
X56641Y-44603D01*
X56641Y-46580D01*
X56378Y-46580D01*
X56378Y-44949D01*
X56000Y-44571D01*
X55622Y-44949D01*
X55660Y-45054D01*
X55897Y-45141D01*
X56151Y-45131D01*
X56340Y-45054D01*
X56378Y-44949D01*
X56378Y-46580D01*
X56193Y-46580D01*
X55900Y-46287D01*
X55900Y-46281D01*
X55918Y-46263D01*
X55949Y-46190D01*
X55949Y-46111D01*
X55949Y-45311D01*
X55919Y-45238D01*
X55863Y-45182D01*
X55790Y-45151D01*
X55711Y-45151D01*
X55211Y-45151D01*
X55138Y-45181D01*
X55082Y-45237D01*
X55051Y-45310D01*
X55051Y-45389D01*
X55051Y-46189D01*
X55081Y-46262D01*
X55100Y-46281D01*
X55100Y-46453D01*
X55130Y-46606D01*
X55217Y-46736D01*
X55744Y-47263D01*
X55873Y-47350D01*
X55874Y-47350D01*
X56027Y-47380D01*
X62473Y-47380D01*
X62626Y-47350D01*
X62756Y-47263D01*
X63039Y-46980D01*
X63283Y-46736D01*
X63370Y-46606D01*
X63400Y-46453D01*
X63400Y-46281D01*
X63418Y-46263D01*
X63449Y-46190D01*
X63449Y-46111D01*
X63449Y-45311D01*
X63419Y-45238D01*
X63363Y-45182D01*
X63290Y-45151D01*
X63211Y-45151D01*
X62711Y-45151D01*
X62638Y-45181D01*
X62582Y-45237D01*
X62551Y-45310D01*
X62551Y-45389D01*
X62551Y-46189D01*
X62581Y-46262D01*
X62600Y-46281D01*
X62600Y-46287D01*
X62473Y-46414D01*
X62391Y-46495D01*
X62400Y-46453D01*
X62400Y-46281D01*
X62418Y-46263D01*
X62449Y-46190D01*
X62449Y-46111D01*
X62449Y-45311D01*
X62419Y-45238D01*
X62363Y-45182D01*
X62290Y-45151D01*
X62211Y-45151D01*
X61711Y-45151D01*
X61638Y-45181D01*
X61582Y-45237D01*
X61551Y-45310D01*
X61551Y-45389D01*
X61551Y-46053D01*
X61449Y-46053D01*
X61449Y-45311D01*
X61419Y-45238D01*
X61363Y-45182D01*
X61290Y-45151D01*
X61211Y-45151D01*
X60846Y-45151D01*
X60846Y-45099D01*
X60939Y-45099D01*
X61012Y-45069D01*
X61068Y-45013D01*
X61097Y-44944D01*
X61161Y-45008D01*
X61381Y-45099D01*
X61619Y-45099D01*
X61839Y-45008D01*
X62000Y-44847D01*
X62161Y-45008D01*
X62381Y-45099D01*
X62619Y-45099D01*
X62839Y-45008D01*
X62990Y-44856D01*
X63051Y-44878D01*
X63429Y-44500D01*
X63051Y-44122D01*
X62990Y-44143D01*
X62839Y-43992D01*
X62740Y-43951D01*
X62740Y-36001D01*
X62739Y-36000D01*
X62740Y-36000D01*
X62722Y-35909D01*
X62670Y-35831D01*
X62667Y-35829D01*
X62323Y-35484D01*
X62323Y-34670D01*
X62411Y-34758D01*
X62631Y-34849D01*
X62783Y-34849D01*
X63100Y-35165D01*
X63100Y-37053D01*
X62992Y-37161D01*
X62901Y-37381D01*
X62901Y-37619D01*
X62992Y-37839D01*
X63161Y-38008D01*
X63381Y-38099D01*
X63619Y-38099D01*
X63839Y-38008D01*
X63841Y-38006D01*
X63841Y-43948D01*
X63840Y-43946D01*
X63603Y-43859D01*
X63349Y-43869D01*
X63160Y-43946D01*
X63122Y-44051D01*
X63465Y-44394D01*
X63500Y-44429D01*
X63571Y-44500D01*
X63500Y-44571D01*
X63465Y-44606D01*
X63122Y-44949D01*
X63160Y-45054D01*
X63397Y-45141D01*
X63651Y-45131D01*
X63840Y-45054D01*
X63841Y-45051D01*
X63841Y-45434D01*
X63859Y-45526D01*
X63911Y-45604D01*
X65545Y-47237D01*
X65545Y-47347D01*
X65602Y-47485D01*
X65707Y-47590D01*
X65845Y-47648D01*
X65994Y-47648D01*
X66132Y-47591D01*
X66237Y-47486D01*
X66295Y-47348D01*
X66295Y-47199D01*
X66238Y-47061D01*
X66133Y-46956D01*
X65995Y-46898D01*
X65884Y-46898D01*
X64321Y-45334D01*
X64321Y-37886D01*
X64326Y-37889D01*
X64475Y-37889D01*
X64613Y-37832D01*
X64718Y-37727D01*
X64776Y-37589D01*
X64776Y-37440D01*
X64719Y-37302D01*
X64642Y-37225D01*
X64642Y-32840D01*
X65167Y-32314D01*
X65169Y-32313D01*
X65170Y-32313D01*
X65222Y-32235D01*
X65239Y-32144D01*
X65240Y-32143D01*
X65277Y-32129D01*
X65415Y-31991D01*
X65490Y-31811D01*
X65490Y-31616D01*
X65490Y-31190D01*
X65416Y-31010D01*
X65278Y-30872D01*
X65098Y-30797D01*
X64903Y-30797D01*
X64723Y-30871D01*
X64585Y-31009D01*
X64510Y-31189D01*
X64510Y-31384D01*
X64510Y-31810D01*
X64584Y-31990D01*
X64698Y-32104D01*
X64321Y-32482D01*
X64321Y-32224D01*
X64303Y-32132D01*
X64291Y-32114D01*
X64415Y-31991D01*
X64490Y-31811D01*
X64490Y-31616D01*
X64490Y-31190D01*
X64416Y-31010D01*
X64278Y-30872D01*
X64098Y-30797D01*
X63903Y-30797D01*
X63723Y-30871D01*
X63585Y-31009D01*
X63510Y-31189D01*
X63510Y-31384D01*
X63510Y-31810D01*
X63584Y-31990D01*
X63722Y-32128D01*
X63760Y-32143D01*
X63778Y-32235D01*
X63830Y-32313D01*
X63841Y-32323D01*
X63841Y-34803D01*
X63783Y-34717D01*
X63779Y-34714D01*
X63349Y-34283D01*
X63349Y-34131D01*
X63258Y-33911D01*
X63089Y-33742D01*
X62869Y-33651D01*
X62631Y-33651D01*
X62411Y-33742D01*
X62323Y-33830D01*
X62323Y-32826D01*
X62322Y-32825D01*
X62323Y-32825D01*
X62319Y-32807D01*
X62305Y-32734D01*
X62304Y-32733D01*
X62253Y-32656D01*
X62250Y-32654D01*
X61701Y-32104D01*
X61815Y-31991D01*
X61890Y-31811D01*
X61890Y-31616D01*
X61890Y-31190D01*
X61851Y-31097D01*
X62548Y-31097D01*
X62510Y-31189D01*
X62510Y-31384D01*
X62510Y-31810D01*
X62584Y-31990D01*
X62722Y-32128D01*
X62902Y-32203D01*
X63097Y-32203D01*
X63277Y-32129D01*
X63415Y-31991D01*
X63490Y-31811D01*
X63490Y-31616D01*
X63490Y-31190D01*
X63416Y-31010D01*
X63278Y-30872D01*
X63239Y-30856D01*
X63222Y-30765D01*
X63208Y-30745D01*
X79876Y-30745D01*
X79674Y-30947D01*
X79525Y-31305D01*
X79525Y-31693D01*
X79673Y-32051D01*
X79947Y-32326D01*
X80305Y-32475D01*
X80693Y-32475D01*
X81051Y-32327D01*
X81326Y-32053D01*
X81475Y-31695D01*
X81475Y-31307D01*
X81327Y-30949D01*
X81123Y-30745D01*
X89255Y-30745D01*
X89255Y-51255D01*
X89255Y-51255D01*
G37*
G54D24*
X89255Y-51255D02*
X88900Y-51255D01*
X88900Y-41116D01*
X88900Y-40885D01*
X88812Y-40672D01*
X88649Y-40509D01*
X88436Y-40420D01*
X88430Y-40420D01*
X88430Y-39410D01*
X88430Y-39052D01*
X88293Y-38721D01*
X88041Y-38468D01*
X87710Y-38330D01*
X87352Y-38330D01*
X87021Y-38467D01*
X86768Y-38719D01*
X86630Y-39050D01*
X86630Y-39408D01*
X86767Y-39739D01*
X87019Y-39992D01*
X87199Y-40067D01*
X86943Y-40070D01*
X86623Y-40203D01*
X86549Y-40338D01*
X87140Y-40929D01*
X87731Y-40338D01*
X87657Y-40203D01*
X87473Y-40130D01*
X87708Y-40130D01*
X88039Y-39993D01*
X88292Y-39741D01*
X88430Y-39410D01*
X88430Y-40420D01*
X88205Y-40420D01*
X87992Y-40508D01*
X87960Y-40539D01*
X87937Y-40483D01*
X87802Y-40409D01*
X87211Y-41000D01*
X87802Y-41591D01*
X87937Y-41517D01*
X87959Y-41459D01*
X87991Y-41491D01*
X88204Y-41580D01*
X88435Y-41580D01*
X88648Y-41492D01*
X88811Y-41329D01*
X88900Y-41116D01*
X88900Y-51255D01*
X88430Y-51255D01*
X88430Y-42950D01*
X88430Y-42592D01*
X88293Y-42261D01*
X88041Y-42008D01*
X87710Y-41870D01*
X87481Y-41870D01*
X87657Y-41797D01*
X87731Y-41662D01*
X87140Y-41071D01*
X87069Y-41142D01*
X87069Y-41000D01*
X86478Y-40409D01*
X86343Y-40483D01*
X86206Y-40827D01*
X86210Y-41197D01*
X86343Y-41517D01*
X86478Y-41591D01*
X87069Y-41000D01*
X87069Y-41142D01*
X86549Y-41662D01*
X86623Y-41797D01*
X86967Y-41934D01*
X87203Y-41931D01*
X87021Y-42007D01*
X86768Y-42259D01*
X86630Y-42590D01*
X86630Y-42948D01*
X86767Y-43279D01*
X87019Y-43532D01*
X87350Y-43670D01*
X87708Y-43670D01*
X88039Y-43533D01*
X88292Y-43281D01*
X88430Y-42950D01*
X88430Y-51255D01*
X85780Y-51255D01*
X85780Y-41200D01*
X85780Y-40802D01*
X85628Y-40434D01*
X85347Y-40153D01*
X84980Y-40000D01*
X84582Y-40000D01*
X84214Y-40152D01*
X83933Y-40433D01*
X83780Y-40800D01*
X83780Y-41198D01*
X83932Y-41566D01*
X84213Y-41847D01*
X84580Y-42000D01*
X84978Y-42000D01*
X85346Y-41848D01*
X85627Y-41567D01*
X85780Y-41200D01*
X85780Y-51255D01*
X83623Y-51255D01*
X83826Y-51053D01*
X83975Y-50695D01*
X83975Y-50307D01*
X83827Y-49949D01*
X83553Y-49674D01*
X83499Y-49651D01*
X83499Y-48599D01*
X83499Y-48401D01*
X83499Y-47599D01*
X83499Y-47401D01*
X83499Y-46599D01*
X83499Y-46401D01*
X83499Y-45599D01*
X83499Y-45401D01*
X83499Y-44599D01*
X83499Y-44401D01*
X83499Y-43599D01*
X83499Y-43401D01*
X83499Y-42599D01*
X83499Y-42401D01*
X83499Y-41599D01*
X83499Y-41401D01*
X83499Y-40599D01*
X83499Y-40401D01*
X83499Y-39599D01*
X83499Y-39401D01*
X83499Y-38599D01*
X83499Y-38401D01*
X83499Y-37599D01*
X83499Y-37401D01*
X83499Y-36599D01*
X83499Y-36401D01*
X83499Y-35599D01*
X83499Y-35401D01*
X83499Y-34599D01*
X83499Y-34401D01*
X83499Y-33599D01*
X83499Y-33401D01*
X83499Y-32599D01*
X83499Y-32401D01*
X83499Y-31599D01*
X83499Y-31401D01*
X83423Y-31218D01*
X83283Y-31077D01*
X83099Y-31001D01*
X82901Y-31001D01*
X82718Y-31077D01*
X82577Y-31217D01*
X82501Y-31401D01*
X82501Y-31599D01*
X82577Y-31782D01*
X82717Y-31923D01*
X82901Y-31999D01*
X83099Y-31999D01*
X83282Y-31923D01*
X83423Y-31783D01*
X83499Y-31599D01*
X83499Y-32401D01*
X83423Y-32218D01*
X83283Y-32077D01*
X83099Y-32001D01*
X82901Y-32001D01*
X82718Y-32077D01*
X82577Y-32217D01*
X82501Y-32401D01*
X82501Y-32599D01*
X82577Y-32782D01*
X82717Y-32923D01*
X82901Y-32999D01*
X83099Y-32999D01*
X83282Y-32923D01*
X83423Y-32783D01*
X83499Y-32599D01*
X83499Y-33401D01*
X83423Y-33218D01*
X83283Y-33077D01*
X83099Y-33001D01*
X82901Y-33001D01*
X82718Y-33077D01*
X82577Y-33217D01*
X82501Y-33401D01*
X82501Y-33599D01*
X82577Y-33782D01*
X82717Y-33923D01*
X82901Y-33999D01*
X83099Y-33999D01*
X83282Y-33923D01*
X83423Y-33783D01*
X83499Y-33599D01*
X83499Y-34401D01*
X83423Y-34218D01*
X83283Y-34077D01*
X83099Y-34001D01*
X82901Y-34001D01*
X82718Y-34077D01*
X82577Y-34217D01*
X82501Y-34401D01*
X82501Y-34599D01*
X82577Y-34782D01*
X82717Y-34923D01*
X82901Y-34999D01*
X83099Y-34999D01*
X83282Y-34923D01*
X83423Y-34783D01*
X83499Y-34599D01*
X83499Y-35401D01*
X83423Y-35218D01*
X83283Y-35077D01*
X83099Y-35001D01*
X82901Y-35001D01*
X82718Y-35077D01*
X82577Y-35217D01*
X82501Y-35401D01*
X82501Y-35599D01*
X82577Y-35782D01*
X82717Y-35923D01*
X82901Y-35999D01*
X83099Y-35999D01*
X83282Y-35923D01*
X83423Y-35783D01*
X83499Y-35599D01*
X83499Y-36401D01*
X83423Y-36218D01*
X83283Y-36077D01*
X83099Y-36001D01*
X82901Y-36001D01*
X82718Y-36077D01*
X82577Y-36217D01*
X82501Y-36401D01*
X82501Y-36599D01*
X82577Y-36782D01*
X82717Y-36923D01*
X82901Y-36999D01*
X83099Y-36999D01*
X83282Y-36923D01*
X83423Y-36783D01*
X83499Y-36599D01*
X83499Y-37401D01*
X83423Y-37218D01*
X83283Y-37077D01*
X83099Y-37001D01*
X82901Y-37001D01*
X82718Y-37077D01*
X82577Y-37217D01*
X82501Y-37401D01*
X82501Y-37599D01*
X82577Y-37782D01*
X82717Y-37923D01*
X82901Y-37999D01*
X83099Y-37999D01*
X83282Y-37923D01*
X83423Y-37783D01*
X83499Y-37599D01*
X83499Y-38401D01*
X83423Y-38218D01*
X83283Y-38077D01*
X83099Y-38001D01*
X82901Y-38001D01*
X82718Y-38077D01*
X82577Y-38217D01*
X82501Y-38401D01*
X82501Y-38599D01*
X82577Y-38782D01*
X82717Y-38923D01*
X82901Y-38999D01*
X83099Y-38999D01*
X83282Y-38923D01*
X83423Y-38783D01*
X83499Y-38599D01*
X83499Y-39401D01*
X83423Y-39218D01*
X83283Y-39077D01*
X83099Y-39001D01*
X82901Y-39001D01*
X82718Y-39077D01*
X82577Y-39217D01*
X82501Y-39401D01*
X82501Y-39599D01*
X82577Y-39782D01*
X82717Y-39923D01*
X82901Y-39999D01*
X83099Y-39999D01*
X83282Y-39923D01*
X83423Y-39783D01*
X83499Y-39599D01*
X83499Y-40401D01*
X83423Y-40218D01*
X83283Y-40077D01*
X83099Y-40001D01*
X82901Y-40001D01*
X82718Y-40077D01*
X82577Y-40217D01*
X82501Y-40401D01*
X82501Y-40599D01*
X82577Y-40782D01*
X82717Y-40923D01*
X82901Y-40999D01*
X83099Y-40999D01*
X83282Y-40923D01*
X83423Y-40783D01*
X83499Y-40599D01*
X83499Y-41401D01*
X83423Y-41218D01*
X83283Y-41077D01*
X83099Y-41001D01*
X82901Y-41001D01*
X82718Y-41077D01*
X82577Y-41217D01*
X82501Y-41401D01*
X82501Y-41599D01*
X82577Y-41782D01*
X82717Y-41923D01*
X82901Y-41999D01*
X83099Y-41999D01*
X83282Y-41923D01*
X83423Y-41783D01*
X83499Y-41599D01*
X83499Y-42401D01*
X83423Y-42218D01*
X83283Y-42077D01*
X83099Y-42001D01*
X82901Y-42001D01*
X82718Y-42077D01*
X82577Y-42217D01*
X82501Y-42401D01*
X82501Y-42599D01*
X82577Y-42782D01*
X82717Y-42923D01*
X82901Y-42999D01*
X83099Y-42999D01*
X83282Y-42923D01*
X83423Y-42783D01*
X83499Y-42599D01*
X83499Y-43401D01*
X83423Y-43218D01*
X83283Y-43077D01*
X83099Y-43001D01*
X82901Y-43001D01*
X82718Y-43077D01*
X82577Y-43217D01*
X82501Y-43401D01*
X82501Y-43599D01*
X82577Y-43782D01*
X82717Y-43923D01*
X82901Y-43999D01*
X83099Y-43999D01*
X83282Y-43923D01*
X83423Y-43783D01*
X83499Y-43599D01*
X83499Y-44401D01*
X83423Y-44218D01*
X83283Y-44077D01*
X83099Y-44001D01*
X82901Y-44001D01*
X82718Y-44077D01*
X82577Y-44217D01*
X82501Y-44401D01*
X82501Y-44599D01*
X82577Y-44782D01*
X82717Y-44923D01*
X82901Y-44999D01*
X83099Y-44999D01*
X83282Y-44923D01*
X83423Y-44783D01*
X83499Y-44599D01*
X83499Y-45401D01*
X83423Y-45218D01*
X83283Y-45077D01*
X83099Y-45001D01*
X82901Y-45001D01*
X82718Y-45077D01*
X82577Y-45217D01*
X82501Y-45401D01*
X82501Y-45599D01*
X82577Y-45782D01*
X82717Y-45923D01*
X82901Y-45999D01*
X83099Y-45999D01*
X83282Y-45923D01*
X83423Y-45783D01*
X83499Y-45599D01*
X83499Y-46401D01*
X83423Y-46218D01*
X83283Y-46077D01*
X83099Y-46001D01*
X82901Y-46001D01*
X82718Y-46077D01*
X82577Y-46217D01*
X82501Y-46401D01*
X82501Y-46599D01*
X82577Y-46782D01*
X82717Y-46923D01*
X82901Y-46999D01*
X83099Y-46999D01*
X83282Y-46923D01*
X83423Y-46783D01*
X83499Y-46599D01*
X83499Y-47401D01*
X83423Y-47218D01*
X83283Y-47077D01*
X83099Y-47001D01*
X82901Y-47001D01*
X82718Y-47077D01*
X82577Y-47217D01*
X82501Y-47401D01*
X82501Y-47599D01*
X82577Y-47782D01*
X82717Y-47923D01*
X82901Y-47999D01*
X83099Y-47999D01*
X83282Y-47923D01*
X83423Y-47783D01*
X83499Y-47599D01*
X83499Y-48401D01*
X83423Y-48218D01*
X83283Y-48077D01*
X83099Y-48001D01*
X82901Y-48001D01*
X82718Y-48077D01*
X82577Y-48217D01*
X82501Y-48401D01*
X82501Y-48599D01*
X82577Y-48782D01*
X82717Y-48923D01*
X82901Y-48999D01*
X83099Y-48999D01*
X83282Y-48923D01*
X83423Y-48783D01*
X83499Y-48599D01*
X83499Y-49651D01*
X83195Y-49525D01*
X82807Y-49525D01*
X82499Y-49652D01*
X82499Y-48599D01*
X82499Y-48401D01*
X82499Y-47599D01*
X82499Y-47401D01*
X82499Y-46599D01*
X82499Y-46401D01*
X82499Y-45599D01*
X82499Y-45401D01*
X82499Y-44599D01*
X82499Y-44401D01*
X82499Y-43599D01*
X82499Y-43401D01*
X82499Y-42599D01*
X82499Y-42401D01*
X82499Y-41599D01*
X82499Y-41401D01*
X82499Y-40599D01*
X82499Y-40401D01*
X82499Y-39599D01*
X82499Y-39401D01*
X82499Y-38599D01*
X82499Y-38401D01*
X82499Y-37599D01*
X82499Y-37401D01*
X82499Y-36599D01*
X82499Y-36401D01*
X82499Y-35599D01*
X82499Y-35401D01*
X82499Y-34599D01*
X82499Y-34401D01*
X82499Y-33599D01*
X82499Y-33401D01*
X82499Y-32599D01*
X82499Y-32401D01*
X82499Y-31599D01*
X82499Y-31401D01*
X82423Y-31218D01*
X82283Y-31077D01*
X82099Y-31001D01*
X81901Y-31001D01*
X81718Y-31077D01*
X81577Y-31217D01*
X81501Y-31401D01*
X81501Y-31599D01*
X81577Y-31782D01*
X81717Y-31923D01*
X81901Y-31999D01*
X82099Y-31999D01*
X82282Y-31923D01*
X82423Y-31783D01*
X82499Y-31599D01*
X82499Y-32401D01*
X82423Y-32218D01*
X82283Y-32077D01*
X82099Y-32001D01*
X81901Y-32001D01*
X81718Y-32077D01*
X81577Y-32217D01*
X81501Y-32401D01*
X81501Y-32599D01*
X81577Y-32782D01*
X81717Y-32923D01*
X81901Y-32999D01*
X82099Y-32999D01*
X82282Y-32923D01*
X82423Y-32783D01*
X82499Y-32599D01*
X82499Y-33401D01*
X82423Y-33218D01*
X82283Y-33077D01*
X82099Y-33001D01*
X81901Y-33001D01*
X81718Y-33077D01*
X81577Y-33217D01*
X81501Y-33401D01*
X81501Y-33599D01*
X81577Y-33782D01*
X81717Y-33923D01*
X81901Y-33999D01*
X82099Y-33999D01*
X82282Y-33923D01*
X82423Y-33783D01*
X82499Y-33599D01*
X82499Y-34401D01*
X82423Y-34218D01*
X82283Y-34077D01*
X82099Y-34001D01*
X81901Y-34001D01*
X81718Y-34077D01*
X81577Y-34217D01*
X81501Y-34401D01*
X81501Y-34599D01*
X81577Y-34782D01*
X81717Y-34923D01*
X81901Y-34999D01*
X82099Y-34999D01*
X82282Y-34923D01*
X82423Y-34783D01*
X82499Y-34599D01*
X82499Y-35401D01*
X82423Y-35218D01*
X82283Y-35077D01*
X82099Y-35001D01*
X81901Y-35001D01*
X81718Y-35077D01*
X81577Y-35217D01*
X81501Y-35401D01*
X81501Y-35599D01*
X81577Y-35782D01*
X81717Y-35923D01*
X81901Y-35999D01*
X82099Y-35999D01*
X82282Y-35923D01*
X82423Y-35783D01*
X82499Y-35599D01*
X82499Y-36401D01*
X82423Y-36218D01*
X82283Y-36077D01*
X82099Y-36001D01*
X81901Y-36001D01*
X81718Y-36077D01*
X81577Y-36217D01*
X81501Y-36401D01*
X81501Y-36599D01*
X81577Y-36782D01*
X81717Y-36923D01*
X81901Y-36999D01*
X82099Y-36999D01*
X82282Y-36923D01*
X82423Y-36783D01*
X82499Y-36599D01*
X82499Y-37401D01*
X82423Y-37218D01*
X82283Y-37077D01*
X82099Y-37001D01*
X81901Y-37001D01*
X81718Y-37077D01*
X81577Y-37217D01*
X81501Y-37401D01*
X81501Y-37599D01*
X81577Y-37782D01*
X81717Y-37923D01*
X81901Y-37999D01*
X82099Y-37999D01*
X82282Y-37923D01*
X82423Y-37783D01*
X82499Y-37599D01*
X82499Y-38401D01*
X82423Y-38218D01*
X82283Y-38077D01*
X82099Y-38001D01*
X81901Y-38001D01*
X81718Y-38077D01*
X81577Y-38217D01*
X81501Y-38401D01*
X81501Y-38599D01*
X81577Y-38782D01*
X81717Y-38923D01*
X81901Y-38999D01*
X82099Y-38999D01*
X82282Y-38923D01*
X82423Y-38783D01*
X82499Y-38599D01*
X82499Y-39401D01*
X82423Y-39218D01*
X82283Y-39077D01*
X82099Y-39001D01*
X81901Y-39001D01*
X81718Y-39077D01*
X81577Y-39217D01*
X81501Y-39401D01*
X81501Y-39599D01*
X81577Y-39782D01*
X81717Y-39923D01*
X81901Y-39999D01*
X82099Y-39999D01*
X82282Y-39923D01*
X82423Y-39783D01*
X82499Y-39599D01*
X82499Y-40401D01*
X82423Y-40218D01*
X82283Y-40077D01*
X82099Y-40001D01*
X81901Y-40001D01*
X81718Y-40077D01*
X81577Y-40217D01*
X81501Y-40401D01*
X81501Y-40599D01*
X81577Y-40782D01*
X81717Y-40923D01*
X81901Y-40999D01*
X82099Y-40999D01*
X82282Y-40923D01*
X82423Y-40783D01*
X82499Y-40599D01*
X82499Y-41401D01*
X82423Y-41218D01*
X82283Y-41077D01*
X82099Y-41001D01*
X81901Y-41001D01*
X81718Y-41077D01*
X81577Y-41217D01*
X81501Y-41401D01*
X81501Y-41599D01*
X81577Y-41782D01*
X81717Y-41923D01*
X81901Y-41999D01*
X82099Y-41999D01*
X82282Y-41923D01*
X82423Y-41783D01*
X82499Y-41599D01*
X82499Y-42401D01*
X82423Y-42218D01*
X82283Y-42077D01*
X82099Y-42001D01*
X81901Y-42001D01*
X81718Y-42077D01*
X81577Y-42217D01*
X81501Y-42401D01*
X81501Y-42599D01*
X81577Y-42782D01*
X81717Y-42923D01*
X81901Y-42999D01*
X82099Y-42999D01*
X82282Y-42923D01*
X82423Y-42783D01*
X82499Y-42599D01*
X82499Y-43401D01*
X82423Y-43218D01*
X82283Y-43077D01*
X82099Y-43001D01*
X81901Y-43001D01*
X81718Y-43077D01*
X81577Y-43217D01*
X81501Y-43401D01*
X81501Y-43599D01*
X81577Y-43782D01*
X81717Y-43923D01*
X81901Y-43999D01*
X82099Y-43999D01*
X82282Y-43923D01*
X82423Y-43783D01*
X82499Y-43599D01*
X82499Y-44401D01*
X82423Y-44218D01*
X82283Y-44077D01*
X82099Y-44001D01*
X81901Y-44001D01*
X81718Y-44077D01*
X81577Y-44217D01*
X81501Y-44401D01*
X81501Y-44599D01*
X81577Y-44782D01*
X81717Y-44923D01*
X81901Y-44999D01*
X82099Y-44999D01*
X82282Y-44923D01*
X82423Y-44783D01*
X82499Y-44599D01*
X82499Y-45401D01*
X82423Y-45218D01*
X82283Y-45077D01*
X82099Y-45001D01*
X81901Y-45001D01*
X81718Y-45077D01*
X81577Y-45217D01*
X81501Y-45401D01*
X81501Y-45599D01*
X81577Y-45782D01*
X81717Y-45923D01*
X81901Y-45999D01*
X82099Y-45999D01*
X82282Y-45923D01*
X82423Y-45783D01*
X82499Y-45599D01*
X82499Y-46401D01*
X82423Y-46218D01*
X82283Y-46077D01*
X82099Y-46001D01*
X81901Y-46001D01*
X81718Y-46077D01*
X81577Y-46217D01*
X81501Y-46401D01*
X81501Y-46599D01*
X81577Y-46782D01*
X81717Y-46923D01*
X81901Y-46999D01*
X82099Y-46999D01*
X82282Y-46923D01*
X82423Y-46783D01*
X82499Y-46599D01*
X82499Y-47401D01*
X82423Y-47218D01*
X82283Y-47077D01*
X82099Y-47001D01*
X81901Y-47001D01*
X81718Y-47077D01*
X81577Y-47217D01*
X81501Y-47401D01*
X81501Y-47599D01*
X81577Y-47782D01*
X81717Y-47923D01*
X81901Y-47999D01*
X82099Y-47999D01*
X82282Y-47923D01*
X82423Y-47783D01*
X82499Y-47599D01*
X82499Y-48401D01*
X82423Y-48218D01*
X82283Y-48077D01*
X82099Y-48001D01*
X81901Y-48001D01*
X81718Y-48077D01*
X81577Y-48217D01*
X81501Y-48401D01*
X81501Y-48599D01*
X81577Y-48782D01*
X81717Y-48923D01*
X81901Y-48999D01*
X82099Y-48999D01*
X82282Y-48923D01*
X82423Y-48783D01*
X82499Y-48599D01*
X82499Y-49652D01*
X82449Y-49673D01*
X82174Y-49947D01*
X82025Y-50305D01*
X82025Y-50693D01*
X82173Y-51051D01*
X82376Y-51255D01*
X81490Y-51255D01*
X81490Y-50811D01*
X81490Y-50616D01*
X81490Y-50190D01*
X81416Y-50010D01*
X81278Y-49872D01*
X81098Y-49797D01*
X80903Y-49797D01*
X80723Y-49871D01*
X80585Y-50009D01*
X80510Y-50189D01*
X80510Y-50384D01*
X80510Y-50810D01*
X80584Y-50990D01*
X80722Y-51128D01*
X80902Y-51203D01*
X81097Y-51203D01*
X81277Y-51129D01*
X81415Y-50991D01*
X81490Y-50811D01*
X81490Y-51255D01*
X80490Y-51255D01*
X80490Y-50811D01*
X80490Y-50616D01*
X80490Y-50190D01*
X80416Y-50010D01*
X80278Y-49872D01*
X80098Y-49797D01*
X79903Y-49797D01*
X79723Y-49871D01*
X79609Y-49985D01*
X79609Y-49104D01*
X79609Y-48955D01*
X79552Y-48817D01*
X79490Y-48755D01*
X79490Y-31811D01*
X79490Y-31616D01*
X79490Y-31190D01*
X79416Y-31010D01*
X79278Y-30872D01*
X79098Y-30797D01*
X78903Y-30797D01*
X78723Y-30871D01*
X78585Y-31009D01*
X78510Y-31189D01*
X78510Y-31384D01*
X78510Y-31810D01*
X78584Y-31990D01*
X78722Y-32128D01*
X78902Y-32203D01*
X79097Y-32203D01*
X79277Y-32129D01*
X79415Y-31991D01*
X79490Y-31811D01*
X79490Y-48755D01*
X79447Y-48712D01*
X79309Y-48654D01*
X79198Y-48654D01*
X79141Y-48596D01*
X79141Y-44603D01*
X79131Y-44349D01*
X79099Y-44270D01*
X79099Y-37619D01*
X79099Y-37381D01*
X79008Y-37161D01*
X78839Y-36992D01*
X78619Y-36901D01*
X78490Y-36901D01*
X78490Y-31811D01*
X78490Y-31616D01*
X78490Y-31190D01*
X78416Y-31010D01*
X78278Y-30872D01*
X78098Y-30797D01*
X77903Y-30797D01*
X77723Y-30871D01*
X77585Y-31009D01*
X77510Y-31189D01*
X77510Y-31384D01*
X77510Y-31810D01*
X77584Y-31990D01*
X77722Y-32128D01*
X77902Y-32203D01*
X78097Y-32203D01*
X78277Y-32129D01*
X78415Y-31991D01*
X78490Y-31811D01*
X78490Y-36901D01*
X78466Y-36901D01*
X78150Y-36584D01*
X78150Y-34697D01*
X78258Y-34589D01*
X78349Y-34369D01*
X78349Y-34131D01*
X78258Y-33911D01*
X78089Y-33742D01*
X77869Y-33651D01*
X77631Y-33651D01*
X77490Y-33709D01*
X77490Y-31811D01*
X77490Y-31616D01*
X77490Y-31190D01*
X77416Y-31010D01*
X77278Y-30872D01*
X77098Y-30797D01*
X76903Y-30797D01*
X76723Y-30871D01*
X76585Y-31009D01*
X76510Y-31189D01*
X76510Y-31384D01*
X76510Y-31810D01*
X76584Y-31990D01*
X76722Y-32128D01*
X76902Y-32203D01*
X77097Y-32203D01*
X77277Y-32129D01*
X77415Y-31991D01*
X77490Y-31811D01*
X77490Y-33709D01*
X77411Y-33742D01*
X77242Y-33911D01*
X77151Y-34131D01*
X77151Y-34369D01*
X77242Y-34589D01*
X77350Y-34697D01*
X77350Y-36750D01*
X77380Y-36903D01*
X77467Y-37033D01*
X77901Y-37466D01*
X77901Y-37619D01*
X77992Y-37839D01*
X78161Y-38008D01*
X78381Y-38099D01*
X78619Y-38099D01*
X78839Y-38008D01*
X79008Y-37839D01*
X79099Y-37619D01*
X79099Y-44270D01*
X79054Y-44160D01*
X78949Y-44122D01*
X78878Y-44193D01*
X78878Y-44051D01*
X78840Y-43946D01*
X78603Y-43859D01*
X78349Y-43869D01*
X78160Y-43946D01*
X78122Y-44051D01*
X78500Y-44429D01*
X78878Y-44051D01*
X78878Y-44193D01*
X78571Y-44500D01*
X78949Y-44878D01*
X79054Y-44840D01*
X79141Y-44603D01*
X79141Y-48596D01*
X79082Y-48537D01*
X79004Y-48485D01*
X78912Y-48467D01*
X78878Y-48467D01*
X78878Y-44949D01*
X78500Y-44571D01*
X78122Y-44949D01*
X78160Y-45054D01*
X78397Y-45141D01*
X78651Y-45131D01*
X78840Y-45054D01*
X78878Y-44949D01*
X78878Y-48467D01*
X78449Y-48467D01*
X78449Y-46190D01*
X78449Y-46111D01*
X78449Y-45311D01*
X78419Y-45238D01*
X78363Y-45182D01*
X78290Y-45151D01*
X78211Y-45151D01*
X77711Y-45151D01*
X77638Y-45181D01*
X77582Y-45237D01*
X77551Y-45310D01*
X77551Y-45389D01*
X77551Y-46189D01*
X77581Y-46262D01*
X77600Y-46281D01*
X77600Y-46287D01*
X77391Y-46496D01*
X77400Y-46453D01*
X77400Y-46281D01*
X77418Y-46263D01*
X77449Y-46190D01*
X77449Y-46111D01*
X77449Y-45311D01*
X77419Y-45238D01*
X77363Y-45182D01*
X77290Y-45151D01*
X77211Y-45151D01*
X76711Y-45151D01*
X76638Y-45181D01*
X76582Y-45237D01*
X76551Y-45310D01*
X76551Y-45389D01*
X76551Y-46053D01*
X76449Y-46053D01*
X76449Y-45311D01*
X76419Y-45238D01*
X76363Y-45182D01*
X76290Y-45151D01*
X76211Y-45151D01*
X75847Y-45151D01*
X75847Y-45099D01*
X75939Y-45099D01*
X76012Y-45069D01*
X76068Y-45013D01*
X76097Y-44944D01*
X76161Y-45008D01*
X76381Y-45099D01*
X76619Y-45099D01*
X76839Y-45008D01*
X77000Y-44847D01*
X77161Y-45008D01*
X77381Y-45099D01*
X77619Y-45099D01*
X77839Y-45008D01*
X77990Y-44856D01*
X78051Y-44878D01*
X78429Y-44500D01*
X78051Y-44122D01*
X77990Y-44143D01*
X77839Y-43992D01*
X77619Y-43901D01*
X77381Y-43901D01*
X77161Y-43992D01*
X77000Y-44153D01*
X76849Y-44002D01*
X76849Y-34690D01*
X76849Y-34611D01*
X76849Y-33811D01*
X76819Y-33738D01*
X76763Y-33682D01*
X76690Y-33651D01*
X76611Y-33651D01*
X76490Y-33651D01*
X76490Y-31811D01*
X76490Y-31616D01*
X76490Y-31190D01*
X76416Y-31010D01*
X76278Y-30872D01*
X76098Y-30797D01*
X75903Y-30797D01*
X75723Y-30871D01*
X75585Y-31009D01*
X75510Y-31189D01*
X75510Y-31384D01*
X75510Y-31810D01*
X75584Y-31990D01*
X75722Y-32128D01*
X75902Y-32203D01*
X76097Y-32203D01*
X76277Y-32129D01*
X76415Y-31991D01*
X76490Y-31811D01*
X76490Y-33651D01*
X75811Y-33651D01*
X75738Y-33681D01*
X75682Y-33737D01*
X75651Y-33810D01*
X75651Y-33889D01*
X75651Y-34283D01*
X75490Y-34444D01*
X75490Y-31811D01*
X75490Y-31616D01*
X75490Y-31190D01*
X75416Y-31010D01*
X75278Y-30872D01*
X75098Y-30797D01*
X74903Y-30797D01*
X74723Y-30871D01*
X74585Y-31009D01*
X74510Y-31189D01*
X74510Y-31384D01*
X74510Y-31810D01*
X74584Y-31990D01*
X74722Y-32128D01*
X74902Y-32203D01*
X75097Y-32203D01*
X75277Y-32129D01*
X75415Y-31991D01*
X75490Y-31811D01*
X75490Y-34444D01*
X75217Y-34717D01*
X75130Y-34847D01*
X75100Y-35000D01*
X75100Y-37053D01*
X74992Y-37161D01*
X74901Y-37381D01*
X74901Y-37619D01*
X74992Y-37839D01*
X75161Y-38008D01*
X75381Y-38099D01*
X75619Y-38099D01*
X75839Y-38008D01*
X76008Y-37839D01*
X76099Y-37619D01*
X76099Y-37381D01*
X76008Y-37161D01*
X75900Y-37053D01*
X75900Y-35165D01*
X76216Y-34849D01*
X76689Y-34849D01*
X76762Y-34819D01*
X76818Y-34763D01*
X76849Y-34690D01*
X76849Y-44002D01*
X76839Y-43992D01*
X76619Y-43901D01*
X76381Y-43901D01*
X76161Y-43992D01*
X76096Y-44056D01*
X76069Y-43988D01*
X76013Y-43932D01*
X75940Y-43901D01*
X75861Y-43901D01*
X75061Y-43901D01*
X74988Y-43931D01*
X74932Y-43987D01*
X74901Y-44060D01*
X74901Y-44139D01*
X74901Y-44939D01*
X74931Y-45012D01*
X74987Y-45068D01*
X75047Y-45093D01*
X75047Y-46275D01*
X75077Y-46428D01*
X75164Y-46558D01*
X75339Y-46733D01*
X75342Y-46736D01*
X75471Y-46822D01*
X75472Y-46823D01*
X75594Y-46846D01*
X75624Y-46853D01*
X75624Y-46852D01*
X75625Y-46853D01*
X77000Y-46853D01*
X77042Y-46844D01*
X76881Y-47006D01*
X74490Y-47006D01*
X74490Y-31811D01*
X74490Y-31616D01*
X74490Y-31190D01*
X74416Y-31010D01*
X74278Y-30872D01*
X74098Y-30797D01*
X73903Y-30797D01*
X73723Y-30871D01*
X73585Y-31009D01*
X73510Y-31189D01*
X73510Y-31384D01*
X73510Y-31810D01*
X73584Y-31990D01*
X73722Y-32128D01*
X73902Y-32203D01*
X74097Y-32203D01*
X74277Y-32129D01*
X74415Y-31991D01*
X74490Y-31811D01*
X74490Y-47006D01*
X73490Y-47006D01*
X73490Y-31811D01*
X73490Y-31616D01*
X73490Y-31190D01*
X73416Y-31010D01*
X73278Y-30872D01*
X73098Y-30797D01*
X72903Y-30797D01*
X72723Y-30871D01*
X72585Y-31009D01*
X72510Y-31189D01*
X72510Y-31384D01*
X72510Y-31810D01*
X72584Y-31990D01*
X72722Y-32128D01*
X72902Y-32203D01*
X73097Y-32203D01*
X73277Y-32129D01*
X73415Y-31991D01*
X73490Y-31811D01*
X73490Y-47006D01*
X72490Y-47006D01*
X72490Y-31811D01*
X72490Y-31616D01*
X72490Y-31190D01*
X72416Y-31010D01*
X72278Y-30872D01*
X72098Y-30797D01*
X71903Y-30797D01*
X71723Y-30871D01*
X71585Y-31009D01*
X71510Y-31189D01*
X71510Y-31384D01*
X71510Y-31810D01*
X71584Y-31990D01*
X71722Y-32128D01*
X71902Y-32203D01*
X72097Y-32203D01*
X72277Y-32129D01*
X72415Y-31991D01*
X72490Y-31811D01*
X72490Y-47006D01*
X71641Y-47006D01*
X71641Y-44603D01*
X71631Y-44349D01*
X71599Y-44270D01*
X71599Y-37619D01*
X71599Y-37381D01*
X71508Y-37161D01*
X71339Y-36992D01*
X71119Y-36901D01*
X70966Y-36901D01*
X70650Y-36584D01*
X70650Y-34697D01*
X70758Y-34589D01*
X70849Y-34369D01*
X70849Y-34131D01*
X70758Y-33911D01*
X70589Y-33742D01*
X70490Y-33701D01*
X70490Y-31811D01*
X70490Y-31616D01*
X70490Y-31190D01*
X70416Y-31010D01*
X70278Y-30872D01*
X70098Y-30797D01*
X69903Y-30797D01*
X69723Y-30871D01*
X69585Y-31009D01*
X69510Y-31189D01*
X69510Y-31384D01*
X69510Y-31810D01*
X69584Y-31990D01*
X69722Y-32128D01*
X69902Y-32203D01*
X70097Y-32203D01*
X70277Y-32129D01*
X70415Y-31991D01*
X70490Y-31811D01*
X70490Y-33701D01*
X70369Y-33651D01*
X70131Y-33651D01*
X69911Y-33742D01*
X69742Y-33911D01*
X69651Y-34131D01*
X69651Y-34369D01*
X69742Y-34589D01*
X69850Y-34697D01*
X69850Y-36750D01*
X69880Y-36903D01*
X69967Y-37033D01*
X70401Y-37466D01*
X70401Y-37619D01*
X70492Y-37839D01*
X70661Y-38008D01*
X70881Y-38099D01*
X71119Y-38099D01*
X71339Y-38008D01*
X71508Y-37839D01*
X71599Y-37619D01*
X71599Y-44270D01*
X71554Y-44160D01*
X71449Y-44122D01*
X71378Y-44193D01*
X71378Y-44051D01*
X71340Y-43946D01*
X71103Y-43859D01*
X70849Y-43869D01*
X70660Y-43946D01*
X70622Y-44051D01*
X71000Y-44429D01*
X71378Y-44051D01*
X71378Y-44193D01*
X71071Y-44500D01*
X71449Y-44878D01*
X71554Y-44840D01*
X71641Y-44603D01*
X71641Y-47006D01*
X71619Y-47006D01*
X71383Y-46770D01*
X71379Y-46767D01*
X71378Y-46765D01*
X71378Y-44949D01*
X71000Y-44571D01*
X70929Y-44642D01*
X70929Y-44500D01*
X70551Y-44122D01*
X70490Y-44143D01*
X70339Y-43992D01*
X70119Y-43901D01*
X69881Y-43901D01*
X69661Y-43992D01*
X69500Y-44153D01*
X69490Y-44143D01*
X69490Y-31811D01*
X69490Y-31616D01*
X69490Y-31190D01*
X69416Y-31010D01*
X69278Y-30872D01*
X69098Y-30797D01*
X68903Y-30797D01*
X68723Y-30871D01*
X68585Y-31009D01*
X68510Y-31189D01*
X68510Y-31384D01*
X68510Y-31810D01*
X68584Y-31990D01*
X68722Y-32128D01*
X68902Y-32203D01*
X69097Y-32203D01*
X69277Y-32129D01*
X69415Y-31991D01*
X69490Y-31811D01*
X69490Y-44143D01*
X69349Y-44002D01*
X69349Y-34690D01*
X69349Y-34611D01*
X69349Y-33811D01*
X69319Y-33738D01*
X69263Y-33682D01*
X69190Y-33651D01*
X69111Y-33651D01*
X68490Y-33651D01*
X68490Y-31811D01*
X68490Y-31616D01*
X68490Y-31190D01*
X68416Y-31010D01*
X68278Y-30872D01*
X68098Y-30797D01*
X67903Y-30797D01*
X67723Y-30871D01*
X67585Y-31009D01*
X67510Y-31189D01*
X67510Y-31384D01*
X67510Y-31810D01*
X67584Y-31990D01*
X67722Y-32128D01*
X67902Y-32203D01*
X68097Y-32203D01*
X68277Y-32129D01*
X68415Y-31991D01*
X68490Y-31811D01*
X68490Y-33651D01*
X68311Y-33651D01*
X68238Y-33681D01*
X68182Y-33737D01*
X68151Y-33810D01*
X68151Y-33889D01*
X68151Y-34283D01*
X67717Y-34717D01*
X67630Y-34847D01*
X67600Y-35000D01*
X67600Y-37053D01*
X67492Y-37161D01*
X67490Y-37165D01*
X67490Y-31811D01*
X67490Y-31616D01*
X67490Y-31190D01*
X67416Y-31010D01*
X67278Y-30872D01*
X67098Y-30797D01*
X66903Y-30797D01*
X66723Y-30871D01*
X66585Y-31009D01*
X66510Y-31189D01*
X66510Y-31384D01*
X66510Y-31810D01*
X66584Y-31990D01*
X66722Y-32128D01*
X66902Y-32203D01*
X67097Y-32203D01*
X67277Y-32129D01*
X67415Y-31991D01*
X67490Y-31811D01*
X67490Y-37165D01*
X67401Y-37381D01*
X67401Y-37619D01*
X67492Y-37839D01*
X67661Y-38008D01*
X67881Y-38099D01*
X68119Y-38099D01*
X68339Y-38008D01*
X68508Y-37839D01*
X68599Y-37619D01*
X68599Y-37381D01*
X68508Y-37161D01*
X68400Y-37053D01*
X68400Y-35165D01*
X68716Y-34849D01*
X69189Y-34849D01*
X69262Y-34819D01*
X69318Y-34763D01*
X69349Y-34690D01*
X69349Y-44002D01*
X69339Y-43992D01*
X69119Y-43901D01*
X68881Y-43901D01*
X68661Y-43992D01*
X68596Y-44056D01*
X68569Y-43988D01*
X68513Y-43932D01*
X68440Y-43901D01*
X68361Y-43901D01*
X67561Y-43901D01*
X67488Y-43931D01*
X67432Y-43987D01*
X67401Y-44060D01*
X67401Y-44139D01*
X67401Y-44939D01*
X67431Y-45012D01*
X67487Y-45068D01*
X67546Y-45093D01*
X67546Y-46337D01*
X67576Y-46490D01*
X67663Y-46620D01*
X67779Y-46736D01*
X67909Y-46823D01*
X68062Y-46853D01*
X69500Y-46853D01*
X69653Y-46823D01*
X69783Y-46736D01*
X69870Y-46606D01*
X69900Y-46453D01*
X69900Y-46281D01*
X69918Y-46263D01*
X69949Y-46190D01*
X69949Y-46111D01*
X69949Y-45311D01*
X69919Y-45238D01*
X69863Y-45182D01*
X69790Y-45151D01*
X69711Y-45151D01*
X69211Y-45151D01*
X69138Y-45181D01*
X69082Y-45237D01*
X69051Y-45310D01*
X69051Y-45389D01*
X69051Y-46053D01*
X68949Y-46053D01*
X68949Y-45311D01*
X68919Y-45238D01*
X68863Y-45182D01*
X68790Y-45151D01*
X68711Y-45151D01*
X68346Y-45151D01*
X68346Y-45099D01*
X68439Y-45099D01*
X68512Y-45069D01*
X68568Y-45013D01*
X68597Y-44944D01*
X68661Y-45008D01*
X68881Y-45099D01*
X69119Y-45099D01*
X69339Y-45008D01*
X69500Y-44847D01*
X69661Y-45008D01*
X69881Y-45099D01*
X70119Y-45099D01*
X70339Y-45008D01*
X70490Y-44856D01*
X70551Y-44878D01*
X70929Y-44500D01*
X70929Y-44642D01*
X70622Y-44949D01*
X70660Y-45054D01*
X70897Y-45141D01*
X71151Y-45131D01*
X71340Y-45054D01*
X71378Y-44949D01*
X71378Y-46765D01*
X70900Y-46287D01*
X70900Y-46281D01*
X70918Y-46263D01*
X70949Y-46190D01*
X70949Y-46111D01*
X70949Y-45311D01*
X70919Y-45238D01*
X70863Y-45182D01*
X70790Y-45151D01*
X70711Y-45151D01*
X70211Y-45151D01*
X70138Y-45181D01*
X70082Y-45237D01*
X70051Y-45310D01*
X70051Y-45389D01*
X70051Y-46189D01*
X70081Y-46262D01*
X70100Y-46281D01*
X70100Y-46453D01*
X70130Y-46606D01*
X70217Y-46736D01*
X70534Y-47052D01*
X70370Y-47217D01*
X70283Y-47347D01*
X70253Y-47500D01*
X70283Y-47653D01*
X70370Y-47783D01*
X70500Y-47870D01*
X70653Y-47900D01*
X70806Y-47870D01*
X70936Y-47783D01*
X71100Y-47619D01*
X71170Y-47689D01*
X71299Y-47776D01*
X71300Y-47776D01*
X71453Y-47806D01*
X76798Y-47806D01*
X76894Y-47870D01*
X77047Y-47900D01*
X77200Y-47870D01*
X77330Y-47783D01*
X77417Y-47653D01*
X77429Y-47589D01*
X78279Y-46738D01*
X78282Y-46736D01*
X78283Y-46736D01*
X78369Y-46607D01*
X78370Y-46606D01*
X78393Y-46484D01*
X78400Y-46454D01*
X78399Y-46453D01*
X78400Y-46453D01*
X78400Y-46281D01*
X78418Y-46263D01*
X78449Y-46190D01*
X78449Y-48467D01*
X78000Y-48467D01*
X77908Y-48485D01*
X77830Y-48537D01*
X77778Y-48615D01*
X77770Y-48651D01*
X77711Y-48651D01*
X77638Y-48681D01*
X77582Y-48737D01*
X77551Y-48810D01*
X77551Y-48889D01*
X77551Y-49689D01*
X77581Y-49762D01*
X77637Y-49818D01*
X77710Y-49849D01*
X77776Y-49849D01*
X77723Y-49871D01*
X77585Y-50009D01*
X77510Y-50189D01*
X77510Y-50384D01*
X77510Y-50810D01*
X77584Y-50990D01*
X77722Y-51128D01*
X77902Y-51203D01*
X78097Y-51203D01*
X78277Y-51129D01*
X78415Y-50991D01*
X78490Y-50811D01*
X78490Y-50616D01*
X78490Y-50190D01*
X78416Y-50010D01*
X78278Y-49872D01*
X78222Y-49849D01*
X78289Y-49849D01*
X78362Y-49819D01*
X78418Y-49763D01*
X78449Y-49690D01*
X78449Y-49611D01*
X78449Y-48947D01*
X78812Y-48947D01*
X78859Y-48993D01*
X78859Y-49103D01*
X78916Y-49241D01*
X79021Y-49346D01*
X79159Y-49404D01*
X79308Y-49404D01*
X79446Y-49347D01*
X79551Y-49242D01*
X79609Y-49104D01*
X79609Y-49985D01*
X79585Y-50009D01*
X79510Y-50189D01*
X79510Y-50384D01*
X79510Y-50810D01*
X79584Y-50990D01*
X79722Y-51128D01*
X79902Y-51203D01*
X80097Y-51203D01*
X80277Y-51129D01*
X80415Y-50991D01*
X80490Y-50811D01*
X80490Y-51255D01*
X79490Y-51255D01*
X79490Y-50811D01*
X79490Y-50616D01*
X79490Y-50190D01*
X79416Y-50010D01*
X79278Y-49872D01*
X79098Y-49797D01*
X78903Y-49797D01*
X78723Y-49871D01*
X78585Y-50009D01*
X78510Y-50189D01*
X78510Y-50384D01*
X78510Y-50810D01*
X78584Y-50990D01*
X78722Y-51128D01*
X78902Y-51203D01*
X79097Y-51203D01*
X79277Y-51129D01*
X79415Y-50991D01*
X79490Y-50811D01*
X79490Y-51255D01*
X77500Y-51255D01*
X77500Y-49362D01*
X77500Y-49138D01*
X77499Y-48801D01*
X77461Y-48709D01*
X77391Y-48639D01*
X77300Y-48601D01*
X77201Y-48601D01*
X77112Y-48600D01*
X77050Y-48662D01*
X77050Y-49200D01*
X77438Y-49200D01*
X77500Y-49138D01*
X77500Y-49362D01*
X77438Y-49300D01*
X77100Y-49300D01*
X77050Y-49300D01*
X76950Y-49300D01*
X76950Y-49200D01*
X76950Y-48662D01*
X76888Y-48600D01*
X76799Y-48601D01*
X76700Y-48601D01*
X76609Y-48639D01*
X76539Y-48709D01*
X76501Y-48801D01*
X76500Y-49138D01*
X76562Y-49200D01*
X76950Y-49200D01*
X76950Y-49300D01*
X76900Y-49300D01*
X76562Y-49300D01*
X76500Y-49362D01*
X76501Y-49699D01*
X76539Y-49791D01*
X76609Y-49861D01*
X76696Y-49897D01*
X76585Y-50009D01*
X76510Y-50189D01*
X76510Y-50384D01*
X76510Y-50810D01*
X76584Y-50990D01*
X76722Y-51128D01*
X76902Y-51203D01*
X77097Y-51203D01*
X77277Y-51129D01*
X77415Y-50991D01*
X77490Y-50811D01*
X77490Y-50616D01*
X77490Y-50190D01*
X77416Y-50010D01*
X77303Y-49897D01*
X77391Y-49861D01*
X77461Y-49791D01*
X77499Y-49699D01*
X77500Y-49362D01*
X77500Y-51255D01*
X76490Y-51255D01*
X76490Y-50811D01*
X76490Y-50616D01*
X76490Y-50190D01*
X76416Y-50010D01*
X76278Y-49872D01*
X76222Y-49849D01*
X76289Y-49849D01*
X76362Y-49819D01*
X76418Y-49763D01*
X76449Y-49690D01*
X76449Y-49611D01*
X76449Y-48811D01*
X76419Y-48738D01*
X76363Y-48682D01*
X76290Y-48651D01*
X76211Y-48651D01*
X75711Y-48651D01*
X75638Y-48681D01*
X75582Y-48737D01*
X75551Y-48810D01*
X75551Y-48889D01*
X75551Y-49689D01*
X75581Y-49762D01*
X75637Y-49818D01*
X75710Y-49849D01*
X75776Y-49849D01*
X75723Y-49871D01*
X75585Y-50009D01*
X75510Y-50189D01*
X75510Y-50384D01*
X75510Y-50810D01*
X75584Y-50990D01*
X75722Y-51128D01*
X75902Y-51203D01*
X76097Y-51203D01*
X76277Y-51129D01*
X76415Y-50991D01*
X76490Y-50811D01*
X76490Y-51255D01*
X75490Y-51255D01*
X75490Y-50811D01*
X75490Y-50616D01*
X75490Y-50190D01*
X75416Y-50010D01*
X75278Y-49872D01*
X75098Y-49797D01*
X74903Y-49797D01*
X74723Y-49871D01*
X74585Y-50009D01*
X74510Y-50189D01*
X74510Y-50384D01*
X74510Y-50810D01*
X74584Y-50990D01*
X74722Y-51128D01*
X74902Y-51203D01*
X75097Y-51203D01*
X75277Y-51129D01*
X75415Y-50991D01*
X75490Y-50811D01*
X75490Y-51255D01*
X74490Y-51255D01*
X74490Y-50811D01*
X74490Y-50616D01*
X74490Y-50190D01*
X74416Y-50010D01*
X74278Y-49872D01*
X74098Y-49797D01*
X73903Y-49797D01*
X73723Y-49871D01*
X73585Y-50009D01*
X73510Y-50189D01*
X73510Y-50384D01*
X73510Y-50810D01*
X73584Y-50990D01*
X73722Y-51128D01*
X73902Y-51203D01*
X74097Y-51203D01*
X74277Y-51129D01*
X74415Y-50991D01*
X74490Y-50811D01*
X74490Y-51255D01*
X72490Y-51255D01*
X72490Y-50811D01*
X72490Y-50616D01*
X72490Y-50190D01*
X72416Y-50010D01*
X72278Y-49872D01*
X72098Y-49797D01*
X71903Y-49797D01*
X71723Y-49871D01*
X71585Y-50009D01*
X71551Y-50090D01*
X71551Y-49196D01*
X71551Y-49047D01*
X71494Y-48909D01*
X71389Y-48804D01*
X71251Y-48746D01*
X71102Y-48746D01*
X70964Y-48803D01*
X70949Y-48818D01*
X70949Y-48811D01*
X70919Y-48738D01*
X70863Y-48682D01*
X70790Y-48651D01*
X70711Y-48651D01*
X70211Y-48651D01*
X70138Y-48681D01*
X70082Y-48737D01*
X70051Y-48810D01*
X70051Y-48889D01*
X70051Y-49689D01*
X70081Y-49762D01*
X70128Y-49809D01*
X70098Y-49797D01*
X69955Y-49797D01*
X69961Y-49791D01*
X69999Y-49699D01*
X70000Y-49362D01*
X70000Y-49138D01*
X69999Y-48801D01*
X69961Y-48709D01*
X69891Y-48639D01*
X69800Y-48601D01*
X69701Y-48601D01*
X69612Y-48600D01*
X69550Y-48662D01*
X69550Y-49200D01*
X69938Y-49200D01*
X70000Y-49138D01*
X70000Y-49362D01*
X69938Y-49300D01*
X69550Y-49300D01*
X69550Y-49838D01*
X69612Y-49900D01*
X69694Y-49899D01*
X69585Y-50009D01*
X69510Y-50189D01*
X69510Y-50384D01*
X69510Y-50810D01*
X69584Y-50990D01*
X69722Y-51128D01*
X69902Y-51203D01*
X70097Y-51203D01*
X70277Y-51129D01*
X70415Y-50991D01*
X70490Y-50811D01*
X70490Y-50616D01*
X70490Y-50190D01*
X70416Y-50010D01*
X70278Y-49872D01*
X70222Y-49849D01*
X70289Y-49849D01*
X70776Y-49849D01*
X70723Y-49871D01*
X70585Y-50009D01*
X70510Y-50189D01*
X70510Y-50384D01*
X70510Y-50810D01*
X70584Y-50990D01*
X70722Y-51128D01*
X70902Y-51203D01*
X71097Y-51203D01*
X71277Y-51129D01*
X71415Y-50991D01*
X71490Y-50811D01*
X71490Y-50616D01*
X71490Y-50190D01*
X71416Y-50010D01*
X71278Y-49872D01*
X71098Y-49797D01*
X70903Y-49797D01*
X70870Y-49810D01*
X70918Y-49763D01*
X70949Y-49690D01*
X70949Y-49611D01*
X70949Y-49490D01*
X71047Y-49490D01*
X71074Y-49484D01*
X71101Y-49496D01*
X71250Y-49496D01*
X71388Y-49439D01*
X71493Y-49334D01*
X71551Y-49196D01*
X71551Y-50090D01*
X71510Y-50189D01*
X71510Y-50384D01*
X71510Y-50810D01*
X71584Y-50990D01*
X71722Y-51128D01*
X71902Y-51203D01*
X72097Y-51203D01*
X72277Y-51129D01*
X72415Y-50991D01*
X72490Y-50811D01*
X72490Y-51255D01*
X69490Y-51255D01*
X69490Y-50811D01*
X69490Y-50616D01*
X69490Y-50190D01*
X69416Y-50010D01*
X69305Y-49899D01*
X69388Y-49900D01*
X69450Y-49838D01*
X69450Y-49300D01*
X69450Y-49200D01*
X69450Y-48662D01*
X69388Y-48600D01*
X69299Y-48601D01*
X69200Y-48601D01*
X69109Y-48639D01*
X69039Y-48709D01*
X69001Y-48801D01*
X69000Y-49138D01*
X69062Y-49200D01*
X69450Y-49200D01*
X69450Y-49300D01*
X69062Y-49300D01*
X69000Y-49362D01*
X69001Y-49699D01*
X69039Y-49791D01*
X69045Y-49797D01*
X68903Y-49797D01*
X68870Y-49810D01*
X68918Y-49763D01*
X68949Y-49690D01*
X68949Y-49611D01*
X68949Y-48811D01*
X68919Y-48738D01*
X68863Y-48682D01*
X68790Y-48651D01*
X68711Y-48651D01*
X68211Y-48651D01*
X68138Y-48681D01*
X68082Y-48737D01*
X68051Y-48810D01*
X68051Y-48889D01*
X68051Y-49689D01*
X68081Y-49762D01*
X68128Y-49809D01*
X68098Y-49797D01*
X67903Y-49797D01*
X67723Y-49871D01*
X67585Y-50009D01*
X67510Y-50189D01*
X67510Y-50384D01*
X67510Y-50810D01*
X67584Y-50990D01*
X67722Y-51128D01*
X67902Y-51203D01*
X68097Y-51203D01*
X68277Y-51129D01*
X68415Y-50991D01*
X68490Y-50811D01*
X68490Y-50616D01*
X68490Y-50190D01*
X68416Y-50010D01*
X68278Y-49872D01*
X68222Y-49849D01*
X68289Y-49849D01*
X68776Y-49849D01*
X68723Y-49871D01*
X68585Y-50009D01*
X68510Y-50189D01*
X68510Y-50384D01*
X68510Y-50810D01*
X68584Y-50990D01*
X68722Y-51128D01*
X68902Y-51203D01*
X69097Y-51203D01*
X69277Y-51129D01*
X69415Y-50991D01*
X69490Y-50811D01*
X69490Y-51255D01*
X67490Y-51255D01*
X67490Y-50811D01*
X67490Y-50616D01*
X67490Y-50190D01*
X67416Y-50010D01*
X67278Y-49872D01*
X67098Y-49797D01*
X66903Y-49797D01*
X66723Y-49871D01*
X66585Y-50009D01*
X66510Y-50189D01*
X66510Y-50384D01*
X66510Y-50810D01*
X66584Y-50990D01*
X66722Y-51128D01*
X66902Y-51203D01*
X67097Y-51203D01*
X67277Y-51129D01*
X67415Y-50991D01*
X67490Y-50811D01*
X67490Y-51255D01*
X66490Y-51255D01*
X66490Y-50811D01*
X66490Y-50616D01*
X66490Y-50190D01*
X66490Y-31811D01*
X66490Y-31616D01*
X66490Y-31190D01*
X66416Y-31010D01*
X66278Y-30872D01*
X66098Y-30797D01*
X65903Y-30797D01*
X65723Y-30871D01*
X65585Y-31009D01*
X65510Y-31189D01*
X65510Y-31384D01*
X65510Y-31810D01*
X65584Y-31990D01*
X65722Y-32128D01*
X65902Y-32203D01*
X66097Y-32203D01*
X66277Y-32129D01*
X66415Y-31991D01*
X66490Y-31811D01*
X66490Y-50190D01*
X66416Y-50010D01*
X66278Y-49872D01*
X66098Y-49797D01*
X65903Y-49797D01*
X65723Y-49871D01*
X65585Y-50009D01*
X65510Y-50189D01*
X65510Y-50384D01*
X65510Y-50810D01*
X65584Y-50990D01*
X65722Y-51128D01*
X65902Y-51203D01*
X66097Y-51203D01*
X66277Y-51129D01*
X66415Y-50991D01*
X66490Y-50811D01*
X66490Y-51255D01*
X65490Y-51255D01*
X65490Y-50811D01*
X65490Y-50616D01*
X65490Y-50190D01*
X65416Y-50010D01*
X65278Y-49872D01*
X65098Y-49797D01*
X64903Y-49797D01*
X64723Y-49871D01*
X64625Y-49969D01*
X64625Y-48825D01*
X64625Y-48676D01*
X64568Y-48538D01*
X64463Y-48433D01*
X64325Y-48375D01*
X64176Y-48375D01*
X64038Y-48432D01*
X64003Y-48467D01*
X63000Y-48467D01*
X62908Y-48485D01*
X62830Y-48537D01*
X62778Y-48615D01*
X62770Y-48651D01*
X62711Y-48651D01*
X62638Y-48681D01*
X62582Y-48737D01*
X62551Y-48810D01*
X62551Y-48889D01*
X62551Y-49689D01*
X62581Y-49762D01*
X62637Y-49818D01*
X62710Y-49849D01*
X62776Y-49849D01*
X62723Y-49871D01*
X62585Y-50009D01*
X62522Y-50158D01*
X62489Y-50043D01*
X62354Y-49876D01*
X62391Y-49861D01*
X62461Y-49791D01*
X62499Y-49699D01*
X62500Y-49362D01*
X62500Y-49138D01*
X62499Y-48801D01*
X62461Y-48709D01*
X62391Y-48639D01*
X62300Y-48601D01*
X62201Y-48601D01*
X62112Y-48600D01*
X62050Y-48662D01*
X62050Y-49200D01*
X62438Y-49200D01*
X62500Y-49138D01*
X62500Y-49362D01*
X62438Y-49300D01*
X62050Y-49300D01*
X62050Y-49815D01*
X62050Y-49838D01*
X62050Y-50400D01*
X62050Y-50450D01*
X62050Y-50550D01*
X62050Y-50600D01*
X62050Y-51185D01*
X62135Y-51232D01*
X62163Y-51228D01*
X62353Y-51125D01*
X62489Y-50957D01*
X62523Y-50841D01*
X62584Y-50990D01*
X62722Y-51128D01*
X62902Y-51203D01*
X63097Y-51203D01*
X63277Y-51129D01*
X63415Y-50991D01*
X63490Y-50811D01*
X63490Y-50616D01*
X63490Y-50190D01*
X63416Y-50010D01*
X63278Y-49872D01*
X63222Y-49849D01*
X63289Y-49849D01*
X63362Y-49819D01*
X63418Y-49763D01*
X63449Y-49690D01*
X63449Y-49611D01*
X63449Y-48947D01*
X63925Y-48947D01*
X63932Y-48962D01*
X64037Y-49067D01*
X64175Y-49125D01*
X64324Y-49125D01*
X64462Y-49068D01*
X64567Y-48963D01*
X64625Y-48825D01*
X64625Y-49969D01*
X64585Y-50009D01*
X64510Y-50189D01*
X64510Y-50384D01*
X64510Y-50810D01*
X64584Y-50990D01*
X64722Y-51128D01*
X64902Y-51203D01*
X65097Y-51203D01*
X65277Y-51129D01*
X65415Y-50991D01*
X65490Y-50811D01*
X65490Y-51255D01*
X61950Y-51255D01*
X61950Y-51185D01*
X61950Y-50550D01*
X61950Y-50450D01*
X61950Y-49838D01*
X61950Y-49815D01*
X61950Y-49300D01*
X61950Y-49200D01*
X61950Y-48662D01*
X61888Y-48600D01*
X61799Y-48601D01*
X61700Y-48601D01*
X61609Y-48639D01*
X61539Y-48709D01*
X61501Y-48801D01*
X61500Y-49138D01*
X61562Y-49200D01*
X61950Y-49200D01*
X61950Y-49300D01*
X61562Y-49300D01*
X61500Y-49362D01*
X61501Y-49699D01*
X61539Y-49791D01*
X61609Y-49861D01*
X61645Y-49876D01*
X61511Y-50043D01*
X61500Y-50080D01*
X61489Y-50043D01*
X61353Y-49875D01*
X61298Y-49845D01*
X61362Y-49819D01*
X61418Y-49763D01*
X61449Y-49690D01*
X61449Y-49611D01*
X61449Y-48811D01*
X61419Y-48738D01*
X61363Y-48682D01*
X61290Y-48651D01*
X61211Y-48651D01*
X60711Y-48651D01*
X60638Y-48681D01*
X60582Y-48737D01*
X60551Y-48810D01*
X60551Y-48889D01*
X60551Y-49689D01*
X60581Y-49762D01*
X60637Y-49818D01*
X60701Y-49845D01*
X60647Y-49875D01*
X60511Y-50043D01*
X60476Y-50158D01*
X60416Y-50010D01*
X60278Y-49872D01*
X60098Y-49797D01*
X59903Y-49797D01*
X59723Y-49871D01*
X59585Y-50009D01*
X59510Y-50189D01*
X59510Y-50384D01*
X59510Y-50810D01*
X59584Y-50990D01*
X59722Y-51128D01*
X59902Y-51203D01*
X60097Y-51203D01*
X60277Y-51129D01*
X60415Y-50991D01*
X60477Y-50841D01*
X60511Y-50957D01*
X60647Y-51125D01*
X60837Y-51228D01*
X60865Y-51232D01*
X60950Y-51185D01*
X60950Y-50600D01*
X60950Y-50550D01*
X60950Y-50450D01*
X61050Y-50450D01*
X61100Y-50450D01*
X61450Y-50450D01*
X61550Y-50450D01*
X61950Y-50450D01*
X61950Y-50550D01*
X61550Y-50550D01*
X61450Y-50550D01*
X61050Y-50550D01*
X61050Y-51185D01*
X61135Y-51232D01*
X61163Y-51228D01*
X61353Y-51125D01*
X61489Y-50957D01*
X61500Y-50919D01*
X61511Y-50957D01*
X61647Y-51125D01*
X61837Y-51228D01*
X61865Y-51232D01*
X61950Y-51185D01*
X61950Y-51255D01*
X59490Y-51255D01*
X59490Y-50811D01*
X59490Y-50616D01*
X59490Y-50190D01*
X59416Y-50010D01*
X59278Y-49872D01*
X59098Y-49797D01*
X58903Y-49797D01*
X58723Y-49871D01*
X58585Y-50009D01*
X58510Y-50189D01*
X58510Y-50384D01*
X58510Y-50810D01*
X58584Y-50990D01*
X58722Y-51128D01*
X58902Y-51203D01*
X59097Y-51203D01*
X59277Y-51129D01*
X59415Y-50991D01*
X59490Y-50811D01*
X59490Y-51255D01*
X58490Y-51255D01*
X58490Y-50811D01*
X58490Y-50616D01*
X58490Y-50190D01*
X58416Y-50010D01*
X58278Y-49872D01*
X58098Y-49797D01*
X57903Y-49797D01*
X57723Y-49871D01*
X57585Y-50009D01*
X57510Y-50189D01*
X57510Y-50384D01*
X57510Y-50810D01*
X57584Y-50990D01*
X57722Y-51128D01*
X57902Y-51203D01*
X58097Y-51203D01*
X58277Y-51129D01*
X58415Y-50991D01*
X58490Y-50811D01*
X58490Y-51255D01*
X57490Y-51255D01*
X57490Y-50811D01*
X57490Y-50616D01*
X57490Y-50190D01*
X57416Y-50010D01*
X57278Y-49872D01*
X57125Y-49808D01*
X57125Y-49273D01*
X57125Y-49124D01*
X57068Y-48986D01*
X56963Y-48881D01*
X56825Y-48823D01*
X56676Y-48823D01*
X56538Y-48880D01*
X56433Y-48985D01*
X56422Y-49010D01*
X55949Y-49010D01*
X55949Y-48811D01*
X55919Y-48738D01*
X55863Y-48682D01*
X55790Y-48651D01*
X55711Y-48651D01*
X55211Y-48651D01*
X55138Y-48681D01*
X55082Y-48737D01*
X55051Y-48810D01*
X55051Y-48889D01*
X55051Y-49689D01*
X55081Y-49762D01*
X55137Y-49818D01*
X55210Y-49849D01*
X55289Y-49849D01*
X55776Y-49849D01*
X55723Y-49871D01*
X55585Y-50009D01*
X55510Y-50189D01*
X55510Y-50384D01*
X55510Y-50810D01*
X55584Y-50990D01*
X55722Y-51128D01*
X55902Y-51203D01*
X56097Y-51203D01*
X56277Y-51129D01*
X56415Y-50991D01*
X56490Y-50811D01*
X56490Y-50616D01*
X56490Y-50190D01*
X56416Y-50010D01*
X56278Y-49872D01*
X56098Y-49797D01*
X55903Y-49797D01*
X55870Y-49810D01*
X55918Y-49763D01*
X55949Y-49690D01*
X55949Y-49611D01*
X55949Y-49490D01*
X56512Y-49490D01*
X56537Y-49515D01*
X56675Y-49573D01*
X56824Y-49573D01*
X56962Y-49516D01*
X57067Y-49411D01*
X57125Y-49273D01*
X57125Y-49808D01*
X57098Y-49797D01*
X56903Y-49797D01*
X56723Y-49871D01*
X56585Y-50009D01*
X56510Y-50189D01*
X56510Y-50384D01*
X56510Y-50810D01*
X56584Y-50990D01*
X56722Y-51128D01*
X56902Y-51203D01*
X57097Y-51203D01*
X57277Y-51129D01*
X57415Y-50991D01*
X57490Y-50811D01*
X57490Y-51255D01*
X55000Y-51255D01*
X55000Y-49362D01*
X55000Y-49138D01*
X54999Y-48801D01*
X54961Y-48709D01*
X54891Y-48639D01*
X54800Y-48601D01*
X54701Y-48601D01*
X54612Y-48600D01*
X54550Y-48662D01*
X54550Y-49200D01*
X54938Y-49200D01*
X55000Y-49138D01*
X55000Y-49362D01*
X54938Y-49300D01*
X54550Y-49300D01*
X54550Y-49838D01*
X54612Y-49900D01*
X54701Y-49899D01*
X54800Y-49899D01*
X54891Y-49861D01*
X54961Y-49791D01*
X54999Y-49699D01*
X55000Y-49362D01*
X55000Y-51255D01*
X54450Y-51255D01*
X54450Y-49838D01*
X54450Y-49300D01*
X54450Y-49200D01*
X54450Y-48662D01*
X54388Y-48600D01*
X54299Y-48601D01*
X54200Y-48601D01*
X54109Y-48639D01*
X54039Y-48709D01*
X54001Y-48801D01*
X54000Y-49138D01*
X54062Y-49200D01*
X54450Y-49200D01*
X54450Y-49300D01*
X54062Y-49300D01*
X54000Y-49362D01*
X54001Y-49699D01*
X54039Y-49791D01*
X54109Y-49861D01*
X54200Y-49899D01*
X54299Y-49899D01*
X54388Y-49900D01*
X54450Y-49838D01*
X54450Y-51255D01*
X53949Y-51255D01*
X53949Y-49690D01*
X53949Y-49611D01*
X53949Y-48811D01*
X53919Y-48738D01*
X53863Y-48682D01*
X53790Y-48651D01*
X53711Y-48651D01*
X53211Y-48651D01*
X53138Y-48681D01*
X53082Y-48737D01*
X53051Y-48810D01*
X53051Y-48889D01*
X53051Y-49689D01*
X53081Y-49762D01*
X53137Y-49818D01*
X53210Y-49849D01*
X53289Y-49849D01*
X53789Y-49849D01*
X53862Y-49819D01*
X53918Y-49763D01*
X53949Y-49690D01*
X53949Y-51255D01*
X51123Y-51255D01*
X51326Y-51053D01*
X51475Y-50695D01*
X51475Y-50307D01*
X51327Y-49949D01*
X51053Y-49674D01*
X50695Y-49525D01*
X50307Y-49525D01*
X49949Y-49673D01*
X49674Y-49947D01*
X49525Y-50305D01*
X49525Y-50693D01*
X49673Y-51051D01*
X49876Y-51255D01*
X43745Y-51255D01*
X43745Y-30745D01*
X50376Y-30745D01*
X50174Y-30947D01*
X50025Y-31305D01*
X50025Y-31693D01*
X50173Y-32051D01*
X50447Y-32326D01*
X50805Y-32475D01*
X51193Y-32475D01*
X51551Y-32327D01*
X51826Y-32053D01*
X51918Y-31830D01*
X51984Y-31990D01*
X52122Y-32128D01*
X52302Y-32203D01*
X52497Y-32203D01*
X52677Y-32129D01*
X52815Y-31991D01*
X52890Y-31811D01*
X52890Y-31616D01*
X52890Y-31190D01*
X52816Y-31010D01*
X52678Y-30872D01*
X52498Y-30797D01*
X52303Y-30797D01*
X52123Y-30871D01*
X51985Y-31009D01*
X51918Y-31169D01*
X51827Y-30949D01*
X51623Y-30745D01*
X59749Y-30745D01*
X59722Y-30786D01*
X59704Y-30878D01*
X59704Y-30898D01*
X59678Y-30872D01*
X59498Y-30797D01*
X59303Y-30797D01*
X59123Y-30871D01*
X58985Y-31009D01*
X58910Y-31189D01*
X58910Y-31384D01*
X58910Y-31810D01*
X58984Y-31990D01*
X59122Y-32128D01*
X59302Y-32203D01*
X59497Y-32203D01*
X59677Y-32129D01*
X59704Y-32102D01*
X59704Y-39456D01*
X58890Y-40269D01*
X58890Y-31811D01*
X58890Y-31616D01*
X58890Y-31190D01*
X58816Y-31010D01*
X58678Y-30872D01*
X58498Y-30797D01*
X58303Y-30797D01*
X58123Y-30871D01*
X57985Y-31009D01*
X57910Y-31189D01*
X57910Y-31384D01*
X57910Y-31810D01*
X57984Y-31990D01*
X58122Y-32128D01*
X58302Y-32203D01*
X58497Y-32203D01*
X58677Y-32129D01*
X58815Y-31991D01*
X58890Y-31811D01*
X58890Y-40269D01*
X57890Y-41269D01*
X57890Y-31811D01*
X57890Y-31616D01*
X57890Y-31190D01*
X57816Y-31010D01*
X57678Y-30872D01*
X57498Y-30797D01*
X57303Y-30797D01*
X57123Y-30871D01*
X56985Y-31009D01*
X56910Y-31189D01*
X56910Y-31384D01*
X56910Y-31810D01*
X56984Y-31990D01*
X57122Y-32128D01*
X57302Y-32203D01*
X57497Y-32203D01*
X57677Y-32129D01*
X57815Y-31991D01*
X57890Y-31811D01*
X57890Y-41269D01*
X56890Y-42269D01*
X56890Y-31811D01*
X56890Y-31616D01*
X56890Y-31190D01*
X56816Y-31010D01*
X56678Y-30872D01*
X56498Y-30797D01*
X56303Y-30797D01*
X56123Y-30871D01*
X55985Y-31009D01*
X55910Y-31189D01*
X55910Y-31384D01*
X55910Y-31810D01*
X55984Y-31990D01*
X56122Y-32128D01*
X56302Y-32203D01*
X56497Y-32203D01*
X56677Y-32129D01*
X56815Y-31991D01*
X56890Y-31811D01*
X56890Y-42269D01*
X56599Y-42560D01*
X56599Y-37619D01*
X56599Y-37381D01*
X56508Y-37161D01*
X56339Y-36992D01*
X56119Y-36901D01*
X55966Y-36901D01*
X55890Y-36824D01*
X55890Y-31811D01*
X55890Y-31616D01*
X55890Y-31190D01*
X55816Y-31010D01*
X55678Y-30872D01*
X55498Y-30797D01*
X55303Y-30797D01*
X55123Y-30871D01*
X54985Y-31009D01*
X54910Y-31189D01*
X54910Y-31384D01*
X54910Y-31810D01*
X54984Y-31990D01*
X55122Y-32128D01*
X55302Y-32203D01*
X55497Y-32203D01*
X55677Y-32129D01*
X55815Y-31991D01*
X55890Y-31811D01*
X55890Y-36824D01*
X55650Y-36584D01*
X55650Y-34697D01*
X55758Y-34589D01*
X55849Y-34369D01*
X55849Y-34131D01*
X55758Y-33911D01*
X55589Y-33742D01*
X55369Y-33651D01*
X55131Y-33651D01*
X54911Y-33742D01*
X54890Y-33763D01*
X54890Y-31811D01*
X54890Y-31616D01*
X54890Y-31190D01*
X54816Y-31010D01*
X54678Y-30872D01*
X54498Y-30797D01*
X54303Y-30797D01*
X54123Y-30871D01*
X53985Y-31009D01*
X53910Y-31189D01*
X53910Y-31384D01*
X53910Y-31810D01*
X53984Y-31990D01*
X54122Y-32128D01*
X54302Y-32203D01*
X54497Y-32203D01*
X54677Y-32129D01*
X54815Y-31991D01*
X54890Y-31811D01*
X54890Y-33763D01*
X54742Y-33911D01*
X54651Y-34131D01*
X54651Y-34369D01*
X54742Y-34589D01*
X54850Y-34697D01*
X54850Y-36750D01*
X54880Y-36903D01*
X54967Y-37033D01*
X55401Y-37466D01*
X55401Y-37619D01*
X55492Y-37839D01*
X55661Y-38008D01*
X55881Y-38099D01*
X56119Y-38099D01*
X56339Y-38008D01*
X56508Y-37839D01*
X56599Y-37619D01*
X56599Y-42560D01*
X55218Y-43941D01*
X55119Y-43901D01*
X54881Y-43901D01*
X54661Y-43992D01*
X54500Y-44153D01*
X54349Y-44002D01*
X54349Y-34690D01*
X54349Y-34611D01*
X54349Y-33811D01*
X54319Y-33738D01*
X54263Y-33682D01*
X54190Y-33651D01*
X54111Y-33651D01*
X53890Y-33651D01*
X53890Y-31811D01*
X53890Y-31616D01*
X53890Y-31190D01*
X53816Y-31010D01*
X53678Y-30872D01*
X53498Y-30797D01*
X53303Y-30797D01*
X53123Y-30871D01*
X52985Y-31009D01*
X52910Y-31189D01*
X52910Y-31384D01*
X52910Y-31810D01*
X52984Y-31990D01*
X53122Y-32128D01*
X53302Y-32203D01*
X53497Y-32203D01*
X53677Y-32129D01*
X53815Y-31991D01*
X53890Y-31811D01*
X53890Y-33651D01*
X53311Y-33651D01*
X53238Y-33681D01*
X53182Y-33737D01*
X53151Y-33810D01*
X53151Y-33889D01*
X53151Y-34283D01*
X52717Y-34717D01*
X52630Y-34847D01*
X52600Y-35000D01*
X52600Y-37053D01*
X52492Y-37161D01*
X52401Y-37381D01*
X52401Y-37619D01*
X52492Y-37839D01*
X52661Y-38008D01*
X52881Y-38099D01*
X53119Y-38099D01*
X53339Y-38008D01*
X53508Y-37839D01*
X53599Y-37619D01*
X53599Y-37381D01*
X53508Y-37161D01*
X53400Y-37053D01*
X53400Y-35165D01*
X53716Y-34849D01*
X54189Y-34849D01*
X54262Y-34819D01*
X54318Y-34763D01*
X54349Y-34690D01*
X54349Y-44002D01*
X54339Y-43992D01*
X54119Y-43901D01*
X53881Y-43901D01*
X53661Y-43992D01*
X53596Y-44056D01*
X53569Y-43988D01*
X53513Y-43932D01*
X53440Y-43901D01*
X53361Y-43901D01*
X52561Y-43901D01*
X52488Y-43931D01*
X52432Y-43987D01*
X52401Y-44060D01*
X52401Y-44139D01*
X52401Y-44939D01*
X52431Y-45012D01*
X52487Y-45068D01*
X52546Y-45093D01*
X52546Y-46338D01*
X52576Y-46491D01*
X52663Y-46621D01*
X52776Y-46733D01*
X52778Y-46736D01*
X52907Y-46822D01*
X52908Y-46823D01*
X53061Y-46853D01*
X54500Y-46853D01*
X54653Y-46823D01*
X54783Y-46736D01*
X54870Y-46606D01*
X54900Y-46453D01*
X54900Y-46281D01*
X54918Y-46263D01*
X54949Y-46190D01*
X54949Y-46111D01*
X54949Y-45311D01*
X54919Y-45238D01*
X54863Y-45182D01*
X54790Y-45151D01*
X54711Y-45151D01*
X54211Y-45151D01*
X54138Y-45181D01*
X54082Y-45237D01*
X54051Y-45310D01*
X54051Y-45389D01*
X54051Y-46053D01*
X53949Y-46053D01*
X53949Y-45311D01*
X53919Y-45238D01*
X53863Y-45182D01*
X53790Y-45151D01*
X53711Y-45151D01*
X53346Y-45151D01*
X53346Y-45099D01*
X53439Y-45099D01*
X53512Y-45069D01*
X53568Y-45013D01*
X53597Y-44944D01*
X53661Y-45008D01*
X53881Y-45099D01*
X54119Y-45099D01*
X54339Y-45008D01*
X54500Y-44847D01*
X54661Y-45008D01*
X54881Y-45099D01*
X55119Y-45099D01*
X55339Y-45008D01*
X55490Y-44856D01*
X55551Y-44878D01*
X55894Y-44535D01*
X55929Y-44500D01*
X56000Y-44429D01*
X56035Y-44394D01*
X56378Y-44051D01*
X56340Y-43946D01*
X56103Y-43859D01*
X55975Y-43864D01*
X60111Y-39727D01*
X60113Y-39726D01*
X60114Y-39726D01*
X60165Y-39649D01*
X60166Y-39648D01*
X60180Y-39575D01*
X60184Y-39557D01*
X60183Y-39556D01*
X60184Y-39556D01*
X60184Y-38017D01*
X60381Y-38099D01*
X60619Y-38099D01*
X60839Y-38008D01*
X61008Y-37839D01*
X61099Y-37619D01*
X61099Y-37381D01*
X61008Y-37161D01*
X60900Y-37053D01*
X60900Y-35165D01*
X61216Y-34849D01*
X61659Y-34849D01*
X61659Y-36897D01*
X61677Y-36989D01*
X61729Y-37067D01*
X61805Y-37142D01*
X61805Y-37252D01*
X61862Y-37390D01*
X61967Y-37495D01*
X62105Y-37553D01*
X62254Y-37553D01*
X62260Y-37550D01*
X62260Y-43951D01*
X62161Y-43992D01*
X62000Y-44153D01*
X61839Y-43992D01*
X61619Y-43901D01*
X61381Y-43901D01*
X61161Y-43992D01*
X61096Y-44056D01*
X61069Y-43988D01*
X61013Y-43932D01*
X60940Y-43901D01*
X60861Y-43901D01*
X60061Y-43901D01*
X59988Y-43931D01*
X59932Y-43987D01*
X59901Y-44060D01*
X59901Y-44139D01*
X59901Y-44939D01*
X59931Y-45012D01*
X59987Y-45068D01*
X60046Y-45093D01*
X60046Y-46338D01*
X60076Y-46491D01*
X60135Y-46580D01*
X56641Y-46580D01*
X56641Y-44603D01*
X56631Y-44349D01*
X56554Y-44160D01*
X56449Y-44122D01*
X56071Y-44500D01*
X56449Y-44878D01*
X56554Y-44840D01*
X56641Y-44603D01*
X56641Y-46580D01*
X56378Y-46580D01*
X56378Y-44949D01*
X56000Y-44571D01*
X55622Y-44949D01*
X55660Y-45054D01*
X55897Y-45141D01*
X56151Y-45131D01*
X56340Y-45054D01*
X56378Y-44949D01*
X56378Y-46580D01*
X56193Y-46580D01*
X55900Y-46287D01*
X55900Y-46281D01*
X55918Y-46263D01*
X55949Y-46190D01*
X55949Y-46111D01*
X55949Y-45311D01*
X55919Y-45238D01*
X55863Y-45182D01*
X55790Y-45151D01*
X55711Y-45151D01*
X55211Y-45151D01*
X55138Y-45181D01*
X55082Y-45237D01*
X55051Y-45310D01*
X55051Y-45389D01*
X55051Y-46189D01*
X55081Y-46262D01*
X55100Y-46281D01*
X55100Y-46453D01*
X55130Y-46606D01*
X55217Y-46736D01*
X55744Y-47263D01*
X55873Y-47350D01*
X55874Y-47350D01*
X56027Y-47380D01*
X62473Y-47380D01*
X62626Y-47350D01*
X62756Y-47263D01*
X63039Y-46980D01*
X63283Y-46736D01*
X63370Y-46606D01*
X63400Y-46453D01*
X63400Y-46281D01*
X63418Y-46263D01*
X63449Y-46190D01*
X63449Y-46111D01*
X63449Y-45311D01*
X63419Y-45238D01*
X63363Y-45182D01*
X63290Y-45151D01*
X63211Y-45151D01*
X62711Y-45151D01*
X62638Y-45181D01*
X62582Y-45237D01*
X62551Y-45310D01*
X62551Y-45389D01*
X62551Y-46189D01*
X62581Y-46262D01*
X62600Y-46281D01*
X62600Y-46287D01*
X62473Y-46414D01*
X62391Y-46495D01*
X62400Y-46453D01*
X62400Y-46281D01*
X62418Y-46263D01*
X62449Y-46190D01*
X62449Y-46111D01*
X62449Y-45311D01*
X62419Y-45238D01*
X62363Y-45182D01*
X62290Y-45151D01*
X62211Y-45151D01*
X61711Y-45151D01*
X61638Y-45181D01*
X61582Y-45237D01*
X61551Y-45310D01*
X61551Y-45389D01*
X61551Y-46053D01*
X61449Y-46053D01*
X61449Y-45311D01*
X61419Y-45238D01*
X61363Y-45182D01*
X61290Y-45151D01*
X61211Y-45151D01*
X60846Y-45151D01*
X60846Y-45099D01*
X60939Y-45099D01*
X61012Y-45069D01*
X61068Y-45013D01*
X61097Y-44944D01*
X61161Y-45008D01*
X61381Y-45099D01*
X61619Y-45099D01*
X61839Y-45008D01*
X62000Y-44847D01*
X62161Y-45008D01*
X62381Y-45099D01*
X62619Y-45099D01*
X62839Y-45008D01*
X62990Y-44856D01*
X63051Y-44878D01*
X63429Y-44500D01*
X63051Y-44122D01*
X62990Y-44143D01*
X62839Y-43992D01*
X62740Y-43951D01*
X62740Y-36001D01*
X62739Y-36000D01*
X62740Y-36000D01*
X62722Y-35909D01*
X62670Y-35831D01*
X62667Y-35829D01*
X62323Y-35484D01*
X62323Y-34670D01*
X62411Y-34758D01*
X62631Y-34849D01*
X62783Y-34849D01*
X63100Y-35165D01*
X63100Y-37053D01*
X62992Y-37161D01*
X62901Y-37381D01*
X62901Y-37619D01*
X62992Y-37839D01*
X63161Y-38008D01*
X63381Y-38099D01*
X63619Y-38099D01*
X63839Y-38008D01*
X63841Y-38006D01*
X63841Y-43948D01*
X63840Y-43946D01*
X63603Y-43859D01*
X63349Y-43869D01*
X63160Y-43946D01*
X63122Y-44051D01*
X63465Y-44394D01*
X63500Y-44429D01*
X63571Y-44500D01*
X63500Y-44571D01*
X63465Y-44606D01*
X63122Y-44949D01*
X63160Y-45054D01*
X63397Y-45141D01*
X63651Y-45131D01*
X63840Y-45054D01*
X63841Y-45051D01*
X63841Y-45434D01*
X63859Y-45526D01*
X63911Y-45604D01*
X65545Y-47237D01*
X65545Y-47347D01*
X65602Y-47485D01*
X65707Y-47590D01*
X65845Y-47648D01*
X65994Y-47648D01*
X66132Y-47591D01*
X66237Y-47486D01*
X66295Y-47348D01*
X66295Y-47199D01*
X66238Y-47061D01*
X66133Y-46956D01*
X65995Y-46898D01*
X65884Y-46898D01*
X64321Y-45334D01*
X64321Y-37886D01*
X64326Y-37889D01*
X64475Y-37889D01*
X64613Y-37832D01*
X64718Y-37727D01*
X64776Y-37589D01*
X64776Y-37440D01*
X64719Y-37302D01*
X64642Y-37225D01*
X64642Y-32840D01*
X65167Y-32314D01*
X65169Y-32313D01*
X65170Y-32313D01*
X65222Y-32235D01*
X65239Y-32144D01*
X65240Y-32143D01*
X65277Y-32129D01*
X65415Y-31991D01*
X65490Y-31811D01*
X65490Y-31616D01*
X65490Y-31190D01*
X65416Y-31010D01*
X65278Y-30872D01*
X65098Y-30797D01*
X64903Y-30797D01*
X64723Y-30871D01*
X64585Y-31009D01*
X64510Y-31189D01*
X64510Y-31384D01*
X64510Y-31810D01*
X64584Y-31990D01*
X64698Y-32104D01*
X64321Y-32482D01*
X64321Y-32224D01*
X64303Y-32132D01*
X64291Y-32114D01*
X64415Y-31991D01*
X64490Y-31811D01*
X64490Y-31616D01*
X64490Y-31190D01*
X64416Y-31010D01*
X64278Y-30872D01*
X64098Y-30797D01*
X63903Y-30797D01*
X63723Y-30871D01*
X63585Y-31009D01*
X63510Y-31189D01*
X63510Y-31384D01*
X63510Y-31810D01*
X63584Y-31990D01*
X63722Y-32128D01*
X63760Y-32143D01*
X63778Y-32235D01*
X63830Y-32313D01*
X63841Y-32323D01*
X63841Y-34803D01*
X63783Y-34717D01*
X63779Y-34714D01*
X63349Y-34283D01*
X63349Y-34131D01*
X63258Y-33911D01*
X63089Y-33742D01*
X62869Y-33651D01*
X62631Y-33651D01*
X62411Y-33742D01*
X62323Y-33830D01*
X62323Y-32826D01*
X62322Y-32825D01*
X62323Y-32825D01*
X62319Y-32807D01*
X62305Y-32734D01*
X62304Y-32733D01*
X62253Y-32656D01*
X62250Y-32654D01*
X61701Y-32104D01*
X61815Y-31991D01*
X61890Y-31811D01*
X61890Y-31616D01*
X61890Y-31190D01*
X61851Y-31097D01*
X62548Y-31097D01*
X62510Y-31189D01*
X62510Y-31384D01*
X62510Y-31810D01*
X62584Y-31990D01*
X62722Y-32128D01*
X62902Y-32203D01*
X63097Y-32203D01*
X63277Y-32129D01*
X63415Y-31991D01*
X63490Y-31811D01*
X63490Y-31616D01*
X63490Y-31190D01*
X63416Y-31010D01*
X63278Y-30872D01*
X63239Y-30856D01*
X63222Y-30765D01*
X63208Y-30745D01*
X79876Y-30745D01*
X79674Y-30947D01*
X79525Y-31305D01*
X79525Y-31693D01*
X79673Y-32051D01*
X79947Y-32326D01*
X80305Y-32475D01*
X80693Y-32475D01*
X81051Y-32327D01*
X81326Y-32053D01*
X81475Y-31695D01*
X81475Y-31307D01*
X81327Y-30949D01*
X81123Y-30745D01*
X89255Y-30745D01*
X89255Y-51255D01*
M02*
