G04 (created by PCBNEW-RS274X (2011-05-25)-stable) date Tue 18 Mar 2014 04:02:36 PM EDT*
G01*
G70*
G90*
%MOIN*%
G04 Gerber Fmt 3.4, Leading zero omitted, Abs format*
%FSLAX34Y34*%
G04 APERTURE LIST*
%ADD10C,0.006000*%
%ADD11C,0.009000*%
%ADD12C,0.015000*%
%ADD13C,0.010000*%
%ADD14C,0.175000*%
%ADD15O,0.080000X0.120000*%
%ADD16C,0.080000*%
%ADD17R,0.070000X0.100000*%
%ADD18C,0.096000*%
%ADD19C,0.160000*%
%ADD20C,0.180000*%
%ADD21R,0.100000X0.100000*%
%ADD22C,0.100000*%
G04 APERTURE END LIST*
G54D10*
G54D11*
X89500Y-51500D02*
X43500Y-51500D01*
X43500Y-30500D02*
X89500Y-30500D01*
X43500Y-30500D02*
X43500Y-51500D01*
X89500Y-51500D02*
X89500Y-30500D01*
G54D12*
X70700Y-48100D02*
X70696Y-48138D01*
X70684Y-48176D01*
X70666Y-48210D01*
X70641Y-48240D01*
X70611Y-48265D01*
X70577Y-48284D01*
X70540Y-48295D01*
X70501Y-48299D01*
X70463Y-48296D01*
X70426Y-48285D01*
X70391Y-48267D01*
X70361Y-48242D01*
X70335Y-48212D01*
X70317Y-48178D01*
X70305Y-48141D01*
X70301Y-48102D01*
X70304Y-48064D01*
X70315Y-48027D01*
X70332Y-47992D01*
X70357Y-47962D01*
X70386Y-47936D01*
X70420Y-47917D01*
X70458Y-47905D01*
X70496Y-47901D01*
X70534Y-47904D01*
X70572Y-47914D01*
X70607Y-47932D01*
X70637Y-47956D01*
X70663Y-47985D01*
X70682Y-48019D01*
X70695Y-48056D01*
X70699Y-48095D01*
X70700Y-48100D01*
X71300Y-48600D02*
X67700Y-48600D01*
X67700Y-48600D02*
X67700Y-46400D01*
X67700Y-46400D02*
X71300Y-46400D01*
X71300Y-46400D02*
X71300Y-48600D01*
X78200Y-48100D02*
X78196Y-48138D01*
X78184Y-48176D01*
X78166Y-48210D01*
X78141Y-48240D01*
X78111Y-48265D01*
X78077Y-48284D01*
X78040Y-48295D01*
X78001Y-48299D01*
X77963Y-48296D01*
X77926Y-48285D01*
X77891Y-48267D01*
X77861Y-48242D01*
X77835Y-48212D01*
X77817Y-48178D01*
X77805Y-48141D01*
X77801Y-48102D01*
X77804Y-48064D01*
X77815Y-48027D01*
X77832Y-47992D01*
X77857Y-47962D01*
X77886Y-47936D01*
X77920Y-47917D01*
X77958Y-47905D01*
X77996Y-47901D01*
X78034Y-47904D01*
X78072Y-47914D01*
X78107Y-47932D01*
X78137Y-47956D01*
X78163Y-47985D01*
X78182Y-48019D01*
X78195Y-48056D01*
X78199Y-48095D01*
X78200Y-48100D01*
X78800Y-48600D02*
X75200Y-48600D01*
X75200Y-48600D02*
X75200Y-46400D01*
X75200Y-46400D02*
X78800Y-46400D01*
X78800Y-46400D02*
X78800Y-48600D01*
X55700Y-48100D02*
X55696Y-48138D01*
X55684Y-48176D01*
X55666Y-48210D01*
X55641Y-48240D01*
X55611Y-48265D01*
X55577Y-48284D01*
X55540Y-48295D01*
X55501Y-48299D01*
X55463Y-48296D01*
X55426Y-48285D01*
X55391Y-48267D01*
X55361Y-48242D01*
X55335Y-48212D01*
X55317Y-48178D01*
X55305Y-48141D01*
X55301Y-48102D01*
X55304Y-48064D01*
X55315Y-48027D01*
X55332Y-47992D01*
X55357Y-47962D01*
X55386Y-47936D01*
X55420Y-47917D01*
X55458Y-47905D01*
X55496Y-47901D01*
X55534Y-47904D01*
X55572Y-47914D01*
X55607Y-47932D01*
X55637Y-47956D01*
X55663Y-47985D01*
X55682Y-48019D01*
X55695Y-48056D01*
X55699Y-48095D01*
X55700Y-48100D01*
X56300Y-48600D02*
X52700Y-48600D01*
X52700Y-48600D02*
X52700Y-46400D01*
X52700Y-46400D02*
X56300Y-46400D01*
X56300Y-46400D02*
X56300Y-48600D01*
X63200Y-48100D02*
X63196Y-48138D01*
X63184Y-48176D01*
X63166Y-48210D01*
X63141Y-48240D01*
X63111Y-48265D01*
X63077Y-48284D01*
X63040Y-48295D01*
X63001Y-48299D01*
X62963Y-48296D01*
X62926Y-48285D01*
X62891Y-48267D01*
X62861Y-48242D01*
X62835Y-48212D01*
X62817Y-48178D01*
X62805Y-48141D01*
X62801Y-48102D01*
X62804Y-48064D01*
X62815Y-48027D01*
X62832Y-47992D01*
X62857Y-47962D01*
X62886Y-47936D01*
X62920Y-47917D01*
X62958Y-47905D01*
X62996Y-47901D01*
X63034Y-47904D01*
X63072Y-47914D01*
X63107Y-47932D01*
X63137Y-47956D01*
X63163Y-47985D01*
X63182Y-48019D01*
X63195Y-48056D01*
X63199Y-48095D01*
X63200Y-48100D01*
X63800Y-48600D02*
X60200Y-48600D01*
X60200Y-48600D02*
X60200Y-46400D01*
X60200Y-46400D02*
X63800Y-46400D01*
X63800Y-46400D02*
X63800Y-48600D01*
G54D13*
X71562Y-47195D02*
X71886Y-47195D01*
X71924Y-47214D01*
X71943Y-47233D01*
X71962Y-47271D01*
X71962Y-47348D01*
X71943Y-47386D01*
X71924Y-47405D01*
X71886Y-47424D01*
X71562Y-47424D01*
X71562Y-47576D02*
X71562Y-47824D01*
X71714Y-47690D01*
X71714Y-47748D01*
X71733Y-47786D01*
X71752Y-47805D01*
X71790Y-47824D01*
X71886Y-47824D01*
X71924Y-47805D01*
X71943Y-47786D01*
X71962Y-47748D01*
X71962Y-47633D01*
X71943Y-47595D01*
X71924Y-47576D01*
X67243Y-45595D02*
X67262Y-45652D01*
X67262Y-45748D01*
X67243Y-45786D01*
X67224Y-45805D01*
X67186Y-45824D01*
X67148Y-45824D01*
X67110Y-45805D01*
X67090Y-45786D01*
X67071Y-45748D01*
X67052Y-45671D01*
X67033Y-45633D01*
X67014Y-45614D01*
X66976Y-45595D01*
X66938Y-45595D01*
X66900Y-45614D01*
X66881Y-45633D01*
X66862Y-45671D01*
X66862Y-45767D01*
X66881Y-45824D01*
X67243Y-45976D02*
X67262Y-46033D01*
X67262Y-46129D01*
X67243Y-46167D01*
X67224Y-46186D01*
X67186Y-46205D01*
X67148Y-46205D01*
X67110Y-46186D01*
X67090Y-46167D01*
X67071Y-46129D01*
X67052Y-46052D01*
X67033Y-46014D01*
X67014Y-45995D01*
X66976Y-45976D01*
X66938Y-45976D01*
X66900Y-45995D01*
X66881Y-46014D01*
X66862Y-46052D01*
X66862Y-46148D01*
X66881Y-46205D01*
X67262Y-46605D02*
X67071Y-46471D01*
X67262Y-46376D02*
X66862Y-46376D01*
X66862Y-46529D01*
X66881Y-46567D01*
X66900Y-46586D01*
X66938Y-46605D01*
X66995Y-46605D01*
X67033Y-46586D01*
X67052Y-46567D01*
X67071Y-46529D01*
X67071Y-46376D01*
X67300Y-46681D02*
X67300Y-46986D01*
X67262Y-47081D02*
X66862Y-47081D01*
X66862Y-47176D01*
X66881Y-47234D01*
X66919Y-47272D01*
X66957Y-47291D01*
X67033Y-47310D01*
X67090Y-47310D01*
X67167Y-47291D01*
X67205Y-47272D01*
X67243Y-47234D01*
X67262Y-47176D01*
X67262Y-47081D01*
X67224Y-47710D02*
X67243Y-47691D01*
X67262Y-47634D01*
X67262Y-47596D01*
X67243Y-47538D01*
X67205Y-47500D01*
X67167Y-47481D01*
X67090Y-47462D01*
X67033Y-47462D01*
X66957Y-47481D01*
X66919Y-47500D01*
X66881Y-47538D01*
X66862Y-47596D01*
X66862Y-47634D01*
X66881Y-47691D01*
X66900Y-47710D01*
X67300Y-47786D02*
X67300Y-48091D01*
X66862Y-48358D02*
X66862Y-48281D01*
X66881Y-48243D01*
X66900Y-48224D01*
X66957Y-48186D01*
X67033Y-48167D01*
X67186Y-48167D01*
X67224Y-48186D01*
X67243Y-48205D01*
X67262Y-48243D01*
X67262Y-48320D01*
X67243Y-48358D01*
X67224Y-48377D01*
X67186Y-48396D01*
X67090Y-48396D01*
X67052Y-48377D01*
X67033Y-48358D01*
X67014Y-48320D01*
X67014Y-48243D01*
X67033Y-48205D01*
X67052Y-48186D01*
X67090Y-48167D01*
X67262Y-48567D02*
X66862Y-48567D01*
X66862Y-48720D01*
X66881Y-48758D01*
X66900Y-48777D01*
X66938Y-48796D01*
X66995Y-48796D01*
X67033Y-48777D01*
X67052Y-48758D01*
X67071Y-48720D01*
X67071Y-48567D01*
X67262Y-48967D02*
X66862Y-48967D01*
X67262Y-49157D02*
X66862Y-49157D01*
X67262Y-49386D01*
X66862Y-49386D01*
X79062Y-47195D02*
X79386Y-47195D01*
X79424Y-47214D01*
X79443Y-47233D01*
X79462Y-47271D01*
X79462Y-47348D01*
X79443Y-47386D01*
X79424Y-47405D01*
X79386Y-47424D01*
X79062Y-47424D01*
X79195Y-47786D02*
X79462Y-47786D01*
X79043Y-47690D02*
X79329Y-47595D01*
X79329Y-47843D01*
X74743Y-45595D02*
X74762Y-45652D01*
X74762Y-45748D01*
X74743Y-45786D01*
X74724Y-45805D01*
X74686Y-45824D01*
X74648Y-45824D01*
X74610Y-45805D01*
X74590Y-45786D01*
X74571Y-45748D01*
X74552Y-45671D01*
X74533Y-45633D01*
X74514Y-45614D01*
X74476Y-45595D01*
X74438Y-45595D01*
X74400Y-45614D01*
X74381Y-45633D01*
X74362Y-45671D01*
X74362Y-45767D01*
X74381Y-45824D01*
X74743Y-45976D02*
X74762Y-46033D01*
X74762Y-46129D01*
X74743Y-46167D01*
X74724Y-46186D01*
X74686Y-46205D01*
X74648Y-46205D01*
X74610Y-46186D01*
X74590Y-46167D01*
X74571Y-46129D01*
X74552Y-46052D01*
X74533Y-46014D01*
X74514Y-45995D01*
X74476Y-45976D01*
X74438Y-45976D01*
X74400Y-45995D01*
X74381Y-46014D01*
X74362Y-46052D01*
X74362Y-46148D01*
X74381Y-46205D01*
X74762Y-46605D02*
X74571Y-46471D01*
X74762Y-46376D02*
X74362Y-46376D01*
X74362Y-46529D01*
X74381Y-46567D01*
X74400Y-46586D01*
X74438Y-46605D01*
X74495Y-46605D01*
X74533Y-46586D01*
X74552Y-46567D01*
X74571Y-46529D01*
X74571Y-46376D01*
X74800Y-46681D02*
X74800Y-46986D01*
X74762Y-47081D02*
X74362Y-47081D01*
X74362Y-47176D01*
X74381Y-47234D01*
X74419Y-47272D01*
X74457Y-47291D01*
X74533Y-47310D01*
X74590Y-47310D01*
X74667Y-47291D01*
X74705Y-47272D01*
X74743Y-47234D01*
X74762Y-47176D01*
X74762Y-47081D01*
X74724Y-47710D02*
X74743Y-47691D01*
X74762Y-47634D01*
X74762Y-47596D01*
X74743Y-47538D01*
X74705Y-47500D01*
X74667Y-47481D01*
X74590Y-47462D01*
X74533Y-47462D01*
X74457Y-47481D01*
X74419Y-47500D01*
X74381Y-47538D01*
X74362Y-47596D01*
X74362Y-47634D01*
X74381Y-47691D01*
X74400Y-47710D01*
X74800Y-47786D02*
X74800Y-48091D01*
X74362Y-48358D02*
X74362Y-48281D01*
X74381Y-48243D01*
X74400Y-48224D01*
X74457Y-48186D01*
X74533Y-48167D01*
X74686Y-48167D01*
X74724Y-48186D01*
X74743Y-48205D01*
X74762Y-48243D01*
X74762Y-48320D01*
X74743Y-48358D01*
X74724Y-48377D01*
X74686Y-48396D01*
X74590Y-48396D01*
X74552Y-48377D01*
X74533Y-48358D01*
X74514Y-48320D01*
X74514Y-48243D01*
X74533Y-48205D01*
X74552Y-48186D01*
X74590Y-48167D01*
X74762Y-48567D02*
X74362Y-48567D01*
X74362Y-48720D01*
X74381Y-48758D01*
X74400Y-48777D01*
X74438Y-48796D01*
X74495Y-48796D01*
X74533Y-48777D01*
X74552Y-48758D01*
X74571Y-48720D01*
X74571Y-48567D01*
X74762Y-48967D02*
X74362Y-48967D01*
X74762Y-49157D02*
X74362Y-49157D01*
X74762Y-49386D01*
X74362Y-49386D01*
X56562Y-47195D02*
X56886Y-47195D01*
X56924Y-47214D01*
X56943Y-47233D01*
X56962Y-47271D01*
X56962Y-47348D01*
X56943Y-47386D01*
X56924Y-47405D01*
X56886Y-47424D01*
X56562Y-47424D01*
X56962Y-47824D02*
X56962Y-47595D01*
X56962Y-47709D02*
X56562Y-47709D01*
X56619Y-47671D01*
X56657Y-47633D01*
X56676Y-47595D01*
X52243Y-45595D02*
X52262Y-45652D01*
X52262Y-45748D01*
X52243Y-45786D01*
X52224Y-45805D01*
X52186Y-45824D01*
X52148Y-45824D01*
X52110Y-45805D01*
X52090Y-45786D01*
X52071Y-45748D01*
X52052Y-45671D01*
X52033Y-45633D01*
X52014Y-45614D01*
X51976Y-45595D01*
X51938Y-45595D01*
X51900Y-45614D01*
X51881Y-45633D01*
X51862Y-45671D01*
X51862Y-45767D01*
X51881Y-45824D01*
X52243Y-45976D02*
X52262Y-46033D01*
X52262Y-46129D01*
X52243Y-46167D01*
X52224Y-46186D01*
X52186Y-46205D01*
X52148Y-46205D01*
X52110Y-46186D01*
X52090Y-46167D01*
X52071Y-46129D01*
X52052Y-46052D01*
X52033Y-46014D01*
X52014Y-45995D01*
X51976Y-45976D01*
X51938Y-45976D01*
X51900Y-45995D01*
X51881Y-46014D01*
X51862Y-46052D01*
X51862Y-46148D01*
X51881Y-46205D01*
X52262Y-46605D02*
X52071Y-46471D01*
X52262Y-46376D02*
X51862Y-46376D01*
X51862Y-46529D01*
X51881Y-46567D01*
X51900Y-46586D01*
X51938Y-46605D01*
X51995Y-46605D01*
X52033Y-46586D01*
X52052Y-46567D01*
X52071Y-46529D01*
X52071Y-46376D01*
X52300Y-46681D02*
X52300Y-46986D01*
X52262Y-47081D02*
X51862Y-47081D01*
X51862Y-47176D01*
X51881Y-47234D01*
X51919Y-47272D01*
X51957Y-47291D01*
X52033Y-47310D01*
X52090Y-47310D01*
X52167Y-47291D01*
X52205Y-47272D01*
X52243Y-47234D01*
X52262Y-47176D01*
X52262Y-47081D01*
X52224Y-47710D02*
X52243Y-47691D01*
X52262Y-47634D01*
X52262Y-47596D01*
X52243Y-47538D01*
X52205Y-47500D01*
X52167Y-47481D01*
X52090Y-47462D01*
X52033Y-47462D01*
X51957Y-47481D01*
X51919Y-47500D01*
X51881Y-47538D01*
X51862Y-47596D01*
X51862Y-47634D01*
X51881Y-47691D01*
X51900Y-47710D01*
X52300Y-47786D02*
X52300Y-48091D01*
X51862Y-48358D02*
X51862Y-48281D01*
X51881Y-48243D01*
X51900Y-48224D01*
X51957Y-48186D01*
X52033Y-48167D01*
X52186Y-48167D01*
X52224Y-48186D01*
X52243Y-48205D01*
X52262Y-48243D01*
X52262Y-48320D01*
X52243Y-48358D01*
X52224Y-48377D01*
X52186Y-48396D01*
X52090Y-48396D01*
X52052Y-48377D01*
X52033Y-48358D01*
X52014Y-48320D01*
X52014Y-48243D01*
X52033Y-48205D01*
X52052Y-48186D01*
X52090Y-48167D01*
X52262Y-48567D02*
X51862Y-48567D01*
X51862Y-48720D01*
X51881Y-48758D01*
X51900Y-48777D01*
X51938Y-48796D01*
X51995Y-48796D01*
X52033Y-48777D01*
X52052Y-48758D01*
X52071Y-48720D01*
X52071Y-48567D01*
X52262Y-48967D02*
X51862Y-48967D01*
X52262Y-49157D02*
X51862Y-49157D01*
X52262Y-49386D01*
X51862Y-49386D01*
X64062Y-47195D02*
X64386Y-47195D01*
X64424Y-47214D01*
X64443Y-47233D01*
X64462Y-47271D01*
X64462Y-47348D01*
X64443Y-47386D01*
X64424Y-47405D01*
X64386Y-47424D01*
X64062Y-47424D01*
X64100Y-47595D02*
X64081Y-47614D01*
X64062Y-47652D01*
X64062Y-47748D01*
X64081Y-47786D01*
X64100Y-47805D01*
X64138Y-47824D01*
X64176Y-47824D01*
X64233Y-47805D01*
X64462Y-47576D01*
X64462Y-47824D01*
X59743Y-45595D02*
X59762Y-45652D01*
X59762Y-45748D01*
X59743Y-45786D01*
X59724Y-45805D01*
X59686Y-45824D01*
X59648Y-45824D01*
X59610Y-45805D01*
X59590Y-45786D01*
X59571Y-45748D01*
X59552Y-45671D01*
X59533Y-45633D01*
X59514Y-45614D01*
X59476Y-45595D01*
X59438Y-45595D01*
X59400Y-45614D01*
X59381Y-45633D01*
X59362Y-45671D01*
X59362Y-45767D01*
X59381Y-45824D01*
X59743Y-45976D02*
X59762Y-46033D01*
X59762Y-46129D01*
X59743Y-46167D01*
X59724Y-46186D01*
X59686Y-46205D01*
X59648Y-46205D01*
X59610Y-46186D01*
X59590Y-46167D01*
X59571Y-46129D01*
X59552Y-46052D01*
X59533Y-46014D01*
X59514Y-45995D01*
X59476Y-45976D01*
X59438Y-45976D01*
X59400Y-45995D01*
X59381Y-46014D01*
X59362Y-46052D01*
X59362Y-46148D01*
X59381Y-46205D01*
X59762Y-46605D02*
X59571Y-46471D01*
X59762Y-46376D02*
X59362Y-46376D01*
X59362Y-46529D01*
X59381Y-46567D01*
X59400Y-46586D01*
X59438Y-46605D01*
X59495Y-46605D01*
X59533Y-46586D01*
X59552Y-46567D01*
X59571Y-46529D01*
X59571Y-46376D01*
X59800Y-46681D02*
X59800Y-46986D01*
X59762Y-47081D02*
X59362Y-47081D01*
X59362Y-47176D01*
X59381Y-47234D01*
X59419Y-47272D01*
X59457Y-47291D01*
X59533Y-47310D01*
X59590Y-47310D01*
X59667Y-47291D01*
X59705Y-47272D01*
X59743Y-47234D01*
X59762Y-47176D01*
X59762Y-47081D01*
X59724Y-47710D02*
X59743Y-47691D01*
X59762Y-47634D01*
X59762Y-47596D01*
X59743Y-47538D01*
X59705Y-47500D01*
X59667Y-47481D01*
X59590Y-47462D01*
X59533Y-47462D01*
X59457Y-47481D01*
X59419Y-47500D01*
X59381Y-47538D01*
X59362Y-47596D01*
X59362Y-47634D01*
X59381Y-47691D01*
X59400Y-47710D01*
X59800Y-47786D02*
X59800Y-48091D01*
X59362Y-48358D02*
X59362Y-48281D01*
X59381Y-48243D01*
X59400Y-48224D01*
X59457Y-48186D01*
X59533Y-48167D01*
X59686Y-48167D01*
X59724Y-48186D01*
X59743Y-48205D01*
X59762Y-48243D01*
X59762Y-48320D01*
X59743Y-48358D01*
X59724Y-48377D01*
X59686Y-48396D01*
X59590Y-48396D01*
X59552Y-48377D01*
X59533Y-48358D01*
X59514Y-48320D01*
X59514Y-48243D01*
X59533Y-48205D01*
X59552Y-48186D01*
X59590Y-48167D01*
X59762Y-48567D02*
X59362Y-48567D01*
X59362Y-48720D01*
X59381Y-48758D01*
X59400Y-48777D01*
X59438Y-48796D01*
X59495Y-48796D01*
X59533Y-48777D01*
X59552Y-48758D01*
X59571Y-48720D01*
X59571Y-48567D01*
X59762Y-48967D02*
X59362Y-48967D01*
X59762Y-49157D02*
X59362Y-49157D01*
X59762Y-49386D01*
X59362Y-49386D01*
%LPC*%
G54D14*
X50500Y-50500D03*
X51000Y-31500D03*
X83000Y-50500D03*
X80500Y-31500D03*
G54D15*
X56000Y-50500D03*
X57000Y-50500D03*
X58000Y-50500D03*
X59000Y-50500D03*
X60000Y-50500D03*
X61000Y-50500D03*
X62000Y-50500D03*
X63000Y-50500D03*
X65000Y-50500D03*
X66000Y-50500D03*
X67000Y-50500D03*
X68000Y-50500D03*
X69000Y-50500D03*
X70000Y-50500D03*
X71000Y-50500D03*
X72000Y-50500D03*
X74000Y-50500D03*
X75000Y-50500D03*
X76000Y-50500D03*
X77000Y-50500D03*
X78000Y-50500D03*
X79000Y-50500D03*
X80000Y-50500D03*
X81000Y-50500D03*
X52400Y-31500D03*
X53400Y-31500D03*
X54400Y-31500D03*
X55400Y-31500D03*
X56400Y-31500D03*
X57400Y-31500D03*
X58400Y-31500D03*
X59400Y-31500D03*
X60400Y-31500D03*
X61400Y-31500D03*
X63000Y-31500D03*
X70000Y-31500D03*
X69000Y-31500D03*
X68000Y-31500D03*
X67000Y-31500D03*
X66000Y-31500D03*
X65000Y-31500D03*
X64000Y-31500D03*
X72000Y-31500D03*
X73000Y-31500D03*
X74000Y-31500D03*
X75000Y-31500D03*
X76000Y-31500D03*
X77000Y-31500D03*
X78000Y-31500D03*
X79000Y-31500D03*
G54D16*
X82000Y-31500D03*
X83000Y-31500D03*
X82000Y-32500D03*
X83000Y-32500D03*
X82000Y-33500D03*
X83000Y-33500D03*
X82000Y-34500D03*
X83000Y-34500D03*
X82000Y-35500D03*
X83000Y-35500D03*
X82000Y-36500D03*
X83000Y-36500D03*
X82000Y-37500D03*
X83000Y-37500D03*
X82000Y-38500D03*
X83000Y-38500D03*
X82000Y-39500D03*
X83000Y-39500D03*
X82000Y-40500D03*
X83000Y-40500D03*
X82000Y-41500D03*
X83000Y-41500D03*
X82000Y-42500D03*
X83000Y-42500D03*
X82000Y-43500D03*
X83000Y-43500D03*
X82000Y-44500D03*
X83000Y-44500D03*
X82000Y-45500D03*
X83000Y-45500D03*
X82000Y-46500D03*
X83000Y-46500D03*
X82000Y-47500D03*
X83000Y-47500D03*
X82000Y-48500D03*
X83000Y-48500D03*
G54D17*
X70500Y-49250D03*
X69500Y-49250D03*
X68500Y-49250D03*
X68500Y-45750D03*
X69500Y-45750D03*
X70500Y-45750D03*
X78000Y-49250D03*
X77000Y-49250D03*
X76000Y-49250D03*
X76000Y-45750D03*
X77000Y-45750D03*
X78000Y-45750D03*
G54D18*
X88320Y-41000D03*
G54D19*
X87140Y-41000D03*
G54D20*
X84780Y-41000D03*
G54D19*
X87530Y-39230D03*
X87530Y-42770D03*
G54D17*
X55500Y-49250D03*
X54500Y-49250D03*
X53500Y-49250D03*
X53500Y-45750D03*
X54500Y-45750D03*
X55500Y-45750D03*
X63000Y-49250D03*
X62000Y-49250D03*
X61000Y-49250D03*
X61000Y-45750D03*
X62000Y-45750D03*
X63000Y-45750D03*
G54D21*
X53000Y-44500D03*
G54D22*
X54000Y-44500D03*
X55000Y-44500D03*
X56000Y-44500D03*
X56000Y-37500D03*
X53000Y-37500D03*
G54D21*
X60500Y-44500D03*
G54D22*
X61500Y-44500D03*
X62500Y-44500D03*
X63500Y-44500D03*
X63500Y-37500D03*
X60500Y-37500D03*
G54D21*
X68000Y-44500D03*
G54D22*
X69000Y-44500D03*
X70000Y-44500D03*
X71000Y-44500D03*
X71000Y-37500D03*
X68000Y-37500D03*
G54D21*
X75500Y-44500D03*
G54D22*
X76500Y-44500D03*
X77500Y-44500D03*
X78500Y-44500D03*
X78500Y-37500D03*
X75500Y-37500D03*
G54D21*
X76250Y-34250D03*
G54D22*
X77750Y-34250D03*
G54D21*
X68750Y-34250D03*
G54D22*
X70250Y-34250D03*
G54D21*
X61250Y-34250D03*
G54D22*
X62750Y-34250D03*
G54D21*
X53750Y-34250D03*
G54D22*
X55250Y-34250D03*
M02*
