G04 (created by PCBNEW (2013-jul-07)-stable) date Tue 08 Jul 2014 03:30:23 PM EDT*
%MOIN*%
G04 Gerber Fmt 3.4, Leading zero omitted, Abs format*
%FSLAX34Y34*%
G01*
G70*
G90*
G04 APERTURE LIST*
%ADD10C,0.00590551*%
%ADD11C,0.009*%
%ADD12C,0.175*%
%ADD13O,0.08X0.12*%
%ADD14C,0.08*%
%ADD15R,0.07X0.12*%
%ADD16R,0.12X0.07*%
%ADD17R,0.067X0.067*%
%ADD18C,0.096*%
%ADD19C,0.16*%
%ADD20C,0.18*%
%ADD21R,0.12X0.12*%
%ADD22C,0.12*%
%ADD23R,0.1X0.1*%
%ADD24C,0.1*%
%ADD25R,0.0604X0.03*%
%ADD26C,0.093*%
%ADD27R,0.093X0.093*%
%ADD28C,0.14*%
%ADD29C,0.11*%
%ADD30C,0.09*%
G04 APERTURE END LIST*
G54D10*
G54D11*
X89500Y-51500D02*
X43500Y-51500D01*
X43500Y-30500D02*
X89500Y-30500D01*
X43500Y-30500D02*
X43500Y-51500D01*
X89500Y-51500D02*
X89500Y-30500D01*
G54D12*
X50500Y-50500D03*
X51000Y-31500D03*
X83000Y-50500D03*
X80500Y-31500D03*
G54D13*
X56000Y-50500D03*
X57000Y-50500D03*
X58000Y-50500D03*
X59000Y-50500D03*
X60000Y-50500D03*
X61000Y-50500D03*
X62000Y-50500D03*
X63000Y-50500D03*
X65000Y-50500D03*
X66000Y-50500D03*
X67000Y-50500D03*
X68000Y-50500D03*
X69000Y-50500D03*
X70000Y-50500D03*
X71000Y-50500D03*
X72000Y-50500D03*
X74000Y-50500D03*
X75000Y-50500D03*
X76000Y-50500D03*
X77000Y-50500D03*
X78000Y-50500D03*
X79000Y-50500D03*
X80000Y-50500D03*
X81000Y-50500D03*
X52400Y-31500D03*
X53400Y-31500D03*
X54400Y-31500D03*
X55400Y-31500D03*
X56400Y-31500D03*
X57400Y-31500D03*
X58400Y-31500D03*
X59400Y-31500D03*
X60400Y-31500D03*
X61400Y-31500D03*
X63000Y-31500D03*
X70000Y-31500D03*
X69000Y-31500D03*
X68000Y-31500D03*
X67000Y-31500D03*
X66000Y-31500D03*
X65000Y-31500D03*
X64000Y-31500D03*
X72000Y-31500D03*
X73000Y-31500D03*
X74000Y-31500D03*
X75000Y-31500D03*
X76000Y-31500D03*
X77000Y-31500D03*
X78000Y-31500D03*
X79000Y-31500D03*
G54D14*
X82000Y-31500D03*
X83000Y-31500D03*
X82000Y-32500D03*
X83000Y-32500D03*
X82000Y-33500D03*
X83000Y-33500D03*
X82000Y-34500D03*
X83000Y-34500D03*
X82000Y-35500D03*
X83000Y-35500D03*
X82000Y-36500D03*
X83000Y-36500D03*
X82000Y-37500D03*
X83000Y-37500D03*
X82000Y-38500D03*
X83000Y-38500D03*
X82000Y-39500D03*
X83000Y-39500D03*
X82000Y-40500D03*
X83000Y-40500D03*
X82000Y-41500D03*
X83000Y-41500D03*
X82000Y-42500D03*
X83000Y-42500D03*
X82000Y-43500D03*
X83000Y-43500D03*
X82000Y-44500D03*
X83000Y-44500D03*
X82000Y-45500D03*
X83000Y-45500D03*
X82000Y-46500D03*
X83000Y-46500D03*
X82000Y-47500D03*
X83000Y-47500D03*
X82000Y-48500D03*
X83000Y-48500D03*
G54D15*
X55100Y-46500D03*
X53900Y-46500D03*
G54D16*
X58250Y-47100D03*
X58250Y-45900D03*
G54D15*
X77600Y-46500D03*
X76400Y-46500D03*
X62600Y-46500D03*
X61400Y-46500D03*
X70100Y-46500D03*
X68900Y-46500D03*
G54D17*
X87585Y-37250D03*
X88415Y-37250D03*
G54D16*
X65750Y-47100D03*
X65750Y-45900D03*
X73250Y-47100D03*
X73250Y-45900D03*
X80500Y-47100D03*
X80500Y-45900D03*
G54D15*
X84900Y-37250D03*
X86100Y-37250D03*
G54D18*
X88320Y-41000D03*
G54D19*
X87140Y-41000D03*
G54D20*
X84780Y-41000D03*
G54D19*
X87530Y-39230D03*
X87530Y-42770D03*
G54D21*
X76311Y-33750D03*
G54D22*
X77689Y-33750D03*
G54D21*
X68811Y-33750D03*
G54D22*
X70189Y-33750D03*
G54D21*
X61311Y-33750D03*
G54D22*
X62689Y-33750D03*
G54D21*
X53811Y-33750D03*
G54D22*
X55189Y-33750D03*
G54D23*
X75500Y-43500D03*
G54D24*
X76500Y-43500D03*
X77500Y-43500D03*
X78500Y-43500D03*
X78500Y-36500D03*
X75500Y-36500D03*
G54D23*
X68000Y-43500D03*
G54D24*
X69000Y-43500D03*
X70000Y-43500D03*
X71000Y-43500D03*
X71000Y-36500D03*
X68000Y-36500D03*
G54D23*
X60500Y-43500D03*
G54D24*
X61500Y-43500D03*
X62500Y-43500D03*
X63500Y-43500D03*
X63500Y-36500D03*
X60500Y-36500D03*
G54D23*
X53000Y-43500D03*
G54D24*
X54000Y-43500D03*
X55000Y-43500D03*
X56000Y-43500D03*
X56000Y-36500D03*
X53000Y-36500D03*
G54D15*
X73850Y-35750D03*
X72650Y-35750D03*
G54D25*
X72778Y-33376D03*
X72778Y-33750D03*
X72778Y-34124D03*
X73722Y-34124D03*
X73722Y-33750D03*
X73722Y-33376D03*
G54D26*
X47500Y-48250D03*
X48500Y-48250D03*
G54D27*
X46500Y-48250D03*
G54D26*
X86750Y-34000D03*
G54D27*
X85750Y-34000D03*
G54D14*
X86250Y-46250D03*
X86250Y-45250D03*
X86250Y-47250D03*
G54D28*
X46000Y-46250D03*
X46000Y-42250D03*
G54D14*
X48500Y-44250D03*
X49500Y-44250D03*
X49500Y-43250D03*
X49500Y-45250D03*
G54D29*
X48000Y-36750D03*
G54D30*
X50500Y-40780D03*
X49500Y-40780D03*
X48500Y-40780D03*
X50000Y-32720D03*
X48000Y-32720D03*
X46000Y-32720D03*
G54D20*
X51300Y-34670D03*
X51300Y-38830D03*
X44700Y-34670D03*
X44700Y-38830D03*
M02*
