G04 (created by PCBNEW (2013-jul-07)-stable) date Tue 08 Jul 2014 03:30:23 PM EDT*
%MOIN*%
G04 Gerber Fmt 3.4, Leading zero omitted, Abs format*
%FSLAX34Y34*%
G01*
G70*
G90*
G04 APERTURE LIST*
%ADD10C,0.00590551*%
%ADD11C,0.009*%
%ADD12C,0.155*%
%ADD13O,0.06X0.1*%
%ADD14C,0.06*%
%ADD15R,0.05X0.08*%
%ADD16C,0.076*%
%ADD17C,0.14*%
%ADD18C,0.16*%
%ADD19R,0.1X0.1*%
%ADD20C,0.1*%
%ADD21R,0.08X0.08*%
%ADD22C,0.08*%
%ADD23R,0.1X0.05*%
%ADD24R,0.05X0.1*%
%ADD25C,0.073*%
%ADD26R,0.073X0.073*%
%ADD27C,0.12*%
%ADD28C,0.09*%
%ADD29C,0.07*%
%ADD30C,0.035*%
%ADD31C,0.04*%
%ADD32C,0.008*%
%ADD33C,0.016*%
G04 APERTURE END LIST*
G54D10*
G54D11*
X89500Y-51500D02*
X43500Y-51500D01*
X43500Y-30500D02*
X89500Y-30500D01*
X43500Y-30500D02*
X43500Y-51500D01*
X89500Y-51500D02*
X89500Y-30500D01*
G54D12*
X50500Y-50500D03*
X51000Y-31500D03*
X83000Y-50500D03*
X80500Y-31500D03*
G54D13*
X56000Y-50500D03*
X57000Y-50500D03*
X58000Y-50500D03*
X59000Y-50500D03*
X60000Y-50500D03*
X61000Y-50500D03*
X62000Y-50500D03*
X63000Y-50500D03*
X65000Y-50500D03*
X66000Y-50500D03*
X67000Y-50500D03*
X68000Y-50500D03*
X69000Y-50500D03*
X70000Y-50500D03*
X71000Y-50500D03*
X72000Y-50500D03*
X74000Y-50500D03*
X75000Y-50500D03*
X76000Y-50500D03*
X77000Y-50500D03*
X78000Y-50500D03*
X79000Y-50500D03*
X80000Y-50500D03*
X81000Y-50500D03*
X52400Y-31500D03*
X53400Y-31500D03*
X54400Y-31500D03*
X55400Y-31500D03*
X56400Y-31500D03*
X57400Y-31500D03*
X58400Y-31500D03*
X59400Y-31500D03*
X60400Y-31500D03*
X61400Y-31500D03*
X63000Y-31500D03*
X70000Y-31500D03*
X69000Y-31500D03*
X68000Y-31500D03*
X67000Y-31500D03*
X66000Y-31500D03*
X65000Y-31500D03*
X64000Y-31500D03*
X72000Y-31500D03*
X73000Y-31500D03*
X74000Y-31500D03*
X75000Y-31500D03*
X76000Y-31500D03*
X77000Y-31500D03*
X78000Y-31500D03*
X79000Y-31500D03*
G54D14*
X82000Y-31500D03*
X83000Y-31500D03*
X82000Y-32500D03*
X83000Y-32500D03*
X82000Y-33500D03*
X83000Y-33500D03*
X82000Y-34500D03*
X83000Y-34500D03*
X82000Y-35500D03*
X83000Y-35500D03*
X82000Y-36500D03*
X83000Y-36500D03*
X82000Y-37500D03*
X83000Y-37500D03*
X82000Y-38500D03*
X83000Y-38500D03*
X82000Y-39500D03*
X83000Y-39500D03*
X82000Y-40500D03*
X83000Y-40500D03*
X82000Y-41500D03*
X83000Y-41500D03*
X82000Y-42500D03*
X83000Y-42500D03*
X82000Y-43500D03*
X83000Y-43500D03*
X82000Y-44500D03*
X83000Y-44500D03*
X82000Y-45500D03*
X83000Y-45500D03*
X82000Y-46500D03*
X83000Y-46500D03*
X82000Y-47500D03*
X83000Y-47500D03*
X82000Y-48500D03*
X83000Y-48500D03*
G54D15*
X70500Y-48250D03*
X69500Y-48250D03*
X68500Y-48250D03*
X68500Y-44750D03*
X69500Y-44750D03*
X70500Y-44750D03*
X78000Y-48250D03*
X77000Y-48250D03*
X76000Y-48250D03*
X76000Y-44750D03*
X77000Y-44750D03*
X78000Y-44750D03*
G54D16*
X88320Y-41000D03*
G54D17*
X87140Y-41000D03*
G54D18*
X84780Y-41000D03*
G54D17*
X87530Y-39230D03*
X87530Y-42770D03*
G54D15*
X55500Y-48250D03*
X54500Y-48250D03*
X53500Y-48250D03*
X53500Y-44750D03*
X54500Y-44750D03*
X55500Y-44750D03*
X63000Y-48250D03*
X62000Y-48250D03*
X61000Y-48250D03*
X61000Y-44750D03*
X62000Y-44750D03*
X63000Y-44750D03*
G54D19*
X76311Y-33750D03*
G54D20*
X77689Y-33750D03*
G54D19*
X68811Y-33750D03*
G54D20*
X70189Y-33750D03*
G54D19*
X61311Y-33750D03*
G54D20*
X62689Y-33750D03*
G54D19*
X53811Y-33750D03*
G54D20*
X55189Y-33750D03*
G54D21*
X75500Y-43500D03*
G54D22*
X76500Y-43500D03*
X77500Y-43500D03*
X78500Y-43500D03*
X78500Y-36500D03*
X75500Y-36500D03*
G54D21*
X68000Y-43500D03*
G54D22*
X69000Y-43500D03*
X70000Y-43500D03*
X71000Y-43500D03*
X71000Y-36500D03*
X68000Y-36500D03*
G54D21*
X60500Y-43500D03*
G54D22*
X61500Y-43500D03*
X62500Y-43500D03*
X63500Y-43500D03*
X63500Y-36500D03*
X60500Y-36500D03*
G54D21*
X53000Y-43500D03*
G54D22*
X54000Y-43500D03*
X55000Y-43500D03*
X56000Y-43500D03*
X56000Y-36500D03*
X53000Y-36500D03*
G54D23*
X88000Y-45150D03*
X88000Y-46350D03*
G54D24*
X84650Y-43000D03*
X85850Y-43000D03*
X48600Y-49750D03*
X47400Y-49750D03*
G54D23*
X50500Y-48100D03*
X50500Y-46900D03*
G54D25*
X47500Y-48250D03*
X48500Y-48250D03*
G54D26*
X46500Y-48250D03*
G54D25*
X86750Y-34000D03*
G54D26*
X85750Y-34000D03*
G54D14*
X86250Y-46250D03*
X86250Y-45250D03*
X86250Y-47250D03*
G54D27*
X46000Y-46250D03*
X46000Y-42250D03*
G54D14*
X48500Y-44250D03*
X49500Y-44250D03*
X49500Y-43250D03*
X49500Y-45250D03*
G54D28*
X48000Y-36750D03*
G54D29*
X50500Y-40780D03*
X49500Y-40780D03*
X48500Y-40780D03*
X50000Y-32720D03*
X48000Y-32720D03*
X46000Y-32720D03*
G54D18*
X51300Y-34670D03*
X51300Y-38830D03*
X44700Y-34670D03*
X44700Y-38830D03*
G54D30*
X73566Y-34516D03*
X64397Y-35148D03*
X65793Y-45337D03*
X52132Y-46067D03*
X65593Y-33426D03*
X64702Y-32401D03*
X74865Y-32457D03*
X72214Y-33750D03*
X56431Y-47485D03*
X71638Y-47109D03*
X78296Y-47386D03*
X63395Y-47275D03*
X71000Y-42250D03*
X72250Y-43500D03*
X56002Y-45952D03*
X71831Y-47650D03*
G54D31*
X48600Y-49750D02*
X48600Y-48949D01*
X48500Y-48849D02*
X48600Y-48949D01*
X48500Y-48250D02*
X48500Y-48849D01*
X50500Y-48100D02*
X49699Y-48100D01*
X49549Y-48250D02*
X49699Y-48100D01*
X48500Y-48250D02*
X49549Y-48250D01*
X51549Y-49699D02*
X50500Y-48650D01*
X60000Y-49699D02*
X51549Y-49699D01*
X60000Y-50500D02*
X60000Y-49699D01*
X50500Y-48100D02*
X50500Y-48650D01*
G54D32*
X48999Y-35540D02*
X52400Y-32140D01*
X48999Y-41661D02*
X48999Y-35540D01*
X48500Y-42161D02*
X48999Y-41661D01*
X48500Y-44250D02*
X48500Y-42161D01*
X52400Y-31500D02*
X52400Y-32140D01*
X50000Y-43749D02*
X49500Y-44250D01*
X50000Y-37928D02*
X50000Y-43749D01*
X52759Y-35168D02*
X50000Y-37928D01*
X52759Y-32780D02*
X52759Y-35168D01*
X53400Y-32140D02*
X52759Y-32780D01*
X53400Y-31500D02*
X53400Y-32140D01*
X77000Y-31500D02*
X77000Y-32140D01*
X75943Y-32140D02*
X73566Y-34516D01*
X77000Y-32140D02*
X75943Y-32140D01*
X65000Y-31500D02*
X65000Y-32140D01*
X64387Y-35139D02*
X64397Y-35148D01*
X64387Y-32270D02*
X64387Y-35139D01*
X64572Y-32086D02*
X64387Y-32270D01*
X64833Y-32086D02*
X64572Y-32086D01*
X64887Y-32140D02*
X64833Y-32086D01*
X65000Y-32140D02*
X64887Y-32140D01*
X64078Y-32218D02*
X64000Y-32140D01*
X64078Y-43622D02*
X64078Y-32218D01*
X65793Y-45337D02*
X64078Y-43622D01*
X64000Y-31500D02*
X64000Y-32140D01*
X57400Y-35891D02*
X57400Y-32140D01*
X52132Y-41159D02*
X57400Y-35891D01*
X52132Y-46067D02*
X52132Y-41159D01*
X57400Y-31500D02*
X57400Y-32140D01*
X66880Y-32140D02*
X67000Y-32140D01*
X65593Y-33426D02*
X66880Y-32140D01*
X67000Y-31500D02*
X67000Y-32140D01*
G54D31*
X53122Y-45450D02*
X54500Y-45450D01*
X52949Y-45276D02*
X53122Y-45450D01*
X52949Y-43550D02*
X52949Y-45276D01*
X53000Y-43500D02*
X52949Y-43550D01*
X54500Y-44750D02*
X54500Y-45450D01*
X60609Y-45450D02*
X62000Y-45450D01*
X60449Y-45290D02*
X60609Y-45450D01*
X60449Y-43550D02*
X60449Y-45290D01*
X60500Y-43500D02*
X60449Y-43550D01*
X62000Y-44750D02*
X62000Y-45450D01*
X68118Y-45450D02*
X69500Y-45450D01*
X67946Y-45278D02*
X68118Y-45450D01*
X67946Y-43553D02*
X67946Y-45278D01*
X68000Y-43500D02*
X67946Y-43553D01*
X69500Y-44750D02*
X69500Y-45450D01*
X75622Y-45450D02*
X77000Y-45450D01*
X75449Y-45276D02*
X75622Y-45450D01*
X75449Y-43550D02*
X75449Y-45276D01*
X75500Y-43500D02*
X75449Y-43550D01*
X77000Y-44750D02*
X77000Y-45450D01*
X53810Y-35689D02*
X53810Y-33750D01*
X53000Y-36500D02*
X53810Y-35689D01*
X55189Y-35689D02*
X55189Y-33750D01*
X56000Y-36500D02*
X55189Y-35689D01*
X62689Y-35689D02*
X62689Y-33750D01*
X63500Y-36500D02*
X62689Y-35689D01*
X70189Y-35689D02*
X70189Y-33750D01*
X71000Y-36500D02*
X70189Y-35689D01*
X76310Y-35689D02*
X76310Y-33750D01*
X75500Y-36500D02*
X76310Y-35689D01*
X77689Y-35689D02*
X77689Y-33750D01*
X78500Y-36500D02*
X77689Y-35689D01*
G54D32*
X61209Y-30859D02*
X63000Y-30859D01*
X60900Y-31169D02*
X61209Y-30859D01*
X60900Y-31900D02*
X60900Y-31169D01*
X59898Y-32901D02*
X60900Y-31900D01*
X59898Y-38601D02*
X59898Y-32901D01*
X55000Y-43500D02*
X59898Y-38601D01*
X63000Y-31500D02*
X63000Y-30859D01*
X62024Y-32764D02*
X61400Y-32140D01*
X62024Y-43024D02*
X62024Y-32764D01*
X62500Y-43500D02*
X62024Y-43024D01*
X61400Y-31500D02*
X61400Y-32140D01*
X64801Y-32500D02*
X64702Y-32401D01*
X64801Y-38301D02*
X64801Y-32500D01*
X70000Y-43500D02*
X64801Y-38301D01*
X59588Y-30671D02*
X59400Y-30859D01*
X70004Y-30671D02*
X59588Y-30671D01*
X72540Y-33206D02*
X70004Y-30671D01*
X72540Y-38540D02*
X72540Y-33206D01*
X77500Y-43500D02*
X72540Y-38540D01*
X59400Y-31500D02*
X59400Y-30859D01*
X75559Y-31762D02*
X74865Y-32457D01*
X75559Y-31105D02*
X75559Y-31762D01*
X75805Y-30859D02*
X75559Y-31105D01*
X77206Y-30859D02*
X75805Y-30859D01*
X77559Y-31212D02*
X77206Y-30859D01*
X77559Y-31886D02*
X77559Y-31212D01*
X79673Y-34000D02*
X77559Y-31886D01*
X85750Y-34000D02*
X79673Y-34000D01*
G54D31*
X87099Y-45250D02*
X87199Y-45150D01*
X86250Y-45250D02*
X87099Y-45250D01*
X88000Y-45150D02*
X87199Y-45150D01*
G54D33*
X49500Y-43250D02*
X49500Y-40780D01*
X87219Y-46250D02*
X87319Y-46350D01*
X86250Y-46250D02*
X87219Y-46250D01*
X88000Y-46350D02*
X87319Y-46350D01*
X47500Y-48969D02*
X47400Y-49069D01*
X47500Y-48250D02*
X47500Y-48969D01*
X47400Y-49750D02*
X47400Y-49069D01*
X61000Y-50500D02*
X61000Y-50159D01*
X85766Y-45766D02*
X86250Y-46250D01*
X85766Y-43763D02*
X85766Y-45766D01*
X85850Y-43680D02*
X85766Y-43763D01*
X85850Y-43000D02*
X85850Y-43680D01*
X49010Y-43739D02*
X49500Y-43250D01*
X49010Y-44760D02*
X49010Y-43739D01*
X49500Y-45250D02*
X49010Y-44760D01*
X62000Y-48250D02*
X62000Y-48830D01*
X54500Y-48250D02*
X54500Y-47669D01*
X55057Y-44250D02*
X55057Y-46919D01*
X55184Y-44123D02*
X55057Y-44250D01*
X55376Y-44123D02*
X55184Y-44123D01*
X56000Y-43500D02*
X55376Y-44123D01*
X54500Y-47477D02*
X54500Y-47669D01*
X55057Y-46919D02*
X54500Y-47477D01*
X57961Y-46919D02*
X55057Y-46919D01*
X60935Y-49894D02*
X57961Y-46919D01*
X61000Y-49958D02*
X60935Y-49894D01*
X61000Y-50159D02*
X61000Y-49958D01*
X60935Y-49894D02*
X62000Y-48830D01*
X77430Y-47239D02*
X77000Y-47669D01*
X77430Y-44378D02*
X77430Y-47239D01*
X77684Y-44123D02*
X77430Y-44378D01*
X77876Y-44123D02*
X77684Y-44123D01*
X78500Y-43500D02*
X77876Y-44123D01*
X77000Y-48250D02*
X77000Y-47669D01*
X72214Y-42285D02*
X71000Y-43500D01*
X72214Y-33750D02*
X72214Y-42285D01*
X69500Y-48250D02*
X69500Y-47669D01*
X69500Y-45830D02*
X69500Y-47669D01*
X70376Y-44123D02*
X71000Y-43500D01*
X70184Y-44123D02*
X70376Y-44123D01*
X69930Y-44378D02*
X70184Y-44123D01*
X69930Y-45561D02*
X69930Y-44378D01*
X69661Y-45830D02*
X69930Y-45561D01*
X69500Y-45830D02*
X69661Y-45830D01*
X65784Y-45830D02*
X69500Y-45830D01*
X63500Y-43546D02*
X65784Y-45830D01*
X63500Y-43500D02*
X63500Y-43546D01*
X88413Y-39726D02*
X87140Y-41000D01*
X88413Y-35663D02*
X88413Y-39726D01*
X86750Y-34000D02*
X88413Y-35663D01*
X85850Y-42290D02*
X85850Y-43000D01*
X87140Y-41000D02*
X85850Y-42290D01*
G54D31*
X50500Y-40780D02*
X50500Y-46900D01*
X56367Y-47549D02*
X56431Y-47485D01*
X55500Y-47549D02*
X56367Y-47549D01*
X55500Y-48250D02*
X55500Y-47549D01*
G54D32*
X71037Y-47709D02*
X71638Y-47109D01*
X70500Y-47709D02*
X71037Y-47709D01*
X70500Y-48250D02*
X70500Y-47709D01*
X78296Y-47413D02*
X78296Y-47386D01*
X78000Y-47709D02*
X78296Y-47413D01*
X78000Y-48250D02*
X78000Y-47709D01*
X63395Y-47314D02*
X63395Y-47275D01*
X63000Y-47709D02*
X63395Y-47314D01*
X63000Y-48250D02*
X63000Y-47709D01*
G54D31*
X70500Y-44750D02*
X71000Y-44750D01*
X71000Y-44750D02*
X72250Y-43500D01*
X55500Y-44750D02*
X55500Y-45450D01*
X55500Y-45450D02*
X56002Y-45952D01*
X78000Y-44750D02*
X78000Y-45450D01*
X70500Y-44750D02*
X70500Y-45450D01*
X72121Y-46899D02*
X72121Y-47359D01*
X70671Y-45450D02*
X72121Y-46899D01*
X70500Y-45450D02*
X70671Y-45450D01*
X72121Y-47359D02*
X71831Y-47650D01*
X63000Y-44750D02*
X63000Y-45450D01*
X62497Y-45952D02*
X63000Y-45450D01*
X56002Y-45952D02*
X62497Y-45952D01*
X71831Y-48016D02*
X71831Y-47650D01*
X70881Y-48965D02*
X71831Y-48016D01*
X66515Y-48965D02*
X70881Y-48965D01*
X63000Y-45450D02*
X66515Y-48965D01*
X84650Y-41130D02*
X84780Y-41000D01*
X84650Y-43000D02*
X84650Y-41130D01*
X73714Y-48953D02*
X72121Y-47359D01*
X78901Y-48953D02*
X73714Y-48953D01*
X78951Y-48902D02*
X78901Y-48953D01*
X78951Y-46401D02*
X78951Y-48902D01*
X78000Y-45450D02*
X78951Y-46401D01*
X86250Y-47250D02*
X84650Y-47250D01*
X84650Y-47699D02*
X84650Y-47250D01*
X83244Y-49105D02*
X84650Y-47699D01*
X79153Y-49105D02*
X83244Y-49105D01*
X78951Y-48902D02*
X79153Y-49105D01*
X84650Y-47250D02*
X84650Y-43000D01*
G54D10*
G36*
X72360Y-33469D02*
X72277Y-33435D01*
X72151Y-33434D01*
X72036Y-33482D01*
X71947Y-33571D01*
X71899Y-33687D01*
X71899Y-33812D01*
X71947Y-33928D01*
X71994Y-33975D01*
X71994Y-42194D01*
X71540Y-42648D01*
X71540Y-36393D01*
X71458Y-36194D01*
X71306Y-36042D01*
X71107Y-35960D01*
X70940Y-35959D01*
X70529Y-35548D01*
X70529Y-34301D01*
X70551Y-34292D01*
X70731Y-34113D01*
X70828Y-33877D01*
X70829Y-33623D01*
X70731Y-33387D01*
X70552Y-33207D01*
X70316Y-33110D01*
X70062Y-33109D01*
X69826Y-33207D01*
X69646Y-33386D01*
X69549Y-33622D01*
X69548Y-33876D01*
X69646Y-34112D01*
X69825Y-34292D01*
X69849Y-34301D01*
X69849Y-35689D01*
X69874Y-35819D01*
X69948Y-35929D01*
X70460Y-36440D01*
X70459Y-36606D01*
X70541Y-36805D01*
X70693Y-36957D01*
X70892Y-37039D01*
X71106Y-37040D01*
X71305Y-36958D01*
X71457Y-36806D01*
X71539Y-36607D01*
X71540Y-36393D01*
X71540Y-42648D01*
X71193Y-42995D01*
X71107Y-42960D01*
X70893Y-42959D01*
X70694Y-43041D01*
X70542Y-43193D01*
X70499Y-43296D01*
X70458Y-43194D01*
X70306Y-43042D01*
X70107Y-42960D01*
X69893Y-42959D01*
X69766Y-43012D01*
X69451Y-42696D01*
X69451Y-34222D01*
X69451Y-33222D01*
X69429Y-33170D01*
X69390Y-33131D01*
X69338Y-33110D01*
X69283Y-33109D01*
X68283Y-33109D01*
X68231Y-33131D01*
X68192Y-33170D01*
X68171Y-33222D01*
X68170Y-33277D01*
X68170Y-34277D01*
X68192Y-34329D01*
X68231Y-34368D01*
X68283Y-34389D01*
X68338Y-34390D01*
X69338Y-34390D01*
X69390Y-34368D01*
X69429Y-34329D01*
X69450Y-34277D01*
X69451Y-34222D01*
X69451Y-42696D01*
X68540Y-41785D01*
X68540Y-36393D01*
X68458Y-36194D01*
X68306Y-36042D01*
X68107Y-35960D01*
X67893Y-35959D01*
X67694Y-36041D01*
X67542Y-36193D01*
X67460Y-36392D01*
X67459Y-36606D01*
X67541Y-36805D01*
X67693Y-36957D01*
X67892Y-37039D01*
X68106Y-37040D01*
X68305Y-36958D01*
X68457Y-36806D01*
X68539Y-36607D01*
X68540Y-36393D01*
X68540Y-41785D01*
X64981Y-38227D01*
X64981Y-32550D01*
X65017Y-32464D01*
X65017Y-32338D01*
X65009Y-32318D01*
X65068Y-32306D01*
X65127Y-32267D01*
X65166Y-32209D01*
X65180Y-32140D01*
X65180Y-32111D01*
X65311Y-32023D01*
X65406Y-31880D01*
X65440Y-31712D01*
X65440Y-31287D01*
X65406Y-31119D01*
X65311Y-30976D01*
X65168Y-30880D01*
X65018Y-30851D01*
X65981Y-30851D01*
X65831Y-30880D01*
X65688Y-30976D01*
X65593Y-31119D01*
X65560Y-31287D01*
X65560Y-31712D01*
X65593Y-31880D01*
X65688Y-32023D01*
X65831Y-32119D01*
X66000Y-32152D01*
X66168Y-32119D01*
X66311Y-32023D01*
X66406Y-31880D01*
X66440Y-31712D01*
X66440Y-31287D01*
X66406Y-31119D01*
X66311Y-30976D01*
X66168Y-30880D01*
X66018Y-30851D01*
X66981Y-30851D01*
X66831Y-30880D01*
X66688Y-30976D01*
X66593Y-31119D01*
X66560Y-31287D01*
X66560Y-31712D01*
X66593Y-31880D01*
X66688Y-32023D01*
X66720Y-32044D01*
X65653Y-33111D01*
X65531Y-33111D01*
X65415Y-33159D01*
X65326Y-33247D01*
X65278Y-33363D01*
X65278Y-33488D01*
X65326Y-33604D01*
X65414Y-33693D01*
X65530Y-33741D01*
X65655Y-33741D01*
X65771Y-33693D01*
X65860Y-33605D01*
X65908Y-33489D01*
X65908Y-33366D01*
X66954Y-32320D01*
X67000Y-32320D01*
X67068Y-32306D01*
X67127Y-32267D01*
X67166Y-32209D01*
X67180Y-32140D01*
X67180Y-32111D01*
X67311Y-32023D01*
X67406Y-31880D01*
X67440Y-31712D01*
X67440Y-31287D01*
X67406Y-31119D01*
X67311Y-30976D01*
X67168Y-30880D01*
X67018Y-30851D01*
X67981Y-30851D01*
X67831Y-30880D01*
X67688Y-30976D01*
X67593Y-31119D01*
X67560Y-31287D01*
X67560Y-31712D01*
X67593Y-31880D01*
X67688Y-32023D01*
X67831Y-32119D01*
X68000Y-32152D01*
X68168Y-32119D01*
X68311Y-32023D01*
X68406Y-31880D01*
X68440Y-31712D01*
X68440Y-31287D01*
X68406Y-31119D01*
X68311Y-30976D01*
X68168Y-30880D01*
X68018Y-30851D01*
X68981Y-30851D01*
X68831Y-30880D01*
X68688Y-30976D01*
X68593Y-31119D01*
X68560Y-31287D01*
X68560Y-31712D01*
X68593Y-31880D01*
X68688Y-32023D01*
X68831Y-32119D01*
X69000Y-32152D01*
X69168Y-32119D01*
X69311Y-32023D01*
X69406Y-31880D01*
X69440Y-31712D01*
X69440Y-31287D01*
X69406Y-31119D01*
X69311Y-30976D01*
X69168Y-30880D01*
X69018Y-30851D01*
X69930Y-30851D01*
X69938Y-30859D01*
X69831Y-30880D01*
X69688Y-30976D01*
X69593Y-31119D01*
X69560Y-31287D01*
X69560Y-31712D01*
X69593Y-31880D01*
X69688Y-32023D01*
X69831Y-32119D01*
X70000Y-32152D01*
X70168Y-32119D01*
X70311Y-32023D01*
X70406Y-31880D01*
X70440Y-31712D01*
X70440Y-31361D01*
X72360Y-33281D01*
X72360Y-33469D01*
X72360Y-33469D01*
G37*
G54D32*
X72360Y-33469D02*
X72277Y-33435D01*
X72151Y-33434D01*
X72036Y-33482D01*
X71947Y-33571D01*
X71899Y-33687D01*
X71899Y-33812D01*
X71947Y-33928D01*
X71994Y-33975D01*
X71994Y-42194D01*
X71540Y-42648D01*
X71540Y-36393D01*
X71458Y-36194D01*
X71306Y-36042D01*
X71107Y-35960D01*
X70940Y-35959D01*
X70529Y-35548D01*
X70529Y-34301D01*
X70551Y-34292D01*
X70731Y-34113D01*
X70828Y-33877D01*
X70829Y-33623D01*
X70731Y-33387D01*
X70552Y-33207D01*
X70316Y-33110D01*
X70062Y-33109D01*
X69826Y-33207D01*
X69646Y-33386D01*
X69549Y-33622D01*
X69548Y-33876D01*
X69646Y-34112D01*
X69825Y-34292D01*
X69849Y-34301D01*
X69849Y-35689D01*
X69874Y-35819D01*
X69948Y-35929D01*
X70460Y-36440D01*
X70459Y-36606D01*
X70541Y-36805D01*
X70693Y-36957D01*
X70892Y-37039D01*
X71106Y-37040D01*
X71305Y-36958D01*
X71457Y-36806D01*
X71539Y-36607D01*
X71540Y-36393D01*
X71540Y-42648D01*
X71193Y-42995D01*
X71107Y-42960D01*
X70893Y-42959D01*
X70694Y-43041D01*
X70542Y-43193D01*
X70499Y-43296D01*
X70458Y-43194D01*
X70306Y-43042D01*
X70107Y-42960D01*
X69893Y-42959D01*
X69766Y-43012D01*
X69451Y-42696D01*
X69451Y-34222D01*
X69451Y-33222D01*
X69429Y-33170D01*
X69390Y-33131D01*
X69338Y-33110D01*
X69283Y-33109D01*
X68283Y-33109D01*
X68231Y-33131D01*
X68192Y-33170D01*
X68171Y-33222D01*
X68170Y-33277D01*
X68170Y-34277D01*
X68192Y-34329D01*
X68231Y-34368D01*
X68283Y-34389D01*
X68338Y-34390D01*
X69338Y-34390D01*
X69390Y-34368D01*
X69429Y-34329D01*
X69450Y-34277D01*
X69451Y-34222D01*
X69451Y-42696D01*
X68540Y-41785D01*
X68540Y-36393D01*
X68458Y-36194D01*
X68306Y-36042D01*
X68107Y-35960D01*
X67893Y-35959D01*
X67694Y-36041D01*
X67542Y-36193D01*
X67460Y-36392D01*
X67459Y-36606D01*
X67541Y-36805D01*
X67693Y-36957D01*
X67892Y-37039D01*
X68106Y-37040D01*
X68305Y-36958D01*
X68457Y-36806D01*
X68539Y-36607D01*
X68540Y-36393D01*
X68540Y-41785D01*
X64981Y-38227D01*
X64981Y-32550D01*
X65017Y-32464D01*
X65017Y-32338D01*
X65009Y-32318D01*
X65068Y-32306D01*
X65127Y-32267D01*
X65166Y-32209D01*
X65180Y-32140D01*
X65180Y-32111D01*
X65311Y-32023D01*
X65406Y-31880D01*
X65440Y-31712D01*
X65440Y-31287D01*
X65406Y-31119D01*
X65311Y-30976D01*
X65168Y-30880D01*
X65018Y-30851D01*
X65981Y-30851D01*
X65831Y-30880D01*
X65688Y-30976D01*
X65593Y-31119D01*
X65560Y-31287D01*
X65560Y-31712D01*
X65593Y-31880D01*
X65688Y-32023D01*
X65831Y-32119D01*
X66000Y-32152D01*
X66168Y-32119D01*
X66311Y-32023D01*
X66406Y-31880D01*
X66440Y-31712D01*
X66440Y-31287D01*
X66406Y-31119D01*
X66311Y-30976D01*
X66168Y-30880D01*
X66018Y-30851D01*
X66981Y-30851D01*
X66831Y-30880D01*
X66688Y-30976D01*
X66593Y-31119D01*
X66560Y-31287D01*
X66560Y-31712D01*
X66593Y-31880D01*
X66688Y-32023D01*
X66720Y-32044D01*
X65653Y-33111D01*
X65531Y-33111D01*
X65415Y-33159D01*
X65326Y-33247D01*
X65278Y-33363D01*
X65278Y-33488D01*
X65326Y-33604D01*
X65414Y-33693D01*
X65530Y-33741D01*
X65655Y-33741D01*
X65771Y-33693D01*
X65860Y-33605D01*
X65908Y-33489D01*
X65908Y-33366D01*
X66954Y-32320D01*
X67000Y-32320D01*
X67068Y-32306D01*
X67127Y-32267D01*
X67166Y-32209D01*
X67180Y-32140D01*
X67180Y-32111D01*
X67311Y-32023D01*
X67406Y-31880D01*
X67440Y-31712D01*
X67440Y-31287D01*
X67406Y-31119D01*
X67311Y-30976D01*
X67168Y-30880D01*
X67018Y-30851D01*
X67981Y-30851D01*
X67831Y-30880D01*
X67688Y-30976D01*
X67593Y-31119D01*
X67560Y-31287D01*
X67560Y-31712D01*
X67593Y-31880D01*
X67688Y-32023D01*
X67831Y-32119D01*
X68000Y-32152D01*
X68168Y-32119D01*
X68311Y-32023D01*
X68406Y-31880D01*
X68440Y-31712D01*
X68440Y-31287D01*
X68406Y-31119D01*
X68311Y-30976D01*
X68168Y-30880D01*
X68018Y-30851D01*
X68981Y-30851D01*
X68831Y-30880D01*
X68688Y-30976D01*
X68593Y-31119D01*
X68560Y-31287D01*
X68560Y-31712D01*
X68593Y-31880D01*
X68688Y-32023D01*
X68831Y-32119D01*
X69000Y-32152D01*
X69168Y-32119D01*
X69311Y-32023D01*
X69406Y-31880D01*
X69440Y-31712D01*
X69440Y-31287D01*
X69406Y-31119D01*
X69311Y-30976D01*
X69168Y-30880D01*
X69018Y-30851D01*
X69930Y-30851D01*
X69938Y-30859D01*
X69831Y-30880D01*
X69688Y-30976D01*
X69593Y-31119D01*
X69560Y-31287D01*
X69560Y-31712D01*
X69593Y-31880D01*
X69688Y-32023D01*
X69831Y-32119D01*
X70000Y-32152D01*
X70168Y-32119D01*
X70311Y-32023D01*
X70406Y-31880D01*
X70440Y-31712D01*
X70440Y-31361D01*
X72360Y-33281D01*
X72360Y-33469D01*
G54D10*
G36*
X89335Y-51335D02*
X88840Y-51335D01*
X88840Y-40897D01*
X88761Y-40705D01*
X88614Y-40559D01*
X88423Y-40480D01*
X88217Y-40479D01*
X88025Y-40558D01*
X87913Y-40671D01*
X87874Y-40577D01*
X88568Y-39882D01*
X88616Y-39810D01*
X88616Y-39810D01*
X88633Y-39726D01*
X88633Y-35663D01*
X88616Y-35579D01*
X88616Y-35579D01*
X88568Y-35507D01*
X87227Y-34166D01*
X87254Y-34100D01*
X87255Y-33899D01*
X87178Y-33714D01*
X87036Y-33572D01*
X86850Y-33495D01*
X86649Y-33494D01*
X86464Y-33571D01*
X86322Y-33713D01*
X86255Y-33875D01*
X86255Y-33607D01*
X86233Y-33555D01*
X86194Y-33516D01*
X86142Y-33495D01*
X86087Y-33494D01*
X85357Y-33494D01*
X85305Y-33516D01*
X85266Y-33555D01*
X85245Y-33607D01*
X85244Y-33662D01*
X85244Y-33820D01*
X83302Y-33820D01*
X83372Y-33749D01*
X83439Y-33587D01*
X83440Y-33412D01*
X83440Y-32412D01*
X83440Y-31412D01*
X83373Y-31251D01*
X83249Y-31127D01*
X83087Y-31060D01*
X82912Y-31059D01*
X82751Y-31126D01*
X82627Y-31250D01*
X82560Y-31412D01*
X82559Y-31587D01*
X82626Y-31748D01*
X82750Y-31872D01*
X82912Y-31939D01*
X83087Y-31940D01*
X83248Y-31873D01*
X83372Y-31749D01*
X83439Y-31587D01*
X83440Y-31412D01*
X83440Y-32412D01*
X83373Y-32251D01*
X83249Y-32127D01*
X83087Y-32060D01*
X82912Y-32059D01*
X82751Y-32126D01*
X82627Y-32250D01*
X82560Y-32412D01*
X82559Y-32587D01*
X82626Y-32748D01*
X82750Y-32872D01*
X82912Y-32939D01*
X83087Y-32940D01*
X83248Y-32873D01*
X83372Y-32749D01*
X83439Y-32587D01*
X83440Y-32412D01*
X83440Y-33412D01*
X83373Y-33251D01*
X83249Y-33127D01*
X83087Y-33060D01*
X82912Y-33059D01*
X82751Y-33126D01*
X82627Y-33250D01*
X82560Y-33412D01*
X82559Y-33587D01*
X82626Y-33748D01*
X82697Y-33820D01*
X82302Y-33820D01*
X82372Y-33749D01*
X82439Y-33587D01*
X82440Y-33412D01*
X82440Y-32412D01*
X82440Y-31412D01*
X82373Y-31251D01*
X82249Y-31127D01*
X82087Y-31060D01*
X81912Y-31059D01*
X81751Y-31126D01*
X81627Y-31250D01*
X81560Y-31412D01*
X81559Y-31587D01*
X81626Y-31748D01*
X81750Y-31872D01*
X81912Y-31939D01*
X82087Y-31940D01*
X82248Y-31873D01*
X82372Y-31749D01*
X82439Y-31587D01*
X82440Y-31412D01*
X82440Y-32412D01*
X82373Y-32251D01*
X82249Y-32127D01*
X82087Y-32060D01*
X81912Y-32059D01*
X81751Y-32126D01*
X81627Y-32250D01*
X81560Y-32412D01*
X81559Y-32587D01*
X81626Y-32748D01*
X81750Y-32872D01*
X81912Y-32939D01*
X82087Y-32940D01*
X82248Y-32873D01*
X82372Y-32749D01*
X82439Y-32587D01*
X82440Y-32412D01*
X82440Y-33412D01*
X82373Y-33251D01*
X82249Y-33127D01*
X82087Y-33060D01*
X81912Y-33059D01*
X81751Y-33126D01*
X81627Y-33250D01*
X81560Y-33412D01*
X81559Y-33587D01*
X81626Y-33748D01*
X81697Y-33820D01*
X79747Y-33820D01*
X79440Y-33512D01*
X79440Y-31712D01*
X79440Y-31287D01*
X79406Y-31119D01*
X79311Y-30976D01*
X79168Y-30880D01*
X79000Y-30847D01*
X78831Y-30880D01*
X78688Y-30976D01*
X78593Y-31119D01*
X78560Y-31287D01*
X78560Y-31712D01*
X78593Y-31880D01*
X78688Y-32023D01*
X78831Y-32119D01*
X79000Y-32152D01*
X79168Y-32119D01*
X79311Y-32023D01*
X79406Y-31880D01*
X79440Y-31712D01*
X79440Y-33512D01*
X78066Y-32139D01*
X78168Y-32119D01*
X78311Y-32023D01*
X78406Y-31880D01*
X78440Y-31712D01*
X78440Y-31287D01*
X78406Y-31119D01*
X78311Y-30976D01*
X78168Y-30880D01*
X78000Y-30847D01*
X77831Y-30880D01*
X77688Y-30976D01*
X77644Y-31042D01*
X77334Y-30732D01*
X77275Y-30693D01*
X77206Y-30679D01*
X75805Y-30679D01*
X75737Y-30693D01*
X75678Y-30732D01*
X75432Y-30978D01*
X75393Y-31037D01*
X75383Y-31085D01*
X75311Y-30976D01*
X75168Y-30880D01*
X75000Y-30847D01*
X74831Y-30880D01*
X74688Y-30976D01*
X74593Y-31119D01*
X74560Y-31287D01*
X74560Y-31712D01*
X74593Y-31880D01*
X74688Y-32023D01*
X74831Y-32119D01*
X74929Y-32138D01*
X74925Y-32142D01*
X74803Y-32142D01*
X74687Y-32189D01*
X74598Y-32278D01*
X74550Y-32394D01*
X74550Y-32519D01*
X74598Y-32635D01*
X74686Y-32724D01*
X74802Y-32772D01*
X74927Y-32772D01*
X75043Y-32724D01*
X75132Y-32635D01*
X75180Y-32520D01*
X75180Y-32396D01*
X75634Y-31942D01*
X75688Y-32023D01*
X75758Y-32070D01*
X74440Y-33388D01*
X74440Y-31712D01*
X74440Y-31287D01*
X74406Y-31119D01*
X74311Y-30976D01*
X74168Y-30880D01*
X74000Y-30847D01*
X73831Y-30880D01*
X73688Y-30976D01*
X73593Y-31119D01*
X73560Y-31287D01*
X73560Y-31712D01*
X73593Y-31880D01*
X73688Y-32023D01*
X73831Y-32119D01*
X74000Y-32152D01*
X74168Y-32119D01*
X74311Y-32023D01*
X74406Y-31880D01*
X74440Y-31712D01*
X74440Y-33388D01*
X73627Y-34201D01*
X73504Y-34201D01*
X73440Y-34228D01*
X73440Y-31712D01*
X73440Y-31287D01*
X73406Y-31119D01*
X73311Y-30976D01*
X73168Y-30880D01*
X73000Y-30847D01*
X72831Y-30880D01*
X72688Y-30976D01*
X72593Y-31119D01*
X72560Y-31287D01*
X72560Y-31712D01*
X72593Y-31880D01*
X72688Y-32023D01*
X72831Y-32119D01*
X73000Y-32152D01*
X73168Y-32119D01*
X73311Y-32023D01*
X73406Y-31880D01*
X73440Y-31712D01*
X73440Y-34228D01*
X73388Y-34249D01*
X73299Y-34337D01*
X73251Y-34453D01*
X73251Y-34578D01*
X73299Y-34694D01*
X73387Y-34783D01*
X73503Y-34831D01*
X73628Y-34831D01*
X73744Y-34783D01*
X73833Y-34695D01*
X73881Y-34579D01*
X73881Y-34456D01*
X76017Y-32320D01*
X77000Y-32320D01*
X77068Y-32306D01*
X77127Y-32267D01*
X77166Y-32209D01*
X77180Y-32140D01*
X77180Y-32111D01*
X77311Y-32023D01*
X77385Y-31912D01*
X77393Y-31955D01*
X77432Y-32013D01*
X79545Y-34127D01*
X79545Y-34127D01*
X79584Y-34153D01*
X79604Y-34166D01*
X79604Y-34166D01*
X79673Y-34179D01*
X79673Y-34180D01*
X81697Y-34180D01*
X81627Y-34250D01*
X81560Y-34412D01*
X81559Y-34587D01*
X81626Y-34748D01*
X81750Y-34872D01*
X81912Y-34939D01*
X82087Y-34940D01*
X82248Y-34873D01*
X82372Y-34749D01*
X82439Y-34587D01*
X82440Y-34412D01*
X82373Y-34251D01*
X82302Y-34180D01*
X82697Y-34180D01*
X82627Y-34250D01*
X82560Y-34412D01*
X82559Y-34587D01*
X82626Y-34748D01*
X82750Y-34872D01*
X82912Y-34939D01*
X83087Y-34940D01*
X83248Y-34873D01*
X83372Y-34749D01*
X83439Y-34587D01*
X83440Y-34412D01*
X83373Y-34251D01*
X83302Y-34180D01*
X85244Y-34180D01*
X85244Y-34392D01*
X85266Y-34444D01*
X85305Y-34483D01*
X85357Y-34504D01*
X85412Y-34505D01*
X86142Y-34505D01*
X86194Y-34483D01*
X86233Y-34444D01*
X86254Y-34392D01*
X86255Y-34337D01*
X86255Y-34124D01*
X86321Y-34285D01*
X86463Y-34427D01*
X86649Y-34504D01*
X86850Y-34505D01*
X86916Y-34477D01*
X88193Y-35754D01*
X88193Y-38705D01*
X88006Y-38518D01*
X87697Y-38390D01*
X87363Y-38389D01*
X87054Y-38517D01*
X86818Y-38753D01*
X86690Y-39062D01*
X86689Y-39396D01*
X86817Y-39705D01*
X87053Y-39941D01*
X87362Y-40069D01*
X87696Y-40070D01*
X87802Y-40026D01*
X87562Y-40266D01*
X87307Y-40160D01*
X86973Y-40159D01*
X86664Y-40287D01*
X86428Y-40523D01*
X86300Y-40832D01*
X86299Y-41166D01*
X86405Y-41422D01*
X85823Y-42005D01*
X85823Y-41188D01*
X85816Y-40775D01*
X85671Y-40426D01*
X85528Y-40336D01*
X85443Y-40421D01*
X85443Y-40251D01*
X85353Y-40108D01*
X84968Y-39956D01*
X84555Y-39963D01*
X84206Y-40108D01*
X84116Y-40251D01*
X84780Y-40915D01*
X85443Y-40251D01*
X85443Y-40421D01*
X84864Y-41000D01*
X85528Y-41663D01*
X85671Y-41573D01*
X85823Y-41188D01*
X85823Y-42005D01*
X85694Y-42134D01*
X85646Y-42205D01*
X85630Y-42290D01*
X85630Y-42359D01*
X85572Y-42359D01*
X85520Y-42381D01*
X85481Y-42420D01*
X85460Y-42472D01*
X85459Y-42527D01*
X85459Y-43527D01*
X85481Y-43579D01*
X85520Y-43618D01*
X85572Y-43639D01*
X85589Y-43639D01*
X85563Y-43679D01*
X85546Y-43763D01*
X85546Y-45766D01*
X85563Y-45850D01*
X85610Y-45922D01*
X85822Y-46133D01*
X85810Y-46162D01*
X85809Y-46337D01*
X85876Y-46498D01*
X86000Y-46622D01*
X86162Y-46689D01*
X86337Y-46690D01*
X86498Y-46623D01*
X86622Y-46499D01*
X86635Y-46470D01*
X87128Y-46470D01*
X87164Y-46505D01*
X87235Y-46553D01*
X87235Y-46553D01*
X87319Y-46570D01*
X87359Y-46570D01*
X87359Y-46627D01*
X87381Y-46679D01*
X87420Y-46718D01*
X87472Y-46739D01*
X87527Y-46740D01*
X88527Y-46740D01*
X88579Y-46718D01*
X88618Y-46679D01*
X88639Y-46627D01*
X88640Y-46572D01*
X88640Y-46072D01*
X88618Y-46020D01*
X88579Y-45981D01*
X88527Y-45960D01*
X88472Y-45959D01*
X87472Y-45959D01*
X87420Y-45981D01*
X87381Y-46020D01*
X87360Y-46072D01*
X87360Y-46084D01*
X87304Y-46046D01*
X87219Y-46030D01*
X86635Y-46030D01*
X86623Y-46001D01*
X86499Y-45877D01*
X86337Y-45810D01*
X86162Y-45809D01*
X86133Y-45822D01*
X85986Y-45675D01*
X85986Y-45608D01*
X86000Y-45622D01*
X86162Y-45689D01*
X86337Y-45690D01*
X86498Y-45623D01*
X86532Y-45590D01*
X87099Y-45590D01*
X87099Y-45589D01*
X87229Y-45564D01*
X87340Y-45490D01*
X87340Y-45490D01*
X87392Y-45490D01*
X87420Y-45518D01*
X87472Y-45539D01*
X87527Y-45540D01*
X88527Y-45540D01*
X88579Y-45518D01*
X88618Y-45479D01*
X88639Y-45427D01*
X88640Y-45372D01*
X88640Y-44872D01*
X88618Y-44820D01*
X88579Y-44781D01*
X88527Y-44760D01*
X88472Y-44759D01*
X88370Y-44759D01*
X88370Y-42603D01*
X88242Y-42294D01*
X88006Y-42058D01*
X87697Y-41930D01*
X87363Y-41929D01*
X87054Y-42057D01*
X86818Y-42293D01*
X86690Y-42602D01*
X86689Y-42936D01*
X86817Y-43245D01*
X87053Y-43481D01*
X87362Y-43609D01*
X87696Y-43610D01*
X88005Y-43482D01*
X88241Y-43246D01*
X88369Y-42937D01*
X88370Y-42603D01*
X88370Y-44759D01*
X87472Y-44759D01*
X87420Y-44781D01*
X87391Y-44810D01*
X87199Y-44810D01*
X87091Y-44831D01*
X87069Y-44835D01*
X86959Y-44909D01*
X86959Y-44910D01*
X86532Y-44910D01*
X86499Y-44877D01*
X86337Y-44810D01*
X86162Y-44809D01*
X86001Y-44876D01*
X85986Y-44891D01*
X85986Y-43854D01*
X86005Y-43835D01*
X86053Y-43764D01*
X86053Y-43764D01*
X86069Y-43680D01*
X86070Y-43680D01*
X86070Y-43640D01*
X86127Y-43640D01*
X86179Y-43618D01*
X86218Y-43579D01*
X86239Y-43527D01*
X86240Y-43472D01*
X86240Y-42472D01*
X86218Y-42420D01*
X86179Y-42381D01*
X86127Y-42360D01*
X86091Y-42359D01*
X86717Y-41733D01*
X86972Y-41839D01*
X87306Y-41840D01*
X87615Y-41712D01*
X87851Y-41476D01*
X87913Y-41328D01*
X88025Y-41440D01*
X88216Y-41519D01*
X88422Y-41520D01*
X88614Y-41441D01*
X88760Y-41294D01*
X88839Y-41103D01*
X88840Y-40897D01*
X88840Y-51335D01*
X86796Y-51335D01*
X86796Y-47319D01*
X86781Y-47105D01*
X86728Y-46976D01*
X86636Y-46948D01*
X86551Y-47032D01*
X86551Y-46863D01*
X86523Y-46771D01*
X86319Y-46703D01*
X86105Y-46718D01*
X85976Y-46771D01*
X85948Y-46863D01*
X86250Y-47165D01*
X86551Y-46863D01*
X86551Y-47032D01*
X86334Y-47250D01*
X86636Y-47551D01*
X86728Y-47523D01*
X86796Y-47319D01*
X86796Y-51335D01*
X86551Y-51335D01*
X86551Y-47636D01*
X86250Y-47334D01*
X86165Y-47419D01*
X86165Y-47250D01*
X85863Y-46948D01*
X85771Y-46976D01*
X85703Y-47180D01*
X85718Y-47394D01*
X85771Y-47523D01*
X85863Y-47551D01*
X86165Y-47250D01*
X86165Y-47419D01*
X85948Y-47636D01*
X85976Y-47728D01*
X86180Y-47796D01*
X86394Y-47781D01*
X86523Y-47728D01*
X86551Y-47636D01*
X86551Y-51335D01*
X85443Y-51335D01*
X85443Y-41748D01*
X84780Y-41084D01*
X84695Y-41169D01*
X84695Y-41000D01*
X84031Y-40336D01*
X83888Y-40426D01*
X83736Y-40811D01*
X83743Y-41224D01*
X83888Y-41573D01*
X84031Y-41663D01*
X84695Y-41000D01*
X84695Y-41169D01*
X84116Y-41748D01*
X84206Y-41891D01*
X84591Y-42043D01*
X85004Y-42036D01*
X85353Y-41891D01*
X85443Y-41748D01*
X85443Y-51335D01*
X85140Y-51335D01*
X85140Y-43452D01*
X85140Y-42547D01*
X85139Y-42452D01*
X85103Y-42363D01*
X85035Y-42296D01*
X84947Y-42259D01*
X84770Y-42260D01*
X84710Y-42320D01*
X84710Y-42940D01*
X85080Y-42940D01*
X85140Y-42880D01*
X85140Y-42547D01*
X85140Y-43452D01*
X85140Y-43120D01*
X85080Y-43060D01*
X84710Y-43060D01*
X84710Y-43680D01*
X84770Y-43740D01*
X84947Y-43740D01*
X85035Y-43703D01*
X85103Y-43636D01*
X85139Y-43547D01*
X85140Y-43452D01*
X85140Y-51335D01*
X84590Y-51335D01*
X84590Y-43680D01*
X84590Y-43060D01*
X84590Y-42940D01*
X84590Y-42320D01*
X84530Y-42260D01*
X84352Y-42259D01*
X84264Y-42296D01*
X84196Y-42363D01*
X84160Y-42452D01*
X84159Y-42547D01*
X84160Y-42880D01*
X84220Y-42940D01*
X84590Y-42940D01*
X84590Y-43060D01*
X84220Y-43060D01*
X84160Y-43120D01*
X84159Y-43452D01*
X84160Y-43547D01*
X84196Y-43636D01*
X84264Y-43703D01*
X84352Y-43740D01*
X84530Y-43740D01*
X84590Y-43680D01*
X84590Y-51335D01*
X83375Y-51335D01*
X83517Y-51276D01*
X83775Y-51018D01*
X83914Y-50682D01*
X83915Y-50318D01*
X83776Y-49982D01*
X83518Y-49724D01*
X83440Y-49691D01*
X83440Y-48412D01*
X83440Y-47412D01*
X83440Y-46412D01*
X83440Y-45412D01*
X83440Y-44412D01*
X83440Y-43412D01*
X83440Y-42412D01*
X83440Y-41412D01*
X83440Y-40412D01*
X83440Y-39412D01*
X83440Y-38412D01*
X83440Y-37412D01*
X83440Y-36412D01*
X83440Y-35412D01*
X83373Y-35251D01*
X83249Y-35127D01*
X83087Y-35060D01*
X82912Y-35059D01*
X82751Y-35126D01*
X82627Y-35250D01*
X82560Y-35412D01*
X82559Y-35587D01*
X82626Y-35748D01*
X82750Y-35872D01*
X82912Y-35939D01*
X83087Y-35940D01*
X83248Y-35873D01*
X83372Y-35749D01*
X83439Y-35587D01*
X83440Y-35412D01*
X83440Y-36412D01*
X83373Y-36251D01*
X83249Y-36127D01*
X83087Y-36060D01*
X82912Y-36059D01*
X82751Y-36126D01*
X82627Y-36250D01*
X82560Y-36412D01*
X82559Y-36587D01*
X82626Y-36748D01*
X82750Y-36872D01*
X82912Y-36939D01*
X83087Y-36940D01*
X83248Y-36873D01*
X83372Y-36749D01*
X83439Y-36587D01*
X83440Y-36412D01*
X83440Y-37412D01*
X83373Y-37251D01*
X83249Y-37127D01*
X83087Y-37060D01*
X82912Y-37059D01*
X82751Y-37126D01*
X82627Y-37250D01*
X82560Y-37412D01*
X82559Y-37587D01*
X82626Y-37748D01*
X82750Y-37872D01*
X82912Y-37939D01*
X83087Y-37940D01*
X83248Y-37873D01*
X83372Y-37749D01*
X83439Y-37587D01*
X83440Y-37412D01*
X83440Y-38412D01*
X83373Y-38251D01*
X83249Y-38127D01*
X83087Y-38060D01*
X82912Y-38059D01*
X82751Y-38126D01*
X82627Y-38250D01*
X82560Y-38412D01*
X82559Y-38587D01*
X82626Y-38748D01*
X82750Y-38872D01*
X82912Y-38939D01*
X83087Y-38940D01*
X83248Y-38873D01*
X83372Y-38749D01*
X83439Y-38587D01*
X83440Y-38412D01*
X83440Y-39412D01*
X83373Y-39251D01*
X83249Y-39127D01*
X83087Y-39060D01*
X82912Y-39059D01*
X82751Y-39126D01*
X82627Y-39250D01*
X82560Y-39412D01*
X82559Y-39587D01*
X82626Y-39748D01*
X82750Y-39872D01*
X82912Y-39939D01*
X83087Y-39940D01*
X83248Y-39873D01*
X83372Y-39749D01*
X83439Y-39587D01*
X83440Y-39412D01*
X83440Y-40412D01*
X83373Y-40251D01*
X83249Y-40127D01*
X83087Y-40060D01*
X82912Y-40059D01*
X82751Y-40126D01*
X82627Y-40250D01*
X82560Y-40412D01*
X82559Y-40587D01*
X82626Y-40748D01*
X82750Y-40872D01*
X82912Y-40939D01*
X83087Y-40940D01*
X83248Y-40873D01*
X83372Y-40749D01*
X83439Y-40587D01*
X83440Y-40412D01*
X83440Y-41412D01*
X83373Y-41251D01*
X83249Y-41127D01*
X83087Y-41060D01*
X82912Y-41059D01*
X82751Y-41126D01*
X82627Y-41250D01*
X82560Y-41412D01*
X82559Y-41587D01*
X82626Y-41748D01*
X82750Y-41872D01*
X82912Y-41939D01*
X83087Y-41940D01*
X83248Y-41873D01*
X83372Y-41749D01*
X83439Y-41587D01*
X83440Y-41412D01*
X83440Y-42412D01*
X83373Y-42251D01*
X83249Y-42127D01*
X83087Y-42060D01*
X82912Y-42059D01*
X82751Y-42126D01*
X82627Y-42250D01*
X82560Y-42412D01*
X82559Y-42587D01*
X82626Y-42748D01*
X82750Y-42872D01*
X82912Y-42939D01*
X83087Y-42940D01*
X83248Y-42873D01*
X83372Y-42749D01*
X83439Y-42587D01*
X83440Y-42412D01*
X83440Y-43412D01*
X83373Y-43251D01*
X83249Y-43127D01*
X83087Y-43060D01*
X82912Y-43059D01*
X82751Y-43126D01*
X82627Y-43250D01*
X82560Y-43412D01*
X82559Y-43587D01*
X82626Y-43748D01*
X82750Y-43872D01*
X82912Y-43939D01*
X83087Y-43940D01*
X83248Y-43873D01*
X83372Y-43749D01*
X83439Y-43587D01*
X83440Y-43412D01*
X83440Y-44412D01*
X83373Y-44251D01*
X83249Y-44127D01*
X83087Y-44060D01*
X82912Y-44059D01*
X82751Y-44126D01*
X82627Y-44250D01*
X82560Y-44412D01*
X82559Y-44587D01*
X82626Y-44748D01*
X82750Y-44872D01*
X82912Y-44939D01*
X83087Y-44940D01*
X83248Y-44873D01*
X83372Y-44749D01*
X83439Y-44587D01*
X83440Y-44412D01*
X83440Y-45412D01*
X83373Y-45251D01*
X83249Y-45127D01*
X83087Y-45060D01*
X82912Y-45059D01*
X82751Y-45126D01*
X82627Y-45250D01*
X82560Y-45412D01*
X82559Y-45587D01*
X82626Y-45748D01*
X82750Y-45872D01*
X82912Y-45939D01*
X83087Y-45940D01*
X83248Y-45873D01*
X83372Y-45749D01*
X83439Y-45587D01*
X83440Y-45412D01*
X83440Y-46412D01*
X83373Y-46251D01*
X83249Y-46127D01*
X83087Y-46060D01*
X82912Y-46059D01*
X82751Y-46126D01*
X82627Y-46250D01*
X82560Y-46412D01*
X82559Y-46587D01*
X82626Y-46748D01*
X82750Y-46872D01*
X82912Y-46939D01*
X83087Y-46940D01*
X83248Y-46873D01*
X83372Y-46749D01*
X83439Y-46587D01*
X83440Y-46412D01*
X83440Y-47412D01*
X83373Y-47251D01*
X83249Y-47127D01*
X83087Y-47060D01*
X82912Y-47059D01*
X82751Y-47126D01*
X82627Y-47250D01*
X82560Y-47412D01*
X82559Y-47587D01*
X82626Y-47748D01*
X82750Y-47872D01*
X82912Y-47939D01*
X83087Y-47940D01*
X83248Y-47873D01*
X83372Y-47749D01*
X83439Y-47587D01*
X83440Y-47412D01*
X83440Y-48412D01*
X83373Y-48251D01*
X83249Y-48127D01*
X83087Y-48060D01*
X82912Y-48059D01*
X82751Y-48126D01*
X82627Y-48250D01*
X82560Y-48412D01*
X82559Y-48587D01*
X82626Y-48748D01*
X82750Y-48872D01*
X82912Y-48939D01*
X83087Y-48940D01*
X83248Y-48873D01*
X83372Y-48749D01*
X83439Y-48587D01*
X83440Y-48412D01*
X83440Y-49691D01*
X83182Y-49585D01*
X82818Y-49584D01*
X82482Y-49723D01*
X82440Y-49766D01*
X82440Y-48412D01*
X82440Y-47412D01*
X82440Y-46412D01*
X82440Y-45412D01*
X82440Y-44412D01*
X82440Y-43412D01*
X82440Y-42412D01*
X82440Y-41412D01*
X82440Y-40412D01*
X82440Y-39412D01*
X82440Y-38412D01*
X82440Y-37412D01*
X82440Y-36412D01*
X82440Y-35412D01*
X82373Y-35251D01*
X82249Y-35127D01*
X82087Y-35060D01*
X81912Y-35059D01*
X81751Y-35126D01*
X81627Y-35250D01*
X81560Y-35412D01*
X81559Y-35587D01*
X81626Y-35748D01*
X81750Y-35872D01*
X81912Y-35939D01*
X82087Y-35940D01*
X82248Y-35873D01*
X82372Y-35749D01*
X82439Y-35587D01*
X82440Y-35412D01*
X82440Y-36412D01*
X82373Y-36251D01*
X82249Y-36127D01*
X82087Y-36060D01*
X81912Y-36059D01*
X81751Y-36126D01*
X81627Y-36250D01*
X81560Y-36412D01*
X81559Y-36587D01*
X81626Y-36748D01*
X81750Y-36872D01*
X81912Y-36939D01*
X82087Y-36940D01*
X82248Y-36873D01*
X82372Y-36749D01*
X82439Y-36587D01*
X82440Y-36412D01*
X82440Y-37412D01*
X82373Y-37251D01*
X82249Y-37127D01*
X82087Y-37060D01*
X81912Y-37059D01*
X81751Y-37126D01*
X81627Y-37250D01*
X81560Y-37412D01*
X81559Y-37587D01*
X81626Y-37748D01*
X81750Y-37872D01*
X81912Y-37939D01*
X82087Y-37940D01*
X82248Y-37873D01*
X82372Y-37749D01*
X82439Y-37587D01*
X82440Y-37412D01*
X82440Y-38412D01*
X82373Y-38251D01*
X82249Y-38127D01*
X82087Y-38060D01*
X81912Y-38059D01*
X81751Y-38126D01*
X81627Y-38250D01*
X81560Y-38412D01*
X81559Y-38587D01*
X81626Y-38748D01*
X81750Y-38872D01*
X81912Y-38939D01*
X82087Y-38940D01*
X82248Y-38873D01*
X82372Y-38749D01*
X82439Y-38587D01*
X82440Y-38412D01*
X82440Y-39412D01*
X82373Y-39251D01*
X82249Y-39127D01*
X82087Y-39060D01*
X81912Y-39059D01*
X81751Y-39126D01*
X81627Y-39250D01*
X81560Y-39412D01*
X81559Y-39587D01*
X81626Y-39748D01*
X81750Y-39872D01*
X81912Y-39939D01*
X82087Y-39940D01*
X82248Y-39873D01*
X82372Y-39749D01*
X82439Y-39587D01*
X82440Y-39412D01*
X82440Y-40412D01*
X82373Y-40251D01*
X82249Y-40127D01*
X82087Y-40060D01*
X81912Y-40059D01*
X81751Y-40126D01*
X81627Y-40250D01*
X81560Y-40412D01*
X81559Y-40587D01*
X81626Y-40748D01*
X81750Y-40872D01*
X81912Y-40939D01*
X82087Y-40940D01*
X82248Y-40873D01*
X82372Y-40749D01*
X82439Y-40587D01*
X82440Y-40412D01*
X82440Y-41412D01*
X82373Y-41251D01*
X82249Y-41127D01*
X82087Y-41060D01*
X81912Y-41059D01*
X81751Y-41126D01*
X81627Y-41250D01*
X81560Y-41412D01*
X81559Y-41587D01*
X81626Y-41748D01*
X81750Y-41872D01*
X81912Y-41939D01*
X82087Y-41940D01*
X82248Y-41873D01*
X82372Y-41749D01*
X82439Y-41587D01*
X82440Y-41412D01*
X82440Y-42412D01*
X82373Y-42251D01*
X82249Y-42127D01*
X82087Y-42060D01*
X81912Y-42059D01*
X81751Y-42126D01*
X81627Y-42250D01*
X81560Y-42412D01*
X81559Y-42587D01*
X81626Y-42748D01*
X81750Y-42872D01*
X81912Y-42939D01*
X82087Y-42940D01*
X82248Y-42873D01*
X82372Y-42749D01*
X82439Y-42587D01*
X82440Y-42412D01*
X82440Y-43412D01*
X82373Y-43251D01*
X82249Y-43127D01*
X82087Y-43060D01*
X81912Y-43059D01*
X81751Y-43126D01*
X81627Y-43250D01*
X81560Y-43412D01*
X81559Y-43587D01*
X81626Y-43748D01*
X81750Y-43872D01*
X81912Y-43939D01*
X82087Y-43940D01*
X82248Y-43873D01*
X82372Y-43749D01*
X82439Y-43587D01*
X82440Y-43412D01*
X82440Y-44412D01*
X82373Y-44251D01*
X82249Y-44127D01*
X82087Y-44060D01*
X81912Y-44059D01*
X81751Y-44126D01*
X81627Y-44250D01*
X81560Y-44412D01*
X81559Y-44587D01*
X81626Y-44748D01*
X81750Y-44872D01*
X81912Y-44939D01*
X82087Y-44940D01*
X82248Y-44873D01*
X82372Y-44749D01*
X82439Y-44587D01*
X82440Y-44412D01*
X82440Y-45412D01*
X82373Y-45251D01*
X82249Y-45127D01*
X82087Y-45060D01*
X81912Y-45059D01*
X81751Y-45126D01*
X81627Y-45250D01*
X81560Y-45412D01*
X81559Y-45587D01*
X81626Y-45748D01*
X81750Y-45872D01*
X81912Y-45939D01*
X82087Y-45940D01*
X82248Y-45873D01*
X82372Y-45749D01*
X82439Y-45587D01*
X82440Y-45412D01*
X82440Y-46412D01*
X82373Y-46251D01*
X82249Y-46127D01*
X82087Y-46060D01*
X81912Y-46059D01*
X81751Y-46126D01*
X81627Y-46250D01*
X81560Y-46412D01*
X81559Y-46587D01*
X81626Y-46748D01*
X81750Y-46872D01*
X81912Y-46939D01*
X82087Y-46940D01*
X82248Y-46873D01*
X82372Y-46749D01*
X82439Y-46587D01*
X82440Y-46412D01*
X82440Y-47412D01*
X82373Y-47251D01*
X82249Y-47127D01*
X82087Y-47060D01*
X81912Y-47059D01*
X81751Y-47126D01*
X81627Y-47250D01*
X81560Y-47412D01*
X81559Y-47587D01*
X81626Y-47748D01*
X81750Y-47872D01*
X81912Y-47939D01*
X82087Y-47940D01*
X82248Y-47873D01*
X82372Y-47749D01*
X82439Y-47587D01*
X82440Y-47412D01*
X82440Y-48412D01*
X82373Y-48251D01*
X82249Y-48127D01*
X82087Y-48060D01*
X81912Y-48059D01*
X81751Y-48126D01*
X81627Y-48250D01*
X81560Y-48412D01*
X81559Y-48587D01*
X81626Y-48748D01*
X81750Y-48872D01*
X81912Y-48939D01*
X82087Y-48940D01*
X82248Y-48873D01*
X82372Y-48749D01*
X82439Y-48587D01*
X82440Y-48412D01*
X82440Y-49766D01*
X82224Y-49981D01*
X82085Y-50317D01*
X82084Y-50681D01*
X82223Y-51017D01*
X82481Y-51275D01*
X82624Y-51335D01*
X81440Y-51335D01*
X81440Y-50712D01*
X81440Y-50287D01*
X81406Y-50119D01*
X81311Y-49976D01*
X81168Y-49880D01*
X81000Y-49847D01*
X80831Y-49880D01*
X80688Y-49976D01*
X80593Y-50119D01*
X80560Y-50287D01*
X80560Y-50712D01*
X80593Y-50880D01*
X80688Y-51023D01*
X80831Y-51119D01*
X81000Y-51152D01*
X81168Y-51119D01*
X81311Y-51023D01*
X81406Y-50880D01*
X81440Y-50712D01*
X81440Y-51335D01*
X80440Y-51335D01*
X80440Y-50712D01*
X80440Y-50287D01*
X80406Y-50119D01*
X80311Y-49976D01*
X80168Y-49880D01*
X80000Y-49847D01*
X79831Y-49880D01*
X79688Y-49976D01*
X79593Y-50119D01*
X79560Y-50287D01*
X79560Y-50712D01*
X79593Y-50880D01*
X79688Y-51023D01*
X79831Y-51119D01*
X80000Y-51152D01*
X80168Y-51119D01*
X80311Y-51023D01*
X80406Y-50880D01*
X80440Y-50712D01*
X80440Y-51335D01*
X79440Y-51335D01*
X79440Y-50712D01*
X79440Y-50287D01*
X79406Y-50119D01*
X79311Y-49976D01*
X79168Y-49880D01*
X79000Y-49847D01*
X78831Y-49880D01*
X78688Y-49976D01*
X78611Y-50092D01*
X78611Y-47324D01*
X78563Y-47208D01*
X78490Y-47134D01*
X78490Y-45197D01*
X78490Y-44870D01*
X78430Y-44810D01*
X78060Y-44810D01*
X78060Y-45330D01*
X78120Y-45390D01*
X78202Y-45390D01*
X78297Y-45389D01*
X78386Y-45353D01*
X78453Y-45285D01*
X78490Y-45197D01*
X78490Y-47134D01*
X78475Y-47119D01*
X78359Y-47071D01*
X78234Y-47071D01*
X78118Y-47119D01*
X78029Y-47207D01*
X77981Y-47323D01*
X77981Y-47448D01*
X77988Y-47466D01*
X77872Y-47582D01*
X77833Y-47640D01*
X77820Y-47709D01*
X77820Y-47709D01*
X77722Y-47709D01*
X77670Y-47731D01*
X77631Y-47770D01*
X77610Y-47822D01*
X77609Y-47877D01*
X77609Y-48677D01*
X77631Y-48729D01*
X77670Y-48768D01*
X77722Y-48789D01*
X77777Y-48790D01*
X78277Y-48790D01*
X78329Y-48768D01*
X78368Y-48729D01*
X78389Y-48677D01*
X78390Y-48622D01*
X78390Y-47822D01*
X78368Y-47770D01*
X78329Y-47731D01*
X78277Y-47710D01*
X78254Y-47710D01*
X78263Y-47701D01*
X78358Y-47701D01*
X78474Y-47653D01*
X78563Y-47565D01*
X78611Y-47449D01*
X78611Y-47324D01*
X78611Y-50092D01*
X78593Y-50119D01*
X78560Y-50287D01*
X78560Y-50712D01*
X78593Y-50880D01*
X78688Y-51023D01*
X78831Y-51119D01*
X79000Y-51152D01*
X79168Y-51119D01*
X79311Y-51023D01*
X79406Y-50880D01*
X79440Y-50712D01*
X79440Y-51335D01*
X78440Y-51335D01*
X78440Y-50712D01*
X78440Y-50287D01*
X78406Y-50119D01*
X78311Y-49976D01*
X78168Y-49880D01*
X78000Y-49847D01*
X77831Y-49880D01*
X77688Y-49976D01*
X77593Y-50119D01*
X77560Y-50287D01*
X77560Y-50712D01*
X77593Y-50880D01*
X77688Y-51023D01*
X77831Y-51119D01*
X78000Y-51152D01*
X78168Y-51119D01*
X78311Y-51023D01*
X78406Y-50880D01*
X78440Y-50712D01*
X78440Y-51335D01*
X77440Y-51335D01*
X77440Y-50712D01*
X77440Y-50287D01*
X77406Y-50119D01*
X77311Y-49976D01*
X77168Y-49880D01*
X77000Y-49847D01*
X76831Y-49880D01*
X76688Y-49976D01*
X76593Y-50119D01*
X76560Y-50287D01*
X76560Y-50712D01*
X76593Y-50880D01*
X76688Y-51023D01*
X76831Y-51119D01*
X77000Y-51152D01*
X77168Y-51119D01*
X77311Y-51023D01*
X77406Y-50880D01*
X77440Y-50712D01*
X77440Y-51335D01*
X76440Y-51335D01*
X76440Y-50712D01*
X76440Y-50287D01*
X76406Y-50119D01*
X76390Y-50094D01*
X76390Y-48622D01*
X76390Y-47822D01*
X76368Y-47770D01*
X76329Y-47731D01*
X76277Y-47710D01*
X76222Y-47709D01*
X75722Y-47709D01*
X75670Y-47731D01*
X75631Y-47770D01*
X75610Y-47822D01*
X75609Y-47877D01*
X75609Y-48677D01*
X75631Y-48729D01*
X75670Y-48768D01*
X75722Y-48789D01*
X75777Y-48790D01*
X76277Y-48790D01*
X76329Y-48768D01*
X76368Y-48729D01*
X76389Y-48677D01*
X76390Y-48622D01*
X76390Y-50094D01*
X76311Y-49976D01*
X76168Y-49880D01*
X76000Y-49847D01*
X75831Y-49880D01*
X75688Y-49976D01*
X75593Y-50119D01*
X75560Y-50287D01*
X75560Y-50712D01*
X75593Y-50880D01*
X75688Y-51023D01*
X75831Y-51119D01*
X76000Y-51152D01*
X76168Y-51119D01*
X76311Y-51023D01*
X76406Y-50880D01*
X76440Y-50712D01*
X76440Y-51335D01*
X75440Y-51335D01*
X75440Y-50712D01*
X75440Y-50287D01*
X75406Y-50119D01*
X75311Y-49976D01*
X75168Y-49880D01*
X75000Y-49847D01*
X74831Y-49880D01*
X74688Y-49976D01*
X74593Y-50119D01*
X74560Y-50287D01*
X74560Y-50712D01*
X74593Y-50880D01*
X74688Y-51023D01*
X74831Y-51119D01*
X75000Y-51152D01*
X75168Y-51119D01*
X75311Y-51023D01*
X75406Y-50880D01*
X75440Y-50712D01*
X75440Y-51335D01*
X74440Y-51335D01*
X74440Y-50712D01*
X74440Y-50287D01*
X74406Y-50119D01*
X74311Y-49976D01*
X74168Y-49880D01*
X74000Y-49847D01*
X73831Y-49880D01*
X73688Y-49976D01*
X73593Y-50119D01*
X73560Y-50287D01*
X73560Y-50712D01*
X73593Y-50880D01*
X73688Y-51023D01*
X73831Y-51119D01*
X74000Y-51152D01*
X74168Y-51119D01*
X74311Y-51023D01*
X74406Y-50880D01*
X74440Y-50712D01*
X74440Y-51335D01*
X72440Y-51335D01*
X72440Y-50712D01*
X72440Y-50287D01*
X72406Y-50119D01*
X72311Y-49976D01*
X72168Y-49880D01*
X72000Y-49847D01*
X71953Y-49856D01*
X71953Y-47047D01*
X71905Y-46931D01*
X71816Y-46842D01*
X71701Y-46794D01*
X71575Y-46794D01*
X71459Y-46842D01*
X71371Y-46930D01*
X71323Y-47046D01*
X71323Y-47170D01*
X70990Y-47503D01*
X70990Y-45197D01*
X70990Y-44870D01*
X70930Y-44810D01*
X70560Y-44810D01*
X70560Y-45330D01*
X70620Y-45390D01*
X70702Y-45390D01*
X70797Y-45389D01*
X70886Y-45353D01*
X70953Y-45285D01*
X70990Y-45197D01*
X70990Y-47503D01*
X70963Y-47529D01*
X70500Y-47529D01*
X70431Y-47543D01*
X70372Y-47582D01*
X70333Y-47640D01*
X70320Y-47709D01*
X70320Y-47709D01*
X70222Y-47709D01*
X70170Y-47731D01*
X70131Y-47770D01*
X70110Y-47822D01*
X70109Y-47877D01*
X70109Y-48677D01*
X70131Y-48729D01*
X70170Y-48768D01*
X70222Y-48789D01*
X70277Y-48790D01*
X70777Y-48790D01*
X70829Y-48768D01*
X70868Y-48729D01*
X70889Y-48677D01*
X70890Y-48622D01*
X70890Y-47889D01*
X71037Y-47889D01*
X71106Y-47876D01*
X71165Y-47837D01*
X71577Y-47424D01*
X71700Y-47424D01*
X71816Y-47376D01*
X71904Y-47288D01*
X71953Y-47172D01*
X71953Y-47047D01*
X71953Y-49856D01*
X71831Y-49880D01*
X71688Y-49976D01*
X71593Y-50119D01*
X71560Y-50287D01*
X71560Y-50712D01*
X71593Y-50880D01*
X71688Y-51023D01*
X71831Y-51119D01*
X72000Y-51152D01*
X72168Y-51119D01*
X72311Y-51023D01*
X72406Y-50880D01*
X72440Y-50712D01*
X72440Y-51335D01*
X71440Y-51335D01*
X71440Y-50712D01*
X71440Y-50287D01*
X71406Y-50119D01*
X71311Y-49976D01*
X71168Y-49880D01*
X71000Y-49847D01*
X70831Y-49880D01*
X70688Y-49976D01*
X70593Y-50119D01*
X70560Y-50287D01*
X70560Y-50712D01*
X70593Y-50880D01*
X70688Y-51023D01*
X70831Y-51119D01*
X71000Y-51152D01*
X71168Y-51119D01*
X71311Y-51023D01*
X71406Y-50880D01*
X71440Y-50712D01*
X71440Y-51335D01*
X70440Y-51335D01*
X70440Y-50712D01*
X70440Y-50287D01*
X70406Y-50119D01*
X70311Y-49976D01*
X70168Y-49880D01*
X70000Y-49847D01*
X69831Y-49880D01*
X69688Y-49976D01*
X69593Y-50119D01*
X69560Y-50287D01*
X69560Y-50712D01*
X69593Y-50880D01*
X69688Y-51023D01*
X69831Y-51119D01*
X70000Y-51152D01*
X70168Y-51119D01*
X70311Y-51023D01*
X70406Y-50880D01*
X70440Y-50712D01*
X70440Y-51335D01*
X69440Y-51335D01*
X69440Y-50712D01*
X69440Y-50287D01*
X69406Y-50119D01*
X69311Y-49976D01*
X69168Y-49880D01*
X69000Y-49847D01*
X68890Y-49869D01*
X68890Y-48622D01*
X68890Y-47822D01*
X68868Y-47770D01*
X68829Y-47731D01*
X68777Y-47710D01*
X68722Y-47709D01*
X68222Y-47709D01*
X68170Y-47731D01*
X68131Y-47770D01*
X68110Y-47822D01*
X68109Y-47877D01*
X68109Y-48677D01*
X68131Y-48729D01*
X68170Y-48768D01*
X68222Y-48789D01*
X68277Y-48790D01*
X68777Y-48790D01*
X68829Y-48768D01*
X68868Y-48729D01*
X68889Y-48677D01*
X68890Y-48622D01*
X68890Y-49869D01*
X68831Y-49880D01*
X68688Y-49976D01*
X68593Y-50119D01*
X68560Y-50287D01*
X68560Y-50712D01*
X68593Y-50880D01*
X68688Y-51023D01*
X68831Y-51119D01*
X69000Y-51152D01*
X69168Y-51119D01*
X69311Y-51023D01*
X69406Y-50880D01*
X69440Y-50712D01*
X69440Y-51335D01*
X68440Y-51335D01*
X68440Y-50712D01*
X68440Y-50287D01*
X68406Y-50119D01*
X68311Y-49976D01*
X68168Y-49880D01*
X68000Y-49847D01*
X67831Y-49880D01*
X67688Y-49976D01*
X67593Y-50119D01*
X67560Y-50287D01*
X67560Y-50712D01*
X67593Y-50880D01*
X67688Y-51023D01*
X67831Y-51119D01*
X68000Y-51152D01*
X68168Y-51119D01*
X68311Y-51023D01*
X68406Y-50880D01*
X68440Y-50712D01*
X68440Y-51335D01*
X67440Y-51335D01*
X67440Y-50712D01*
X67440Y-50287D01*
X67406Y-50119D01*
X67311Y-49976D01*
X67168Y-49880D01*
X67000Y-49847D01*
X66831Y-49880D01*
X66688Y-49976D01*
X66593Y-50119D01*
X66560Y-50287D01*
X66560Y-50712D01*
X66593Y-50880D01*
X66688Y-51023D01*
X66831Y-51119D01*
X67000Y-51152D01*
X67168Y-51119D01*
X67311Y-51023D01*
X67406Y-50880D01*
X67440Y-50712D01*
X67440Y-51335D01*
X66440Y-51335D01*
X66440Y-50712D01*
X66440Y-50287D01*
X66406Y-50119D01*
X66311Y-49976D01*
X66168Y-49880D01*
X66000Y-49847D01*
X65831Y-49880D01*
X65688Y-49976D01*
X65593Y-50119D01*
X65560Y-50287D01*
X65560Y-50712D01*
X65593Y-50880D01*
X65688Y-51023D01*
X65831Y-51119D01*
X66000Y-51152D01*
X66168Y-51119D01*
X66311Y-51023D01*
X66406Y-50880D01*
X66440Y-50712D01*
X66440Y-51335D01*
X65440Y-51335D01*
X65440Y-50712D01*
X65440Y-50287D01*
X65406Y-50119D01*
X65311Y-49976D01*
X65168Y-49880D01*
X65000Y-49847D01*
X64831Y-49880D01*
X64688Y-49976D01*
X64593Y-50119D01*
X64560Y-50287D01*
X64560Y-50712D01*
X64593Y-50880D01*
X64688Y-51023D01*
X64831Y-51119D01*
X65000Y-51152D01*
X65168Y-51119D01*
X65311Y-51023D01*
X65406Y-50880D01*
X65440Y-50712D01*
X65440Y-51335D01*
X63710Y-51335D01*
X63710Y-47212D01*
X63662Y-47096D01*
X63573Y-47008D01*
X63490Y-46973D01*
X63490Y-45197D01*
X63490Y-44302D01*
X63453Y-44214D01*
X63386Y-44146D01*
X63297Y-44110D01*
X63202Y-44109D01*
X63120Y-44110D01*
X63060Y-44170D01*
X63060Y-44690D01*
X63430Y-44690D01*
X63490Y-44630D01*
X63490Y-44302D01*
X63490Y-45197D01*
X63490Y-44870D01*
X63430Y-44810D01*
X63060Y-44810D01*
X63060Y-45330D01*
X63120Y-45390D01*
X63202Y-45390D01*
X63297Y-45389D01*
X63386Y-45353D01*
X63453Y-45285D01*
X63490Y-45197D01*
X63490Y-46973D01*
X63458Y-46960D01*
X63332Y-46959D01*
X63217Y-47007D01*
X63128Y-47096D01*
X63080Y-47212D01*
X63080Y-47337D01*
X63091Y-47364D01*
X62940Y-47515D01*
X62940Y-45330D01*
X62940Y-44810D01*
X62940Y-44690D01*
X62940Y-44170D01*
X62880Y-44110D01*
X62797Y-44109D01*
X62702Y-44110D01*
X62613Y-44146D01*
X62546Y-44214D01*
X62509Y-44302D01*
X62510Y-44630D01*
X62570Y-44690D01*
X62940Y-44690D01*
X62940Y-44810D01*
X62570Y-44810D01*
X62510Y-44870D01*
X62509Y-45197D01*
X62546Y-45285D01*
X62613Y-45353D01*
X62702Y-45389D01*
X62797Y-45390D01*
X62880Y-45390D01*
X62940Y-45330D01*
X62940Y-47515D01*
X62872Y-47582D01*
X62833Y-47640D01*
X62820Y-47709D01*
X62820Y-47709D01*
X62722Y-47709D01*
X62670Y-47731D01*
X62631Y-47770D01*
X62610Y-47822D01*
X62609Y-47877D01*
X62609Y-48677D01*
X62631Y-48729D01*
X62670Y-48768D01*
X62722Y-48789D01*
X62777Y-48790D01*
X63277Y-48790D01*
X63329Y-48768D01*
X63368Y-48729D01*
X63389Y-48677D01*
X63390Y-48622D01*
X63390Y-47822D01*
X63368Y-47770D01*
X63329Y-47731D01*
X63277Y-47710D01*
X63254Y-47710D01*
X63374Y-47589D01*
X63457Y-47590D01*
X63573Y-47542D01*
X63662Y-47453D01*
X63710Y-47337D01*
X63710Y-47212D01*
X63710Y-51335D01*
X63440Y-51335D01*
X63440Y-50712D01*
X63440Y-50287D01*
X63406Y-50119D01*
X63311Y-49976D01*
X63168Y-49880D01*
X63000Y-49847D01*
X62831Y-49880D01*
X62688Y-49976D01*
X62593Y-50119D01*
X62560Y-50287D01*
X62560Y-50712D01*
X62593Y-50880D01*
X62688Y-51023D01*
X62831Y-51119D01*
X63000Y-51152D01*
X63168Y-51119D01*
X63311Y-51023D01*
X63406Y-50880D01*
X63440Y-50712D01*
X63440Y-51335D01*
X62440Y-51335D01*
X62440Y-50712D01*
X62440Y-50287D01*
X62406Y-50119D01*
X62311Y-49976D01*
X62168Y-49880D01*
X62000Y-49847D01*
X61831Y-49880D01*
X61688Y-49976D01*
X61593Y-50119D01*
X61560Y-50287D01*
X61560Y-50712D01*
X61593Y-50880D01*
X61688Y-51023D01*
X61831Y-51119D01*
X62000Y-51152D01*
X62168Y-51119D01*
X62311Y-51023D01*
X62406Y-50880D01*
X62440Y-50712D01*
X62440Y-51335D01*
X50875Y-51335D01*
X51017Y-51276D01*
X51275Y-51018D01*
X51414Y-50682D01*
X51415Y-50318D01*
X51276Y-49982D01*
X51018Y-49724D01*
X50682Y-49585D01*
X50318Y-49584D01*
X49982Y-49723D01*
X49724Y-49981D01*
X49585Y-50317D01*
X49584Y-50681D01*
X49723Y-51017D01*
X49981Y-51275D01*
X50124Y-51335D01*
X43665Y-51335D01*
X43665Y-30665D01*
X50624Y-30665D01*
X50482Y-30723D01*
X50224Y-30981D01*
X50085Y-31317D01*
X50084Y-31681D01*
X50223Y-32017D01*
X50481Y-32275D01*
X50817Y-32414D01*
X51181Y-32415D01*
X51517Y-32276D01*
X51775Y-32018D01*
X51914Y-31682D01*
X51915Y-31318D01*
X51776Y-30982D01*
X51518Y-30724D01*
X51375Y-30665D01*
X59340Y-30665D01*
X59272Y-30732D01*
X59233Y-30790D01*
X59220Y-30859D01*
X59220Y-30888D01*
X59088Y-30976D01*
X58993Y-31119D01*
X58960Y-31287D01*
X58960Y-31712D01*
X58993Y-31880D01*
X59088Y-32023D01*
X59231Y-32119D01*
X59400Y-32152D01*
X59568Y-32119D01*
X59711Y-32023D01*
X59806Y-31880D01*
X59840Y-31712D01*
X59840Y-31287D01*
X59806Y-31119D01*
X59711Y-30976D01*
X59607Y-30907D01*
X59663Y-30851D01*
X60381Y-30851D01*
X60231Y-30880D01*
X60088Y-30976D01*
X59993Y-31119D01*
X59960Y-31287D01*
X59960Y-31712D01*
X59993Y-31880D01*
X60088Y-32023D01*
X60231Y-32119D01*
X60394Y-32151D01*
X59770Y-32774D01*
X59731Y-32833D01*
X59718Y-32901D01*
X59718Y-38527D01*
X58840Y-39405D01*
X58840Y-31712D01*
X58840Y-31287D01*
X58806Y-31119D01*
X58711Y-30976D01*
X58568Y-30880D01*
X58400Y-30847D01*
X58231Y-30880D01*
X58088Y-30976D01*
X57993Y-31119D01*
X57960Y-31287D01*
X57960Y-31712D01*
X57993Y-31880D01*
X58088Y-32023D01*
X58231Y-32119D01*
X58400Y-32152D01*
X58568Y-32119D01*
X58711Y-32023D01*
X58806Y-31880D01*
X58840Y-31712D01*
X58840Y-39405D01*
X57840Y-40405D01*
X57840Y-31712D01*
X57840Y-31287D01*
X57806Y-31119D01*
X57711Y-30976D01*
X57568Y-30880D01*
X57400Y-30847D01*
X57231Y-30880D01*
X57088Y-30976D01*
X56993Y-31119D01*
X56960Y-31287D01*
X56960Y-31712D01*
X56993Y-31880D01*
X57088Y-32023D01*
X57220Y-32111D01*
X57220Y-32140D01*
X57220Y-35817D01*
X56840Y-36197D01*
X56840Y-31712D01*
X56840Y-31287D01*
X56806Y-31119D01*
X56711Y-30976D01*
X56568Y-30880D01*
X56400Y-30847D01*
X56231Y-30880D01*
X56088Y-30976D01*
X55993Y-31119D01*
X55960Y-31287D01*
X55960Y-31712D01*
X55993Y-31880D01*
X56088Y-32023D01*
X56231Y-32119D01*
X56400Y-32152D01*
X56568Y-32119D01*
X56711Y-32023D01*
X56806Y-31880D01*
X56840Y-31712D01*
X56840Y-36197D01*
X56540Y-36497D01*
X56540Y-36393D01*
X56458Y-36194D01*
X56306Y-36042D01*
X56107Y-35960D01*
X55940Y-35959D01*
X55840Y-35859D01*
X55840Y-31712D01*
X55840Y-31287D01*
X55806Y-31119D01*
X55711Y-30976D01*
X55568Y-30880D01*
X55400Y-30847D01*
X55231Y-30880D01*
X55088Y-30976D01*
X54993Y-31119D01*
X54960Y-31287D01*
X54960Y-31712D01*
X54993Y-31880D01*
X55088Y-32023D01*
X55231Y-32119D01*
X55400Y-32152D01*
X55568Y-32119D01*
X55711Y-32023D01*
X55806Y-31880D01*
X55840Y-31712D01*
X55840Y-35859D01*
X55529Y-35548D01*
X55529Y-34301D01*
X55551Y-34292D01*
X55731Y-34113D01*
X55828Y-33877D01*
X55829Y-33623D01*
X55731Y-33387D01*
X55552Y-33207D01*
X55316Y-33110D01*
X55062Y-33109D01*
X54840Y-33201D01*
X54840Y-31712D01*
X54840Y-31287D01*
X54806Y-31119D01*
X54711Y-30976D01*
X54568Y-30880D01*
X54400Y-30847D01*
X54231Y-30880D01*
X54088Y-30976D01*
X53993Y-31119D01*
X53960Y-31287D01*
X53960Y-31712D01*
X53993Y-31880D01*
X54088Y-32023D01*
X54231Y-32119D01*
X54400Y-32152D01*
X54568Y-32119D01*
X54711Y-32023D01*
X54806Y-31880D01*
X54840Y-31712D01*
X54840Y-33201D01*
X54826Y-33207D01*
X54646Y-33386D01*
X54549Y-33622D01*
X54548Y-33876D01*
X54646Y-34112D01*
X54825Y-34292D01*
X54849Y-34301D01*
X54849Y-35689D01*
X54874Y-35819D01*
X54948Y-35929D01*
X55460Y-36440D01*
X55459Y-36606D01*
X55541Y-36805D01*
X55693Y-36957D01*
X55892Y-37039D01*
X55997Y-37039D01*
X54451Y-38586D01*
X54451Y-34222D01*
X54451Y-33222D01*
X54429Y-33170D01*
X54390Y-33131D01*
X54338Y-33110D01*
X54283Y-33109D01*
X53840Y-33109D01*
X53840Y-31712D01*
X53840Y-31287D01*
X53806Y-31119D01*
X53711Y-30976D01*
X53568Y-30880D01*
X53400Y-30847D01*
X53231Y-30880D01*
X53088Y-30976D01*
X52993Y-31119D01*
X52960Y-31287D01*
X52960Y-31712D01*
X52993Y-31880D01*
X53088Y-32023D01*
X53192Y-32092D01*
X52632Y-32652D01*
X52593Y-32711D01*
X52579Y-32780D01*
X52579Y-35094D01*
X49872Y-37801D01*
X49833Y-37859D01*
X49820Y-37928D01*
X49820Y-40407D01*
X49777Y-40364D01*
X49597Y-40290D01*
X49402Y-40289D01*
X49222Y-40364D01*
X49179Y-40407D01*
X49179Y-35614D01*
X50394Y-34400D01*
X50360Y-34482D01*
X50359Y-34856D01*
X50502Y-35201D01*
X50766Y-35466D01*
X51112Y-35609D01*
X51486Y-35610D01*
X51831Y-35467D01*
X52096Y-35203D01*
X52239Y-34857D01*
X52240Y-34483D01*
X52097Y-34138D01*
X51833Y-33873D01*
X51487Y-33730D01*
X51113Y-33729D01*
X51030Y-33764D01*
X52527Y-32267D01*
X52527Y-32267D01*
X52542Y-32244D01*
X52566Y-32209D01*
X52566Y-32209D01*
X52579Y-32140D01*
X52580Y-32140D01*
X52580Y-32111D01*
X52711Y-32023D01*
X52806Y-31880D01*
X52840Y-31712D01*
X52840Y-31287D01*
X52806Y-31119D01*
X52711Y-30976D01*
X52568Y-30880D01*
X52400Y-30847D01*
X52231Y-30880D01*
X52088Y-30976D01*
X51993Y-31119D01*
X51960Y-31287D01*
X51960Y-31712D01*
X51993Y-31880D01*
X52088Y-32023D01*
X52192Y-32092D01*
X50490Y-33795D01*
X50490Y-32622D01*
X50415Y-32442D01*
X50277Y-32304D01*
X50097Y-32230D01*
X49902Y-32229D01*
X49722Y-32304D01*
X49584Y-32442D01*
X49510Y-32622D01*
X49509Y-32817D01*
X49584Y-32997D01*
X49722Y-33135D01*
X49902Y-33209D01*
X50097Y-33210D01*
X50277Y-33135D01*
X50415Y-32997D01*
X50489Y-32817D01*
X50490Y-32622D01*
X50490Y-33795D01*
X48872Y-35412D01*
X48833Y-35471D01*
X48819Y-35540D01*
X48819Y-40406D01*
X48777Y-40364D01*
X48597Y-40290D01*
X48590Y-40290D01*
X48590Y-36633D01*
X48500Y-36416D01*
X48490Y-36405D01*
X48490Y-32622D01*
X48415Y-32442D01*
X48277Y-32304D01*
X48097Y-32230D01*
X47902Y-32229D01*
X47722Y-32304D01*
X47584Y-32442D01*
X47510Y-32622D01*
X47509Y-32817D01*
X47584Y-32997D01*
X47722Y-33135D01*
X47902Y-33209D01*
X48097Y-33210D01*
X48277Y-33135D01*
X48415Y-32997D01*
X48489Y-32817D01*
X48490Y-32622D01*
X48490Y-36405D01*
X48334Y-36250D01*
X48117Y-36160D01*
X47883Y-36159D01*
X47666Y-36249D01*
X47500Y-36415D01*
X47410Y-36632D01*
X47409Y-36866D01*
X47499Y-37083D01*
X47665Y-37249D01*
X47882Y-37339D01*
X48116Y-37340D01*
X48333Y-37250D01*
X48499Y-37084D01*
X48589Y-36867D01*
X48590Y-36633D01*
X48590Y-40290D01*
X48402Y-40289D01*
X48222Y-40364D01*
X48084Y-40502D01*
X48010Y-40682D01*
X48009Y-40877D01*
X48084Y-41057D01*
X48222Y-41195D01*
X48402Y-41269D01*
X48597Y-41270D01*
X48777Y-41195D01*
X48819Y-41152D01*
X48819Y-41586D01*
X48372Y-42033D01*
X48333Y-42092D01*
X48320Y-42161D01*
X48320Y-43848D01*
X48251Y-43876D01*
X48127Y-44000D01*
X48060Y-44162D01*
X48059Y-44337D01*
X48126Y-44498D01*
X48250Y-44622D01*
X48412Y-44689D01*
X48587Y-44690D01*
X48748Y-44623D01*
X48790Y-44582D01*
X48790Y-44760D01*
X48806Y-44844D01*
X48854Y-44915D01*
X49072Y-45133D01*
X49060Y-45162D01*
X49059Y-45337D01*
X49126Y-45498D01*
X49250Y-45622D01*
X49412Y-45689D01*
X49587Y-45690D01*
X49748Y-45623D01*
X49872Y-45499D01*
X49939Y-45337D01*
X49940Y-45162D01*
X49873Y-45001D01*
X49749Y-44877D01*
X49587Y-44810D01*
X49412Y-44809D01*
X49383Y-44822D01*
X49230Y-44669D01*
X49230Y-44602D01*
X49250Y-44622D01*
X49412Y-44689D01*
X49587Y-44690D01*
X49748Y-44623D01*
X49872Y-44499D01*
X49939Y-44337D01*
X49940Y-44162D01*
X49911Y-44093D01*
X50127Y-43877D01*
X50127Y-43877D01*
X50160Y-43828D01*
X50160Y-46509D01*
X49972Y-46509D01*
X49920Y-46531D01*
X49881Y-46570D01*
X49860Y-46622D01*
X49859Y-46677D01*
X49859Y-47177D01*
X49881Y-47229D01*
X49920Y-47268D01*
X49972Y-47289D01*
X50027Y-47290D01*
X51027Y-47290D01*
X51079Y-47268D01*
X51118Y-47229D01*
X51139Y-47177D01*
X51140Y-47122D01*
X51140Y-46622D01*
X51118Y-46570D01*
X51079Y-46531D01*
X51027Y-46510D01*
X50972Y-46509D01*
X50840Y-46509D01*
X50840Y-41132D01*
X50915Y-41057D01*
X50989Y-40877D01*
X50990Y-40682D01*
X50915Y-40502D01*
X50777Y-40364D01*
X50597Y-40290D01*
X50402Y-40289D01*
X50222Y-40364D01*
X50180Y-40407D01*
X50180Y-38003D01*
X52887Y-35296D01*
X52926Y-35237D01*
X52939Y-35168D01*
X52939Y-32854D01*
X53527Y-32267D01*
X53527Y-32267D01*
X53553Y-32228D01*
X53566Y-32209D01*
X53566Y-32209D01*
X53579Y-32140D01*
X53580Y-32140D01*
X53580Y-32111D01*
X53711Y-32023D01*
X53806Y-31880D01*
X53840Y-31712D01*
X53840Y-33109D01*
X53283Y-33109D01*
X53231Y-33131D01*
X53192Y-33170D01*
X53171Y-33222D01*
X53170Y-33277D01*
X53170Y-34277D01*
X53192Y-34329D01*
X53231Y-34368D01*
X53283Y-34389D01*
X53338Y-34390D01*
X53470Y-34390D01*
X53470Y-35548D01*
X53059Y-35960D01*
X52893Y-35959D01*
X52694Y-36041D01*
X52542Y-36193D01*
X52460Y-36392D01*
X52459Y-36606D01*
X52541Y-36805D01*
X52693Y-36957D01*
X52892Y-37039D01*
X53106Y-37040D01*
X53305Y-36958D01*
X53457Y-36806D01*
X53539Y-36607D01*
X53540Y-36440D01*
X54051Y-35929D01*
X54051Y-35929D01*
X54100Y-35855D01*
X54125Y-35819D01*
X54125Y-35819D01*
X54150Y-35689D01*
X54150Y-35689D01*
X54150Y-34390D01*
X54338Y-34390D01*
X54390Y-34368D01*
X54429Y-34329D01*
X54450Y-34277D01*
X54451Y-34222D01*
X54451Y-38586D01*
X52240Y-40796D01*
X52240Y-38643D01*
X52097Y-38298D01*
X51833Y-38033D01*
X51487Y-37890D01*
X51113Y-37889D01*
X50768Y-38032D01*
X50503Y-38296D01*
X50360Y-38642D01*
X50359Y-39016D01*
X50502Y-39361D01*
X50766Y-39626D01*
X51112Y-39769D01*
X51486Y-39770D01*
X51831Y-39627D01*
X52096Y-39363D01*
X52239Y-39017D01*
X52240Y-38643D01*
X52240Y-40796D01*
X52005Y-41031D01*
X51966Y-41090D01*
X51952Y-41159D01*
X51952Y-45802D01*
X51865Y-45889D01*
X51817Y-46004D01*
X51817Y-46130D01*
X51865Y-46245D01*
X51953Y-46334D01*
X52069Y-46382D01*
X52194Y-46382D01*
X52310Y-46334D01*
X52399Y-46246D01*
X52447Y-46130D01*
X52447Y-46005D01*
X52399Y-45889D01*
X52312Y-45802D01*
X52312Y-41233D01*
X57527Y-36018D01*
X57566Y-35960D01*
X57580Y-35891D01*
X57580Y-32140D01*
X57580Y-32111D01*
X57711Y-32023D01*
X57806Y-31880D01*
X57840Y-31712D01*
X57840Y-40405D01*
X55233Y-43012D01*
X55107Y-42960D01*
X54893Y-42959D01*
X54694Y-43041D01*
X54542Y-43193D01*
X54499Y-43296D01*
X54458Y-43194D01*
X54306Y-43042D01*
X54107Y-42960D01*
X53893Y-42959D01*
X53694Y-43041D01*
X53542Y-43193D01*
X53540Y-43199D01*
X53540Y-43072D01*
X53518Y-43020D01*
X53479Y-42981D01*
X53427Y-42960D01*
X53372Y-42959D01*
X52572Y-42959D01*
X52520Y-42981D01*
X52481Y-43020D01*
X52460Y-43072D01*
X52459Y-43127D01*
X52459Y-43927D01*
X52481Y-43979D01*
X52520Y-44018D01*
X52572Y-44039D01*
X52609Y-44040D01*
X52609Y-45276D01*
X52635Y-45406D01*
X52709Y-45517D01*
X52882Y-45690D01*
X52882Y-45690D01*
X52992Y-45764D01*
X52992Y-45764D01*
X53014Y-45768D01*
X53122Y-45790D01*
X54500Y-45790D01*
X54630Y-45764D01*
X54740Y-45690D01*
X54814Y-45580D01*
X54837Y-45462D01*
X54837Y-46828D01*
X54344Y-47321D01*
X54296Y-47393D01*
X54280Y-47477D01*
X54280Y-47669D01*
X54280Y-47709D01*
X54222Y-47709D01*
X54170Y-47731D01*
X54131Y-47770D01*
X54110Y-47822D01*
X54109Y-47877D01*
X54109Y-48677D01*
X54131Y-48729D01*
X54170Y-48768D01*
X54222Y-48789D01*
X54277Y-48790D01*
X54777Y-48790D01*
X54829Y-48768D01*
X54868Y-48729D01*
X54889Y-48677D01*
X54890Y-48622D01*
X54890Y-47822D01*
X54868Y-47770D01*
X54829Y-47731D01*
X54777Y-47710D01*
X54722Y-47709D01*
X54720Y-47709D01*
X54720Y-47669D01*
X54720Y-47568D01*
X55148Y-47139D01*
X57869Y-47139D01*
X60112Y-49382D01*
X60000Y-49359D01*
X56771Y-49359D01*
X56771Y-47485D01*
X56746Y-47355D01*
X56672Y-47245D01*
X56562Y-47171D01*
X56431Y-47145D01*
X56301Y-47171D01*
X56244Y-47209D01*
X55500Y-47209D01*
X55369Y-47235D01*
X55259Y-47309D01*
X55185Y-47419D01*
X55160Y-47549D01*
X55160Y-47742D01*
X55131Y-47770D01*
X55110Y-47822D01*
X55109Y-47877D01*
X55109Y-48677D01*
X55131Y-48729D01*
X55170Y-48768D01*
X55222Y-48789D01*
X55277Y-48790D01*
X55777Y-48790D01*
X55829Y-48768D01*
X55868Y-48729D01*
X55889Y-48677D01*
X55890Y-48622D01*
X55890Y-47889D01*
X56367Y-47889D01*
X56367Y-47889D01*
X56497Y-47864D01*
X56608Y-47790D01*
X56672Y-47726D01*
X56746Y-47615D01*
X56771Y-47485D01*
X56771Y-49359D01*
X53890Y-49359D01*
X53890Y-48622D01*
X53890Y-47822D01*
X53868Y-47770D01*
X53829Y-47731D01*
X53777Y-47710D01*
X53722Y-47709D01*
X53222Y-47709D01*
X53170Y-47731D01*
X53131Y-47770D01*
X53110Y-47822D01*
X53109Y-47877D01*
X53109Y-48677D01*
X53131Y-48729D01*
X53170Y-48768D01*
X53222Y-48789D01*
X53277Y-48790D01*
X53777Y-48790D01*
X53829Y-48768D01*
X53868Y-48729D01*
X53889Y-48677D01*
X53890Y-48622D01*
X53890Y-49359D01*
X51690Y-49359D01*
X50840Y-48509D01*
X50840Y-48490D01*
X51027Y-48490D01*
X51079Y-48468D01*
X51118Y-48429D01*
X51139Y-48377D01*
X51140Y-48322D01*
X51140Y-47822D01*
X51118Y-47770D01*
X51079Y-47731D01*
X51027Y-47710D01*
X50972Y-47709D01*
X49972Y-47709D01*
X49920Y-47731D01*
X49891Y-47760D01*
X49699Y-47760D01*
X49591Y-47781D01*
X49569Y-47785D01*
X49459Y-47859D01*
X49409Y-47910D01*
X48874Y-47910D01*
X48786Y-47822D01*
X48600Y-47745D01*
X48399Y-47744D01*
X48214Y-47821D01*
X48072Y-47963D01*
X47999Y-48137D01*
X47928Y-47964D01*
X47786Y-47822D01*
X47600Y-47745D01*
X47399Y-47744D01*
X47214Y-47821D01*
X47072Y-47963D01*
X47005Y-48125D01*
X47005Y-47857D01*
X46983Y-47805D01*
X46944Y-47766D01*
X46892Y-47745D01*
X46837Y-47744D01*
X46740Y-47744D01*
X46740Y-46103D01*
X46740Y-42103D01*
X46627Y-41831D01*
X46490Y-41693D01*
X46490Y-32622D01*
X46415Y-32442D01*
X46277Y-32304D01*
X46097Y-32230D01*
X45902Y-32229D01*
X45722Y-32304D01*
X45584Y-32442D01*
X45510Y-32622D01*
X45509Y-32817D01*
X45584Y-32997D01*
X45722Y-33135D01*
X45902Y-33209D01*
X46097Y-33210D01*
X46277Y-33135D01*
X46415Y-32997D01*
X46489Y-32817D01*
X46490Y-32622D01*
X46490Y-41693D01*
X46419Y-41623D01*
X46147Y-41510D01*
X45853Y-41509D01*
X45640Y-41598D01*
X45640Y-38643D01*
X45640Y-34483D01*
X45497Y-34138D01*
X45233Y-33873D01*
X44887Y-33730D01*
X44513Y-33729D01*
X44168Y-33872D01*
X43903Y-34136D01*
X43760Y-34482D01*
X43759Y-34856D01*
X43902Y-35201D01*
X44166Y-35466D01*
X44512Y-35609D01*
X44886Y-35610D01*
X45231Y-35467D01*
X45496Y-35203D01*
X45639Y-34857D01*
X45640Y-34483D01*
X45640Y-38643D01*
X45497Y-38298D01*
X45233Y-38033D01*
X44887Y-37890D01*
X44513Y-37889D01*
X44168Y-38032D01*
X43903Y-38296D01*
X43760Y-38642D01*
X43759Y-39016D01*
X43902Y-39361D01*
X44166Y-39626D01*
X44512Y-39769D01*
X44886Y-39770D01*
X45231Y-39627D01*
X45496Y-39363D01*
X45639Y-39017D01*
X45640Y-38643D01*
X45640Y-41598D01*
X45581Y-41622D01*
X45373Y-41830D01*
X45260Y-42102D01*
X45259Y-42396D01*
X45372Y-42668D01*
X45580Y-42876D01*
X45852Y-42989D01*
X46146Y-42990D01*
X46418Y-42877D01*
X46626Y-42669D01*
X46739Y-42397D01*
X46740Y-42103D01*
X46740Y-46103D01*
X46627Y-45831D01*
X46419Y-45623D01*
X46147Y-45510D01*
X45853Y-45509D01*
X45581Y-45622D01*
X45373Y-45830D01*
X45260Y-46102D01*
X45259Y-46396D01*
X45372Y-46668D01*
X45580Y-46876D01*
X45852Y-46989D01*
X46146Y-46990D01*
X46418Y-46877D01*
X46626Y-46669D01*
X46739Y-46397D01*
X46740Y-46103D01*
X46740Y-47744D01*
X46107Y-47744D01*
X46055Y-47766D01*
X46016Y-47805D01*
X45995Y-47857D01*
X45994Y-47912D01*
X45994Y-48642D01*
X46016Y-48694D01*
X46055Y-48733D01*
X46107Y-48754D01*
X46162Y-48755D01*
X46892Y-48755D01*
X46944Y-48733D01*
X46983Y-48694D01*
X47004Y-48642D01*
X47005Y-48587D01*
X47005Y-48374D01*
X47071Y-48535D01*
X47213Y-48677D01*
X47280Y-48705D01*
X47280Y-48878D01*
X47244Y-48914D01*
X47196Y-48985D01*
X47180Y-49069D01*
X47180Y-49109D01*
X47122Y-49109D01*
X47070Y-49131D01*
X47031Y-49170D01*
X47010Y-49222D01*
X47009Y-49277D01*
X47009Y-50277D01*
X47031Y-50329D01*
X47070Y-50368D01*
X47122Y-50389D01*
X47177Y-50390D01*
X47677Y-50390D01*
X47729Y-50368D01*
X47768Y-50329D01*
X47789Y-50277D01*
X47790Y-50222D01*
X47790Y-49222D01*
X47768Y-49170D01*
X47729Y-49131D01*
X47677Y-49110D01*
X47665Y-49110D01*
X47703Y-49054D01*
X47703Y-49054D01*
X47719Y-48969D01*
X47720Y-48969D01*
X47720Y-48705D01*
X47785Y-48678D01*
X47927Y-48536D01*
X48000Y-48362D01*
X48071Y-48535D01*
X48160Y-48624D01*
X48160Y-48849D01*
X48185Y-48979D01*
X48259Y-49090D01*
X48260Y-49090D01*
X48260Y-49142D01*
X48231Y-49170D01*
X48210Y-49222D01*
X48209Y-49277D01*
X48209Y-50277D01*
X48231Y-50329D01*
X48270Y-50368D01*
X48322Y-50389D01*
X48377Y-50390D01*
X48877Y-50390D01*
X48929Y-50368D01*
X48968Y-50329D01*
X48989Y-50277D01*
X48990Y-50222D01*
X48990Y-49222D01*
X48968Y-49170D01*
X48940Y-49141D01*
X48940Y-48949D01*
X48918Y-48841D01*
X48914Y-48819D01*
X48914Y-48819D01*
X48840Y-48709D01*
X48840Y-48709D01*
X48840Y-48709D01*
X48840Y-48624D01*
X48874Y-48590D01*
X49549Y-48590D01*
X49549Y-48589D01*
X49679Y-48564D01*
X49790Y-48490D01*
X49840Y-48440D01*
X49892Y-48440D01*
X49920Y-48468D01*
X49972Y-48489D01*
X50027Y-48490D01*
X50160Y-48490D01*
X50160Y-48650D01*
X50185Y-48780D01*
X50259Y-48890D01*
X51309Y-49940D01*
X51419Y-50014D01*
X51549Y-50039D01*
X55646Y-50039D01*
X55593Y-50119D01*
X55560Y-50287D01*
X55560Y-50712D01*
X55593Y-50880D01*
X55688Y-51023D01*
X55831Y-51119D01*
X56000Y-51152D01*
X56168Y-51119D01*
X56311Y-51023D01*
X56406Y-50880D01*
X56440Y-50712D01*
X56440Y-50287D01*
X56406Y-50119D01*
X56353Y-50039D01*
X56646Y-50039D01*
X56593Y-50119D01*
X56560Y-50287D01*
X56560Y-50712D01*
X56593Y-50880D01*
X56688Y-51023D01*
X56831Y-51119D01*
X57000Y-51152D01*
X57168Y-51119D01*
X57311Y-51023D01*
X57406Y-50880D01*
X57440Y-50712D01*
X57440Y-50287D01*
X57406Y-50119D01*
X57353Y-50039D01*
X57646Y-50039D01*
X57593Y-50119D01*
X57560Y-50287D01*
X57560Y-50712D01*
X57593Y-50880D01*
X57688Y-51023D01*
X57831Y-51119D01*
X58000Y-51152D01*
X58168Y-51119D01*
X58311Y-51023D01*
X58406Y-50880D01*
X58440Y-50712D01*
X58440Y-50287D01*
X58406Y-50119D01*
X58353Y-50039D01*
X58646Y-50039D01*
X58593Y-50119D01*
X58560Y-50287D01*
X58560Y-50712D01*
X58593Y-50880D01*
X58688Y-51023D01*
X58831Y-51119D01*
X59000Y-51152D01*
X59168Y-51119D01*
X59311Y-51023D01*
X59406Y-50880D01*
X59440Y-50712D01*
X59440Y-50287D01*
X59406Y-50119D01*
X59353Y-50039D01*
X59646Y-50039D01*
X59593Y-50119D01*
X59560Y-50287D01*
X59560Y-50712D01*
X59593Y-50880D01*
X59688Y-51023D01*
X59831Y-51119D01*
X60000Y-51152D01*
X60168Y-51119D01*
X60311Y-51023D01*
X60406Y-50880D01*
X60440Y-50712D01*
X60440Y-50287D01*
X60406Y-50119D01*
X60340Y-50019D01*
X60340Y-49699D01*
X60317Y-49587D01*
X60699Y-49969D01*
X60688Y-49976D01*
X60593Y-50119D01*
X60560Y-50287D01*
X60560Y-50712D01*
X60593Y-50880D01*
X60688Y-51023D01*
X60831Y-51119D01*
X61000Y-51152D01*
X61168Y-51119D01*
X61311Y-51023D01*
X61406Y-50880D01*
X61440Y-50712D01*
X61440Y-50287D01*
X61406Y-50119D01*
X61311Y-49976D01*
X61223Y-49917D01*
X62155Y-48985D01*
X62155Y-48985D01*
X62203Y-48914D01*
X62219Y-48830D01*
X62220Y-48830D01*
X62220Y-48790D01*
X62277Y-48790D01*
X62329Y-48768D01*
X62368Y-48729D01*
X62389Y-48677D01*
X62390Y-48622D01*
X62390Y-47822D01*
X62368Y-47770D01*
X62329Y-47731D01*
X62277Y-47710D01*
X62222Y-47709D01*
X61722Y-47709D01*
X61670Y-47731D01*
X61631Y-47770D01*
X61610Y-47822D01*
X61609Y-47877D01*
X61609Y-48677D01*
X61631Y-48729D01*
X61670Y-48768D01*
X61722Y-48789D01*
X61729Y-48789D01*
X61390Y-49128D01*
X61390Y-48622D01*
X61390Y-47822D01*
X61368Y-47770D01*
X61329Y-47731D01*
X61277Y-47710D01*
X61222Y-47709D01*
X60722Y-47709D01*
X60670Y-47731D01*
X60631Y-47770D01*
X60610Y-47822D01*
X60609Y-47877D01*
X60609Y-48677D01*
X60631Y-48729D01*
X60670Y-48768D01*
X60722Y-48789D01*
X60777Y-48790D01*
X61277Y-48790D01*
X61329Y-48768D01*
X61368Y-48729D01*
X61389Y-48677D01*
X61390Y-48622D01*
X61390Y-49128D01*
X60935Y-49583D01*
X58116Y-46764D01*
X58045Y-46716D01*
X57961Y-46699D01*
X55990Y-46699D01*
X55990Y-45197D01*
X55990Y-44870D01*
X55930Y-44810D01*
X55560Y-44810D01*
X55560Y-45330D01*
X55620Y-45390D01*
X55702Y-45390D01*
X55797Y-45389D01*
X55886Y-45353D01*
X55953Y-45285D01*
X55990Y-45197D01*
X55990Y-46699D01*
X55277Y-46699D01*
X55277Y-45390D01*
X55297Y-45390D01*
X55380Y-45390D01*
X55440Y-45330D01*
X55440Y-44810D01*
X55432Y-44810D01*
X55432Y-44690D01*
X55440Y-44690D01*
X55440Y-44682D01*
X55560Y-44682D01*
X55560Y-44690D01*
X55930Y-44690D01*
X55990Y-44630D01*
X55990Y-44302D01*
X55953Y-44214D01*
X55886Y-44146D01*
X55797Y-44110D01*
X55702Y-44109D01*
X55701Y-44109D01*
X55806Y-44004D01*
X55892Y-44039D01*
X56106Y-44040D01*
X56305Y-43958D01*
X56457Y-43806D01*
X56539Y-43607D01*
X56540Y-43393D01*
X56458Y-43194D01*
X56306Y-43042D01*
X56107Y-42960D01*
X55893Y-42959D01*
X55725Y-43029D01*
X60025Y-38729D01*
X60064Y-38670D01*
X60078Y-38601D01*
X60078Y-36841D01*
X60193Y-36957D01*
X60392Y-37039D01*
X60606Y-37040D01*
X60805Y-36958D01*
X60957Y-36806D01*
X61039Y-36607D01*
X61040Y-36393D01*
X60958Y-36194D01*
X60806Y-36042D01*
X60607Y-35960D01*
X60393Y-35959D01*
X60194Y-36041D01*
X60078Y-36158D01*
X60078Y-32976D01*
X61027Y-32027D01*
X61059Y-31979D01*
X61088Y-32023D01*
X61220Y-32111D01*
X61220Y-32140D01*
X61233Y-32209D01*
X61272Y-32267D01*
X61844Y-32838D01*
X61844Y-33112D01*
X61838Y-33110D01*
X61783Y-33109D01*
X60783Y-33109D01*
X60731Y-33131D01*
X60692Y-33170D01*
X60671Y-33222D01*
X60670Y-33277D01*
X60670Y-34277D01*
X60692Y-34329D01*
X60731Y-34368D01*
X60783Y-34389D01*
X60838Y-34390D01*
X61838Y-34390D01*
X61844Y-34387D01*
X61844Y-43024D01*
X61857Y-43093D01*
X61860Y-43096D01*
X61806Y-43042D01*
X61607Y-42960D01*
X61393Y-42959D01*
X61194Y-43041D01*
X61042Y-43193D01*
X61040Y-43199D01*
X61040Y-43072D01*
X61018Y-43020D01*
X60979Y-42981D01*
X60927Y-42960D01*
X60872Y-42959D01*
X60072Y-42959D01*
X60020Y-42981D01*
X59981Y-43020D01*
X59960Y-43072D01*
X59959Y-43127D01*
X59959Y-43927D01*
X59981Y-43979D01*
X60020Y-44018D01*
X60072Y-44039D01*
X60109Y-44040D01*
X60109Y-45290D01*
X60135Y-45420D01*
X60209Y-45531D01*
X60368Y-45690D01*
X60368Y-45690D01*
X60442Y-45739D01*
X60479Y-45764D01*
X60479Y-45764D01*
X60609Y-45790D01*
X62000Y-45790D01*
X62130Y-45764D01*
X62240Y-45690D01*
X62314Y-45580D01*
X62340Y-45450D01*
X62340Y-45257D01*
X62368Y-45229D01*
X62389Y-45177D01*
X62390Y-45122D01*
X62390Y-44322D01*
X62368Y-44270D01*
X62329Y-44231D01*
X62277Y-44210D01*
X62222Y-44209D01*
X61722Y-44209D01*
X61670Y-44231D01*
X61631Y-44270D01*
X61610Y-44322D01*
X61609Y-44377D01*
X61609Y-45110D01*
X61390Y-45110D01*
X61390Y-44322D01*
X61368Y-44270D01*
X61329Y-44231D01*
X61277Y-44210D01*
X61222Y-44209D01*
X60789Y-44209D01*
X60789Y-44040D01*
X60927Y-44040D01*
X60979Y-44018D01*
X61018Y-43979D01*
X61039Y-43927D01*
X61040Y-43872D01*
X61040Y-43800D01*
X61041Y-43805D01*
X61193Y-43957D01*
X61392Y-44039D01*
X61606Y-44040D01*
X61805Y-43958D01*
X61957Y-43806D01*
X62000Y-43703D01*
X62041Y-43805D01*
X62193Y-43957D01*
X62392Y-44039D01*
X62606Y-44040D01*
X62805Y-43958D01*
X62957Y-43806D01*
X63000Y-43703D01*
X63041Y-43805D01*
X63193Y-43957D01*
X63392Y-44039D01*
X63606Y-44040D01*
X63660Y-44017D01*
X65628Y-45985D01*
X65628Y-45985D01*
X65699Y-46033D01*
X65784Y-46050D01*
X69280Y-46050D01*
X69280Y-47669D01*
X69280Y-47709D01*
X69222Y-47709D01*
X69170Y-47731D01*
X69131Y-47770D01*
X69110Y-47822D01*
X69109Y-47877D01*
X69109Y-48677D01*
X69131Y-48729D01*
X69170Y-48768D01*
X69222Y-48789D01*
X69277Y-48790D01*
X69777Y-48790D01*
X69829Y-48768D01*
X69868Y-48729D01*
X69889Y-48677D01*
X69890Y-48622D01*
X69890Y-47822D01*
X69868Y-47770D01*
X69829Y-47731D01*
X69777Y-47710D01*
X69722Y-47709D01*
X69720Y-47709D01*
X69720Y-47669D01*
X69720Y-46038D01*
X69745Y-46033D01*
X69745Y-46033D01*
X69816Y-45985D01*
X70085Y-45717D01*
X70085Y-45717D01*
X70133Y-45645D01*
X70150Y-45561D01*
X70150Y-45561D01*
X70150Y-45368D01*
X70202Y-45389D01*
X70297Y-45390D01*
X70380Y-45390D01*
X70440Y-45330D01*
X70440Y-44810D01*
X70432Y-44810D01*
X70432Y-44690D01*
X70440Y-44690D01*
X70440Y-44682D01*
X70560Y-44682D01*
X70560Y-44690D01*
X70930Y-44690D01*
X70990Y-44630D01*
X70990Y-44302D01*
X70953Y-44214D01*
X70886Y-44146D01*
X70797Y-44110D01*
X70702Y-44109D01*
X70701Y-44109D01*
X70806Y-44004D01*
X70892Y-44039D01*
X71106Y-44040D01*
X71305Y-43958D01*
X71457Y-43806D01*
X71539Y-43607D01*
X71540Y-43393D01*
X71504Y-43306D01*
X72369Y-42441D01*
X72417Y-42369D01*
X72417Y-42369D01*
X72434Y-42285D01*
X72434Y-42285D01*
X72434Y-38688D01*
X76774Y-43029D01*
X76607Y-42960D01*
X76393Y-42959D01*
X76194Y-43041D01*
X76042Y-43193D01*
X76040Y-43199D01*
X76040Y-43072D01*
X76018Y-43020D01*
X75979Y-42981D01*
X75927Y-42960D01*
X75872Y-42959D01*
X75072Y-42959D01*
X75020Y-42981D01*
X74981Y-43020D01*
X74960Y-43072D01*
X74959Y-43127D01*
X74959Y-43927D01*
X74981Y-43979D01*
X75020Y-44018D01*
X75072Y-44039D01*
X75109Y-44040D01*
X75109Y-45276D01*
X75135Y-45406D01*
X75209Y-45517D01*
X75382Y-45690D01*
X75382Y-45690D01*
X75492Y-45764D01*
X75492Y-45764D01*
X75514Y-45768D01*
X75622Y-45790D01*
X77000Y-45790D01*
X77130Y-45764D01*
X77210Y-45710D01*
X77210Y-47148D01*
X76844Y-47514D01*
X76796Y-47585D01*
X76780Y-47669D01*
X76780Y-47709D01*
X76722Y-47709D01*
X76670Y-47731D01*
X76631Y-47770D01*
X76610Y-47822D01*
X76609Y-47877D01*
X76609Y-48677D01*
X76631Y-48729D01*
X76670Y-48768D01*
X76722Y-48789D01*
X76777Y-48790D01*
X77277Y-48790D01*
X77329Y-48768D01*
X77368Y-48729D01*
X77389Y-48677D01*
X77390Y-48622D01*
X77390Y-47822D01*
X77368Y-47770D01*
X77329Y-47731D01*
X77277Y-47710D01*
X77270Y-47710D01*
X77585Y-47395D01*
X77633Y-47323D01*
X77633Y-47323D01*
X77650Y-47239D01*
X77650Y-47239D01*
X77650Y-45368D01*
X77702Y-45389D01*
X77797Y-45390D01*
X77880Y-45390D01*
X77940Y-45330D01*
X77940Y-44810D01*
X77932Y-44810D01*
X77932Y-44690D01*
X77940Y-44690D01*
X77940Y-44682D01*
X78060Y-44682D01*
X78060Y-44690D01*
X78430Y-44690D01*
X78490Y-44630D01*
X78490Y-44302D01*
X78453Y-44214D01*
X78386Y-44146D01*
X78297Y-44110D01*
X78202Y-44109D01*
X78201Y-44109D01*
X78306Y-44004D01*
X78392Y-44039D01*
X78606Y-44040D01*
X78805Y-43958D01*
X78957Y-43806D01*
X79039Y-43607D01*
X79040Y-43393D01*
X79040Y-36393D01*
X78958Y-36194D01*
X78806Y-36042D01*
X78607Y-35960D01*
X78440Y-35959D01*
X78029Y-35548D01*
X78029Y-34301D01*
X78051Y-34292D01*
X78231Y-34113D01*
X78328Y-33877D01*
X78329Y-33623D01*
X78231Y-33387D01*
X78052Y-33207D01*
X77816Y-33110D01*
X77562Y-33109D01*
X77326Y-33207D01*
X77146Y-33386D01*
X77049Y-33622D01*
X77048Y-33876D01*
X77146Y-34112D01*
X77325Y-34292D01*
X77349Y-34301D01*
X77349Y-35689D01*
X77374Y-35819D01*
X77448Y-35929D01*
X77960Y-36440D01*
X77959Y-36606D01*
X78041Y-36805D01*
X78193Y-36957D01*
X78392Y-37039D01*
X78606Y-37040D01*
X78805Y-36958D01*
X78957Y-36806D01*
X79039Y-36607D01*
X79040Y-36393D01*
X79040Y-43393D01*
X78958Y-43194D01*
X78806Y-43042D01*
X78607Y-42960D01*
X78393Y-42959D01*
X78194Y-43041D01*
X78042Y-43193D01*
X77999Y-43296D01*
X77958Y-43194D01*
X77806Y-43042D01*
X77607Y-42960D01*
X77393Y-42959D01*
X77266Y-43012D01*
X76951Y-42696D01*
X76951Y-34222D01*
X76951Y-33222D01*
X76929Y-33170D01*
X76890Y-33131D01*
X76838Y-33110D01*
X76783Y-33109D01*
X75783Y-33109D01*
X75731Y-33131D01*
X75692Y-33170D01*
X75671Y-33222D01*
X75670Y-33277D01*
X75670Y-34277D01*
X75692Y-34329D01*
X75731Y-34368D01*
X75783Y-34389D01*
X75838Y-34390D01*
X75970Y-34390D01*
X75970Y-35548D01*
X75559Y-35960D01*
X75393Y-35959D01*
X75194Y-36041D01*
X75042Y-36193D01*
X74960Y-36392D01*
X74959Y-36606D01*
X75041Y-36805D01*
X75193Y-36957D01*
X75392Y-37039D01*
X75606Y-37040D01*
X75805Y-36958D01*
X75957Y-36806D01*
X76039Y-36607D01*
X76040Y-36440D01*
X76551Y-35929D01*
X76551Y-35929D01*
X76600Y-35855D01*
X76625Y-35819D01*
X76625Y-35819D01*
X76650Y-35689D01*
X76650Y-35689D01*
X76650Y-34390D01*
X76838Y-34390D01*
X76890Y-34368D01*
X76929Y-34329D01*
X76950Y-34277D01*
X76951Y-34222D01*
X76951Y-42696D01*
X72720Y-38465D01*
X72720Y-33206D01*
X72720Y-33206D01*
X72706Y-33137D01*
X72706Y-33137D01*
X72693Y-33118D01*
X72667Y-33079D01*
X72667Y-33079D01*
X72440Y-32851D01*
X72440Y-31712D01*
X72440Y-31287D01*
X72406Y-31119D01*
X72311Y-30976D01*
X72168Y-30880D01*
X72000Y-30847D01*
X71831Y-30880D01*
X71688Y-30976D01*
X71593Y-31119D01*
X71560Y-31287D01*
X71560Y-31712D01*
X71593Y-31880D01*
X71688Y-32023D01*
X71831Y-32119D01*
X72000Y-32152D01*
X72168Y-32119D01*
X72311Y-32023D01*
X72406Y-31880D01*
X72440Y-31712D01*
X72440Y-32851D01*
X70253Y-30665D01*
X80124Y-30665D01*
X79982Y-30723D01*
X79724Y-30981D01*
X79585Y-31317D01*
X79584Y-31681D01*
X79723Y-32017D01*
X79981Y-32275D01*
X80317Y-32414D01*
X80681Y-32415D01*
X81017Y-32276D01*
X81275Y-32018D01*
X81414Y-31682D01*
X81415Y-31318D01*
X81276Y-30982D01*
X81018Y-30724D01*
X80875Y-30665D01*
X89335Y-30665D01*
X89335Y-51335D01*
X89335Y-51335D01*
G37*
G54D32*
X89335Y-51335D02*
X88840Y-51335D01*
X88840Y-40897D01*
X88761Y-40705D01*
X88614Y-40559D01*
X88423Y-40480D01*
X88217Y-40479D01*
X88025Y-40558D01*
X87913Y-40671D01*
X87874Y-40577D01*
X88568Y-39882D01*
X88616Y-39810D01*
X88616Y-39810D01*
X88633Y-39726D01*
X88633Y-35663D01*
X88616Y-35579D01*
X88616Y-35579D01*
X88568Y-35507D01*
X87227Y-34166D01*
X87254Y-34100D01*
X87255Y-33899D01*
X87178Y-33714D01*
X87036Y-33572D01*
X86850Y-33495D01*
X86649Y-33494D01*
X86464Y-33571D01*
X86322Y-33713D01*
X86255Y-33875D01*
X86255Y-33607D01*
X86233Y-33555D01*
X86194Y-33516D01*
X86142Y-33495D01*
X86087Y-33494D01*
X85357Y-33494D01*
X85305Y-33516D01*
X85266Y-33555D01*
X85245Y-33607D01*
X85244Y-33662D01*
X85244Y-33820D01*
X83302Y-33820D01*
X83372Y-33749D01*
X83439Y-33587D01*
X83440Y-33412D01*
X83440Y-32412D01*
X83440Y-31412D01*
X83373Y-31251D01*
X83249Y-31127D01*
X83087Y-31060D01*
X82912Y-31059D01*
X82751Y-31126D01*
X82627Y-31250D01*
X82560Y-31412D01*
X82559Y-31587D01*
X82626Y-31748D01*
X82750Y-31872D01*
X82912Y-31939D01*
X83087Y-31940D01*
X83248Y-31873D01*
X83372Y-31749D01*
X83439Y-31587D01*
X83440Y-31412D01*
X83440Y-32412D01*
X83373Y-32251D01*
X83249Y-32127D01*
X83087Y-32060D01*
X82912Y-32059D01*
X82751Y-32126D01*
X82627Y-32250D01*
X82560Y-32412D01*
X82559Y-32587D01*
X82626Y-32748D01*
X82750Y-32872D01*
X82912Y-32939D01*
X83087Y-32940D01*
X83248Y-32873D01*
X83372Y-32749D01*
X83439Y-32587D01*
X83440Y-32412D01*
X83440Y-33412D01*
X83373Y-33251D01*
X83249Y-33127D01*
X83087Y-33060D01*
X82912Y-33059D01*
X82751Y-33126D01*
X82627Y-33250D01*
X82560Y-33412D01*
X82559Y-33587D01*
X82626Y-33748D01*
X82697Y-33820D01*
X82302Y-33820D01*
X82372Y-33749D01*
X82439Y-33587D01*
X82440Y-33412D01*
X82440Y-32412D01*
X82440Y-31412D01*
X82373Y-31251D01*
X82249Y-31127D01*
X82087Y-31060D01*
X81912Y-31059D01*
X81751Y-31126D01*
X81627Y-31250D01*
X81560Y-31412D01*
X81559Y-31587D01*
X81626Y-31748D01*
X81750Y-31872D01*
X81912Y-31939D01*
X82087Y-31940D01*
X82248Y-31873D01*
X82372Y-31749D01*
X82439Y-31587D01*
X82440Y-31412D01*
X82440Y-32412D01*
X82373Y-32251D01*
X82249Y-32127D01*
X82087Y-32060D01*
X81912Y-32059D01*
X81751Y-32126D01*
X81627Y-32250D01*
X81560Y-32412D01*
X81559Y-32587D01*
X81626Y-32748D01*
X81750Y-32872D01*
X81912Y-32939D01*
X82087Y-32940D01*
X82248Y-32873D01*
X82372Y-32749D01*
X82439Y-32587D01*
X82440Y-32412D01*
X82440Y-33412D01*
X82373Y-33251D01*
X82249Y-33127D01*
X82087Y-33060D01*
X81912Y-33059D01*
X81751Y-33126D01*
X81627Y-33250D01*
X81560Y-33412D01*
X81559Y-33587D01*
X81626Y-33748D01*
X81697Y-33820D01*
X79747Y-33820D01*
X79440Y-33512D01*
X79440Y-31712D01*
X79440Y-31287D01*
X79406Y-31119D01*
X79311Y-30976D01*
X79168Y-30880D01*
X79000Y-30847D01*
X78831Y-30880D01*
X78688Y-30976D01*
X78593Y-31119D01*
X78560Y-31287D01*
X78560Y-31712D01*
X78593Y-31880D01*
X78688Y-32023D01*
X78831Y-32119D01*
X79000Y-32152D01*
X79168Y-32119D01*
X79311Y-32023D01*
X79406Y-31880D01*
X79440Y-31712D01*
X79440Y-33512D01*
X78066Y-32139D01*
X78168Y-32119D01*
X78311Y-32023D01*
X78406Y-31880D01*
X78440Y-31712D01*
X78440Y-31287D01*
X78406Y-31119D01*
X78311Y-30976D01*
X78168Y-30880D01*
X78000Y-30847D01*
X77831Y-30880D01*
X77688Y-30976D01*
X77644Y-31042D01*
X77334Y-30732D01*
X77275Y-30693D01*
X77206Y-30679D01*
X75805Y-30679D01*
X75737Y-30693D01*
X75678Y-30732D01*
X75432Y-30978D01*
X75393Y-31037D01*
X75383Y-31085D01*
X75311Y-30976D01*
X75168Y-30880D01*
X75000Y-30847D01*
X74831Y-30880D01*
X74688Y-30976D01*
X74593Y-31119D01*
X74560Y-31287D01*
X74560Y-31712D01*
X74593Y-31880D01*
X74688Y-32023D01*
X74831Y-32119D01*
X74929Y-32138D01*
X74925Y-32142D01*
X74803Y-32142D01*
X74687Y-32189D01*
X74598Y-32278D01*
X74550Y-32394D01*
X74550Y-32519D01*
X74598Y-32635D01*
X74686Y-32724D01*
X74802Y-32772D01*
X74927Y-32772D01*
X75043Y-32724D01*
X75132Y-32635D01*
X75180Y-32520D01*
X75180Y-32396D01*
X75634Y-31942D01*
X75688Y-32023D01*
X75758Y-32070D01*
X74440Y-33388D01*
X74440Y-31712D01*
X74440Y-31287D01*
X74406Y-31119D01*
X74311Y-30976D01*
X74168Y-30880D01*
X74000Y-30847D01*
X73831Y-30880D01*
X73688Y-30976D01*
X73593Y-31119D01*
X73560Y-31287D01*
X73560Y-31712D01*
X73593Y-31880D01*
X73688Y-32023D01*
X73831Y-32119D01*
X74000Y-32152D01*
X74168Y-32119D01*
X74311Y-32023D01*
X74406Y-31880D01*
X74440Y-31712D01*
X74440Y-33388D01*
X73627Y-34201D01*
X73504Y-34201D01*
X73440Y-34228D01*
X73440Y-31712D01*
X73440Y-31287D01*
X73406Y-31119D01*
X73311Y-30976D01*
X73168Y-30880D01*
X73000Y-30847D01*
X72831Y-30880D01*
X72688Y-30976D01*
X72593Y-31119D01*
X72560Y-31287D01*
X72560Y-31712D01*
X72593Y-31880D01*
X72688Y-32023D01*
X72831Y-32119D01*
X73000Y-32152D01*
X73168Y-32119D01*
X73311Y-32023D01*
X73406Y-31880D01*
X73440Y-31712D01*
X73440Y-34228D01*
X73388Y-34249D01*
X73299Y-34337D01*
X73251Y-34453D01*
X73251Y-34578D01*
X73299Y-34694D01*
X73387Y-34783D01*
X73503Y-34831D01*
X73628Y-34831D01*
X73744Y-34783D01*
X73833Y-34695D01*
X73881Y-34579D01*
X73881Y-34456D01*
X76017Y-32320D01*
X77000Y-32320D01*
X77068Y-32306D01*
X77127Y-32267D01*
X77166Y-32209D01*
X77180Y-32140D01*
X77180Y-32111D01*
X77311Y-32023D01*
X77385Y-31912D01*
X77393Y-31955D01*
X77432Y-32013D01*
X79545Y-34127D01*
X79545Y-34127D01*
X79584Y-34153D01*
X79604Y-34166D01*
X79604Y-34166D01*
X79673Y-34179D01*
X79673Y-34180D01*
X81697Y-34180D01*
X81627Y-34250D01*
X81560Y-34412D01*
X81559Y-34587D01*
X81626Y-34748D01*
X81750Y-34872D01*
X81912Y-34939D01*
X82087Y-34940D01*
X82248Y-34873D01*
X82372Y-34749D01*
X82439Y-34587D01*
X82440Y-34412D01*
X82373Y-34251D01*
X82302Y-34180D01*
X82697Y-34180D01*
X82627Y-34250D01*
X82560Y-34412D01*
X82559Y-34587D01*
X82626Y-34748D01*
X82750Y-34872D01*
X82912Y-34939D01*
X83087Y-34940D01*
X83248Y-34873D01*
X83372Y-34749D01*
X83439Y-34587D01*
X83440Y-34412D01*
X83373Y-34251D01*
X83302Y-34180D01*
X85244Y-34180D01*
X85244Y-34392D01*
X85266Y-34444D01*
X85305Y-34483D01*
X85357Y-34504D01*
X85412Y-34505D01*
X86142Y-34505D01*
X86194Y-34483D01*
X86233Y-34444D01*
X86254Y-34392D01*
X86255Y-34337D01*
X86255Y-34124D01*
X86321Y-34285D01*
X86463Y-34427D01*
X86649Y-34504D01*
X86850Y-34505D01*
X86916Y-34477D01*
X88193Y-35754D01*
X88193Y-38705D01*
X88006Y-38518D01*
X87697Y-38390D01*
X87363Y-38389D01*
X87054Y-38517D01*
X86818Y-38753D01*
X86690Y-39062D01*
X86689Y-39396D01*
X86817Y-39705D01*
X87053Y-39941D01*
X87362Y-40069D01*
X87696Y-40070D01*
X87802Y-40026D01*
X87562Y-40266D01*
X87307Y-40160D01*
X86973Y-40159D01*
X86664Y-40287D01*
X86428Y-40523D01*
X86300Y-40832D01*
X86299Y-41166D01*
X86405Y-41422D01*
X85823Y-42005D01*
X85823Y-41188D01*
X85816Y-40775D01*
X85671Y-40426D01*
X85528Y-40336D01*
X85443Y-40421D01*
X85443Y-40251D01*
X85353Y-40108D01*
X84968Y-39956D01*
X84555Y-39963D01*
X84206Y-40108D01*
X84116Y-40251D01*
X84780Y-40915D01*
X85443Y-40251D01*
X85443Y-40421D01*
X84864Y-41000D01*
X85528Y-41663D01*
X85671Y-41573D01*
X85823Y-41188D01*
X85823Y-42005D01*
X85694Y-42134D01*
X85646Y-42205D01*
X85630Y-42290D01*
X85630Y-42359D01*
X85572Y-42359D01*
X85520Y-42381D01*
X85481Y-42420D01*
X85460Y-42472D01*
X85459Y-42527D01*
X85459Y-43527D01*
X85481Y-43579D01*
X85520Y-43618D01*
X85572Y-43639D01*
X85589Y-43639D01*
X85563Y-43679D01*
X85546Y-43763D01*
X85546Y-45766D01*
X85563Y-45850D01*
X85610Y-45922D01*
X85822Y-46133D01*
X85810Y-46162D01*
X85809Y-46337D01*
X85876Y-46498D01*
X86000Y-46622D01*
X86162Y-46689D01*
X86337Y-46690D01*
X86498Y-46623D01*
X86622Y-46499D01*
X86635Y-46470D01*
X87128Y-46470D01*
X87164Y-46505D01*
X87235Y-46553D01*
X87235Y-46553D01*
X87319Y-46570D01*
X87359Y-46570D01*
X87359Y-46627D01*
X87381Y-46679D01*
X87420Y-46718D01*
X87472Y-46739D01*
X87527Y-46740D01*
X88527Y-46740D01*
X88579Y-46718D01*
X88618Y-46679D01*
X88639Y-46627D01*
X88640Y-46572D01*
X88640Y-46072D01*
X88618Y-46020D01*
X88579Y-45981D01*
X88527Y-45960D01*
X88472Y-45959D01*
X87472Y-45959D01*
X87420Y-45981D01*
X87381Y-46020D01*
X87360Y-46072D01*
X87360Y-46084D01*
X87304Y-46046D01*
X87219Y-46030D01*
X86635Y-46030D01*
X86623Y-46001D01*
X86499Y-45877D01*
X86337Y-45810D01*
X86162Y-45809D01*
X86133Y-45822D01*
X85986Y-45675D01*
X85986Y-45608D01*
X86000Y-45622D01*
X86162Y-45689D01*
X86337Y-45690D01*
X86498Y-45623D01*
X86532Y-45590D01*
X87099Y-45590D01*
X87099Y-45589D01*
X87229Y-45564D01*
X87340Y-45490D01*
X87340Y-45490D01*
X87392Y-45490D01*
X87420Y-45518D01*
X87472Y-45539D01*
X87527Y-45540D01*
X88527Y-45540D01*
X88579Y-45518D01*
X88618Y-45479D01*
X88639Y-45427D01*
X88640Y-45372D01*
X88640Y-44872D01*
X88618Y-44820D01*
X88579Y-44781D01*
X88527Y-44760D01*
X88472Y-44759D01*
X88370Y-44759D01*
X88370Y-42603D01*
X88242Y-42294D01*
X88006Y-42058D01*
X87697Y-41930D01*
X87363Y-41929D01*
X87054Y-42057D01*
X86818Y-42293D01*
X86690Y-42602D01*
X86689Y-42936D01*
X86817Y-43245D01*
X87053Y-43481D01*
X87362Y-43609D01*
X87696Y-43610D01*
X88005Y-43482D01*
X88241Y-43246D01*
X88369Y-42937D01*
X88370Y-42603D01*
X88370Y-44759D01*
X87472Y-44759D01*
X87420Y-44781D01*
X87391Y-44810D01*
X87199Y-44810D01*
X87091Y-44831D01*
X87069Y-44835D01*
X86959Y-44909D01*
X86959Y-44910D01*
X86532Y-44910D01*
X86499Y-44877D01*
X86337Y-44810D01*
X86162Y-44809D01*
X86001Y-44876D01*
X85986Y-44891D01*
X85986Y-43854D01*
X86005Y-43835D01*
X86053Y-43764D01*
X86053Y-43764D01*
X86069Y-43680D01*
X86070Y-43680D01*
X86070Y-43640D01*
X86127Y-43640D01*
X86179Y-43618D01*
X86218Y-43579D01*
X86239Y-43527D01*
X86240Y-43472D01*
X86240Y-42472D01*
X86218Y-42420D01*
X86179Y-42381D01*
X86127Y-42360D01*
X86091Y-42359D01*
X86717Y-41733D01*
X86972Y-41839D01*
X87306Y-41840D01*
X87615Y-41712D01*
X87851Y-41476D01*
X87913Y-41328D01*
X88025Y-41440D01*
X88216Y-41519D01*
X88422Y-41520D01*
X88614Y-41441D01*
X88760Y-41294D01*
X88839Y-41103D01*
X88840Y-40897D01*
X88840Y-51335D01*
X86796Y-51335D01*
X86796Y-47319D01*
X86781Y-47105D01*
X86728Y-46976D01*
X86636Y-46948D01*
X86551Y-47032D01*
X86551Y-46863D01*
X86523Y-46771D01*
X86319Y-46703D01*
X86105Y-46718D01*
X85976Y-46771D01*
X85948Y-46863D01*
X86250Y-47165D01*
X86551Y-46863D01*
X86551Y-47032D01*
X86334Y-47250D01*
X86636Y-47551D01*
X86728Y-47523D01*
X86796Y-47319D01*
X86796Y-51335D01*
X86551Y-51335D01*
X86551Y-47636D01*
X86250Y-47334D01*
X86165Y-47419D01*
X86165Y-47250D01*
X85863Y-46948D01*
X85771Y-46976D01*
X85703Y-47180D01*
X85718Y-47394D01*
X85771Y-47523D01*
X85863Y-47551D01*
X86165Y-47250D01*
X86165Y-47419D01*
X85948Y-47636D01*
X85976Y-47728D01*
X86180Y-47796D01*
X86394Y-47781D01*
X86523Y-47728D01*
X86551Y-47636D01*
X86551Y-51335D01*
X85443Y-51335D01*
X85443Y-41748D01*
X84780Y-41084D01*
X84695Y-41169D01*
X84695Y-41000D01*
X84031Y-40336D01*
X83888Y-40426D01*
X83736Y-40811D01*
X83743Y-41224D01*
X83888Y-41573D01*
X84031Y-41663D01*
X84695Y-41000D01*
X84695Y-41169D01*
X84116Y-41748D01*
X84206Y-41891D01*
X84591Y-42043D01*
X85004Y-42036D01*
X85353Y-41891D01*
X85443Y-41748D01*
X85443Y-51335D01*
X85140Y-51335D01*
X85140Y-43452D01*
X85140Y-42547D01*
X85139Y-42452D01*
X85103Y-42363D01*
X85035Y-42296D01*
X84947Y-42259D01*
X84770Y-42260D01*
X84710Y-42320D01*
X84710Y-42940D01*
X85080Y-42940D01*
X85140Y-42880D01*
X85140Y-42547D01*
X85140Y-43452D01*
X85140Y-43120D01*
X85080Y-43060D01*
X84710Y-43060D01*
X84710Y-43680D01*
X84770Y-43740D01*
X84947Y-43740D01*
X85035Y-43703D01*
X85103Y-43636D01*
X85139Y-43547D01*
X85140Y-43452D01*
X85140Y-51335D01*
X84590Y-51335D01*
X84590Y-43680D01*
X84590Y-43060D01*
X84590Y-42940D01*
X84590Y-42320D01*
X84530Y-42260D01*
X84352Y-42259D01*
X84264Y-42296D01*
X84196Y-42363D01*
X84160Y-42452D01*
X84159Y-42547D01*
X84160Y-42880D01*
X84220Y-42940D01*
X84590Y-42940D01*
X84590Y-43060D01*
X84220Y-43060D01*
X84160Y-43120D01*
X84159Y-43452D01*
X84160Y-43547D01*
X84196Y-43636D01*
X84264Y-43703D01*
X84352Y-43740D01*
X84530Y-43740D01*
X84590Y-43680D01*
X84590Y-51335D01*
X83375Y-51335D01*
X83517Y-51276D01*
X83775Y-51018D01*
X83914Y-50682D01*
X83915Y-50318D01*
X83776Y-49982D01*
X83518Y-49724D01*
X83440Y-49691D01*
X83440Y-48412D01*
X83440Y-47412D01*
X83440Y-46412D01*
X83440Y-45412D01*
X83440Y-44412D01*
X83440Y-43412D01*
X83440Y-42412D01*
X83440Y-41412D01*
X83440Y-40412D01*
X83440Y-39412D01*
X83440Y-38412D01*
X83440Y-37412D01*
X83440Y-36412D01*
X83440Y-35412D01*
X83373Y-35251D01*
X83249Y-35127D01*
X83087Y-35060D01*
X82912Y-35059D01*
X82751Y-35126D01*
X82627Y-35250D01*
X82560Y-35412D01*
X82559Y-35587D01*
X82626Y-35748D01*
X82750Y-35872D01*
X82912Y-35939D01*
X83087Y-35940D01*
X83248Y-35873D01*
X83372Y-35749D01*
X83439Y-35587D01*
X83440Y-35412D01*
X83440Y-36412D01*
X83373Y-36251D01*
X83249Y-36127D01*
X83087Y-36060D01*
X82912Y-36059D01*
X82751Y-36126D01*
X82627Y-36250D01*
X82560Y-36412D01*
X82559Y-36587D01*
X82626Y-36748D01*
X82750Y-36872D01*
X82912Y-36939D01*
X83087Y-36940D01*
X83248Y-36873D01*
X83372Y-36749D01*
X83439Y-36587D01*
X83440Y-36412D01*
X83440Y-37412D01*
X83373Y-37251D01*
X83249Y-37127D01*
X83087Y-37060D01*
X82912Y-37059D01*
X82751Y-37126D01*
X82627Y-37250D01*
X82560Y-37412D01*
X82559Y-37587D01*
X82626Y-37748D01*
X82750Y-37872D01*
X82912Y-37939D01*
X83087Y-37940D01*
X83248Y-37873D01*
X83372Y-37749D01*
X83439Y-37587D01*
X83440Y-37412D01*
X83440Y-38412D01*
X83373Y-38251D01*
X83249Y-38127D01*
X83087Y-38060D01*
X82912Y-38059D01*
X82751Y-38126D01*
X82627Y-38250D01*
X82560Y-38412D01*
X82559Y-38587D01*
X82626Y-38748D01*
X82750Y-38872D01*
X82912Y-38939D01*
X83087Y-38940D01*
X83248Y-38873D01*
X83372Y-38749D01*
X83439Y-38587D01*
X83440Y-38412D01*
X83440Y-39412D01*
X83373Y-39251D01*
X83249Y-39127D01*
X83087Y-39060D01*
X82912Y-39059D01*
X82751Y-39126D01*
X82627Y-39250D01*
X82560Y-39412D01*
X82559Y-39587D01*
X82626Y-39748D01*
X82750Y-39872D01*
X82912Y-39939D01*
X83087Y-39940D01*
X83248Y-39873D01*
X83372Y-39749D01*
X83439Y-39587D01*
X83440Y-39412D01*
X83440Y-40412D01*
X83373Y-40251D01*
X83249Y-40127D01*
X83087Y-40060D01*
X82912Y-40059D01*
X82751Y-40126D01*
X82627Y-40250D01*
X82560Y-40412D01*
X82559Y-40587D01*
X82626Y-40748D01*
X82750Y-40872D01*
X82912Y-40939D01*
X83087Y-40940D01*
X83248Y-40873D01*
X83372Y-40749D01*
X83439Y-40587D01*
X83440Y-40412D01*
X83440Y-41412D01*
X83373Y-41251D01*
X83249Y-41127D01*
X83087Y-41060D01*
X82912Y-41059D01*
X82751Y-41126D01*
X82627Y-41250D01*
X82560Y-41412D01*
X82559Y-41587D01*
X82626Y-41748D01*
X82750Y-41872D01*
X82912Y-41939D01*
X83087Y-41940D01*
X83248Y-41873D01*
X83372Y-41749D01*
X83439Y-41587D01*
X83440Y-41412D01*
X83440Y-42412D01*
X83373Y-42251D01*
X83249Y-42127D01*
X83087Y-42060D01*
X82912Y-42059D01*
X82751Y-42126D01*
X82627Y-42250D01*
X82560Y-42412D01*
X82559Y-42587D01*
X82626Y-42748D01*
X82750Y-42872D01*
X82912Y-42939D01*
X83087Y-42940D01*
X83248Y-42873D01*
X83372Y-42749D01*
X83439Y-42587D01*
X83440Y-42412D01*
X83440Y-43412D01*
X83373Y-43251D01*
X83249Y-43127D01*
X83087Y-43060D01*
X82912Y-43059D01*
X82751Y-43126D01*
X82627Y-43250D01*
X82560Y-43412D01*
X82559Y-43587D01*
X82626Y-43748D01*
X82750Y-43872D01*
X82912Y-43939D01*
X83087Y-43940D01*
X83248Y-43873D01*
X83372Y-43749D01*
X83439Y-43587D01*
X83440Y-43412D01*
X83440Y-44412D01*
X83373Y-44251D01*
X83249Y-44127D01*
X83087Y-44060D01*
X82912Y-44059D01*
X82751Y-44126D01*
X82627Y-44250D01*
X82560Y-44412D01*
X82559Y-44587D01*
X82626Y-44748D01*
X82750Y-44872D01*
X82912Y-44939D01*
X83087Y-44940D01*
X83248Y-44873D01*
X83372Y-44749D01*
X83439Y-44587D01*
X83440Y-44412D01*
X83440Y-45412D01*
X83373Y-45251D01*
X83249Y-45127D01*
X83087Y-45060D01*
X82912Y-45059D01*
X82751Y-45126D01*
X82627Y-45250D01*
X82560Y-45412D01*
X82559Y-45587D01*
X82626Y-45748D01*
X82750Y-45872D01*
X82912Y-45939D01*
X83087Y-45940D01*
X83248Y-45873D01*
X83372Y-45749D01*
X83439Y-45587D01*
X83440Y-45412D01*
X83440Y-46412D01*
X83373Y-46251D01*
X83249Y-46127D01*
X83087Y-46060D01*
X82912Y-46059D01*
X82751Y-46126D01*
X82627Y-46250D01*
X82560Y-46412D01*
X82559Y-46587D01*
X82626Y-46748D01*
X82750Y-46872D01*
X82912Y-46939D01*
X83087Y-46940D01*
X83248Y-46873D01*
X83372Y-46749D01*
X83439Y-46587D01*
X83440Y-46412D01*
X83440Y-47412D01*
X83373Y-47251D01*
X83249Y-47127D01*
X83087Y-47060D01*
X82912Y-47059D01*
X82751Y-47126D01*
X82627Y-47250D01*
X82560Y-47412D01*
X82559Y-47587D01*
X82626Y-47748D01*
X82750Y-47872D01*
X82912Y-47939D01*
X83087Y-47940D01*
X83248Y-47873D01*
X83372Y-47749D01*
X83439Y-47587D01*
X83440Y-47412D01*
X83440Y-48412D01*
X83373Y-48251D01*
X83249Y-48127D01*
X83087Y-48060D01*
X82912Y-48059D01*
X82751Y-48126D01*
X82627Y-48250D01*
X82560Y-48412D01*
X82559Y-48587D01*
X82626Y-48748D01*
X82750Y-48872D01*
X82912Y-48939D01*
X83087Y-48940D01*
X83248Y-48873D01*
X83372Y-48749D01*
X83439Y-48587D01*
X83440Y-48412D01*
X83440Y-49691D01*
X83182Y-49585D01*
X82818Y-49584D01*
X82482Y-49723D01*
X82440Y-49766D01*
X82440Y-48412D01*
X82440Y-47412D01*
X82440Y-46412D01*
X82440Y-45412D01*
X82440Y-44412D01*
X82440Y-43412D01*
X82440Y-42412D01*
X82440Y-41412D01*
X82440Y-40412D01*
X82440Y-39412D01*
X82440Y-38412D01*
X82440Y-37412D01*
X82440Y-36412D01*
X82440Y-35412D01*
X82373Y-35251D01*
X82249Y-35127D01*
X82087Y-35060D01*
X81912Y-35059D01*
X81751Y-35126D01*
X81627Y-35250D01*
X81560Y-35412D01*
X81559Y-35587D01*
X81626Y-35748D01*
X81750Y-35872D01*
X81912Y-35939D01*
X82087Y-35940D01*
X82248Y-35873D01*
X82372Y-35749D01*
X82439Y-35587D01*
X82440Y-35412D01*
X82440Y-36412D01*
X82373Y-36251D01*
X82249Y-36127D01*
X82087Y-36060D01*
X81912Y-36059D01*
X81751Y-36126D01*
X81627Y-36250D01*
X81560Y-36412D01*
X81559Y-36587D01*
X81626Y-36748D01*
X81750Y-36872D01*
X81912Y-36939D01*
X82087Y-36940D01*
X82248Y-36873D01*
X82372Y-36749D01*
X82439Y-36587D01*
X82440Y-36412D01*
X82440Y-37412D01*
X82373Y-37251D01*
X82249Y-37127D01*
X82087Y-37060D01*
X81912Y-37059D01*
X81751Y-37126D01*
X81627Y-37250D01*
X81560Y-37412D01*
X81559Y-37587D01*
X81626Y-37748D01*
X81750Y-37872D01*
X81912Y-37939D01*
X82087Y-37940D01*
X82248Y-37873D01*
X82372Y-37749D01*
X82439Y-37587D01*
X82440Y-37412D01*
X82440Y-38412D01*
X82373Y-38251D01*
X82249Y-38127D01*
X82087Y-38060D01*
X81912Y-38059D01*
X81751Y-38126D01*
X81627Y-38250D01*
X81560Y-38412D01*
X81559Y-38587D01*
X81626Y-38748D01*
X81750Y-38872D01*
X81912Y-38939D01*
X82087Y-38940D01*
X82248Y-38873D01*
X82372Y-38749D01*
X82439Y-38587D01*
X82440Y-38412D01*
X82440Y-39412D01*
X82373Y-39251D01*
X82249Y-39127D01*
X82087Y-39060D01*
X81912Y-39059D01*
X81751Y-39126D01*
X81627Y-39250D01*
X81560Y-39412D01*
X81559Y-39587D01*
X81626Y-39748D01*
X81750Y-39872D01*
X81912Y-39939D01*
X82087Y-39940D01*
X82248Y-39873D01*
X82372Y-39749D01*
X82439Y-39587D01*
X82440Y-39412D01*
X82440Y-40412D01*
X82373Y-40251D01*
X82249Y-40127D01*
X82087Y-40060D01*
X81912Y-40059D01*
X81751Y-40126D01*
X81627Y-40250D01*
X81560Y-40412D01*
X81559Y-40587D01*
X81626Y-40748D01*
X81750Y-40872D01*
X81912Y-40939D01*
X82087Y-40940D01*
X82248Y-40873D01*
X82372Y-40749D01*
X82439Y-40587D01*
X82440Y-40412D01*
X82440Y-41412D01*
X82373Y-41251D01*
X82249Y-41127D01*
X82087Y-41060D01*
X81912Y-41059D01*
X81751Y-41126D01*
X81627Y-41250D01*
X81560Y-41412D01*
X81559Y-41587D01*
X81626Y-41748D01*
X81750Y-41872D01*
X81912Y-41939D01*
X82087Y-41940D01*
X82248Y-41873D01*
X82372Y-41749D01*
X82439Y-41587D01*
X82440Y-41412D01*
X82440Y-42412D01*
X82373Y-42251D01*
X82249Y-42127D01*
X82087Y-42060D01*
X81912Y-42059D01*
X81751Y-42126D01*
X81627Y-42250D01*
X81560Y-42412D01*
X81559Y-42587D01*
X81626Y-42748D01*
X81750Y-42872D01*
X81912Y-42939D01*
X82087Y-42940D01*
X82248Y-42873D01*
X82372Y-42749D01*
X82439Y-42587D01*
X82440Y-42412D01*
X82440Y-43412D01*
X82373Y-43251D01*
X82249Y-43127D01*
X82087Y-43060D01*
X81912Y-43059D01*
X81751Y-43126D01*
X81627Y-43250D01*
X81560Y-43412D01*
X81559Y-43587D01*
X81626Y-43748D01*
X81750Y-43872D01*
X81912Y-43939D01*
X82087Y-43940D01*
X82248Y-43873D01*
X82372Y-43749D01*
X82439Y-43587D01*
X82440Y-43412D01*
X82440Y-44412D01*
X82373Y-44251D01*
X82249Y-44127D01*
X82087Y-44060D01*
X81912Y-44059D01*
X81751Y-44126D01*
X81627Y-44250D01*
X81560Y-44412D01*
X81559Y-44587D01*
X81626Y-44748D01*
X81750Y-44872D01*
X81912Y-44939D01*
X82087Y-44940D01*
X82248Y-44873D01*
X82372Y-44749D01*
X82439Y-44587D01*
X82440Y-44412D01*
X82440Y-45412D01*
X82373Y-45251D01*
X82249Y-45127D01*
X82087Y-45060D01*
X81912Y-45059D01*
X81751Y-45126D01*
X81627Y-45250D01*
X81560Y-45412D01*
X81559Y-45587D01*
X81626Y-45748D01*
X81750Y-45872D01*
X81912Y-45939D01*
X82087Y-45940D01*
X82248Y-45873D01*
X82372Y-45749D01*
X82439Y-45587D01*
X82440Y-45412D01*
X82440Y-46412D01*
X82373Y-46251D01*
X82249Y-46127D01*
X82087Y-46060D01*
X81912Y-46059D01*
X81751Y-46126D01*
X81627Y-46250D01*
X81560Y-46412D01*
X81559Y-46587D01*
X81626Y-46748D01*
X81750Y-46872D01*
X81912Y-46939D01*
X82087Y-46940D01*
X82248Y-46873D01*
X82372Y-46749D01*
X82439Y-46587D01*
X82440Y-46412D01*
X82440Y-47412D01*
X82373Y-47251D01*
X82249Y-47127D01*
X82087Y-47060D01*
X81912Y-47059D01*
X81751Y-47126D01*
X81627Y-47250D01*
X81560Y-47412D01*
X81559Y-47587D01*
X81626Y-47748D01*
X81750Y-47872D01*
X81912Y-47939D01*
X82087Y-47940D01*
X82248Y-47873D01*
X82372Y-47749D01*
X82439Y-47587D01*
X82440Y-47412D01*
X82440Y-48412D01*
X82373Y-48251D01*
X82249Y-48127D01*
X82087Y-48060D01*
X81912Y-48059D01*
X81751Y-48126D01*
X81627Y-48250D01*
X81560Y-48412D01*
X81559Y-48587D01*
X81626Y-48748D01*
X81750Y-48872D01*
X81912Y-48939D01*
X82087Y-48940D01*
X82248Y-48873D01*
X82372Y-48749D01*
X82439Y-48587D01*
X82440Y-48412D01*
X82440Y-49766D01*
X82224Y-49981D01*
X82085Y-50317D01*
X82084Y-50681D01*
X82223Y-51017D01*
X82481Y-51275D01*
X82624Y-51335D01*
X81440Y-51335D01*
X81440Y-50712D01*
X81440Y-50287D01*
X81406Y-50119D01*
X81311Y-49976D01*
X81168Y-49880D01*
X81000Y-49847D01*
X80831Y-49880D01*
X80688Y-49976D01*
X80593Y-50119D01*
X80560Y-50287D01*
X80560Y-50712D01*
X80593Y-50880D01*
X80688Y-51023D01*
X80831Y-51119D01*
X81000Y-51152D01*
X81168Y-51119D01*
X81311Y-51023D01*
X81406Y-50880D01*
X81440Y-50712D01*
X81440Y-51335D01*
X80440Y-51335D01*
X80440Y-50712D01*
X80440Y-50287D01*
X80406Y-50119D01*
X80311Y-49976D01*
X80168Y-49880D01*
X80000Y-49847D01*
X79831Y-49880D01*
X79688Y-49976D01*
X79593Y-50119D01*
X79560Y-50287D01*
X79560Y-50712D01*
X79593Y-50880D01*
X79688Y-51023D01*
X79831Y-51119D01*
X80000Y-51152D01*
X80168Y-51119D01*
X80311Y-51023D01*
X80406Y-50880D01*
X80440Y-50712D01*
X80440Y-51335D01*
X79440Y-51335D01*
X79440Y-50712D01*
X79440Y-50287D01*
X79406Y-50119D01*
X79311Y-49976D01*
X79168Y-49880D01*
X79000Y-49847D01*
X78831Y-49880D01*
X78688Y-49976D01*
X78611Y-50092D01*
X78611Y-47324D01*
X78563Y-47208D01*
X78490Y-47134D01*
X78490Y-45197D01*
X78490Y-44870D01*
X78430Y-44810D01*
X78060Y-44810D01*
X78060Y-45330D01*
X78120Y-45390D01*
X78202Y-45390D01*
X78297Y-45389D01*
X78386Y-45353D01*
X78453Y-45285D01*
X78490Y-45197D01*
X78490Y-47134D01*
X78475Y-47119D01*
X78359Y-47071D01*
X78234Y-47071D01*
X78118Y-47119D01*
X78029Y-47207D01*
X77981Y-47323D01*
X77981Y-47448D01*
X77988Y-47466D01*
X77872Y-47582D01*
X77833Y-47640D01*
X77820Y-47709D01*
X77820Y-47709D01*
X77722Y-47709D01*
X77670Y-47731D01*
X77631Y-47770D01*
X77610Y-47822D01*
X77609Y-47877D01*
X77609Y-48677D01*
X77631Y-48729D01*
X77670Y-48768D01*
X77722Y-48789D01*
X77777Y-48790D01*
X78277Y-48790D01*
X78329Y-48768D01*
X78368Y-48729D01*
X78389Y-48677D01*
X78390Y-48622D01*
X78390Y-47822D01*
X78368Y-47770D01*
X78329Y-47731D01*
X78277Y-47710D01*
X78254Y-47710D01*
X78263Y-47701D01*
X78358Y-47701D01*
X78474Y-47653D01*
X78563Y-47565D01*
X78611Y-47449D01*
X78611Y-47324D01*
X78611Y-50092D01*
X78593Y-50119D01*
X78560Y-50287D01*
X78560Y-50712D01*
X78593Y-50880D01*
X78688Y-51023D01*
X78831Y-51119D01*
X79000Y-51152D01*
X79168Y-51119D01*
X79311Y-51023D01*
X79406Y-50880D01*
X79440Y-50712D01*
X79440Y-51335D01*
X78440Y-51335D01*
X78440Y-50712D01*
X78440Y-50287D01*
X78406Y-50119D01*
X78311Y-49976D01*
X78168Y-49880D01*
X78000Y-49847D01*
X77831Y-49880D01*
X77688Y-49976D01*
X77593Y-50119D01*
X77560Y-50287D01*
X77560Y-50712D01*
X77593Y-50880D01*
X77688Y-51023D01*
X77831Y-51119D01*
X78000Y-51152D01*
X78168Y-51119D01*
X78311Y-51023D01*
X78406Y-50880D01*
X78440Y-50712D01*
X78440Y-51335D01*
X77440Y-51335D01*
X77440Y-50712D01*
X77440Y-50287D01*
X77406Y-50119D01*
X77311Y-49976D01*
X77168Y-49880D01*
X77000Y-49847D01*
X76831Y-49880D01*
X76688Y-49976D01*
X76593Y-50119D01*
X76560Y-50287D01*
X76560Y-50712D01*
X76593Y-50880D01*
X76688Y-51023D01*
X76831Y-51119D01*
X77000Y-51152D01*
X77168Y-51119D01*
X77311Y-51023D01*
X77406Y-50880D01*
X77440Y-50712D01*
X77440Y-51335D01*
X76440Y-51335D01*
X76440Y-50712D01*
X76440Y-50287D01*
X76406Y-50119D01*
X76390Y-50094D01*
X76390Y-48622D01*
X76390Y-47822D01*
X76368Y-47770D01*
X76329Y-47731D01*
X76277Y-47710D01*
X76222Y-47709D01*
X75722Y-47709D01*
X75670Y-47731D01*
X75631Y-47770D01*
X75610Y-47822D01*
X75609Y-47877D01*
X75609Y-48677D01*
X75631Y-48729D01*
X75670Y-48768D01*
X75722Y-48789D01*
X75777Y-48790D01*
X76277Y-48790D01*
X76329Y-48768D01*
X76368Y-48729D01*
X76389Y-48677D01*
X76390Y-48622D01*
X76390Y-50094D01*
X76311Y-49976D01*
X76168Y-49880D01*
X76000Y-49847D01*
X75831Y-49880D01*
X75688Y-49976D01*
X75593Y-50119D01*
X75560Y-50287D01*
X75560Y-50712D01*
X75593Y-50880D01*
X75688Y-51023D01*
X75831Y-51119D01*
X76000Y-51152D01*
X76168Y-51119D01*
X76311Y-51023D01*
X76406Y-50880D01*
X76440Y-50712D01*
X76440Y-51335D01*
X75440Y-51335D01*
X75440Y-50712D01*
X75440Y-50287D01*
X75406Y-50119D01*
X75311Y-49976D01*
X75168Y-49880D01*
X75000Y-49847D01*
X74831Y-49880D01*
X74688Y-49976D01*
X74593Y-50119D01*
X74560Y-50287D01*
X74560Y-50712D01*
X74593Y-50880D01*
X74688Y-51023D01*
X74831Y-51119D01*
X75000Y-51152D01*
X75168Y-51119D01*
X75311Y-51023D01*
X75406Y-50880D01*
X75440Y-50712D01*
X75440Y-51335D01*
X74440Y-51335D01*
X74440Y-50712D01*
X74440Y-50287D01*
X74406Y-50119D01*
X74311Y-49976D01*
X74168Y-49880D01*
X74000Y-49847D01*
X73831Y-49880D01*
X73688Y-49976D01*
X73593Y-50119D01*
X73560Y-50287D01*
X73560Y-50712D01*
X73593Y-50880D01*
X73688Y-51023D01*
X73831Y-51119D01*
X74000Y-51152D01*
X74168Y-51119D01*
X74311Y-51023D01*
X74406Y-50880D01*
X74440Y-50712D01*
X74440Y-51335D01*
X72440Y-51335D01*
X72440Y-50712D01*
X72440Y-50287D01*
X72406Y-50119D01*
X72311Y-49976D01*
X72168Y-49880D01*
X72000Y-49847D01*
X71953Y-49856D01*
X71953Y-47047D01*
X71905Y-46931D01*
X71816Y-46842D01*
X71701Y-46794D01*
X71575Y-46794D01*
X71459Y-46842D01*
X71371Y-46930D01*
X71323Y-47046D01*
X71323Y-47170D01*
X70990Y-47503D01*
X70990Y-45197D01*
X70990Y-44870D01*
X70930Y-44810D01*
X70560Y-44810D01*
X70560Y-45330D01*
X70620Y-45390D01*
X70702Y-45390D01*
X70797Y-45389D01*
X70886Y-45353D01*
X70953Y-45285D01*
X70990Y-45197D01*
X70990Y-47503D01*
X70963Y-47529D01*
X70500Y-47529D01*
X70431Y-47543D01*
X70372Y-47582D01*
X70333Y-47640D01*
X70320Y-47709D01*
X70320Y-47709D01*
X70222Y-47709D01*
X70170Y-47731D01*
X70131Y-47770D01*
X70110Y-47822D01*
X70109Y-47877D01*
X70109Y-48677D01*
X70131Y-48729D01*
X70170Y-48768D01*
X70222Y-48789D01*
X70277Y-48790D01*
X70777Y-48790D01*
X70829Y-48768D01*
X70868Y-48729D01*
X70889Y-48677D01*
X70890Y-48622D01*
X70890Y-47889D01*
X71037Y-47889D01*
X71106Y-47876D01*
X71165Y-47837D01*
X71577Y-47424D01*
X71700Y-47424D01*
X71816Y-47376D01*
X71904Y-47288D01*
X71953Y-47172D01*
X71953Y-47047D01*
X71953Y-49856D01*
X71831Y-49880D01*
X71688Y-49976D01*
X71593Y-50119D01*
X71560Y-50287D01*
X71560Y-50712D01*
X71593Y-50880D01*
X71688Y-51023D01*
X71831Y-51119D01*
X72000Y-51152D01*
X72168Y-51119D01*
X72311Y-51023D01*
X72406Y-50880D01*
X72440Y-50712D01*
X72440Y-51335D01*
X71440Y-51335D01*
X71440Y-50712D01*
X71440Y-50287D01*
X71406Y-50119D01*
X71311Y-49976D01*
X71168Y-49880D01*
X71000Y-49847D01*
X70831Y-49880D01*
X70688Y-49976D01*
X70593Y-50119D01*
X70560Y-50287D01*
X70560Y-50712D01*
X70593Y-50880D01*
X70688Y-51023D01*
X70831Y-51119D01*
X71000Y-51152D01*
X71168Y-51119D01*
X71311Y-51023D01*
X71406Y-50880D01*
X71440Y-50712D01*
X71440Y-51335D01*
X70440Y-51335D01*
X70440Y-50712D01*
X70440Y-50287D01*
X70406Y-50119D01*
X70311Y-49976D01*
X70168Y-49880D01*
X70000Y-49847D01*
X69831Y-49880D01*
X69688Y-49976D01*
X69593Y-50119D01*
X69560Y-50287D01*
X69560Y-50712D01*
X69593Y-50880D01*
X69688Y-51023D01*
X69831Y-51119D01*
X70000Y-51152D01*
X70168Y-51119D01*
X70311Y-51023D01*
X70406Y-50880D01*
X70440Y-50712D01*
X70440Y-51335D01*
X69440Y-51335D01*
X69440Y-50712D01*
X69440Y-50287D01*
X69406Y-50119D01*
X69311Y-49976D01*
X69168Y-49880D01*
X69000Y-49847D01*
X68890Y-49869D01*
X68890Y-48622D01*
X68890Y-47822D01*
X68868Y-47770D01*
X68829Y-47731D01*
X68777Y-47710D01*
X68722Y-47709D01*
X68222Y-47709D01*
X68170Y-47731D01*
X68131Y-47770D01*
X68110Y-47822D01*
X68109Y-47877D01*
X68109Y-48677D01*
X68131Y-48729D01*
X68170Y-48768D01*
X68222Y-48789D01*
X68277Y-48790D01*
X68777Y-48790D01*
X68829Y-48768D01*
X68868Y-48729D01*
X68889Y-48677D01*
X68890Y-48622D01*
X68890Y-49869D01*
X68831Y-49880D01*
X68688Y-49976D01*
X68593Y-50119D01*
X68560Y-50287D01*
X68560Y-50712D01*
X68593Y-50880D01*
X68688Y-51023D01*
X68831Y-51119D01*
X69000Y-51152D01*
X69168Y-51119D01*
X69311Y-51023D01*
X69406Y-50880D01*
X69440Y-50712D01*
X69440Y-51335D01*
X68440Y-51335D01*
X68440Y-50712D01*
X68440Y-50287D01*
X68406Y-50119D01*
X68311Y-49976D01*
X68168Y-49880D01*
X68000Y-49847D01*
X67831Y-49880D01*
X67688Y-49976D01*
X67593Y-50119D01*
X67560Y-50287D01*
X67560Y-50712D01*
X67593Y-50880D01*
X67688Y-51023D01*
X67831Y-51119D01*
X68000Y-51152D01*
X68168Y-51119D01*
X68311Y-51023D01*
X68406Y-50880D01*
X68440Y-50712D01*
X68440Y-51335D01*
X67440Y-51335D01*
X67440Y-50712D01*
X67440Y-50287D01*
X67406Y-50119D01*
X67311Y-49976D01*
X67168Y-49880D01*
X67000Y-49847D01*
X66831Y-49880D01*
X66688Y-49976D01*
X66593Y-50119D01*
X66560Y-50287D01*
X66560Y-50712D01*
X66593Y-50880D01*
X66688Y-51023D01*
X66831Y-51119D01*
X67000Y-51152D01*
X67168Y-51119D01*
X67311Y-51023D01*
X67406Y-50880D01*
X67440Y-50712D01*
X67440Y-51335D01*
X66440Y-51335D01*
X66440Y-50712D01*
X66440Y-50287D01*
X66406Y-50119D01*
X66311Y-49976D01*
X66168Y-49880D01*
X66000Y-49847D01*
X65831Y-49880D01*
X65688Y-49976D01*
X65593Y-50119D01*
X65560Y-50287D01*
X65560Y-50712D01*
X65593Y-50880D01*
X65688Y-51023D01*
X65831Y-51119D01*
X66000Y-51152D01*
X66168Y-51119D01*
X66311Y-51023D01*
X66406Y-50880D01*
X66440Y-50712D01*
X66440Y-51335D01*
X65440Y-51335D01*
X65440Y-50712D01*
X65440Y-50287D01*
X65406Y-50119D01*
X65311Y-49976D01*
X65168Y-49880D01*
X65000Y-49847D01*
X64831Y-49880D01*
X64688Y-49976D01*
X64593Y-50119D01*
X64560Y-50287D01*
X64560Y-50712D01*
X64593Y-50880D01*
X64688Y-51023D01*
X64831Y-51119D01*
X65000Y-51152D01*
X65168Y-51119D01*
X65311Y-51023D01*
X65406Y-50880D01*
X65440Y-50712D01*
X65440Y-51335D01*
X63710Y-51335D01*
X63710Y-47212D01*
X63662Y-47096D01*
X63573Y-47008D01*
X63490Y-46973D01*
X63490Y-45197D01*
X63490Y-44302D01*
X63453Y-44214D01*
X63386Y-44146D01*
X63297Y-44110D01*
X63202Y-44109D01*
X63120Y-44110D01*
X63060Y-44170D01*
X63060Y-44690D01*
X63430Y-44690D01*
X63490Y-44630D01*
X63490Y-44302D01*
X63490Y-45197D01*
X63490Y-44870D01*
X63430Y-44810D01*
X63060Y-44810D01*
X63060Y-45330D01*
X63120Y-45390D01*
X63202Y-45390D01*
X63297Y-45389D01*
X63386Y-45353D01*
X63453Y-45285D01*
X63490Y-45197D01*
X63490Y-46973D01*
X63458Y-46960D01*
X63332Y-46959D01*
X63217Y-47007D01*
X63128Y-47096D01*
X63080Y-47212D01*
X63080Y-47337D01*
X63091Y-47364D01*
X62940Y-47515D01*
X62940Y-45330D01*
X62940Y-44810D01*
X62940Y-44690D01*
X62940Y-44170D01*
X62880Y-44110D01*
X62797Y-44109D01*
X62702Y-44110D01*
X62613Y-44146D01*
X62546Y-44214D01*
X62509Y-44302D01*
X62510Y-44630D01*
X62570Y-44690D01*
X62940Y-44690D01*
X62940Y-44810D01*
X62570Y-44810D01*
X62510Y-44870D01*
X62509Y-45197D01*
X62546Y-45285D01*
X62613Y-45353D01*
X62702Y-45389D01*
X62797Y-45390D01*
X62880Y-45390D01*
X62940Y-45330D01*
X62940Y-47515D01*
X62872Y-47582D01*
X62833Y-47640D01*
X62820Y-47709D01*
X62820Y-47709D01*
X62722Y-47709D01*
X62670Y-47731D01*
X62631Y-47770D01*
X62610Y-47822D01*
X62609Y-47877D01*
X62609Y-48677D01*
X62631Y-48729D01*
X62670Y-48768D01*
X62722Y-48789D01*
X62777Y-48790D01*
X63277Y-48790D01*
X63329Y-48768D01*
X63368Y-48729D01*
X63389Y-48677D01*
X63390Y-48622D01*
X63390Y-47822D01*
X63368Y-47770D01*
X63329Y-47731D01*
X63277Y-47710D01*
X63254Y-47710D01*
X63374Y-47589D01*
X63457Y-47590D01*
X63573Y-47542D01*
X63662Y-47453D01*
X63710Y-47337D01*
X63710Y-47212D01*
X63710Y-51335D01*
X63440Y-51335D01*
X63440Y-50712D01*
X63440Y-50287D01*
X63406Y-50119D01*
X63311Y-49976D01*
X63168Y-49880D01*
X63000Y-49847D01*
X62831Y-49880D01*
X62688Y-49976D01*
X62593Y-50119D01*
X62560Y-50287D01*
X62560Y-50712D01*
X62593Y-50880D01*
X62688Y-51023D01*
X62831Y-51119D01*
X63000Y-51152D01*
X63168Y-51119D01*
X63311Y-51023D01*
X63406Y-50880D01*
X63440Y-50712D01*
X63440Y-51335D01*
X62440Y-51335D01*
X62440Y-50712D01*
X62440Y-50287D01*
X62406Y-50119D01*
X62311Y-49976D01*
X62168Y-49880D01*
X62000Y-49847D01*
X61831Y-49880D01*
X61688Y-49976D01*
X61593Y-50119D01*
X61560Y-50287D01*
X61560Y-50712D01*
X61593Y-50880D01*
X61688Y-51023D01*
X61831Y-51119D01*
X62000Y-51152D01*
X62168Y-51119D01*
X62311Y-51023D01*
X62406Y-50880D01*
X62440Y-50712D01*
X62440Y-51335D01*
X50875Y-51335D01*
X51017Y-51276D01*
X51275Y-51018D01*
X51414Y-50682D01*
X51415Y-50318D01*
X51276Y-49982D01*
X51018Y-49724D01*
X50682Y-49585D01*
X50318Y-49584D01*
X49982Y-49723D01*
X49724Y-49981D01*
X49585Y-50317D01*
X49584Y-50681D01*
X49723Y-51017D01*
X49981Y-51275D01*
X50124Y-51335D01*
X43665Y-51335D01*
X43665Y-30665D01*
X50624Y-30665D01*
X50482Y-30723D01*
X50224Y-30981D01*
X50085Y-31317D01*
X50084Y-31681D01*
X50223Y-32017D01*
X50481Y-32275D01*
X50817Y-32414D01*
X51181Y-32415D01*
X51517Y-32276D01*
X51775Y-32018D01*
X51914Y-31682D01*
X51915Y-31318D01*
X51776Y-30982D01*
X51518Y-30724D01*
X51375Y-30665D01*
X59340Y-30665D01*
X59272Y-30732D01*
X59233Y-30790D01*
X59220Y-30859D01*
X59220Y-30888D01*
X59088Y-30976D01*
X58993Y-31119D01*
X58960Y-31287D01*
X58960Y-31712D01*
X58993Y-31880D01*
X59088Y-32023D01*
X59231Y-32119D01*
X59400Y-32152D01*
X59568Y-32119D01*
X59711Y-32023D01*
X59806Y-31880D01*
X59840Y-31712D01*
X59840Y-31287D01*
X59806Y-31119D01*
X59711Y-30976D01*
X59607Y-30907D01*
X59663Y-30851D01*
X60381Y-30851D01*
X60231Y-30880D01*
X60088Y-30976D01*
X59993Y-31119D01*
X59960Y-31287D01*
X59960Y-31712D01*
X59993Y-31880D01*
X60088Y-32023D01*
X60231Y-32119D01*
X60394Y-32151D01*
X59770Y-32774D01*
X59731Y-32833D01*
X59718Y-32901D01*
X59718Y-38527D01*
X58840Y-39405D01*
X58840Y-31712D01*
X58840Y-31287D01*
X58806Y-31119D01*
X58711Y-30976D01*
X58568Y-30880D01*
X58400Y-30847D01*
X58231Y-30880D01*
X58088Y-30976D01*
X57993Y-31119D01*
X57960Y-31287D01*
X57960Y-31712D01*
X57993Y-31880D01*
X58088Y-32023D01*
X58231Y-32119D01*
X58400Y-32152D01*
X58568Y-32119D01*
X58711Y-32023D01*
X58806Y-31880D01*
X58840Y-31712D01*
X58840Y-39405D01*
X57840Y-40405D01*
X57840Y-31712D01*
X57840Y-31287D01*
X57806Y-31119D01*
X57711Y-30976D01*
X57568Y-30880D01*
X57400Y-30847D01*
X57231Y-30880D01*
X57088Y-30976D01*
X56993Y-31119D01*
X56960Y-31287D01*
X56960Y-31712D01*
X56993Y-31880D01*
X57088Y-32023D01*
X57220Y-32111D01*
X57220Y-32140D01*
X57220Y-35817D01*
X56840Y-36197D01*
X56840Y-31712D01*
X56840Y-31287D01*
X56806Y-31119D01*
X56711Y-30976D01*
X56568Y-30880D01*
X56400Y-30847D01*
X56231Y-30880D01*
X56088Y-30976D01*
X55993Y-31119D01*
X55960Y-31287D01*
X55960Y-31712D01*
X55993Y-31880D01*
X56088Y-32023D01*
X56231Y-32119D01*
X56400Y-32152D01*
X56568Y-32119D01*
X56711Y-32023D01*
X56806Y-31880D01*
X56840Y-31712D01*
X56840Y-36197D01*
X56540Y-36497D01*
X56540Y-36393D01*
X56458Y-36194D01*
X56306Y-36042D01*
X56107Y-35960D01*
X55940Y-35959D01*
X55840Y-35859D01*
X55840Y-31712D01*
X55840Y-31287D01*
X55806Y-31119D01*
X55711Y-30976D01*
X55568Y-30880D01*
X55400Y-30847D01*
X55231Y-30880D01*
X55088Y-30976D01*
X54993Y-31119D01*
X54960Y-31287D01*
X54960Y-31712D01*
X54993Y-31880D01*
X55088Y-32023D01*
X55231Y-32119D01*
X55400Y-32152D01*
X55568Y-32119D01*
X55711Y-32023D01*
X55806Y-31880D01*
X55840Y-31712D01*
X55840Y-35859D01*
X55529Y-35548D01*
X55529Y-34301D01*
X55551Y-34292D01*
X55731Y-34113D01*
X55828Y-33877D01*
X55829Y-33623D01*
X55731Y-33387D01*
X55552Y-33207D01*
X55316Y-33110D01*
X55062Y-33109D01*
X54840Y-33201D01*
X54840Y-31712D01*
X54840Y-31287D01*
X54806Y-31119D01*
X54711Y-30976D01*
X54568Y-30880D01*
X54400Y-30847D01*
X54231Y-30880D01*
X54088Y-30976D01*
X53993Y-31119D01*
X53960Y-31287D01*
X53960Y-31712D01*
X53993Y-31880D01*
X54088Y-32023D01*
X54231Y-32119D01*
X54400Y-32152D01*
X54568Y-32119D01*
X54711Y-32023D01*
X54806Y-31880D01*
X54840Y-31712D01*
X54840Y-33201D01*
X54826Y-33207D01*
X54646Y-33386D01*
X54549Y-33622D01*
X54548Y-33876D01*
X54646Y-34112D01*
X54825Y-34292D01*
X54849Y-34301D01*
X54849Y-35689D01*
X54874Y-35819D01*
X54948Y-35929D01*
X55460Y-36440D01*
X55459Y-36606D01*
X55541Y-36805D01*
X55693Y-36957D01*
X55892Y-37039D01*
X55997Y-37039D01*
X54451Y-38586D01*
X54451Y-34222D01*
X54451Y-33222D01*
X54429Y-33170D01*
X54390Y-33131D01*
X54338Y-33110D01*
X54283Y-33109D01*
X53840Y-33109D01*
X53840Y-31712D01*
X53840Y-31287D01*
X53806Y-31119D01*
X53711Y-30976D01*
X53568Y-30880D01*
X53400Y-30847D01*
X53231Y-30880D01*
X53088Y-30976D01*
X52993Y-31119D01*
X52960Y-31287D01*
X52960Y-31712D01*
X52993Y-31880D01*
X53088Y-32023D01*
X53192Y-32092D01*
X52632Y-32652D01*
X52593Y-32711D01*
X52579Y-32780D01*
X52579Y-35094D01*
X49872Y-37801D01*
X49833Y-37859D01*
X49820Y-37928D01*
X49820Y-40407D01*
X49777Y-40364D01*
X49597Y-40290D01*
X49402Y-40289D01*
X49222Y-40364D01*
X49179Y-40407D01*
X49179Y-35614D01*
X50394Y-34400D01*
X50360Y-34482D01*
X50359Y-34856D01*
X50502Y-35201D01*
X50766Y-35466D01*
X51112Y-35609D01*
X51486Y-35610D01*
X51831Y-35467D01*
X52096Y-35203D01*
X52239Y-34857D01*
X52240Y-34483D01*
X52097Y-34138D01*
X51833Y-33873D01*
X51487Y-33730D01*
X51113Y-33729D01*
X51030Y-33764D01*
X52527Y-32267D01*
X52527Y-32267D01*
X52542Y-32244D01*
X52566Y-32209D01*
X52566Y-32209D01*
X52579Y-32140D01*
X52580Y-32140D01*
X52580Y-32111D01*
X52711Y-32023D01*
X52806Y-31880D01*
X52840Y-31712D01*
X52840Y-31287D01*
X52806Y-31119D01*
X52711Y-30976D01*
X52568Y-30880D01*
X52400Y-30847D01*
X52231Y-30880D01*
X52088Y-30976D01*
X51993Y-31119D01*
X51960Y-31287D01*
X51960Y-31712D01*
X51993Y-31880D01*
X52088Y-32023D01*
X52192Y-32092D01*
X50490Y-33795D01*
X50490Y-32622D01*
X50415Y-32442D01*
X50277Y-32304D01*
X50097Y-32230D01*
X49902Y-32229D01*
X49722Y-32304D01*
X49584Y-32442D01*
X49510Y-32622D01*
X49509Y-32817D01*
X49584Y-32997D01*
X49722Y-33135D01*
X49902Y-33209D01*
X50097Y-33210D01*
X50277Y-33135D01*
X50415Y-32997D01*
X50489Y-32817D01*
X50490Y-32622D01*
X50490Y-33795D01*
X48872Y-35412D01*
X48833Y-35471D01*
X48819Y-35540D01*
X48819Y-40406D01*
X48777Y-40364D01*
X48597Y-40290D01*
X48590Y-40290D01*
X48590Y-36633D01*
X48500Y-36416D01*
X48490Y-36405D01*
X48490Y-32622D01*
X48415Y-32442D01*
X48277Y-32304D01*
X48097Y-32230D01*
X47902Y-32229D01*
X47722Y-32304D01*
X47584Y-32442D01*
X47510Y-32622D01*
X47509Y-32817D01*
X47584Y-32997D01*
X47722Y-33135D01*
X47902Y-33209D01*
X48097Y-33210D01*
X48277Y-33135D01*
X48415Y-32997D01*
X48489Y-32817D01*
X48490Y-32622D01*
X48490Y-36405D01*
X48334Y-36250D01*
X48117Y-36160D01*
X47883Y-36159D01*
X47666Y-36249D01*
X47500Y-36415D01*
X47410Y-36632D01*
X47409Y-36866D01*
X47499Y-37083D01*
X47665Y-37249D01*
X47882Y-37339D01*
X48116Y-37340D01*
X48333Y-37250D01*
X48499Y-37084D01*
X48589Y-36867D01*
X48590Y-36633D01*
X48590Y-40290D01*
X48402Y-40289D01*
X48222Y-40364D01*
X48084Y-40502D01*
X48010Y-40682D01*
X48009Y-40877D01*
X48084Y-41057D01*
X48222Y-41195D01*
X48402Y-41269D01*
X48597Y-41270D01*
X48777Y-41195D01*
X48819Y-41152D01*
X48819Y-41586D01*
X48372Y-42033D01*
X48333Y-42092D01*
X48320Y-42161D01*
X48320Y-43848D01*
X48251Y-43876D01*
X48127Y-44000D01*
X48060Y-44162D01*
X48059Y-44337D01*
X48126Y-44498D01*
X48250Y-44622D01*
X48412Y-44689D01*
X48587Y-44690D01*
X48748Y-44623D01*
X48790Y-44582D01*
X48790Y-44760D01*
X48806Y-44844D01*
X48854Y-44915D01*
X49072Y-45133D01*
X49060Y-45162D01*
X49059Y-45337D01*
X49126Y-45498D01*
X49250Y-45622D01*
X49412Y-45689D01*
X49587Y-45690D01*
X49748Y-45623D01*
X49872Y-45499D01*
X49939Y-45337D01*
X49940Y-45162D01*
X49873Y-45001D01*
X49749Y-44877D01*
X49587Y-44810D01*
X49412Y-44809D01*
X49383Y-44822D01*
X49230Y-44669D01*
X49230Y-44602D01*
X49250Y-44622D01*
X49412Y-44689D01*
X49587Y-44690D01*
X49748Y-44623D01*
X49872Y-44499D01*
X49939Y-44337D01*
X49940Y-44162D01*
X49911Y-44093D01*
X50127Y-43877D01*
X50127Y-43877D01*
X50160Y-43828D01*
X50160Y-46509D01*
X49972Y-46509D01*
X49920Y-46531D01*
X49881Y-46570D01*
X49860Y-46622D01*
X49859Y-46677D01*
X49859Y-47177D01*
X49881Y-47229D01*
X49920Y-47268D01*
X49972Y-47289D01*
X50027Y-47290D01*
X51027Y-47290D01*
X51079Y-47268D01*
X51118Y-47229D01*
X51139Y-47177D01*
X51140Y-47122D01*
X51140Y-46622D01*
X51118Y-46570D01*
X51079Y-46531D01*
X51027Y-46510D01*
X50972Y-46509D01*
X50840Y-46509D01*
X50840Y-41132D01*
X50915Y-41057D01*
X50989Y-40877D01*
X50990Y-40682D01*
X50915Y-40502D01*
X50777Y-40364D01*
X50597Y-40290D01*
X50402Y-40289D01*
X50222Y-40364D01*
X50180Y-40407D01*
X50180Y-38003D01*
X52887Y-35296D01*
X52926Y-35237D01*
X52939Y-35168D01*
X52939Y-32854D01*
X53527Y-32267D01*
X53527Y-32267D01*
X53553Y-32228D01*
X53566Y-32209D01*
X53566Y-32209D01*
X53579Y-32140D01*
X53580Y-32140D01*
X53580Y-32111D01*
X53711Y-32023D01*
X53806Y-31880D01*
X53840Y-31712D01*
X53840Y-33109D01*
X53283Y-33109D01*
X53231Y-33131D01*
X53192Y-33170D01*
X53171Y-33222D01*
X53170Y-33277D01*
X53170Y-34277D01*
X53192Y-34329D01*
X53231Y-34368D01*
X53283Y-34389D01*
X53338Y-34390D01*
X53470Y-34390D01*
X53470Y-35548D01*
X53059Y-35960D01*
X52893Y-35959D01*
X52694Y-36041D01*
X52542Y-36193D01*
X52460Y-36392D01*
X52459Y-36606D01*
X52541Y-36805D01*
X52693Y-36957D01*
X52892Y-37039D01*
X53106Y-37040D01*
X53305Y-36958D01*
X53457Y-36806D01*
X53539Y-36607D01*
X53540Y-36440D01*
X54051Y-35929D01*
X54051Y-35929D01*
X54100Y-35855D01*
X54125Y-35819D01*
X54125Y-35819D01*
X54150Y-35689D01*
X54150Y-35689D01*
X54150Y-34390D01*
X54338Y-34390D01*
X54390Y-34368D01*
X54429Y-34329D01*
X54450Y-34277D01*
X54451Y-34222D01*
X54451Y-38586D01*
X52240Y-40796D01*
X52240Y-38643D01*
X52097Y-38298D01*
X51833Y-38033D01*
X51487Y-37890D01*
X51113Y-37889D01*
X50768Y-38032D01*
X50503Y-38296D01*
X50360Y-38642D01*
X50359Y-39016D01*
X50502Y-39361D01*
X50766Y-39626D01*
X51112Y-39769D01*
X51486Y-39770D01*
X51831Y-39627D01*
X52096Y-39363D01*
X52239Y-39017D01*
X52240Y-38643D01*
X52240Y-40796D01*
X52005Y-41031D01*
X51966Y-41090D01*
X51952Y-41159D01*
X51952Y-45802D01*
X51865Y-45889D01*
X51817Y-46004D01*
X51817Y-46130D01*
X51865Y-46245D01*
X51953Y-46334D01*
X52069Y-46382D01*
X52194Y-46382D01*
X52310Y-46334D01*
X52399Y-46246D01*
X52447Y-46130D01*
X52447Y-46005D01*
X52399Y-45889D01*
X52312Y-45802D01*
X52312Y-41233D01*
X57527Y-36018D01*
X57566Y-35960D01*
X57580Y-35891D01*
X57580Y-32140D01*
X57580Y-32111D01*
X57711Y-32023D01*
X57806Y-31880D01*
X57840Y-31712D01*
X57840Y-40405D01*
X55233Y-43012D01*
X55107Y-42960D01*
X54893Y-42959D01*
X54694Y-43041D01*
X54542Y-43193D01*
X54499Y-43296D01*
X54458Y-43194D01*
X54306Y-43042D01*
X54107Y-42960D01*
X53893Y-42959D01*
X53694Y-43041D01*
X53542Y-43193D01*
X53540Y-43199D01*
X53540Y-43072D01*
X53518Y-43020D01*
X53479Y-42981D01*
X53427Y-42960D01*
X53372Y-42959D01*
X52572Y-42959D01*
X52520Y-42981D01*
X52481Y-43020D01*
X52460Y-43072D01*
X52459Y-43127D01*
X52459Y-43927D01*
X52481Y-43979D01*
X52520Y-44018D01*
X52572Y-44039D01*
X52609Y-44040D01*
X52609Y-45276D01*
X52635Y-45406D01*
X52709Y-45517D01*
X52882Y-45690D01*
X52882Y-45690D01*
X52992Y-45764D01*
X52992Y-45764D01*
X53014Y-45768D01*
X53122Y-45790D01*
X54500Y-45790D01*
X54630Y-45764D01*
X54740Y-45690D01*
X54814Y-45580D01*
X54837Y-45462D01*
X54837Y-46828D01*
X54344Y-47321D01*
X54296Y-47393D01*
X54280Y-47477D01*
X54280Y-47669D01*
X54280Y-47709D01*
X54222Y-47709D01*
X54170Y-47731D01*
X54131Y-47770D01*
X54110Y-47822D01*
X54109Y-47877D01*
X54109Y-48677D01*
X54131Y-48729D01*
X54170Y-48768D01*
X54222Y-48789D01*
X54277Y-48790D01*
X54777Y-48790D01*
X54829Y-48768D01*
X54868Y-48729D01*
X54889Y-48677D01*
X54890Y-48622D01*
X54890Y-47822D01*
X54868Y-47770D01*
X54829Y-47731D01*
X54777Y-47710D01*
X54722Y-47709D01*
X54720Y-47709D01*
X54720Y-47669D01*
X54720Y-47568D01*
X55148Y-47139D01*
X57869Y-47139D01*
X60112Y-49382D01*
X60000Y-49359D01*
X56771Y-49359D01*
X56771Y-47485D01*
X56746Y-47355D01*
X56672Y-47245D01*
X56562Y-47171D01*
X56431Y-47145D01*
X56301Y-47171D01*
X56244Y-47209D01*
X55500Y-47209D01*
X55369Y-47235D01*
X55259Y-47309D01*
X55185Y-47419D01*
X55160Y-47549D01*
X55160Y-47742D01*
X55131Y-47770D01*
X55110Y-47822D01*
X55109Y-47877D01*
X55109Y-48677D01*
X55131Y-48729D01*
X55170Y-48768D01*
X55222Y-48789D01*
X55277Y-48790D01*
X55777Y-48790D01*
X55829Y-48768D01*
X55868Y-48729D01*
X55889Y-48677D01*
X55890Y-48622D01*
X55890Y-47889D01*
X56367Y-47889D01*
X56367Y-47889D01*
X56497Y-47864D01*
X56608Y-47790D01*
X56672Y-47726D01*
X56746Y-47615D01*
X56771Y-47485D01*
X56771Y-49359D01*
X53890Y-49359D01*
X53890Y-48622D01*
X53890Y-47822D01*
X53868Y-47770D01*
X53829Y-47731D01*
X53777Y-47710D01*
X53722Y-47709D01*
X53222Y-47709D01*
X53170Y-47731D01*
X53131Y-47770D01*
X53110Y-47822D01*
X53109Y-47877D01*
X53109Y-48677D01*
X53131Y-48729D01*
X53170Y-48768D01*
X53222Y-48789D01*
X53277Y-48790D01*
X53777Y-48790D01*
X53829Y-48768D01*
X53868Y-48729D01*
X53889Y-48677D01*
X53890Y-48622D01*
X53890Y-49359D01*
X51690Y-49359D01*
X50840Y-48509D01*
X50840Y-48490D01*
X51027Y-48490D01*
X51079Y-48468D01*
X51118Y-48429D01*
X51139Y-48377D01*
X51140Y-48322D01*
X51140Y-47822D01*
X51118Y-47770D01*
X51079Y-47731D01*
X51027Y-47710D01*
X50972Y-47709D01*
X49972Y-47709D01*
X49920Y-47731D01*
X49891Y-47760D01*
X49699Y-47760D01*
X49591Y-47781D01*
X49569Y-47785D01*
X49459Y-47859D01*
X49409Y-47910D01*
X48874Y-47910D01*
X48786Y-47822D01*
X48600Y-47745D01*
X48399Y-47744D01*
X48214Y-47821D01*
X48072Y-47963D01*
X47999Y-48137D01*
X47928Y-47964D01*
X47786Y-47822D01*
X47600Y-47745D01*
X47399Y-47744D01*
X47214Y-47821D01*
X47072Y-47963D01*
X47005Y-48125D01*
X47005Y-47857D01*
X46983Y-47805D01*
X46944Y-47766D01*
X46892Y-47745D01*
X46837Y-47744D01*
X46740Y-47744D01*
X46740Y-46103D01*
X46740Y-42103D01*
X46627Y-41831D01*
X46490Y-41693D01*
X46490Y-32622D01*
X46415Y-32442D01*
X46277Y-32304D01*
X46097Y-32230D01*
X45902Y-32229D01*
X45722Y-32304D01*
X45584Y-32442D01*
X45510Y-32622D01*
X45509Y-32817D01*
X45584Y-32997D01*
X45722Y-33135D01*
X45902Y-33209D01*
X46097Y-33210D01*
X46277Y-33135D01*
X46415Y-32997D01*
X46489Y-32817D01*
X46490Y-32622D01*
X46490Y-41693D01*
X46419Y-41623D01*
X46147Y-41510D01*
X45853Y-41509D01*
X45640Y-41598D01*
X45640Y-38643D01*
X45640Y-34483D01*
X45497Y-34138D01*
X45233Y-33873D01*
X44887Y-33730D01*
X44513Y-33729D01*
X44168Y-33872D01*
X43903Y-34136D01*
X43760Y-34482D01*
X43759Y-34856D01*
X43902Y-35201D01*
X44166Y-35466D01*
X44512Y-35609D01*
X44886Y-35610D01*
X45231Y-35467D01*
X45496Y-35203D01*
X45639Y-34857D01*
X45640Y-34483D01*
X45640Y-38643D01*
X45497Y-38298D01*
X45233Y-38033D01*
X44887Y-37890D01*
X44513Y-37889D01*
X44168Y-38032D01*
X43903Y-38296D01*
X43760Y-38642D01*
X43759Y-39016D01*
X43902Y-39361D01*
X44166Y-39626D01*
X44512Y-39769D01*
X44886Y-39770D01*
X45231Y-39627D01*
X45496Y-39363D01*
X45639Y-39017D01*
X45640Y-38643D01*
X45640Y-41598D01*
X45581Y-41622D01*
X45373Y-41830D01*
X45260Y-42102D01*
X45259Y-42396D01*
X45372Y-42668D01*
X45580Y-42876D01*
X45852Y-42989D01*
X46146Y-42990D01*
X46418Y-42877D01*
X46626Y-42669D01*
X46739Y-42397D01*
X46740Y-42103D01*
X46740Y-46103D01*
X46627Y-45831D01*
X46419Y-45623D01*
X46147Y-45510D01*
X45853Y-45509D01*
X45581Y-45622D01*
X45373Y-45830D01*
X45260Y-46102D01*
X45259Y-46396D01*
X45372Y-46668D01*
X45580Y-46876D01*
X45852Y-46989D01*
X46146Y-46990D01*
X46418Y-46877D01*
X46626Y-46669D01*
X46739Y-46397D01*
X46740Y-46103D01*
X46740Y-47744D01*
X46107Y-47744D01*
X46055Y-47766D01*
X46016Y-47805D01*
X45995Y-47857D01*
X45994Y-47912D01*
X45994Y-48642D01*
X46016Y-48694D01*
X46055Y-48733D01*
X46107Y-48754D01*
X46162Y-48755D01*
X46892Y-48755D01*
X46944Y-48733D01*
X46983Y-48694D01*
X47004Y-48642D01*
X47005Y-48587D01*
X47005Y-48374D01*
X47071Y-48535D01*
X47213Y-48677D01*
X47280Y-48705D01*
X47280Y-48878D01*
X47244Y-48914D01*
X47196Y-48985D01*
X47180Y-49069D01*
X47180Y-49109D01*
X47122Y-49109D01*
X47070Y-49131D01*
X47031Y-49170D01*
X47010Y-49222D01*
X47009Y-49277D01*
X47009Y-50277D01*
X47031Y-50329D01*
X47070Y-50368D01*
X47122Y-50389D01*
X47177Y-50390D01*
X47677Y-50390D01*
X47729Y-50368D01*
X47768Y-50329D01*
X47789Y-50277D01*
X47790Y-50222D01*
X47790Y-49222D01*
X47768Y-49170D01*
X47729Y-49131D01*
X47677Y-49110D01*
X47665Y-49110D01*
X47703Y-49054D01*
X47703Y-49054D01*
X47719Y-48969D01*
X47720Y-48969D01*
X47720Y-48705D01*
X47785Y-48678D01*
X47927Y-48536D01*
X48000Y-48362D01*
X48071Y-48535D01*
X48160Y-48624D01*
X48160Y-48849D01*
X48185Y-48979D01*
X48259Y-49090D01*
X48260Y-49090D01*
X48260Y-49142D01*
X48231Y-49170D01*
X48210Y-49222D01*
X48209Y-49277D01*
X48209Y-50277D01*
X48231Y-50329D01*
X48270Y-50368D01*
X48322Y-50389D01*
X48377Y-50390D01*
X48877Y-50390D01*
X48929Y-50368D01*
X48968Y-50329D01*
X48989Y-50277D01*
X48990Y-50222D01*
X48990Y-49222D01*
X48968Y-49170D01*
X48940Y-49141D01*
X48940Y-48949D01*
X48918Y-48841D01*
X48914Y-48819D01*
X48914Y-48819D01*
X48840Y-48709D01*
X48840Y-48709D01*
X48840Y-48709D01*
X48840Y-48624D01*
X48874Y-48590D01*
X49549Y-48590D01*
X49549Y-48589D01*
X49679Y-48564D01*
X49790Y-48490D01*
X49840Y-48440D01*
X49892Y-48440D01*
X49920Y-48468D01*
X49972Y-48489D01*
X50027Y-48490D01*
X50160Y-48490D01*
X50160Y-48650D01*
X50185Y-48780D01*
X50259Y-48890D01*
X51309Y-49940D01*
X51419Y-50014D01*
X51549Y-50039D01*
X55646Y-50039D01*
X55593Y-50119D01*
X55560Y-50287D01*
X55560Y-50712D01*
X55593Y-50880D01*
X55688Y-51023D01*
X55831Y-51119D01*
X56000Y-51152D01*
X56168Y-51119D01*
X56311Y-51023D01*
X56406Y-50880D01*
X56440Y-50712D01*
X56440Y-50287D01*
X56406Y-50119D01*
X56353Y-50039D01*
X56646Y-50039D01*
X56593Y-50119D01*
X56560Y-50287D01*
X56560Y-50712D01*
X56593Y-50880D01*
X56688Y-51023D01*
X56831Y-51119D01*
X57000Y-51152D01*
X57168Y-51119D01*
X57311Y-51023D01*
X57406Y-50880D01*
X57440Y-50712D01*
X57440Y-50287D01*
X57406Y-50119D01*
X57353Y-50039D01*
X57646Y-50039D01*
X57593Y-50119D01*
X57560Y-50287D01*
X57560Y-50712D01*
X57593Y-50880D01*
X57688Y-51023D01*
X57831Y-51119D01*
X58000Y-51152D01*
X58168Y-51119D01*
X58311Y-51023D01*
X58406Y-50880D01*
X58440Y-50712D01*
X58440Y-50287D01*
X58406Y-50119D01*
X58353Y-50039D01*
X58646Y-50039D01*
X58593Y-50119D01*
X58560Y-50287D01*
X58560Y-50712D01*
X58593Y-50880D01*
X58688Y-51023D01*
X58831Y-51119D01*
X59000Y-51152D01*
X59168Y-51119D01*
X59311Y-51023D01*
X59406Y-50880D01*
X59440Y-50712D01*
X59440Y-50287D01*
X59406Y-50119D01*
X59353Y-50039D01*
X59646Y-50039D01*
X59593Y-50119D01*
X59560Y-50287D01*
X59560Y-50712D01*
X59593Y-50880D01*
X59688Y-51023D01*
X59831Y-51119D01*
X60000Y-51152D01*
X60168Y-51119D01*
X60311Y-51023D01*
X60406Y-50880D01*
X60440Y-50712D01*
X60440Y-50287D01*
X60406Y-50119D01*
X60340Y-50019D01*
X60340Y-49699D01*
X60317Y-49587D01*
X60699Y-49969D01*
X60688Y-49976D01*
X60593Y-50119D01*
X60560Y-50287D01*
X60560Y-50712D01*
X60593Y-50880D01*
X60688Y-51023D01*
X60831Y-51119D01*
X61000Y-51152D01*
X61168Y-51119D01*
X61311Y-51023D01*
X61406Y-50880D01*
X61440Y-50712D01*
X61440Y-50287D01*
X61406Y-50119D01*
X61311Y-49976D01*
X61223Y-49917D01*
X62155Y-48985D01*
X62155Y-48985D01*
X62203Y-48914D01*
X62219Y-48830D01*
X62220Y-48830D01*
X62220Y-48790D01*
X62277Y-48790D01*
X62329Y-48768D01*
X62368Y-48729D01*
X62389Y-48677D01*
X62390Y-48622D01*
X62390Y-47822D01*
X62368Y-47770D01*
X62329Y-47731D01*
X62277Y-47710D01*
X62222Y-47709D01*
X61722Y-47709D01*
X61670Y-47731D01*
X61631Y-47770D01*
X61610Y-47822D01*
X61609Y-47877D01*
X61609Y-48677D01*
X61631Y-48729D01*
X61670Y-48768D01*
X61722Y-48789D01*
X61729Y-48789D01*
X61390Y-49128D01*
X61390Y-48622D01*
X61390Y-47822D01*
X61368Y-47770D01*
X61329Y-47731D01*
X61277Y-47710D01*
X61222Y-47709D01*
X60722Y-47709D01*
X60670Y-47731D01*
X60631Y-47770D01*
X60610Y-47822D01*
X60609Y-47877D01*
X60609Y-48677D01*
X60631Y-48729D01*
X60670Y-48768D01*
X60722Y-48789D01*
X60777Y-48790D01*
X61277Y-48790D01*
X61329Y-48768D01*
X61368Y-48729D01*
X61389Y-48677D01*
X61390Y-48622D01*
X61390Y-49128D01*
X60935Y-49583D01*
X58116Y-46764D01*
X58045Y-46716D01*
X57961Y-46699D01*
X55990Y-46699D01*
X55990Y-45197D01*
X55990Y-44870D01*
X55930Y-44810D01*
X55560Y-44810D01*
X55560Y-45330D01*
X55620Y-45390D01*
X55702Y-45390D01*
X55797Y-45389D01*
X55886Y-45353D01*
X55953Y-45285D01*
X55990Y-45197D01*
X55990Y-46699D01*
X55277Y-46699D01*
X55277Y-45390D01*
X55297Y-45390D01*
X55380Y-45390D01*
X55440Y-45330D01*
X55440Y-44810D01*
X55432Y-44810D01*
X55432Y-44690D01*
X55440Y-44690D01*
X55440Y-44682D01*
X55560Y-44682D01*
X55560Y-44690D01*
X55930Y-44690D01*
X55990Y-44630D01*
X55990Y-44302D01*
X55953Y-44214D01*
X55886Y-44146D01*
X55797Y-44110D01*
X55702Y-44109D01*
X55701Y-44109D01*
X55806Y-44004D01*
X55892Y-44039D01*
X56106Y-44040D01*
X56305Y-43958D01*
X56457Y-43806D01*
X56539Y-43607D01*
X56540Y-43393D01*
X56458Y-43194D01*
X56306Y-43042D01*
X56107Y-42960D01*
X55893Y-42959D01*
X55725Y-43029D01*
X60025Y-38729D01*
X60064Y-38670D01*
X60078Y-38601D01*
X60078Y-36841D01*
X60193Y-36957D01*
X60392Y-37039D01*
X60606Y-37040D01*
X60805Y-36958D01*
X60957Y-36806D01*
X61039Y-36607D01*
X61040Y-36393D01*
X60958Y-36194D01*
X60806Y-36042D01*
X60607Y-35960D01*
X60393Y-35959D01*
X60194Y-36041D01*
X60078Y-36158D01*
X60078Y-32976D01*
X61027Y-32027D01*
X61059Y-31979D01*
X61088Y-32023D01*
X61220Y-32111D01*
X61220Y-32140D01*
X61233Y-32209D01*
X61272Y-32267D01*
X61844Y-32838D01*
X61844Y-33112D01*
X61838Y-33110D01*
X61783Y-33109D01*
X60783Y-33109D01*
X60731Y-33131D01*
X60692Y-33170D01*
X60671Y-33222D01*
X60670Y-33277D01*
X60670Y-34277D01*
X60692Y-34329D01*
X60731Y-34368D01*
X60783Y-34389D01*
X60838Y-34390D01*
X61838Y-34390D01*
X61844Y-34387D01*
X61844Y-43024D01*
X61857Y-43093D01*
X61860Y-43096D01*
X61806Y-43042D01*
X61607Y-42960D01*
X61393Y-42959D01*
X61194Y-43041D01*
X61042Y-43193D01*
X61040Y-43199D01*
X61040Y-43072D01*
X61018Y-43020D01*
X60979Y-42981D01*
X60927Y-42960D01*
X60872Y-42959D01*
X60072Y-42959D01*
X60020Y-42981D01*
X59981Y-43020D01*
X59960Y-43072D01*
X59959Y-43127D01*
X59959Y-43927D01*
X59981Y-43979D01*
X60020Y-44018D01*
X60072Y-44039D01*
X60109Y-44040D01*
X60109Y-45290D01*
X60135Y-45420D01*
X60209Y-45531D01*
X60368Y-45690D01*
X60368Y-45690D01*
X60442Y-45739D01*
X60479Y-45764D01*
X60479Y-45764D01*
X60609Y-45790D01*
X62000Y-45790D01*
X62130Y-45764D01*
X62240Y-45690D01*
X62314Y-45580D01*
X62340Y-45450D01*
X62340Y-45257D01*
X62368Y-45229D01*
X62389Y-45177D01*
X62390Y-45122D01*
X62390Y-44322D01*
X62368Y-44270D01*
X62329Y-44231D01*
X62277Y-44210D01*
X62222Y-44209D01*
X61722Y-44209D01*
X61670Y-44231D01*
X61631Y-44270D01*
X61610Y-44322D01*
X61609Y-44377D01*
X61609Y-45110D01*
X61390Y-45110D01*
X61390Y-44322D01*
X61368Y-44270D01*
X61329Y-44231D01*
X61277Y-44210D01*
X61222Y-44209D01*
X60789Y-44209D01*
X60789Y-44040D01*
X60927Y-44040D01*
X60979Y-44018D01*
X61018Y-43979D01*
X61039Y-43927D01*
X61040Y-43872D01*
X61040Y-43800D01*
X61041Y-43805D01*
X61193Y-43957D01*
X61392Y-44039D01*
X61606Y-44040D01*
X61805Y-43958D01*
X61957Y-43806D01*
X62000Y-43703D01*
X62041Y-43805D01*
X62193Y-43957D01*
X62392Y-44039D01*
X62606Y-44040D01*
X62805Y-43958D01*
X62957Y-43806D01*
X63000Y-43703D01*
X63041Y-43805D01*
X63193Y-43957D01*
X63392Y-44039D01*
X63606Y-44040D01*
X63660Y-44017D01*
X65628Y-45985D01*
X65628Y-45985D01*
X65699Y-46033D01*
X65784Y-46050D01*
X69280Y-46050D01*
X69280Y-47669D01*
X69280Y-47709D01*
X69222Y-47709D01*
X69170Y-47731D01*
X69131Y-47770D01*
X69110Y-47822D01*
X69109Y-47877D01*
X69109Y-48677D01*
X69131Y-48729D01*
X69170Y-48768D01*
X69222Y-48789D01*
X69277Y-48790D01*
X69777Y-48790D01*
X69829Y-48768D01*
X69868Y-48729D01*
X69889Y-48677D01*
X69890Y-48622D01*
X69890Y-47822D01*
X69868Y-47770D01*
X69829Y-47731D01*
X69777Y-47710D01*
X69722Y-47709D01*
X69720Y-47709D01*
X69720Y-47669D01*
X69720Y-46038D01*
X69745Y-46033D01*
X69745Y-46033D01*
X69816Y-45985D01*
X70085Y-45717D01*
X70085Y-45717D01*
X70133Y-45645D01*
X70150Y-45561D01*
X70150Y-45561D01*
X70150Y-45368D01*
X70202Y-45389D01*
X70297Y-45390D01*
X70380Y-45390D01*
X70440Y-45330D01*
X70440Y-44810D01*
X70432Y-44810D01*
X70432Y-44690D01*
X70440Y-44690D01*
X70440Y-44682D01*
X70560Y-44682D01*
X70560Y-44690D01*
X70930Y-44690D01*
X70990Y-44630D01*
X70990Y-44302D01*
X70953Y-44214D01*
X70886Y-44146D01*
X70797Y-44110D01*
X70702Y-44109D01*
X70701Y-44109D01*
X70806Y-44004D01*
X70892Y-44039D01*
X71106Y-44040D01*
X71305Y-43958D01*
X71457Y-43806D01*
X71539Y-43607D01*
X71540Y-43393D01*
X71504Y-43306D01*
X72369Y-42441D01*
X72417Y-42369D01*
X72417Y-42369D01*
X72434Y-42285D01*
X72434Y-42285D01*
X72434Y-38688D01*
X76774Y-43029D01*
X76607Y-42960D01*
X76393Y-42959D01*
X76194Y-43041D01*
X76042Y-43193D01*
X76040Y-43199D01*
X76040Y-43072D01*
X76018Y-43020D01*
X75979Y-42981D01*
X75927Y-42960D01*
X75872Y-42959D01*
X75072Y-42959D01*
X75020Y-42981D01*
X74981Y-43020D01*
X74960Y-43072D01*
X74959Y-43127D01*
X74959Y-43927D01*
X74981Y-43979D01*
X75020Y-44018D01*
X75072Y-44039D01*
X75109Y-44040D01*
X75109Y-45276D01*
X75135Y-45406D01*
X75209Y-45517D01*
X75382Y-45690D01*
X75382Y-45690D01*
X75492Y-45764D01*
X75492Y-45764D01*
X75514Y-45768D01*
X75622Y-45790D01*
X77000Y-45790D01*
X77130Y-45764D01*
X77210Y-45710D01*
X77210Y-47148D01*
X76844Y-47514D01*
X76796Y-47585D01*
X76780Y-47669D01*
X76780Y-47709D01*
X76722Y-47709D01*
X76670Y-47731D01*
X76631Y-47770D01*
X76610Y-47822D01*
X76609Y-47877D01*
X76609Y-48677D01*
X76631Y-48729D01*
X76670Y-48768D01*
X76722Y-48789D01*
X76777Y-48790D01*
X77277Y-48790D01*
X77329Y-48768D01*
X77368Y-48729D01*
X77389Y-48677D01*
X77390Y-48622D01*
X77390Y-47822D01*
X77368Y-47770D01*
X77329Y-47731D01*
X77277Y-47710D01*
X77270Y-47710D01*
X77585Y-47395D01*
X77633Y-47323D01*
X77633Y-47323D01*
X77650Y-47239D01*
X77650Y-47239D01*
X77650Y-45368D01*
X77702Y-45389D01*
X77797Y-45390D01*
X77880Y-45390D01*
X77940Y-45330D01*
X77940Y-44810D01*
X77932Y-44810D01*
X77932Y-44690D01*
X77940Y-44690D01*
X77940Y-44682D01*
X78060Y-44682D01*
X78060Y-44690D01*
X78430Y-44690D01*
X78490Y-44630D01*
X78490Y-44302D01*
X78453Y-44214D01*
X78386Y-44146D01*
X78297Y-44110D01*
X78202Y-44109D01*
X78201Y-44109D01*
X78306Y-44004D01*
X78392Y-44039D01*
X78606Y-44040D01*
X78805Y-43958D01*
X78957Y-43806D01*
X79039Y-43607D01*
X79040Y-43393D01*
X79040Y-36393D01*
X78958Y-36194D01*
X78806Y-36042D01*
X78607Y-35960D01*
X78440Y-35959D01*
X78029Y-35548D01*
X78029Y-34301D01*
X78051Y-34292D01*
X78231Y-34113D01*
X78328Y-33877D01*
X78329Y-33623D01*
X78231Y-33387D01*
X78052Y-33207D01*
X77816Y-33110D01*
X77562Y-33109D01*
X77326Y-33207D01*
X77146Y-33386D01*
X77049Y-33622D01*
X77048Y-33876D01*
X77146Y-34112D01*
X77325Y-34292D01*
X77349Y-34301D01*
X77349Y-35689D01*
X77374Y-35819D01*
X77448Y-35929D01*
X77960Y-36440D01*
X77959Y-36606D01*
X78041Y-36805D01*
X78193Y-36957D01*
X78392Y-37039D01*
X78606Y-37040D01*
X78805Y-36958D01*
X78957Y-36806D01*
X79039Y-36607D01*
X79040Y-36393D01*
X79040Y-43393D01*
X78958Y-43194D01*
X78806Y-43042D01*
X78607Y-42960D01*
X78393Y-42959D01*
X78194Y-43041D01*
X78042Y-43193D01*
X77999Y-43296D01*
X77958Y-43194D01*
X77806Y-43042D01*
X77607Y-42960D01*
X77393Y-42959D01*
X77266Y-43012D01*
X76951Y-42696D01*
X76951Y-34222D01*
X76951Y-33222D01*
X76929Y-33170D01*
X76890Y-33131D01*
X76838Y-33110D01*
X76783Y-33109D01*
X75783Y-33109D01*
X75731Y-33131D01*
X75692Y-33170D01*
X75671Y-33222D01*
X75670Y-33277D01*
X75670Y-34277D01*
X75692Y-34329D01*
X75731Y-34368D01*
X75783Y-34389D01*
X75838Y-34390D01*
X75970Y-34390D01*
X75970Y-35548D01*
X75559Y-35960D01*
X75393Y-35959D01*
X75194Y-36041D01*
X75042Y-36193D01*
X74960Y-36392D01*
X74959Y-36606D01*
X75041Y-36805D01*
X75193Y-36957D01*
X75392Y-37039D01*
X75606Y-37040D01*
X75805Y-36958D01*
X75957Y-36806D01*
X76039Y-36607D01*
X76040Y-36440D01*
X76551Y-35929D01*
X76551Y-35929D01*
X76600Y-35855D01*
X76625Y-35819D01*
X76625Y-35819D01*
X76650Y-35689D01*
X76650Y-35689D01*
X76650Y-34390D01*
X76838Y-34390D01*
X76890Y-34368D01*
X76929Y-34329D01*
X76950Y-34277D01*
X76951Y-34222D01*
X76951Y-42696D01*
X72720Y-38465D01*
X72720Y-33206D01*
X72720Y-33206D01*
X72706Y-33137D01*
X72706Y-33137D01*
X72693Y-33118D01*
X72667Y-33079D01*
X72667Y-33079D01*
X72440Y-32851D01*
X72440Y-31712D01*
X72440Y-31287D01*
X72406Y-31119D01*
X72311Y-30976D01*
X72168Y-30880D01*
X72000Y-30847D01*
X71831Y-30880D01*
X71688Y-30976D01*
X71593Y-31119D01*
X71560Y-31287D01*
X71560Y-31712D01*
X71593Y-31880D01*
X71688Y-32023D01*
X71831Y-32119D01*
X72000Y-32152D01*
X72168Y-32119D01*
X72311Y-32023D01*
X72406Y-31880D01*
X72440Y-31712D01*
X72440Y-32851D01*
X70253Y-30665D01*
X80124Y-30665D01*
X79982Y-30723D01*
X79724Y-30981D01*
X79585Y-31317D01*
X79584Y-31681D01*
X79723Y-32017D01*
X79981Y-32275D01*
X80317Y-32414D01*
X80681Y-32415D01*
X81017Y-32276D01*
X81275Y-32018D01*
X81414Y-31682D01*
X81415Y-31318D01*
X81276Y-30982D01*
X81018Y-30724D01*
X80875Y-30665D01*
X89335Y-30665D01*
X89335Y-51335D01*
M02*
