M48
;DRILL file {Pcbnew (2013-jul-07)-stable} date Tue 08 Jul 2014 03:32:42 PM EDT
;FORMAT={-:-/ absolute / inch / decimal}
FMAT,2
INCH,TZ
T1C0.025
T2C0.035
T3C0.039
T4C0.040
T5C0.043
T6C0.045
T7C0.047
T8C0.054
T9C0.063
T10C0.064
T11C0.079
T12C0.106
T13C0.110
T14C0.124
T15C0.130
%
G90
G05
M72
T1
X5.2132Y-4.6068
X5.6002Y-4.5952
X5.6432Y-4.7486
X6.3395Y-4.7275
X6.4397Y-3.5149
X6.4703Y-3.2401
X6.5594Y-3.3427
X6.5793Y-4.5337
X7.1Y-4.225
X7.1638Y-4.711
X7.1831Y-4.765
X7.2214Y-3.375
X7.225Y-4.35
X7.3567Y-3.4517
X7.4865Y-3.2457
X7.8296Y-4.7386
T2
X4.85Y-4.425
X4.95Y-4.325
X4.95Y-4.425
X4.95Y-4.525
T3
X8.625Y-4.525
X8.625Y-4.625
X8.625Y-4.725
T4
X5.24Y-3.15
X5.34Y-3.15
X5.44Y-3.15
X5.54Y-3.15
X5.6Y-5.05
X5.64Y-3.15
X5.7Y-5.05
X5.74Y-3.15
X5.8Y-5.05
X5.84Y-3.15
X5.9Y-5.05
X5.94Y-3.15
X6.Y-5.05
X6.04Y-3.15
X6.1Y-5.05
X6.14Y-3.15
X6.2Y-5.05
X6.3Y-3.15
X6.3Y-5.05
X6.4Y-3.15
X6.5Y-3.15
X6.5Y-5.05
X6.6Y-3.15
X6.6Y-5.05
X6.7Y-3.15
X6.7Y-5.05
X6.8Y-3.15
X6.8Y-5.05
X6.9Y-3.15
X6.9Y-5.05
X7.Y-3.15
X7.Y-5.05
X7.1Y-5.05
X7.2Y-3.15
X7.2Y-5.05
X7.3Y-3.15
X7.4Y-3.15
X7.4Y-5.05
X7.5Y-3.15
X7.5Y-5.05
X7.6Y-3.15
X7.6Y-5.05
X7.7Y-3.15
X7.7Y-5.05
X7.8Y-3.15
X7.8Y-5.05
X7.9Y-3.15
X7.9Y-5.05
X8.Y-5.05
X8.1Y-5.05
X8.2Y-3.15
X8.2Y-3.25
X8.2Y-3.35
X8.2Y-3.45
X8.2Y-3.55
X8.2Y-3.65
X8.2Y-3.75
X8.2Y-3.85
X8.2Y-3.95
X8.2Y-4.05
X8.2Y-4.15
X8.2Y-4.25
X8.2Y-4.35
X8.2Y-4.45
X8.2Y-4.55
X8.2Y-4.65
X8.2Y-4.75
X8.2Y-4.85
X8.3Y-3.15
X8.3Y-3.25
X8.3Y-3.35
X8.3Y-3.45
X8.3Y-3.55
X8.3Y-3.65
X8.3Y-3.75
X8.3Y-3.85
X8.3Y-3.95
X8.3Y-4.05
X8.3Y-4.15
X8.3Y-4.25
X8.3Y-4.35
X8.3Y-4.45
X8.3Y-4.55
X8.3Y-4.65
X8.3Y-4.75
X8.3Y-4.85
T5
X4.65Y-4.825
X4.75Y-4.825
X4.85Y-4.825
X8.575Y-3.4
X8.675Y-3.4
T6
X4.6Y-3.272
X4.8Y-3.272
X4.85Y-4.078
X4.95Y-4.078
X5.Y-3.272
X5.05Y-4.078
T7
X5.3811Y-3.375
X5.5189Y-3.375
X6.1311Y-3.375
X6.2689Y-3.375
X6.8811Y-3.375
X7.0189Y-3.375
X7.6311Y-3.375
X7.7689Y-3.375
T8
X5.3Y-3.65
X5.3Y-4.35
X5.4Y-4.35
X5.5Y-4.35
X5.6Y-3.65
X5.6Y-4.35
X6.05Y-3.65
X6.05Y-4.35
X6.15Y-4.35
X6.25Y-4.35
X6.35Y-3.65
X6.35Y-4.35
X6.8Y-3.65
X6.8Y-4.35
X6.9Y-4.35
X7.Y-4.35
X7.1Y-3.65
X7.1Y-4.35
X7.55Y-3.65
X7.55Y-4.35
X7.65Y-4.35
X7.75Y-4.35
X7.85Y-3.65
X7.85Y-4.35
T9
X8.832Y-4.1
T10
X4.8Y-3.675
T11
X4.6Y-4.225
X4.6Y-4.625
T12
X8.714Y-4.1
X8.753Y-3.923
X8.753Y-4.277
T13
X4.47Y-3.467
X4.47Y-3.883
X5.13Y-3.467
X5.13Y-3.883
T14
X8.478Y-4.1
T15
X5.05Y-5.05
X5.1Y-3.15
X8.05Y-3.15
X8.3Y-5.05
T0
M30
